<svg width="24" height="24" xmlns="http://www.w3.org/2000/svg" xmlns:xlink="http://www.w3.org/1999/xlink"><defs><path id="a" d="M0 0h24v24H0z"/></defs><g fill="none" fill-rule="evenodd"><mask id="b" fill="#fff"><use xlink:href="#a"/></mask><use fill="#8330FF" xlink:href="#a"/><path d="M7 9a3 3 0 0 1 .985 5.835c.01.053.015.108.015.165v9H6v-9c0-.057.005-.112.014-.166A3 3 0 0 1 7 9Z" fill="#F9FCFD" mask="url(#b)"/><path d="M17 15a3 3 0 0 1-.985-5.835A.879.879 0 0 1 16 9V0h2v9c0 .057-.005.112-.014.166A3 3 0 0 1 17 15Z" fill="#46ECA1" mask="url(#b)"/></g></svg>