<svg width="24" height="24" xmlns="http://www.w3.org/2000/svg"><g fill="none" fill-rule="evenodd"><path fill="#0000C2" d="M0 0h24v24H0z"/><path d="M21 18a3 3 0 0 1-5.829 1H5v-2h10.17A3.001 3.001 0 0 1 21 18Z" fill="#F2F3F8"/><path d="M6 21a3 3 0 0 1-1-5.829V5h2v10.17A3.001 3.001 0 0 1 6 21Z" fill="#46ECA1"/><path d="M3 6a3 3 0 0 1 5.829-1H19v2H8.83A3.001 3.001 0 0 1 3 6Z" fill="#F9FCFD"/><path d="M18 3a3 3 0 0 1 1 5.829v6.342a2.995 2.995 0 0 0-2 0V8.829A3.001 3.001 0 0 1 18 3Z" fill="#46ECA1"/></g></svg>