<?xml version="1.0" encoding="UTF-8"?>
<svg width="24px" height="24px" viewBox="0 0 24 24" version="1.1" xmlns="http://www.w3.org/2000/svg" xmlns:xlink="http://www.w3.org/1999/xlink">
    <title>Sensor Symbols / J</title>
    <g id="Sensor-Symbols-/-J" stroke="none" stroke-width="1" fill="none" fill-rule="evenodd">
        <rect id="Rectangle" fill="#0000C2" x="0" y="0" width="24" height="24"></rect>
        <circle id="Combined-Shape" fill="#0000C2" cx="18" cy="6" r="3"></circle>
        <path d="M6,3 C7.65685425,3 9,4.34314575 9,6 C9,7.31179956 8.15804382,8.42694971 6.98504733,8.83453458 C6.99530518,8.88798638 7,8.94344492 7,9 L7,20 C7,20.5522847 6.55228475,21 6,21 C5.44771525,21 5,20.5522847 5,20 L5,9 C5,8.94344492 5.00469482,8.88798638 5.01371599,8.83399285 C3.84195618,8.42694971 3,7.31179956 3,6 C3,4.34314575 4.34314575,3 6,3 Z" id="Combined-Shape" fill="#46ECA1" transform="translate(6.000000, 12.000000) rotate(-180.000000) translate(-6.000000, -12.000000) "></path>
        <path d="M12,-3 C13.6568542,-3 15,-1.65685425 15,8.83915163e-12 C15,1.31179956 14.1580438,2.42694971 12.9850473,2.83453458 C12.9953052,2.88798638 13,2.94344492 13,3 L13,14 C13,14.5522847 12.5522847,15 12,15 C11.4477153,15 11,14.5522847 11,14 L11,3 C11,2.94344492 11.0046948,2.88798638 11.013716,2.83399285 C9.84195618,2.42694971 9,1.31179956 9,8.83915163e-12 C9,-1.65685425 10.3431458,-3 12,-3 Z" id="Combined-Shape" fill="#F9FCFD" transform="translate(12.000000, 6.000000) rotate(-90.000000) translate(-12.000000, -6.000000) "></path>
        <g id="Group" transform="translate(14.914488, 12.000000) rotate(-180.000000) translate(-14.914488, -12.000000) translate(8.828976, 3.000000)">
            <path d="M3,0 C4.65685425,0 6,1.34314575 6,3 C6,4.31179956 5.15804382,5.42694971 3.98504733,5.83453458 C3.99530518,5.88798638 4,5.94344492 4,6 L4,17 C4,17.5522847 3.55228475,18 3,18 C2.44771525,18 2,17.5522847 2,17 L2,6 C2,5.94344492 2.00469482,5.88798638 2.01371599,5.83399285 C0.841956185,5.42694971 1.67043975e-12,4.31179956 1.67043975e-12,3 C1.67043975e-12,1.34314575 1.34314575,0 3,0 Z" id="Combined-Shape" fill="#46ECA1" transform="translate(3.000000, 9.000000) rotate(-180.000000) translate(-3.000000, -9.000000) "></path>
            <path d="M6.08551212,-3.08551212 C7.74236636,-3.08551212 9.08551212,-1.74236636 9.08551212,-0.085512115 C9.08551212,1.22628744 8.24355593,2.3414376 7.07055944,2.74902247 C7.08081729,2.80247427 7.08551212,2.85793281 7.08551212,2.91448788 L7.08641284,9.08551212 C6.77337941,8.97475766 6.43648414,8.91448788 6.08551212,8.91448788 C5.73490992,8.91448788 5.39835484,8.97463071 5.08560104,9.08516216 L5.08551212,2.91448788 C5.08551212,2.85793281 5.09020694,2.80247427 5.0992281,2.74848073 C3.9274683,2.3414376 3.08551212,1.22628744 3.08551212,-0.085512115 C3.08551212,-1.74236636 4.42865787,-3.08551212 6.08551212,-3.08551212 Z" id="Combined-Shape" fill="#F9FCFD" transform="translate(6.085512, 3.000000) rotate(-90.000000) translate(-6.085512, -3.000000) "></path>
        </g>
    </g>
</svg>