<svg width="24" height="24" xmlns="http://www.w3.org/2000/svg"><g fill="none" fill-rule="evenodd"><path fill="#0000C2" d="M0 0h24v24H0z"/><path d="M8.121 3.879a3.001 3.001 0 0 1 .58 3.429c.045.03.087.066.127.106l1.88 1.878a2.995 2.995 0 0 0-1.416 1.415L7.414 8.828a1.007 1.007 0 0 1-.107-.127A3 3 0 1 1 8.12 3.88Z" fill="#46ECA1"/><path d="M14.121 9.879a3.001 3.001 0 0 1 .58 3.429c.045.03.087.066.127.106l1.88 1.878a2.995 2.995 0 0 0-1.416 1.415l-1.878-1.879a1.007 1.007 0 0 1-.107-.127 3 3 0 1 1 .814-4.822Z" fill="#F2F3F8"/><circle fill="#46ECA1" cx="18" cy="18" r="3"/></g></svg>