<?xml version="1.0" encoding="UTF-8"?>
<svg width="24px" height="24px" viewBox="0 0 24 24" version="1.1" xmlns="http://www.w3.org/2000/svg" xmlns:xlink="http://www.w3.org/1999/xlink">
    <title>Sensor Symbols / K</title>
    <g id="Sensor-Symbols-/-K" stroke="none" stroke-width="1" fill="none" fill-rule="evenodd">
        <rect id="Rectangle" fill="#0000C2" x="0" y="0" width="24" height="24"></rect>
        <path d="M3.87867966,3.87867966 C5.05025253,2.70710678 6.94974747,2.70710678 8.12132034,3.87867966 C9.04890271,4.80626202 9.24208002,6.19014518 8.70085227,7.30778498 C8.7459018,7.33832771 8.78843665,7.37422308 8.82842712,7.41421356 L11.6066017,10.1923882 C11.997126,10.5829124 11.997126,11.2160774 11.6066017,11.6066017 C11.2160774,11.997126 10.5829124,11.997126 10.1923882,11.6066017 L7.41421356,8.82842712 C7.37422308,8.78843665 7.33832771,8.7459018 7.30652745,8.70134367 C6.19014518,9.24208002 4.80626202,9.04890271 3.87867966,8.12132034 C2.70710678,6.94974747 2.70710678,5.05025253 3.87867966,3.87867966 Z" id="Path" fill="#46ECA1"></path>
        <path d="M9.87867966,9.87867966 C11.0502525,8.70710678 12.9497475,8.70710678 14.1213203,9.87867966 C15.0489027,10.806262 15.24208,12.1901452 14.7008523,13.307785 C14.7459018,13.3383277 14.7884366,13.3742231 14.8284271,13.4142136 L17.6066017,16.1923882 C17.997126,16.5829124 17.997126,17.2160774 17.6066017,17.6066017 C17.2160774,17.997126 16.5829124,17.997126 16.1923882,17.6066017 L13.4142136,14.8284271 C13.3742231,14.7884366 13.3383277,14.7459018 13.3065274,14.7013437 C12.1901452,15.24208 10.806262,15.0489027 9.87867966,14.1213203 C8.70710678,12.9497475 8.70710678,11.0502525 9.87867966,9.87867966 Z" id="Path" fill="#F9FCFD"></path>
        <circle id="Combined-Shape" fill="#46ECA1" cx="18" cy="18" r="3"></circle>
    </g>
</svg>