<?xml version="1.0" encoding="UTF-8"?>
<svg width="24px" height="24px" viewBox="0 0 24 24" version="1.1" xmlns="http://www.w3.org/2000/svg" xmlns:xlink="http://www.w3.org/1999/xlink">
    <title>Sensor Symbols / L</title>
    <g id="Sensor-Symbols-/-L" stroke="none" stroke-width="1" fill="none" fill-rule="evenodd">
        <rect id="Rectangle" fill="#46ECA1" x="0" y="0" width="24" height="24"></rect>
        <path d="M3.87867966,3.87867966 C5.05025253,2.70710678 6.94974747,2.70710678 8.12132034,3.87867966 C9.04890271,4.80626202 9.24208002,6.19014518 8.70085227,7.30778498 C8.7459018,7.33832771 8.78843665,7.37422308 8.82842712,7.41421356 L11.6066017,10.1923882 C11.997126,10.5829124 11.997126,11.2160774 11.6066017,11.6066017 C11.2160774,11.997126 10.5829124,11.997126 10.1923882,11.6066017 L7.41421356,8.82842712 C7.37422308,8.78843665 7.33832771,8.7459018 7.30652745,8.70134367 C6.19014518,9.24208002 4.80626202,9.04890271 3.87867966,8.12132034 C2.70710678,6.94974747 2.70710678,5.05025253 3.87867966,3.87867966 Z" id="Path" fill="#0000C2"></path>
        <path d="M12.8786797,3.87867966 C14.0502525,2.70710678 15.9497475,2.70710678 17.1213203,3.87867966 C18.0489027,4.80626202 18.24208,6.19014518 17.7008523,7.30778498 C17.7459018,7.33832771 17.7884366,7.37422308 17.8284271,7.41421356 L20.6066017,10.1923882 C20.997126,10.5829124 20.997126,11.2160774 20.6066017,11.6066017 C20.2160774,11.997126 19.5829124,11.997126 19.1923882,11.6066017 L16.4142136,8.82842712 C16.3742231,8.78843665 16.3383277,8.7459018 16.3065274,8.70134367 C15.1901452,9.24208002 13.806262,9.04890271 12.8786797,8.12132034 C11.7071068,6.94974747 11.7071068,5.05025253 12.8786797,3.87867966 Z" id="Path" fill="#0000C2" transform="translate(16.449747, 7.449747) rotate(-270.000000) translate(-16.449747, -7.449747) "></path>
        <path d="M3.87867966,3.87867966 C5.05025253,2.70710678 6.94974747,2.70710678 8.12132034,3.87867966 C9.04890271,4.80626202 9.24208002,6.19014518 8.70085227,7.30778498 C8.7459018,7.33832771 8.78843665,7.37422308 8.82842712,7.41421356 L11.6066017,10.1923882 C11.997126,10.5829124 11.997126,11.2160774 11.6066017,11.6066017 C11.2160774,11.997126 10.5829124,11.997126 10.1923882,11.6066017 L7.41421356,8.82842712 C7.37422308,8.78843665 7.33832771,8.7459018 7.30652745,8.70134367 C6.19014518,9.24208002 4.80626202,9.04890271 3.87867966,8.12132034 C2.70710678,6.94974747 2.70710678,5.05025253 3.87867966,3.87867966 Z" id="Path" fill="#8330FF"></path>
        <path d="M12.8786797,12.8786797 C14.0502525,11.7071068 15.9497475,11.7071068 17.1213203,12.8786797 C18.0489027,13.806262 18.24208,15.1901452 17.7008523,16.307785 C17.7459018,16.3383277 17.7884366,16.3742231 17.8284271,16.4142136 L20.6066017,19.1923882 C20.997126,19.5829124 20.997126,20.2160774 20.6066017,20.6066017 C20.2160774,20.997126 19.5829124,20.997126 19.1923882,20.6066017 L16.4142136,17.8284271 C16.3742231,17.7884366 16.3383277,17.7459018 16.3065274,17.7013437 C15.1901452,18.24208 13.806262,18.0489027 12.8786797,17.1213203 C11.7071068,15.9497475 11.7071068,14.0502525 12.8786797,12.8786797 Z" id="Path" fill="#8330FF" transform="translate(16.449747, 16.449747) scale(1, -1) rotate(-270.000000) translate(-16.449747, -16.449747) "></path>
        <circle id="Combined-Shape" fill="#0000C2" cx="12" cy="12" r="3"></circle>
        <path d="M3.87867966,12.8786797 C5.05025253,11.7071068 6.94974747,11.7071068 8.12132034,12.8786797 C9.04890271,13.806262 9.24208002,15.1901452 8.70085227,16.307785 C8.7459018,16.3383277 8.78843665,16.3742231 8.82842712,16.4142136 L11.6066017,19.1923882 C11.997126,19.5829124 11.997126,20.2160774 11.6066017,20.6066017 C11.2160774,20.997126 10.5829124,20.997126 10.1923882,20.6066017 L7.41421356,17.8284271 C7.37422308,17.7884366 7.33832771,17.7459018 7.30652745,17.7013437 C6.19014518,18.24208 4.80626202,18.0489027 3.87867966,17.1213203 C2.70710678,15.9497475 2.70710678,14.0502525 3.87867966,12.8786797 Z" id="Path" fill="#0000C2" transform="translate(7.449747, 16.449747) scale(1, -1) translate(-7.449747, -16.449747) "></path>
        <path d="M12.8786797,3.87867966 C14.0502525,2.70710678 15.9497475,2.70710678 17.1213203,3.87867966 C18.0489027,4.80626202 18.24208,6.19014518 17.7008523,7.30778498 C17.7459018,7.33832771 17.7884366,7.37422308 17.8284271,7.41421356 L20.6066017,10.1923882 C20.997126,10.5829124 20.997126,11.2160774 20.6066017,11.6066017 C20.2160774,11.997126 19.5829124,11.997126 19.1923882,11.6066017 L16.4142136,8.82842712 C16.3742231,8.78843665 16.3383277,8.7459018 16.3065274,8.70134367 C15.1901452,9.24208002 13.806262,9.04890271 12.8786797,8.12132034 C11.7071068,6.94974747 11.7071068,5.05025253 12.8786797,3.87867966 Z" id="Path" fill="#0000C2" transform="translate(16.449747, 7.449747) rotate(-270.000000) translate(-16.449747, -7.449747) "></path>
    </g>
</svg>