<svg width="24" height="24" xmlns="http://www.w3.org/2000/svg" xmlns:xlink="http://www.w3.org/1999/xlink"><defs><path id="a" d="M0 0h24v24H0z"/></defs><g fill="none" fill-rule="evenodd"><mask id="b" fill="#fff"><use xlink:href="#a"/></mask><use fill="#8330FF" xlink:href="#a"/><circle fill="#0000C2" mask="url(#b)" cx="18" cy="6" r="3"/><g stroke-width="4" mask="url(#b)"><path d="M4.929 4.929c-3.905 3.905-3.905 10.237 0 14.142m14.142 0c3.905-3.905 3.905-10.237 0-14.142" stroke="#46ECA1"/><path d="M19.071 4.929c-3.905-3.905-10.237-3.905-14.142 0m0 14.142c3.905 3.905 10.237 3.905 14.142 0" stroke="#0000C2"/><path d="M16.243 7.757a6 6 0 0 0-8.486 0m0 8.486a6 6 0 0 0 8.486 0" stroke="#46ECA1"/><path d="M16.243 16.243a6 6 0 0 0 0-8.486m-8.486 0a6 6 0 0 0 0 8.486" stroke="#0000C2"/><g><path d="M10.586 10.586a2 2 0 0 0 0 2.828m2.828 0a2 2 0 0 0 0-2.828" stroke="#46ECA1"/><path d="M13.414 10.586a2 2 0 0 0-2.828 0m0 2.828a2 2 0 0 0 2.828 0" stroke="#0000C2"/></g></g></g></svg>