<svg width="24" height="24" xmlns="http://www.w3.org/2000/svg" xmlns:xlink="http://www.w3.org/1999/xlink"><defs><path id="a" d="M0 0h24v24H0z"/></defs><g fill="none" fill-rule="evenodd"><mask id="b" fill="#fff"><use xlink:href="#a"/></mask><use fill="#46ECA1" xlink:href="#a"/><circle fill="#0000C2" mask="url(#b)" cx="18" cy="6" r="3"/><g stroke-width="4" mask="url(#b)"><path d="M12 2C6.477 2 2 6.477 2 12m10 10c5.523 0 10-4.477 10-10" stroke="#F9FCFD"/><path d="M22 12c0-5.523-4.477-10-10-10M2 12c0 5.523 4.477 10 10 10" stroke="#0000C2"/><path d="M18 12a6 6 0 0 0-6-6m-6 6a6 6 0 0 0 6 6" stroke="#F9FCFD"/><path d="M12 18a6 6 0 0 0 6-6m-6-6a6 6 0 0 0-6 6" stroke="#0000C2"/><g><path d="M12 10a2 2 0 0 0-2 2m2 2a2 2 0 0 0 2-2" stroke="#F9FCFD"/><path d="M14 12a2 2 0 0 0-2-2m-2 2a2 2 0 0 0 2 2" stroke="#0000C2"/></g></g></g></svg>