<svg width="24" height="24" xmlns="http://www.w3.org/2000/svg" xmlns:xlink="http://www.w3.org/1999/xlink"><defs><path id="a" d="M0 0h24v24H0z"/></defs><g fill="none" fill-rule="evenodd"><mask id="b" fill="#fff"><use xlink:href="#a"/></mask><use fill="#0000C2" xlink:href="#a"/><path d="M9 2a1 1 0 0 1 1 1v6a1 1 0 1 1-2 0V3a1 1 0 0 1 1-1ZM21 2a1 1 0 0 1 1 1v6a1 1 0 0 1-2 0V3a1 1 0 0 1 1-1Z" fill="#F9FCFD" mask="url(#b)"/><path d="M15 10a1 1 0 0 1-1-1V3a1 1 0 0 1 2 0v6a1 1 0 0 1-1 1ZM3 10a1 1 0 0 1-1-1V3a1 1 0 1 1 2 0v6a1 1 0 0 1-1 1ZM9 22a1 1 0 0 1-1-1v-6a1 1 0 0 1 2 0v6a1 1 0 0 1-1 1ZM21 22a1 1 0 0 1-1-1v-6a1 1 0 0 1 2 0v6a1 1 0 0 1-1 1Z" fill="#46ECA1" mask="url(#b)"/><path d="M15 22a1 1 0 0 1-1-1v-6a1 1 0 0 1 2 0v6a1 1 0 0 1-1 1ZM3 22a1 1 0 0 1-1-1v-6a1 1 0 0 1 2 0v6a1 1 0 0 1-1 1Z" fill="#F9FCFD" mask="url(#b)"/></g></svg>