<?xml version="1.0" encoding="UTF-8"?>
<svg width="24px" height="24px" viewBox="0 0 24 24" version="1.1" xmlns="http://www.w3.org/2000/svg" xmlns:xlink="http://www.w3.org/1999/xlink">
    <title>Sensor Symbols / W</title>
    <defs>
        <rect id="path-1" x="0" y="0" width="24" height="24"></rect>
    </defs>
    <g id="Sensor-Symbols-/-W" stroke="none" stroke-width="1" fill="none" fill-rule="evenodd">
        <mask id="mask-2" fill="white">
            <use xlink:href="#path-1"></use>
        </mask>
        <use id="Rectangle" fill="#0000C2" xlink:href="#path-1"></use>
        <rect id="Rectangle" fill="#F9FCFD" mask="url(#mask-2)" x="8" y="2" width="2" height="8" rx="1"></rect>
        <rect id="Rectangle" fill="#F9FCFD" mask="url(#mask-2)" x="20" y="2" width="2" height="8" rx="1"></rect>
        <rect id="Rectangle" fill="#46ECA1" mask="url(#mask-2)" transform="translate(15.000000, 6.000000) rotate(-180.000000) translate(-15.000000, -6.000000) " x="14" y="2" width="2" height="8" rx="1"></rect>
        <rect id="Rectangle" fill="#46ECA1" mask="url(#mask-2)" transform="translate(3.000000, 6.000000) rotate(-180.000000) translate(-3.000000, -6.000000) " x="2" y="2" width="2" height="8" rx="1"></rect>
        <rect id="Rectangle" fill="#46ECA1" mask="url(#mask-2)" transform="translate(9.000000, 18.000000) rotate(-180.000000) translate(-9.000000, -18.000000) " x="8" y="14" width="2" height="8" rx="1"></rect>
        <rect id="Rectangle" fill="#46ECA1" mask="url(#mask-2)" transform="translate(21.000000, 18.000000) rotate(-180.000000) translate(-21.000000, -18.000000) " x="20" y="14" width="2" height="8" rx="1"></rect>
        <rect id="Rectangle" fill="#F9FCFD" mask="url(#mask-2)" transform="translate(15.000000, 18.000000) rotate(-180.000000) translate(-15.000000, -18.000000) " x="14" y="14" width="2" height="8" rx="1"></rect>
        <rect id="Rectangle" fill="#F9FCFD" mask="url(#mask-2)" transform="translate(3.000000, 18.000000) rotate(-180.000000) translate(-3.000000, -18.000000) " x="2" y="14" width="2" height="8" rx="1"></rect>
    </g>
</svg>