<svg width="24" height="24" xmlns="http://www.w3.org/2000/svg" xmlns:xlink="http://www.w3.org/1999/xlink"><defs><path id="a" d="M0 0h24v24H0z"/></defs><g fill="none" fill-rule="evenodd"><mask id="b" fill="#fff"><use xlink:href="#a"/></mask><use fill="#46ECA1" xlink:href="#a"/><g mask="url(#b)" fill="#8330FF"><path d="M10 9a1 1 0 0 1-1 1H3a1 1 0 1 1 0-2h6a1 1 0 0 1 1 1ZM2 3a1 1 0 0 1 1-1h6a1 1 0 1 1 0 2H3a1 1 0 0 1-1-1Z"/></g><g mask="url(#b)" fill="#F9FCFD"><path d="M21 2a1 1 0 0 1 1 1v6a1 1 0 1 1-2 0V3a1 1 0 0 1 1-1ZM15 10a1 1 0 0 1-1-1V3a1 1 0 1 1 2 0v6a1 1 0 0 1-1 1Z"/></g><g mask="url(#b)" fill="#0000C2"><path d="M9 22a1 1 0 0 1-1-1v-6a1 1 0 1 1 2 0v6a1 1 0 0 1-1 1ZM3 22a1 1 0 0 1-1-1v-6a1 1 0 1 1 2 0v6a1 1 0 0 1-1 1Z"/></g><g mask="url(#b)" fill="#8330FF"><path d="M14 21a1 1 0 0 1 1-1h6a1 1 0 1 1 0 2h-6a1 1 0 0 1-1-1ZM14 15a1 1 0 0 1 1-1h6a1 1 0 1 1 0 2h-6a1 1 0 0 1-1-1Z"/></g></g></svg>