<svg width="24" height="24" xmlns="http://www.w3.org/2000/svg" xmlns:xlink="http://www.w3.org/1999/xlink"><defs><path id="a" d="M0 0h24v24H0z"/></defs><g fill="none" fill-rule="evenodd"><mask id="b" fill="#fff"><use xlink:href="#a"/></mask><use fill="#0000C2" xlink:href="#a"/><g mask="url(#b)" fill="#46ECA1"><path d="M10.95 5.293a1 1 0 0 1 0 1.414L6.707 10.95a1 1 0 1 1-1.414-1.414l4.243-4.243a1 1 0 0 1 1.414 0ZM1.05 6.707a1 1 0 0 1 0-1.414L5.293 1.05a1 1 0 1 1 1.414 1.414L2.464 6.707a1 1 0 0 1-1.414 0Z"/></g><g mask="url(#b)" fill="#F9FCFD"><path d="M17.293 1.05a1 1 0 0 1 1.414 0l4.243 4.243a1 1 0 1 1-1.414 1.414l-4.243-4.243a1 1 0 0 1 0-1.414ZM18.707 10.95a1 1 0 0 1-1.414 0L13.05 6.707a1 1 0 1 1 1.414-1.414l4.243 4.243a1 1 0 0 1 0 1.414Z"/></g><g mask="url(#b)" fill="#F9FCFD"><path d="M10.95 18.707a1 1 0 0 1-1.414 0l-4.243-4.243a1 1 0 1 1 1.414-1.414l4.243 4.243a1 1 0 0 1 0 1.414ZM6.707 22.95a1 1 0 0 1-1.414 0L1.05 18.707a1 1 0 1 1 1.414-1.414l4.243 4.243a1 1 0 0 1 0 1.414Z"/></g><g mask="url(#b)" fill="#46ECA1"><path d="M17.293 22.95a1 1 0 0 1 0-1.414l4.243-4.243a1 1 0 1 1 1.414 1.414l-4.243 4.243a1 1 0 0 1-1.414 0ZM13.05 18.707a1 1 0 0 1 0-1.414l4.243-4.243a1 1 0 1 1 1.414 1.414l-4.243 4.243a1 1 0 0 1-1.414 0Z"/></g></g></svg>