<svg width="24" height="24" xmlns="http://www.w3.org/2000/svg" xmlns:xlink="http://www.w3.org/1999/xlink"><defs><path id="a" d="M0 0h24v24H0z"/><path id="c" d="M18.021 4.021h3v3h-3z"/></defs><g fill="none" fill-rule="evenodd"><mask id="b" fill="#fff"><use xlink:href="#a"/></mask><use fill="#0000C2" xlink:href="#a"/><path fill="#F9FCFD" mask="url(#b)" transform="rotate(-90 10.02 7.02)" d="M7.021 1.021h6v12h-6z"/><path d="M12 15a1 1 0 0 1 1-1h7a1 1 0 0 1 0 2h-7a1 1 0 0 1-1-1ZM12 19a1 1 0 0 1 1-1h7a1 1 0 0 1 0 2h-7a1 1 0 0 1-1-1Z" fill="#46ECA1" mask="url(#b)"/><use fill="#F9FCFD" transform="rotate(-90 19.52 5.52)" xlink:href="#c"/></g></svg>