<svg width="24" height="24" xmlns="http://www.w3.org/2000/svg" xmlns:xlink="http://www.w3.org/1999/xlink"><defs><path id="a" d="M0 0h24v24H0z"/></defs><g fill="none" fill-rule="evenodd"><mask id="b" fill="#fff"><use xlink:href="#a"/></mask><use fill="#46ECA1" xlink:href="#a"/><path fill="#0000C2" mask="url(#b)" transform="rotate(-180 7 11.5)" d="M4 3h6v17H4z"/><path d="M15.51 12.531a1 1 0 0 1-1-1v-7a1 1 0 0 1 2 0v7a1 1 0 0 1-1 1Z" fill="#46ECA1" mask="url(#b)"/><path d="M14 12a1 1 0 0 1-1-1V4a1 1 0 0 1 2 0v7a1 1 0 0 1-1 1ZM18 12a1 1 0 0 1-1-1V8a1 1 0 0 1 2 0v3a1 1 0 0 1-1 1Z" fill="#8330FF" mask="url(#b)"/><circle fill="#8330FF" mask="url(#b)" cx="16" cy="17" r="3"/></g></svg>