<svg width="24" height="24" xmlns="http://www.w3.org/2000/svg" xmlns:xlink="http://www.w3.org/1999/xlink"><defs><path id="a" d="M0 0h24v24H0z"/></defs><g fill="none" fill-rule="evenodd"><mask id="b" fill="#fff"><use xlink:href="#a"/></mask><use fill="#8330FF" xlink:href="#a"/><path d="M4 21a1 1 0 0 1-1-1V5a1 1 0 1 1 2 0v15a1 1 0 0 1-1 1ZM16 21a1 1 0 0 0 1-1v-7a1 1 0 0 0-2 0v7a1 1 0 0 0 1 1ZM12 21a1 1 0 0 0 1-1v-3a1 1 0 0 0-2 0v3a1 1 0 0 0 1 1ZM8 21a1 1 0 0 1-1-1V9a1 1 0 1 1 2 0v11a1 1 0 0 1-1 1ZM20 21a1 1 0 0 1-1-1V9a1 1 0 0 1 2 0v11a1 1 0 0 1-1 1Z" fill="#46ECA1" mask="url(#b)"/></g></svg>