<svg width="24" height="24" xmlns="http://www.w3.org/2000/svg"><g fill="none" fill-rule="evenodd"><path fill="#8330FF" d="M0 0h24v24H0z"/><path d="M7 9a3 3 0 0 1-.985-5.835A.879.879 0 0 1 6 3V0h2v3c0 .057-.005.112-.014.166A3 3 0 0 1 7 9Zm10 0a3 3 0 0 1-.985-5.835A.879.879 0 0 1 16 3V0h2v3c0 .057-.005.112-.014.166A3 3 0 0 1 17 9Z" fill="#F9FCFD"/><path d="M17 15a3 3 0 0 1 .985 5.835c.01.053.015.108.015.165v3h-2v-3c0-.057.005-.112.014-.166A3 3 0 0 1 17 15ZM7 15a3 3 0 0 1 .985 5.835c.01.053.015.108.015.165v3H6v-3c0-.057.005-.112.014-.166A3 3 0 0 1 7 15Z" fill="#46ECA1"/></g></svg>