<?xml version="1.0" encoding="UTF-8"?>
<svg width="24px" height="24px" viewBox="0 0 24 24" version="1.1" xmlns="http://www.w3.org/2000/svg" xmlns:xlink="http://www.w3.org/1999/xlink">
    <title>Sensor Symbols / D</title>
    <defs>
        <rect id="path-1" x="0" y="0" width="24" height="24"></rect>
    </defs>
    <g id="Sensor-Symbols-/-D" stroke="none" stroke-width="1" fill="none" fill-rule="evenodd">
        <mask id="mask-2" fill="white">
            <use xlink:href="#path-1"></use>
        </mask>
        <use id="Rectangle" fill="#8330FF" xlink:href="#path-1"></use>
        <path d="M17,-3 C18.6568542,-3 20,-1.65685425 20,-3.63797881e-12 C20,1.31179956 19.1580438,2.42694971 17.9850473,2.83453458 C17.9953052,2.88798638 18,2.94344492 18,3 L18,8 C18,8.55228475 17.5522847,9 17,9 C16.4477153,9 16,8.55228475 16,8 L16,3 C16,2.94344492 16.0046948,2.88798638 16.013716,2.83399285 C14.8419562,2.42694971 14,1.31179956 14,-3.63797881e-12 C14,-1.65685425 15.3431458,-3 17,-3 Z M7,-3 C8.65685425,-3 10,-1.65685425 10,-3.63797881e-12 C10,1.31179956 9.15804382,2.42694971 7.98504733,2.83453458 C7.99530518,2.88798638 8,2.94344492 8,3 L8,8 C8,8.55228475 7.55228475,9 7,9 C6.44771525,9 6,8.55228475 6,8 L6,3 C6,2.94344492 6.00469482,2.88798638 6.01371599,2.83399285 C4.84195618,2.42694971 4,1.31179956 4,-3.63797881e-12 C4,-1.65685425 5.34314575,-3 7,-3 Z" id="Combined-Shape" fill="#F9FCFD" mask="url(#mask-2)" transform="translate(12.000000, 3.000000) rotate(-180.000000) translate(-12.000000, -3.000000) "></path>
        <path d="M17,15 C18.6568542,15 20,16.3431458 20,18 C20,19.3117996 19.1580438,20.4269497 17.9850473,20.8345346 C17.9953052,20.8879864 18,20.9434449 18,21 L18,26 C18,26.5522847 17.5522847,27 17,27 C16.4477153,27 16,26.5522847 16,26 L16,21 C16,20.9434449 16.0046948,20.8879864 16.013716,20.8339928 C14.8419562,20.4269497 14,19.3117996 14,18 C14,16.3431458 15.3431458,15 17,15 Z M7,15 C8.65685425,15 10,16.3431458 10,18 C10,19.3117996 9.15804382,20.4269497 7.98504733,20.8345346 C7.99530518,20.8879864 8,20.9434449 8,21 L8,26 C8,26.5522847 7.55228475,27 7,27 C6.44771525,27 6,26.5522847 6,26 L6,21 C6,20.9434449 6.00469482,20.8879864 6.01371599,20.8339928 C4.84195618,20.4269497 4,19.3117996 4,18 C4,16.3431458 5.34314575,15 7,15 Z" id="Combined-Shape" fill="#46ECA1" mask="url(#mask-2)" transform="translate(12.000000, 21.000000) scale(1, -1) rotate(-180.000000) translate(-12.000000, -21.000000) "></path>
    </g>
</svg>