<?xml version="1.0" encoding="UTF-8"?>
<svg width="24px" height="24px" viewBox="0 0 24 24" version="1.1" xmlns="http://www.w3.org/2000/svg" xmlns:xlink="http://www.w3.org/1999/xlink">
    <title>Sensor Symbols / I</title>
    <g id="Sensor-Symbols-/-I" stroke="none" stroke-width="1" fill="none" fill-rule="evenodd">
        <g id="Group" transform="translate(12.000000, 12.000000) rotate(-90.000000) translate(-12.000000, -12.000000) translate(-0.000000, 0.000000)">
            <rect id="Rectangle" fill="#8330FF" x="0" y="0" width="24" height="24"></rect>
            <circle id="Combined-Shape" fill="#F9FCFD" cx="6" cy="18" r="3"></circle>
            <circle id="Combined-Shape" fill="#46ECA1" cx="18" cy="18" r="3"></circle>
            <circle id="Combined-Shape" fill="#46ECA1" cx="6" cy="6" r="3"></circle>
            <path d="M12,-3 C13.6568542,-3 15,-1.65685425 15,-5.1159077e-12 C15,1.31179956 14.1580438,2.42694971 12.9850473,2.83453458 C12.9953052,2.88798638 13,2.94344492 13,3 L13,14 C13,14.5522847 12.5522847,15 12,15 C11.4477153,15 11,14.5522847 11,14 L11,3 C11,2.94344492 11.0046948,2.88798638 11.013716,2.83399285 C9.84195618,2.42694971 9,1.31179956 9,-5.1159077e-12 C9,-1.65685425 10.3431458,-3 12,-3 Z" id="Combined-Shape" fill="#46ECA1" transform="translate(12.000000, 6.000000) rotate(-90.000000) translate(-12.000000, -6.000000) "></path>
            <path d="M18,3 C19.6568542,3 21,4.34314575 21,6 C21,7.31179956 20.1580438,8.42694971 18.9850473,8.83453458 C18.9953052,8.88798638 19,8.94344492 19,9 L19,20 C19,20.5522847 18.5522847,21 18,21 C17.4477153,21 17,20.5522847 17,20 L17,9 C17,8.94344492 17.0046948,8.88798638 17.013716,8.83399285 C15.8419562,8.42694971 15,7.31179956 15,6 C15,4.34314575 16.3431458,3 18,3 Z" id="Combined-Shape" fill="#46ECA1" transform="translate(18.000000, 12.000000) rotate(-180.000000) translate(-18.000000, -12.000000) "></path>
            <rect id="Combined-Shape" fill="#F9FCFD" transform="translate(12.000000, 12.000000) rotate(-135.000000) translate(-12.000000, -12.000000) " x="11" y="4" width="2" height="16" rx="1"></rect>
            <circle id="Combined-Shape" fill="#F9FCFD" cx="18" cy="6" r="3"></circle>
        </g>
    </g>
</svg>