<svg xmlns="http://www.w3.org/2000/svg" width="778" height="290" viewBox="0 0 778 290"><g fill="#F9FCFD" fill-rule="evenodd"><rect width="116" height="116" x="199" y="58"/><rect width="58" height="58" x="373"/><rect width="58" height="58" y="116" opacity=".583"/><rect width="58" height="58" x="199" y="174"/><rect width="58" height="58" x="604" y="174"/><rect width="58" height="58" x="720" y="174"/><rect width="58" height="58" x="141" y="116" opacity=".768"/><rect width="58" height="58" x="257" y="58" opacity=".583"/><rect width="116" height="116" x="662"/><rect width="116" height="116" x="546"/><rect width="116" height="116" x="315" y="58" opacity=".63"/><rect width="58" height="58" x="431" y="58" opacity=".583"/><rect width="140" height="116" x="59"/><rect width="58" height="58" x="199" y="116" opacity=".583"/><rect width="58" height="58" x="489" y="232"/><rect width="58" height="58" x="662" y="116"/><rect width="58" height="58" x="431" opacity=".583"/><rect width="58" height="58" x="488" y="116" opacity=".583"/><rect width="58" height="58" x="315"/><rect width="58" height="58" x="431" y="58"/><rect width="58" height="58" x="488" y="58"/><rect width="58" height="58" x="546" y="116"/><rect width="58" height="58" x="257" opacity=".721"/><rect width="58" height="58" x="720" y="116" opacity=".583"/></g></svg>