<svg xmlns="http://www.w3.org/2000/svg" width="851" height="567" viewBox="0 0 851 567"><g fill="none"><path fill="#000" d="M0,0 L0,566.93 L850.39,566.93 L850.39,0 L0,0 Z M5.67,5.67 L566.93,5.67 L566.93,277.8 L5.67,277.8 L5.67,5.67 Z M844.72,561.26 L5.67,561.26 L5.67,283.46 L844.73,283.46 L844.73,561.26 L844.72,561.26 Z M844.72,277.8 L572.6,277.8 L572.6,5.67 L844.73,5.67 L844.73,277.8 L844.72,277.8 Z"/><path fill="#E40422" d="M485.55,96.01 L485.55,158.44 C485.55,159.25 485.01,159.52 484.6,158.71 L448.97,95.47 C448.56,94.8 447.75,94.39 446.94,94.39 L431.7,94.39 C430.75,94.39 430.08,95.06 430.08,96.01 L430.08,187.17 C430.08,188.11 430.75,188.79 431.7,188.79 L444.93,188.79 C445.88,188.79 446.55,188.11 446.55,187.17 L446.55,124.87 C446.55,124.06 447.09,123.79 447.5,124.6 L483.13,187.71 C483.54,188.39 484.35,188.79 485.16,188.79 L500.41,188.79 C501.36,188.79 502.03,188.11 502.03,187.17 L502.03,96.01 C502.03,95.06 501.36,94.39 500.41,94.39 L487.18,94.39 C486.22,94.39 485.55,95.07 485.55,96.01 M390.19,188.79 L403.55,188.79 C404.49,188.79 405.17,188.11 405.17,187.17 L405.17,96.01 C405.17,95.06 404.5,94.39 403.55,94.39 L390.19,94.39 C389.25,94.39 388.57,95.06 388.57,96.01 L388.57,187.17 C388.57,188.11 389.25,188.79 390.19,188.79 M336.91,172.34 L336.91,96.01 C336.91,95.06 336.24,94.39 335.29,94.39 L321.93,94.39 C320.99,94.39 320.31,95.06 320.31,96.01 L320.31,187.17 C320.31,188.11 320.98,188.79 321.93,188.79 L367.95,188.79 C368.9,188.79 369.57,188.11 369.57,187.17 L369.57,174.76 C369.57,173.82 368.9,173.14 367.95,173.14 L337.72,173.14 C337.18,173.14 336.91,172.74 336.91,172.34 M249.61,110.04 L261.89,110.04 C272.82,110.04 281.59,115.84 281.59,127.84 C281.59,139.84 272.82,145.64 261.75,145.64 L249.6,145.64 C249.06,145.64 248.79,145.24 248.79,144.83 L248.79,110.85 C248.81,110.31 249.08,110.04 249.61,110.04 M280.93,188.79 L297.93,188.79 C299.28,188.79 299.68,187.84 298.88,186.77 L278.63,159.4 C278.36,159 278.36,158.46 278.9,158.19 C290.91,153.34 298.88,142.68 298.88,127.85 C298.88,106.81 282.95,94.41 262.71,94.41 L233.83,94.41 C232.88,94.41 232.21,95.08 232.21,96.03 L232.21,187.19 C232.21,188.13 232.88,188.81 233.83,188.81 L247.19,188.81 C248.13,188.81 248.81,188.13 248.81,187.19 L248.81,162.11 C248.81,161.57 249.21,161.3 249.62,161.3 L259.88,161.3 C260.29,161.3 260.69,161.57 260.96,161.84 L279.05,187.73 C279.44,188.38 280.12,188.79 280.93,188.79 M207.67,108.42 L207.67,96.01 C207.67,95.06 207,94.39 206.05,94.39 L156.92,94.39 C155.97,94.39 155.3,95.06 155.3,96.01 L155.3,187.17 C155.3,188.11 155.97,188.79 156.92,188.79 L206.05,188.79 C207,188.79 207.67,188.11 207.67,187.17 L207.67,174.76 C207.67,173.82 207,173.14 206.05,173.14 L172.58,173.14 C172.04,173.14 171.77,172.74 171.77,172.33 L171.77,149.67 C171.77,149.13 172.18,148.86 172.58,148.86 L206.05,148.86 C207,148.86 207.67,148.19 207.67,147.24 L207.67,134.97 C207.67,134.02 207,133.35 206.05,133.35 L172.58,133.35 C172.04,133.35 171.77,133.08 171.77,132.54 L171.77,110.83 C171.77,110.29 172.18,110.02 172.58,110.02 L206.05,110.02 C206.99,110.04 207.67,109.36 207.67,108.42 M102.45,173.14 L88.14,173.14 C87.6,173.14 87.33,172.74 87.33,172.33 L87.33,149.67 C87.33,149.13 87.6,148.86 88.14,148.86 L102.45,148.86 C111.22,148.86 116.08,153.85 116.08,161 C116.08,168.29 111.22,173.14 102.45,173.14 M101.1,110.04 C109.6,110.04 114.32,114.63 114.32,121.64 C114.32,128.65 109.6,133.37 101.1,133.37 L88.14,133.37 C87.6,133.37 87.33,133.1 87.33,132.56 L87.33,110.85 C87.33,110.31 87.6,110.04 88.14,110.04 L101.1,110.04 L101.1,110.04 Z M120.8,139.7 C127.55,135.39 131.6,128.64 131.6,119.88 C131.6,105.45 121.61,94.39 103.26,94.39 L72.48,94.39 C71.54,94.39 70.86,95.06 70.86,96.01 L70.86,187.17 C70.86,188.11 71.53,188.79 72.48,188.79 L104.47,188.79 C123.36,188.79 133.35,177.33 133.35,162.23 C133.35,152.39 128.63,144.97 120.8,140.79 C120.26,140.38 120.26,139.97 120.8,139.7"/><path fill="#000" d="M750.31,222.16 C750.31,222.16 745.35,189.29 743.01,175.44 C743.67,175.3 744.03,175.22 744.03,175.22 C746.2,174.84 747.02,172.36 746.05,170.69 C740.44,161.03 738.44,149 738.44,137.05 C738.44,129.68 739.67,122.6 741.95,116 C742.08,115.62 742.22,115.25 742.36,114.87 C742.44,114.64 742.6,114.13 742.64,114.05 C744.15,110.76 746.88,103.62 747.68,95.62 C748.33,89.15 747.51,83.75 746.38,78.69 C745.84,76.24 744.46,72.21 743.58,70.34 C743.43,70.07 743.28,69.8 743.13,69.54 C745.15,67.51 745.55,64.26 743.99,61.56 C742.16,58.4 738.4,57.15 735.59,58.77 C735.29,58.94 734.6,59.43 734.29,59.65 C733.78,59.27 733.48,59.09 733.48,59.09 C733.46,59.08 732.69,58.57 732.01,58.21 C732.01,58.21 731.75,58.08 731.75,58.07 C728.87,56.79 725.74,56.11 722.38,56.11 C720.74,56.11 719.14,56.28 717.58,56.6 C714.23,57.3 711.14,58.71 708.48,60.68 C707.09,61.12 705.6,61.23 705.6,61.23 L701.8,61.41 C700.01,61.49 697.97,61.4 697.97,61.4 C697.08,61.4 696.35,62.13 696.35,63.02 C696.35,63.1 696.94,68.33 696.94,68.34 C697.08,69.65 697.63,70.88 698.73,71.59 L698.86,71.68 C699.21,71.91 699.39,72.1 699.46,72.3 C699.88,73.44 700.73,74.57 701.3,74.92 C701.56,75.08 701.97,75 702.04,74.71 C702.76,71.86 704.46,74.94 707.7,73.18 C708.53,72.73 708.98,74.75 708.63,75.63 L708.33,76.39 C707.66,78.09 706.12,79.3 704.31,79.57 C702.88,79.78 702.05,79.92 702.07,80.12 C702.24,81.73 702.05,83.12 703.69,84.09 C704.17,84.35 704.41,84.41 704.41,84.41 C706.92,85.07 714.24,87.88 704.93,98.87 C704.93,98.87 704.05,99.86 703.36,100.84 C703.16,101.12 702.99,101.42 702.85,101.73 L702.66,102.13 L674.66,91.65 C673.82,91.32 672.73,90.4 672.21,89.66 L669.45,84.92 C667.74,82.55 666.24,81.65 663.27,81.41 C661.12,81.23 659.37,81.4 659.37,81.4 C658.54,81.44 658.06,81.64 657.88,82.12 C657.69,82.65 657.67,83.97 658.49,85.63 L660.89,90.04 C661.1,90.35 664.13,97.13 664.13,97.13 C664.43,97.97 664.95,98.7 665.63,99.27 C665.69,99.32 694.37,120.99 694.37,120.99 L664.08,136.1 C663.21,136.57 662.18,136.68 661.23,136.39 C660.12,136.05 658.53,135.57 658.52,135.57 C653.56,133.36 649.83,134.9 647.65,136.73 C647.63,136.75 646.79,137.54 646.79,137.54 C645.96,138.36 646.27,139.48 647.21,139.94 C647.21,139.94 651.99,142.75 653.04,143.47 L660.48,147.88 C661.63,148.55 663,148.77 664.31,148.5 L693.72,142.57 C694.43,153.83 697.27,163.19 697.27,163.19 C691.97,168.29 684.66,178.02 682.26,191.38 C680.83,199.32 681.3,206.52 683.46,214.97 C679.35,215.2 675.39,215.8 672.1,218.09 C668.97,220.27 668.33,224.15 668.31,226.09 L691.27,226.14 L693.21,226.13 C695.63,226.1 696.25,223.7 696.25,223.7 C696.49,222.97 696.56,222.02 696.67,221.32 C697.4,216.73 697.98,211.95 702.07,203.71 C705.37,197.05 711.21,191.06 711.22,191.06 C711.23,191.08 720.88,205.37 737.2,215.17 C734.07,215.37 730.03,216.4 727.63,217.73 C723.83,219.84 722.78,224.18 722.87,226.2 L746.66,226.2 C748.3,226.2 749.66,225.14 750.15,223.7 C750.2,223.55 750.24,223.4 750.27,223.24 C750.29,223.13 750.31,223.01 750.32,222.9 C750.34,222.66 750.34,222.41 750.31,222.16 Z"/><path fill="#000" d="M31.4304125 18.7C31.4304125 29.4 24.3804125 36.2 14.4804125 36.2L4.0304125 36.2C3.7304125 36.2 3.5304125 36 3.5304125 35.7L3.5304125 1.7C3.5304125 1.4 3.7304125 1.2 4.0304125 1.2L14.4804125 1.2C24.3804125 1.2 31.4304125 8 31.4304125 18.7ZM7.4804125 32.65 14.3304125 32.65C21.9804125 32.65 27.5304125 27.8 27.5304125 18.7 27.5304125 9.6 21.9804125 4.75 14.3304125 4.75L7.4804125 4.75C7.3304125 4.75 7.2304125 4.85 7.2304125 5L7.2304125 32.4C7.2304125 32.55 7.3304125 32.65 7.4804125 32.65ZM36.6804125 4.85C36.6804125 3.4 37.9304125 2.15 39.4304125 2.15 40.8304125 2.15 42.0804125 3.4 42.0804125 4.85 42.0804125 6.3 40.8304125 7.6 39.4304125 7.6 37.9304125 7.6 36.6804125 6.3 36.6804125 4.85ZM37.5304125 35.7 37.5304125 13.5C37.5304125 13.2 37.7304125 13 38.0304125 13L40.6804125 13C40.9804125 13 41.1804125 13.2 41.1804125 13.5L41.1804125 35.7C41.1804125 36 40.9804125 36.2 40.6804125 36.2L38.0304125 36.2C37.7304125 36.2 37.5304125 36 37.5304125 35.7ZM47.1304125 24.6C47.1304125 17.25 52.0304125 12.5 58.4304125 12.5 64.8304125 12.5 69.6304125 17.35 69.6304125 24.05 69.6304125 24.4 69.6304125 24.8 69.5804125 25.2 69.5304125 25.45 69.3804125 25.6 69.0804125 25.6L51.4304125 25.6C51.0804125 25.6 50.8804125 25.75 50.9804125 26.25 51.5304125 30.6 54.4804125 33.45 58.9304125 33.45 61.6804125 33.45 63.8804125 32.2 65.4804125 30.55 65.8304125 30.2 66.0804125 30.1 66.3304125 30.35L67.9804125 32.15C68.1804125 32.35 68.1804125 32.6 67.9804125 32.8 65.6304125 35.25 62.4804125 36.75 58.9304125 36.75 52.0304125 36.75 47.1304125 31.95 47.1304125 24.6ZM65.7304125 22.1C65.0804125 18.35 62.2804125 15.8 58.4304125 15.8 54.6304125 15.8 51.6804125 18.45 51.0804125 22.15 50.9804125 22.55 51.0804125 22.7 51.5304125 22.7L65.2804125 22.7C65.6804125 22.7 65.8304125 22.55 65.7304125 22.1ZM92.4804125 36.2 89.7804125 36.2C89.4804125 36.2 89.2804125 36 89.2804125 35.7L89.2804125 1.7C89.2804125 1.4 89.4804125 1.2 89.7804125 1.2L99.5304125 1.2C106.630413 1.2 112.080413 5.55 112.080413 13.05 112.080413 19.05 108.480413 22.8 103.480413 24.25 103.130413 24.35 103.030413 24.5 103.280413 24.8L111.980413 35.6C112.230413 35.95 112.080413 36.2 111.680413 36.2L108.180413 36.2C107.780413 36.2 107.580413 36.15 107.330413 35.8L99.0304125 25.2C98.7304125 24.85 98.6304125 24.8 98.2304125 24.8L93.2304125 24.8C93.0804125 24.8 92.9804125 24.9 92.9804125 25.05L92.9804125 35.7C92.9804125 36 92.7804125 36.2 92.4804125 36.2ZM92.9804125 5 92.9804125 21C92.9804125 21.15 93.0804125 21.25 93.2304125 21.25L99.1804125 21.25C104.080413 21.25 108.230413 18.85 108.230413 13 108.230413 7.15 104.080413 4.75 99.1804125 4.75L93.2304125 4.75C93.0804125 4.75 92.9804125 4.85 92.9804125 5ZM116.080413 24.6C116.080413 17.25 120.980413 12.5 127.380413 12.5 133.780413 12.5 138.580413 17.35 138.580413 24.05 138.580413 24.4 138.580413 24.8 138.530413 25.2 138.480413 25.45 138.330413 25.6 138.030413 25.6L120.380413 25.6C120.030413 25.6 119.830413 25.75 119.930413 26.25 120.480413 30.6 123.430413 33.45 127.880413 33.45 130.630413 33.45 132.830413 32.2 134.430413 30.55 134.780413 30.2 135.030413 30.1 135.280413 30.35L136.930413 32.15C137.130413 32.35 137.130413 32.6 136.930413 32.8 134.580413 35.25 131.430413 36.75 127.880413 36.75 120.980413 36.75 116.080413 31.95 116.080413 24.6ZM134.680413 22.1C134.030413 18.35 131.230413 15.8 127.380413 15.8 123.580413 15.8 120.630413 18.45 120.030413 22.15 119.930413 22.55 120.030413 22.7 120.480413 22.7L134.230413 22.7C134.630413 22.7 134.780413 22.55 134.680413 22.1ZM144.930413 42.71C144.730413 42.46 144.730413 42.21 144.930413 42.01L146.630413 40.16C146.830413 39.91 147.080413 39.91 147.330413 40.16 148.780413 41.91 150.980413 43.16 154.080413 43.16 158.680413 43.16 161.530413 41.11 161.530413 36.61L161.530413 33.16C161.530413 32.91 161.280413 32.81 161.030413 33.06 159.330413 34.71 156.930413 35.71 153.830413 35.71 147.580413 35.71 142.730413 31.06 142.730413 24.06 142.730413 17.16 147.680413 12.51 154.030413 12.51 157.130413 12.51 159.580413 13.51 161.280413 15.31 161.530413 15.56 161.730413 15.46 161.730413 15.16L161.730413 13.51C161.730413 13.21 161.980413 13.01 162.230413 13.01L164.680413 13.01C164.980413 13.01 165.180413 13.21 165.180413 13.51L165.180413 36.91C165.180413 43.11 160.530413 46.51 154.080413 46.51 149.980413 46.51 146.930413 44.96 144.930413 42.71ZM161.330413 28.85C161.530413 28.55 161.580413 28.3 161.580413 27.95L161.580413 20.2C161.580413 19.85 161.530413 19.6 161.330413 19.3 160.030413 17.25 157.680413 15.8 154.530413 15.8 149.730413 15.8 146.480413 19.2 146.480413 24.05 146.480413 29 149.730413 32.35 154.530413 32.35 157.680413 32.35 160.030413 30.9 161.330413 28.85ZM171.880413 4.85C171.880413 3.4 173.130413 2.15 174.630413 2.15 176.030413 2.15 177.280413 3.4 177.280413 4.85 177.280413 6.3 176.030413 7.6 174.630413 7.6 173.130413 7.6 171.880413 6.3 171.880413 4.85ZM172.730413 35.7 172.730413 13.5C172.730413 13.2 172.930413 13 173.230413 13L175.880413 13C176.180413 13 176.380413 13.2 176.380413 13.5L176.380413 35.7C176.380413 36 176.180413 36.2 175.880413 36.2L173.230413 36.2C172.930413 36.2 172.730413 36 172.730413 35.7ZM182.330413 24.6C182.330413 17.25 187.230413 12.5 193.630413 12.5 200.030413 12.5 204.830413 17.35 204.830413 24.05 204.830413 24.4 204.830413 24.8 204.780413 25.2 204.730413 25.45 204.580413 25.6 204.280413 25.6L186.630413 25.6C186.280413 25.6 186.080413 25.75 186.180413 26.25 186.730413 30.6 189.680413 33.45 194.130413 33.45 196.880413 33.45 199.080413 32.2 200.680413 30.55 201.030413 30.2 201.280413 30.1 201.530413 30.35L203.180413 32.15C203.380413 32.35 203.380413 32.6 203.180413 32.8 200.830413 35.25 197.680413 36.75 194.130413 36.75 187.230413 36.75 182.330413 31.95 182.330413 24.6ZM200.930413 22.1C200.280413 18.35 197.480413 15.8 193.630413 15.8 189.830413 15.8 186.880413 18.45 186.280413 22.15 186.180413 22.55 186.280413 22.7 186.730413 22.7L200.480413 22.7C200.880413 22.7 201.030413 22.55 200.930413 22.1ZM221.380413 12.55C221.680413 12.55 221.830413 12.75 221.830413 13.05L221.830413 15.7C221.830413 16.05 221.630413 16.2 221.280413 16.1 220.880413 16.05 220.430413 16 220.080413 16 217.480413 16 215.730413 17.25 214.580413 18.95 214.280413 19.4 214.230413 19.75 214.230413 20.2L214.230413 35.7C214.230413 36 214.030413 36.2 213.730413 36.2L211.080413 36.2C210.780413 36.2 210.580413 36 210.580413 35.7L210.580413 13.5C210.580413 13.2 210.780413 13 211.080413 13L213.480413 13C213.780413 13 213.980413 13.2 213.980413 13.5L213.980413 15.3C213.980413 15.55 214.130413 15.65 214.330413 15.45 215.630413 13.9 217.680413 12.5 220.630413 12.5 220.880413 12.5 221.130413 12.5 221.380413 12.55ZM223.980413 24.6C223.980413 17.25 228.880413 12.5 235.280413 12.5 241.680413 12.5 246.480413 17.35 246.480413 24.05 246.480413 24.4 246.480413 24.8 246.430413 25.2 246.380413 25.45 246.230413 25.6 245.930413 25.6L228.280413 25.6C227.930413 25.6 227.730413 25.75 227.830413 26.25 228.380413 30.6 231.330413 33.45 235.780413 33.45 238.530413 33.45 240.730413 32.2 242.330413 30.55 242.680413 30.2 242.930413 30.1 243.180413 30.35L244.830413 32.15C245.030413 32.35 245.030413 32.6 244.830413 32.8 242.480413 35.25 239.330413 36.75 235.780413 36.75 228.880413 36.75 223.980413 31.95 223.980413 24.6ZM242.580413 22.1C241.930413 18.35 239.130413 15.8 235.280413 15.8 231.480413 15.8 228.530413 18.45 227.930413 22.15 227.830413 22.55 227.930413 22.7 228.380413 22.7L242.130413 22.7C242.530413 22.7 242.680413 22.55 242.580413 22.1ZM255.380413 36.2 252.730413 36.2C252.430413 36.2 252.230413 36 252.230413 35.7L252.230413 13.5C252.230413 13.2 252.430413 13 252.730413 13L255.130413 13C255.430413 13 255.630413 13.2 255.630413 13.5L255.630413 15.15C255.630413 15.4 255.830413 15.5 256.030413 15.25 257.530413 13.55 259.380413 12.5 262.080413 12.5 267.230413 12.5 269.880413 15.9 269.880413 20.15L269.880413 35.7C269.880413 36 269.680413 36.2 269.380413 36.2L266.730413 36.2C266.430413 36.2 266.230413 36 266.230413 35.7L266.230413 20.75C266.230413 17.5 264.480413 15.75 261.380413 15.75 259.180413 15.75 257.330413 16.95 256.130413 19.05 255.930413 19.45 255.880413 19.7 255.880413 20.1L255.880413 35.7C255.880413 36 255.680413 36.2 255.380413 36.2ZM295.130413 0 297.780413 0C298.080413 0 298.280413.2 298.280413.5L298.280413 35.7C298.280413 36 298.080413 36.2 297.780413 36.2L295.330413 36.2C295.030413 36.2 294.830413 36 294.830413 35.7L294.830413 33.95C294.830413 33.6 294.630413 33.55 294.380413 33.85 292.730413 35.7 290.230413 36.7 286.980413 36.7 280.530413 36.7 275.580413 31.85 275.580413 24.6 275.580413 17.35 280.530413 12.5 286.980413 12.5 290.080413 12.5 292.480413 13.5 294.180413 15.15 294.480413 15.45 294.630413 15.3 294.630413 15L294.630413.5C294.630413.2 294.830413 0 295.130413 0ZM294.430413 29.7C294.580413 29.4 294.630413 29.2 294.630413 28.9L294.630413 20.3C294.630413 20 294.580413 19.8 294.430413 19.5 293.130413 17.3 290.680413 15.8 287.530413 15.8 282.580413 15.8 279.280413 19.35 279.280413 24.6 279.280413 29.85 282.580413 33.4 287.530413 33.4 290.680413 33.4 293.130413 31.9 294.430413 29.7ZM303.730413 24.6C303.730413 17.25 308.630413 12.5 315.030413 12.5 321.430413 12.5 326.230413 17.35 326.230413 24.05 326.230413 24.4 326.230413 24.8 326.180413 25.2 326.130413 25.45 325.980413 25.6 325.680413 25.6L308.030413 25.6C307.680413 25.6 307.480413 25.75 307.580413 26.25 308.130413 30.6 311.080413 33.45 315.530413 33.45 318.280413 33.45 320.480413 32.2 322.080413 30.55 322.430413 30.2 322.680413 30.1 322.930413 30.35L324.580413 32.15C324.780413 32.35 324.780413 32.6 324.580413 32.8 322.230413 35.25 319.080413 36.75 315.530413 36.75 308.630413 36.75 303.730413 31.95 303.730413 24.6ZM322.330413 22.1C321.680413 18.35 318.880413 15.8 315.030413 15.8 311.230413 15.8 308.280413 18.45 307.680413 22.15 307.580413 22.55 307.680413 22.7 308.130413 22.7L321.880413 22.7C322.280413 22.7 322.430413 22.55 322.330413 22.1ZM366.430413 10.45C366.430413 13.7 364.680413 16.45 362.180413 17.9 361.830413 18.1 361.880413 18.3 362.180413 18.45 365.180413 19.95 367.180413 22.95 367.180413 26.6 367.180413 32 363.530413 36.2 356.480413 36.2L346.380413 36.2C346.080413 36.2 345.880413 36 345.880413 35.7L345.880413 1.7C345.880413 1.4 346.080413 1.2 346.380413 1.2L356.380413 1.2C362.880413 1.2 366.430413 5.25 366.430413 10.45ZM349.580413 5 349.580413 16.35C349.580413 16.5 349.680413 16.6 349.830413 16.6L355.930413 16.6C360.330413 16.6 362.580413 14.35 362.580413 10.7 362.580413 7.05 360.330413 4.75 355.930413 4.75L349.830413 4.75C349.680413 4.75 349.580413 4.85 349.580413 5ZM349.580413 20.4 349.580413 32.4C349.580413 32.55 349.680413 32.65 349.830413 32.65L356.130413 32.65C360.930413 32.65 363.330413 30.25 363.330413 26.4 363.330413 22.55 360.930413 20.15 356.130413 20.15L349.830413 20.15C349.680413 20.15 349.580413 20.25 349.580413 20.4ZM387.880413 13 390.530413 13C390.830413 13 391.030413 13.2 391.030413 13.5L391.030413 35.7C391.030413 36 390.830413 36.2 390.530413 36.2L388.130413 36.2C387.830413 36.2 387.630413 36 387.630413 35.7L387.630413 34.05C387.630413 33.8 387.430413 33.7 387.180413 33.95 385.730413 35.65 383.880413 36.7 381.130413 36.7 376.030413 36.7 373.380413 33.3 373.380413 29.05L373.380413 13.5C373.380413 13.2 373.580413 13 373.880413 13L376.530413 13C376.830413 13 377.030413 13.2 377.030413 13.5L377.030413 28.45C377.030413 31.7 378.780413 33.45 381.880413 33.45 384.080413 33.45 385.930413 32.25 387.130413 30.15 387.330413 29.75 387.380413 29.5 387.380413 29.1L387.380413 13.5C387.380413 13.2 387.580413 13 387.880413 13ZM374.630413 4.85C374.630413 3.4 375.830413 2.15 377.330413 2.15 378.780413 2.15 380.030413 3.4 380.030413 4.85 380.030413 6.3 378.780413 7.6 377.330413 7.6 375.830413 7.6 374.630413 6.3 374.630413 4.85ZM384.480413 4.85C384.480413 3.4 385.680413 2.15 387.180413 2.15 388.630413 2.15 389.880413 3.4 389.880413 4.85 389.880413 6.3 388.630413 7.6 387.180413 7.6 385.680413 7.6 384.480413 6.3 384.480413 4.85ZM409.430413 12.55C409.730413 12.55 409.880413 12.75 409.880413 13.05L409.880413 15.7C409.880413 16.05 409.680413 16.2 409.330413 16.1 408.930413 16.05 408.480413 16 408.130413 16 405.530413 16 403.780413 17.25 402.630413 18.95 402.330413 19.4 402.280413 19.75 402.280413 20.2L402.280413 35.7C402.280413 36 402.080413 36.2 401.780413 36.2L399.130413 36.2C398.830413 36.2 398.630413 36 398.630413 35.7L398.630413 13.5C398.630413 13.2 398.830413 13 399.130413 13L401.530413 13C401.830413 13 402.030413 13.2 402.030413 13.5L402.030413 15.3C402.030413 15.55 402.180413 15.65 402.380413 15.45 403.680413 13.9 405.730413 12.5 408.680413 12.5 408.930413 12.5 409.180413 12.5 409.430413 12.55ZM414.380413 42.71C414.180413 42.46 414.180413 42.21 414.380413 42.01L416.080413 40.16C416.280413 39.91 416.530413 39.91 416.780413 40.16 418.230413 41.91 420.430413 43.16 423.530413 43.16 428.130413 43.16 430.980413 41.11 430.980413 36.61L430.980413 33.16C430.980413 32.91 430.730413 32.81 430.480413 33.06 428.780413 34.71 426.380413 35.71 423.280413 35.71 417.030413 35.71 412.180413 31.06 412.180413 24.06 412.180413 17.16 417.130413 12.51 423.480413 12.51 426.580413 12.51 429.030413 13.51 430.730413 15.31 430.980413 15.56 431.180413 15.46 431.180413 15.16L431.180413 13.51C431.180413 13.21 431.430413 13.01 431.680413 13.01L434.130413 13.01C434.430413 13.01 434.630413 13.21 434.630413 13.51L434.630413 36.91C434.630413 43.11 429.980413 46.51 423.530413 46.51 419.430413 46.51 416.380413 44.96 414.380413 42.71ZM430.780413 28.85C430.980413 28.55 431.030413 28.3 431.030413 27.95L431.030413 20.2C431.030413 19.85 430.980413 19.6 430.780413 19.3 429.480413 17.25 427.130413 15.8 423.980413 15.8 419.180413 15.8 415.930413 19.2 415.930413 24.05 415.930413 29 419.180413 32.35 423.980413 32.35 427.130413 32.35 429.480413 30.9 430.780413 28.85ZM440.530413 24.6C440.530413 17.25 445.430413 12.5 451.830413 12.5 458.230413 12.5 463.030413 17.35 463.030413 24.05 463.030413 24.4 463.030413 24.8 462.980413 25.2 462.930413 25.45 462.780413 25.6 462.480413 25.6L444.830413 25.6C444.480413 25.6 444.280413 25.75 444.380413 26.25 444.930413 30.6 447.880413 33.45 452.330413 33.45 455.080413 33.45 457.280413 32.2 458.880413 30.55 459.230413 30.2 459.480413 30.1 459.730413 30.35L461.380413 32.15C461.580413 32.35 461.580413 32.6 461.380413 32.8 459.030413 35.25 455.880413 36.75 452.330413 36.75 445.430413 36.75 440.530413 31.95 440.530413 24.6ZM459.130413 22.1C458.480413 18.35 455.680413 15.8 451.830413 15.8 448.030413 15.8 445.080413 18.45 444.480413 22.15 444.380413 22.55 444.480413 22.7 444.930413 22.7L458.680413 22.7C459.080413 22.7 459.230413 22.55 459.130413 22.1ZM479.580413 12.55C479.880413 12.55 480.030413 12.75 480.030413 13.05L480.030413 15.7C480.030413 16.05 479.830413 16.2 479.480413 16.1 479.080413 16.05 478.630413 16 478.280413 16 475.680413 16 473.930413 17.25 472.780413 18.95 472.480413 19.4 472.430413 19.75 472.430413 20.2L472.430413 35.7C472.430413 36 472.230413 36.2 471.930413 36.2L469.280413 36.2C468.980413 36.2 468.780413 36 468.780413 35.7L468.780413 13.5C468.780413 13.2 468.980413 13 469.280413 13L471.680413 13C471.980413 13 472.180413 13.2 472.180413 13.5L472.180413 15.3C472.180413 15.55 472.330413 15.65 472.530413 15.45 473.830413 13.9 475.880413 12.5 478.830413 12.5 479.080413 12.5 479.330413 12.5 479.580413 12.55ZM487.830413 36.2 485.180413 36.2C484.880413 36.2 484.680413 36 484.680413 35.7L484.680413 13.5C484.680413 13.2 484.880413 13 485.180413 13L487.580413 13C487.880413 13 488.080413 13.2 488.080413 13.5L488.080413 15.15C488.080413 15.4 488.280413 15.5 488.480413 15.25 489.930413 13.55 491.880413 12.5 494.530413 12.5 497.880413 12.5 500.130413 14 501.380413 16.05 501.530413 16.3 501.680413 16.3 501.880413 16.05 503.530413 14 505.430413 12.5 508.580413 12.5 513.680413 12.5 516.330413 15.9 516.330413 20.15L516.330413 35.7C516.330413 36 516.130413 36.2 515.830413 36.2L513.180413 36.2C512.880413 36.2 512.680413 36 512.680413 35.7L512.680413 20.75C512.680413 17.45 510.880413 15.75 507.780413 15.75 505.480413 15.75 503.830413 16.9 502.630413 18.95 502.430413 19.3 502.330413 19.75 502.330413 20.15L502.330413 35.7C502.330413 36 502.130413 36.2 501.830413 36.2L499.180413 36.2C498.880413 36.2 498.680413 36 498.680413 35.7L498.680413 20.75C498.680413 17.5 496.930413 15.75 493.830413 15.75 491.630413 15.75 489.780413 16.95 488.580413 19.05 488.380413 19.45 488.330413 19.7 488.330413 20.15L488.330413 35.7C488.330413 36 488.130413 36.2 487.830413 36.2ZM521.980413 24.6C521.980413 17.25 526.880413 12.5 533.280413 12.5 539.680413 12.5 544.480413 17.35 544.480413 24.05 544.480413 24.4 544.480413 24.8 544.430413 25.2 544.380413 25.45 544.230413 25.6 543.930413 25.6L526.280413 25.6C525.930413 25.6 525.730413 25.75 525.830413 26.25 526.380413 30.6 529.330413 33.45 533.780413 33.45 536.530413 33.45 538.730413 32.2 540.330413 30.55 540.680413 30.2 540.930413 30.1 541.180413 30.35L542.830413 32.15C543.030413 32.35 543.030413 32.6 542.830413 32.8 540.480413 35.25 537.330413 36.75 533.780413 36.75 526.880413 36.75 521.980413 31.95 521.980413 24.6ZM540.580413 22.1C539.930413 18.35 537.130413 15.8 533.280413 15.8 529.480413 15.8 526.530413 18.45 525.930413 22.15 525.830413 22.55 525.930413 22.7 526.380413 22.7L540.130413 22.7C540.530413 22.7 540.680413 22.55 540.580413 22.1ZM549.380413 4.85C549.380413 3.4 550.630413 2.15 552.130413 2.15 553.530413 2.15 554.780413 3.4 554.780413 4.85 554.780413 6.3 553.530413 7.6 552.130413 7.6 550.630413 7.6 549.380413 6.3 549.380413 4.85ZM550.230413 35.7 550.230413 13.5C550.230413 13.2 550.430413 13 550.730413 13L553.380413 13C553.680413 13 553.880413 13.2 553.880413 13.5L553.880413 35.7C553.880413 36 553.680413 36.2 553.380413 36.2L550.730413 36.2C550.430413 36.2 550.230413 36 550.230413 35.7ZM559.880413 31.25C559.780413 30.95 559.880413 30.75 560.180413 30.65L562.580413 29.8C562.880413 29.7 563.130413 29.85 563.230413 30.15 563.880413 32.4 565.830413 33.55 567.680413 33.55 570.580413 33.55 571.980413 31.95 571.980413 29.9 571.980413 27.6 570.280413 26.6 567.930413 26.15L565.930413 25.75C562.530413 25.1 560.380413 22.5 560.380413 19.2 560.380413 15.45 563.480413 12.5 567.880413 12.5 571.480413 12.5 574.230413 14.45 575.230413 18 575.330413 18.35 575.180413 18.55 574.880413 18.65L572.530413 19.25C572.230413 19.35 571.980413 19.2 571.930413 18.9 571.430413 16.95 570.030413 15.7 567.880413 15.7 565.530413 15.7 563.980413 17.1 563.980413 19.05 563.980413 21.1 565.180413 22.05 567.380413 22.5L569.330413 22.9C572.880413 23.6 575.580413 25.85 575.580413 29.9 575.580413 33.8 572.630413 36.75 567.680413 36.75 563.580413 36.75 560.930413 34.45 559.880413 31.25ZM582.880413 3.95 585.580413 2.5C585.930413 2.35 586.180413 2.5 586.180413 2.85L586.180413 12.75C586.180413 12.9 586.280413 13 586.430413 13L589.180413 13C589.480413 13 589.680413 13.2 589.680413 13.5L589.680413 15.65C589.680413 15.95 589.480413 16.15 589.180413 16.15L586.430413 16.15C586.280413 16.15 586.180413 16.25 586.180413 16.4L586.180413 35.7C586.180413 36 585.980413 36.2 585.680413 36.2L583.030413 36.2C582.730413 36.2 582.530413 36 582.530413 35.7L582.530413 16.4C582.530413 16.25 582.430413 16.15 582.280413 16.15L579.530413 16.15C579.230413 16.15 579.030413 15.95 579.030413 15.65L579.030413 13.5C579.030413 13.2 579.230413 13 579.530413 13L582.280413 13C582.430413 13 582.530413 12.9 582.530413 12.75L582.530413 4.55C582.530413 4.3 582.630413 4.05 582.880413 3.95ZM593.030413 24.6C593.030413 17.25 597.930413 12.5 604.330413 12.5 610.730413 12.5 615.530413 17.35 615.530413 24.05 615.530413 24.4 615.530413 24.8 615.480413 25.2 615.430413 25.45 615.280413 25.6 614.980413 25.6L597.330413 25.6C596.980413 25.6 596.780413 25.75 596.880413 26.25 597.430413 30.6 600.380413 33.45 604.830413 33.45 607.580413 33.45 609.780413 32.2 611.380413 30.55 611.730413 30.2 611.980413 30.1 612.230413 30.35L613.880413 32.15C614.080413 32.35 614.080413 32.6 613.880413 32.8 611.530413 35.25 608.380413 36.75 604.830413 36.75 597.930413 36.75 593.030413 31.95 593.030413 24.6ZM611.630413 22.1C610.980413 18.35 608.180413 15.8 604.330413 15.8 600.530413 15.8 597.580413 18.45 596.980413 22.15 596.880413 22.55 596.980413 22.7 597.430413 22.7L611.180413 22.7C611.580413 22.7 611.730413 22.55 611.630413 22.1ZM632.080413 12.55C632.380413 12.55 632.530413 12.75 632.530413 13.05L632.530413 15.7C632.530413 16.05 632.330413 16.2 631.980413 16.1 631.580413 16.05 631.130413 16 630.780413 16 628.180413 16 626.430413 17.25 625.280413 18.95 624.980413 19.4 624.930413 19.75 624.930413 20.2L624.930413 35.7C624.930413 36 624.730413 36.2 624.430413 36.2L621.780413 36.2C621.480413 36.2 621.280413 36 621.280413 35.7L621.280413 13.5C621.280413 13.2 621.480413 13 621.780413 13L624.180413 13C624.480413 13 624.680413 13.2 624.680413 13.5L624.680413 15.3C624.680413 15.55 624.830413 15.65 625.030413 15.45 626.330413 13.9 628.380413 12.5 631.330413 12.5 631.580413 12.5 631.830413 12.5 632.080413 12.55ZM636.330413 4.85C636.330413 3.4 637.580413 2.15 639.080413 2.15 640.480413 2.15 641.730413 3.4 641.730413 4.85 641.730413 6.3 640.480413 7.6 639.080413 7.6 637.580413 7.6 636.330413 6.3 636.330413 4.85ZM637.180413 35.7 637.180413 13.5C637.180413 13.2 637.380413 13 637.680413 13L640.330413 13C640.630413 13 640.830413 13.2 640.830413 13.5L640.830413 35.7C640.830413 36 640.630413 36.2 640.330413 36.2L637.680413 36.2C637.380413 36.2 637.180413 36 637.180413 35.7ZM651.580413 36.2 648.930413 36.2C648.630413 36.2 648.430413 36 648.430413 35.7L648.430413 13.5C648.430413 13.2 648.630413 13 648.930413 13L651.330413 13C651.630413 13 651.830413 13.2 651.830413 13.5L651.830413 15.15C651.830413 15.4 652.030413 15.5 652.230413 15.25 653.730413 13.55 655.580413 12.5 658.280413 12.5 663.430413 12.5 666.080413 15.9 666.080413 20.15L666.080413 35.7C666.080413 36 665.880413 36.2 665.580413 36.2L662.930413 36.2C662.630413 36.2 662.430413 36 662.430413 35.7L662.430413 20.75C662.430413 17.5 660.680413 15.75 657.580413 15.75 655.380413 15.75 653.530413 16.95 652.330413 19.05 652.130413 19.45 652.080413 19.7 652.080413 20.1L652.080413 35.7C652.080413 36 651.880413 36.2 651.580413 36.2ZM16.6804125 77.7 19.4804125 77.7C19.8304125 77.7 19.9804125 77.9 19.8804125 78.25L12.5304125 100.5C12.4304125 100.75 12.1804125 100.9 11.8804125 100.9L8.0304125 100.9C7.7304125 100.9 7.4804125 100.75 7.3804125 100.5L.0304125036 78.25C-.0695874964 77.9.0804125036 77.7.430412504 77.7L3.2304125 77.7C3.4804125 77.7 3.7304125 77.85 3.8304125 78.1L9.7804125 96.55C9.8304125 96.75 10.0804125 96.75 10.1304125 96.55L16.0804125 78.1C16.1804125 77.85 16.4304125 77.7 16.6804125 77.7ZM23.0304125 89.3C23.0304125 82.65 27.9804125 77.2 34.7304125 77.2 41.4804125 77.2 46.4304125 82.65 46.4304125 89.3 46.4304125 95.95 41.4804125 101.4 34.7304125 101.4 27.9804125 101.4 23.0304125 95.95 23.0304125 89.3ZM42.7304125 89.3C42.7304125 84.5 39.4804125 80.55 34.7304125 80.55 29.9804125 80.55 26.7304125 84.5 26.7304125 89.3 26.7304125 94.1 29.9804125 98.05 34.7304125 98.05 39.4804125 98.05 42.7304125 94.1 42.7304125 89.3ZM55.5304125 100.9 52.8804125 100.9C52.5804125 100.9 52.3804125 100.7 52.3804125 100.4L52.3804125 78.2C52.3804125 77.9 52.5804125 77.7 52.8804125 77.7L55.2804125 77.7C55.5804125 77.7 55.7804125 77.9 55.7804125 78.2L55.7804125 79.85C55.7804125 80.1 55.9804125 80.2 56.1804125 79.95 57.6804125 78.25 59.5304125 77.2 62.2304125 77.2 67.3804125 77.2 70.0304125 80.6 70.0304125 84.85L70.0304125 100.4C70.0304125 100.7 69.8304125 100.9 69.5304125 100.9L66.8804125 100.9C66.5804125 100.9 66.3804125 100.7 66.3804125 100.4L66.3804125 85.45C66.3804125 82.2 64.6304125 80.45 61.5304125 80.45 59.3304125 80.45 57.4804125 81.65 56.2804125 83.75 56.0804125 84.15 56.0304125 84.4 56.0304125 84.8L56.0304125 100.4C56.0304125 100.7 55.8304125 100.9 55.5304125 100.9ZM111.830413 75.15C111.830413 78.4 110.080413 81.15 107.580413 82.6 107.230413 82.8 107.280413 83 107.580413 83.15 110.580413 84.65 112.580413 87.65 112.580413 91.3 112.580413 96.7 108.930413 100.9 101.880413 100.9L91.7804125 100.9C91.4804125 100.9 91.2804125 100.7 91.2804125 100.4L91.2804125 66.4C91.2804125 66.1 91.4804125 65.9 91.7804125 65.9L101.780413 65.9C108.280413 65.9 111.830413 69.95 111.830413 75.15ZM94.9804125 69.7 94.9804125 81.05C94.9804125 81.2 95.0804125 81.3 95.2304125 81.3L101.330413 81.3C105.730413 81.3 107.980413 79.05 107.980413 75.4 107.980413 71.75 105.730413 69.45 101.330413 69.45L95.2304125 69.45C95.0804125 69.45 94.9804125 69.55 94.9804125 69.7ZM94.9804125 85.1 94.9804125 97.1C94.9804125 97.25 95.0804125 97.35 95.2304125 97.35L101.530413 97.35C106.330413 97.35 108.730413 94.95 108.730413 91.1 108.730413 87.25 106.330413 84.85 101.530413 84.85L95.2304125 84.85C95.0804125 84.85 94.9804125 84.95 94.9804125 85.1ZM117.780413 89.3C117.780413 81.95 122.680413 77.2 129.080413 77.2 135.480413 77.2 140.280413 82.05 140.280413 88.75 140.280413 89.1 140.280413 89.5 140.230413 89.9 140.180413 90.15 140.030413 90.3 139.730413 90.3L122.080413 90.3C121.730413 90.3 121.530413 90.45 121.630413 90.95 122.180413 95.3 125.130413 98.15 129.580413 98.15 132.330413 98.15 134.530413 96.9 136.130413 95.25 136.480413 94.9 136.730413 94.8 136.980413 95.05L138.630413 96.85C138.830413 97.05 138.830413 97.3 138.630413 97.5 136.280413 99.95 133.130413 101.45 129.580413 101.45 122.680413 101.45 117.780413 96.65 117.780413 89.3ZM136.380413 86.8C135.730413 83.05 132.930413 80.5 129.080413 80.5 125.280413 80.5 122.330413 83.15 121.730413 86.85 121.630413 87.25 121.730413 87.4 122.180413 87.4L135.930413 87.4C136.330413 87.4 136.480413 87.25 136.380413 86.8ZM156.830413 77.25C157.130413 77.25 157.280413 77.45 157.280413 77.75L157.280413 80.4C157.280413 80.75 157.080413 80.9 156.730413 80.8 156.330413 80.75 155.880413 80.7 155.530413 80.7 152.930413 80.7 151.180413 81.95 150.030413 83.65 149.730413 84.1 149.680413 84.45 149.680413 84.9L149.680413 100.4C149.680413 100.7 149.480413 100.9 149.180413 100.9L146.530413 100.9C146.230413 100.9 146.030413 100.7 146.030413 100.4L146.030413 78.2C146.030413 77.9 146.230413 77.7 146.530413 77.7L148.930413 77.7C149.230413 77.7 149.430413 77.9 149.430413 78.2L149.430413 80C149.430413 80.25 149.580413 80.35 149.780413 80.15 151.080413 78.6 153.130413 77.2 156.080413 77.2 156.330413 77.2 156.580413 77.2 156.830413 77.25ZM168.130413 98.35 168.130413 100.6C168.130413 100.9 167.930413 101.1 167.630413 101.1L166.730413 101.1C163.680413 101.1 161.780413 99.7 161.780413 96.5L161.780413 65.2C161.780413 64.9 161.980413 64.7 162.280413 64.7L164.930413 64.7C165.230413 64.7 165.430413 64.9 165.430413 65.2L165.430413 96.05C165.430413 97.15 165.830413 97.85 166.930413 97.85L167.630413 97.85C167.930413 97.85 168.130413 98.05 168.130413 98.35ZM172.980413 69.55C172.980413 68.1 174.230413 66.85 175.730413 66.85 177.130413 66.85 178.380413 68.1 178.380413 69.55 178.380413 71 177.130413 72.3 175.730413 72.3 174.230413 72.3 172.980413 71 172.980413 69.55ZM173.830413 100.4 173.830413 78.2C173.830413 77.9 174.030413 77.7 174.330413 77.7L176.980413 77.7C177.280413 77.7 177.480413 77.9 177.480413 78.2L177.480413 100.4C177.480413 100.7 177.280413 100.9 176.980413 100.9L174.330413 100.9C174.030413 100.9 173.830413 100.7 173.830413 100.4ZM188.230413 100.9 185.580413 100.9C185.280413 100.9 185.080413 100.7 185.080413 100.4L185.080413 78.2C185.080413 77.9 185.280413 77.7 185.580413 77.7L187.980413 77.7C188.280413 77.7 188.480413 77.9 188.480413 78.2L188.480413 79.85C188.480413 80.1 188.680413 80.2 188.880413 79.95 190.380413 78.25 192.230413 77.2 194.930413 77.2 200.080413 77.2 202.730413 80.6 202.730413 84.85L202.730413 100.4C202.730413 100.7 202.530413 100.9 202.230413 100.9L199.580413 100.9C199.280413 100.9 199.080413 100.7 199.080413 100.4L199.080413 85.45C199.080413 82.2 197.330413 80.45 194.230413 80.45 192.030413 80.45 190.180413 81.65 188.980413 83.75 188.780413 84.15 188.730413 84.4 188.730413 84.8L188.730413 100.4C188.730413 100.7 188.530413 100.9 188.230413 100.9ZM.880412504 158.55C.780412504 158.25.880412504 158.05 1.1804125 157.9L3.7304125 156.85C4.0304125 156.7 4.2804125 156.85 4.3804125 157.15 5.4304125 160.75 8.3804125 162.85 12.1804125 162.85 17.0804125 162.85 19.5804125 160.05 19.5804125 156.4 19.5804125 152.5 16.9804125 150.3 13.1304125 149.55L10.5804125 149.05C5.3804125 148.05 1.9304125 144.75 1.9304125 139.45 1.9304125 134.15 6.2304125 129.75 12.4304125 129.75 17.4804125 129.75 21.2804125 132.55 22.9304125 136.95 23.0304125 137.25 22.9304125 137.45 22.6304125 137.6L20.0304125 138.7C19.7304125 138.85 19.4804125 138.7 19.3804125 138.4 18.1804125 135.3 15.5304125 133.35 12.4304125 133.35 8.2304125 133.35 5.8304125 135.95 5.8304125 139.4 5.8304125 142.5 7.6304125 144.65 11.3804125 145.35L13.9304125 145.85C18.9304125 146.85 23.4804125 149.95 23.4804125 156.15 23.4804125 161.95 19.1804125 166.45 12.1304125 166.45 6.8804125 166.45 2.5804125 163.5.880412504 158.55ZM28.1804125 154C28.1804125 146.65 33.0804125 141.9 39.4804125 141.9 45.8804125 141.9 50.6804125 146.75 50.6804125 153.45 50.6804125 153.8 50.6804125 154.2 50.6304125 154.6 50.5804125 154.85 50.4304125 155 50.1304125 155L32.4804125 155C32.1304125 155 31.9304125 155.15 32.0304125 155.65 32.5804125 160 35.5304125 162.85 39.9804125 162.85 42.7304125 162.85 44.9304125 161.6 46.5304125 159.95 46.8804125 159.6 47.1304125 159.5 47.3804125 159.75L49.0304125 161.55C49.2304125 161.75 49.2304125 162 49.0304125 162.2 46.6804125 164.65 43.5304125 166.15 39.9804125 166.15 33.0804125 166.15 28.1804125 161.35 28.1804125 154ZM46.7804125 151.5C46.1304125 147.75 43.3304125 145.2 39.4804125 145.2 35.6804125 145.2 32.7304125 147.85 32.1304125 151.55 32.0304125 151.95 32.1304125 152.1 32.5804125 152.1L46.3304125 152.1C46.7304125 152.1 46.8804125 151.95 46.7804125 151.5ZM59.5804125 165.6 56.9304125 165.6C56.6304125 165.6 56.4304125 165.4 56.4304125 165.1L56.4304125 142.9C56.4304125 142.6 56.6304125 142.4 56.9304125 142.4L59.3304125 142.4C59.6304125 142.4 59.8304125 142.6 59.8304125 142.9L59.8304125 144.55C59.8304125 144.8 60.0304125 144.9 60.2304125 144.65 61.7304125 142.95 63.5804125 141.9 66.2804125 141.9 71.4304125 141.9 74.0804125 145.3 74.0804125 149.55L74.0804125 165.1C74.0804125 165.4 73.8804125 165.6 73.5804125 165.6L70.9304125 165.6C70.6304125 165.6 70.4304125 165.4 70.4304125 165.1L70.4304125 150.15C70.4304125 146.9 68.6804125 145.15 65.5804125 145.15 63.3804125 145.15 61.5304125 146.35 60.3304125 148.45 60.1304125 148.85 60.0804125 149.1 60.0804125 149.5L60.0804125 165.1C60.0804125 165.4 59.8804125 165.6 59.5804125 165.6ZM79.7804125 154C79.7804125 146.75 84.7304125 141.9 91.1804125 141.9 94.4804125 141.9 97.0304125 143 98.7304125 145 98.8804125 145.15 99.0304125 145.05 99.0304125 144.85L99.0304125 142.9C99.0304125 142.6 99.2304125 142.4 99.5304125 142.4L101.980413 142.4C102.280413 142.4 102.480413 142.6 102.480413 142.9L102.480413 165.1C102.480413 165.4 102.280413 165.6 101.980413 165.6L99.5304125 165.6C99.2304125 165.6 99.0304125 165.4 99.0304125 165.1L99.0304125 163.15C99.0304125 162.95 98.8804125 162.85 98.7304125 163 96.8804125 164.85 94.4804125 166.1 91.1804125 166.1 84.7304125 166.1 79.7804125 161.25 79.7804125 154ZM98.6304125 159.1C98.7804125 158.8 98.8304125 158.6 98.8304125 158.2L98.8304125 149.8C98.8304125 149.4 98.7804125 149.2 98.6304125 148.9 97.3804125 146.7 94.8804125 145.2 91.7304125 145.2 86.7804125 145.2 83.4804125 148.75 83.4804125 154 83.4804125 159.25 86.7804125 162.8 91.7304125 162.8 94.8804125 162.8 97.4804125 161.35 98.6304125 159.1ZM111.630413 133.35 114.330413 131.9C114.680413 131.75 114.930413 131.9 114.930413 132.25L114.930413 142.15C114.930413 142.3 115.030413 142.4 115.180413 142.4L117.930413 142.4C118.230413 142.4 118.430413 142.6 118.430413 142.9L118.430413 145.05C118.430413 145.35 118.230413 145.55 117.930413 145.55L115.180413 145.55C115.030413 145.55 114.930413 145.65 114.930413 145.8L114.930413 165.1C114.930413 165.4 114.730413 165.6 114.430413 165.6L111.780413 165.6C111.480413 165.6 111.280413 165.4 111.280413 165.1L111.280413 145.8C111.280413 145.65 111.180413 145.55 111.030413 145.55L108.280413 145.55C107.980413 145.55 107.780413 145.35 107.780413 145.05L107.780413 142.9C107.780413 142.6 107.980413 142.4 108.280413 142.4L111.030413 142.4C111.180413 142.4 111.280413 142.3 111.280413 142.15L111.280413 133.95C111.280413 133.7 111.380413 133.45 111.630413 133.35ZM121.880413 160.65C121.780413 160.35 121.880413 160.15 122.180413 160.05L124.580413 159.2C124.880413 159.1 125.130413 159.25 125.230413 159.55 125.880413 161.8 127.830413 162.95 129.680413 162.95 132.580413 162.95 133.980413 161.35 133.980413 159.3 133.980413 157 132.280413 156 129.930413 155.55L127.930413 155.15C124.530413 154.5 122.380413 151.9 122.380413 148.6 122.380413 144.85 125.480413 141.9 129.880413 141.9 133.480413 141.9 136.230413 143.85 137.230413 147.4 137.330413 147.75 137.180413 147.95 136.880413 148.05L134.530413 148.65C134.230413 148.75 133.980413 148.6 133.930413 148.3 133.430413 146.35 132.030413 145.1 129.880413 145.1 127.530413 145.1 125.980413 146.5 125.980413 148.45 125.980413 150.5 127.180413 151.45 129.380413 151.9L131.330413 152.3C134.880413 153 137.580413 155.25 137.580413 159.3 137.580413 163.2 134.630413 166.15 129.680413 166.15 125.580413 166.15 122.930413 163.85 121.880413 160.65ZM156.230413 165.15 150.280413 155.15C150.130413 154.85 149.880413 154.8 149.680413 155.05L147.580413 157.55C147.330413 157.9 147.280413 158.05 147.280413 158.45L147.280413 165.1C147.280413 165.4 147.030413 165.6 146.730413 165.6L144.130413 165.6C143.830413 165.6 143.630413 165.4 143.630413 165.1L143.630413 129.9C143.630413 129.6 143.830413 129.4 144.130413 129.4L146.730413 129.4C147.030413 129.4 147.280413 129.6 147.280413 129.9L147.280413 152.05C147.280413 152.45 147.530413 152.5 147.780413 152.15L155.580413 142.7C155.730413 142.5 155.930413 142.4 156.180413 142.4L159.630413 142.4C160.030413 142.4 160.230413 142.7 159.930413 143.05L152.930413 151.45C152.680413 151.75 152.630413 151.95 152.830413 152.3L160.380413 165C160.580413 165.35 160.430413 165.6 160.030413 165.6L156.980413 165.6C156.630413 165.6 156.380413 165.45 156.230413 165.15ZM163.130413 154C163.130413 146.75 168.080413 141.9 174.530413 141.9 177.830413 141.9 180.380413 143 182.080413 145 182.230413 145.15 182.380413 145.05 182.380413 144.85L182.380413 142.9C182.380413 142.6 182.580413 142.4 182.880413 142.4L185.330413 142.4C185.630413 142.4 185.830413 142.6 185.830413 142.9L185.830413 165.1C185.830413 165.4 185.630413 165.6 185.330413 165.6L182.880413 165.6C182.580413 165.6 182.380413 165.4 182.380413 165.1L182.380413 163.15C182.380413 162.95 182.230413 162.85 182.080413 163 180.230413 164.85 177.830413 166.1 174.530413 166.1 168.080413 166.1 163.130413 161.25 163.130413 154ZM181.980413 159.1C182.130413 158.8 182.180413 158.6 182.180413 158.2L182.180413 149.8C182.180413 149.4 182.130413 149.2 181.980413 148.9 180.730413 146.7 178.230413 145.2 175.080413 145.2 170.130413 145.2 166.830413 148.75 166.830413 154 166.830413 159.25 170.130413 162.8 175.080413 162.8 178.230413 162.8 180.830413 161.35 181.980413 159.1ZM196.630413 165.6 193.980413 165.6C193.680413 165.6 193.480413 165.4 193.480413 165.1L193.480413 142.9C193.480413 142.6 193.680413 142.4 193.980413 142.4L196.380413 142.4C196.680413 142.4 196.880413 142.6 196.880413 142.9L196.880413 144.55C196.880413 144.8 197.080413 144.9 197.280413 144.65 198.780413 142.95 200.630413 141.9 203.330413 141.9 208.480413 141.9 211.130413 145.3 211.130413 149.55L211.130413 165.1C211.130413 165.4 210.930413 165.6 210.630413 165.6L207.980413 165.6C207.680413 165.6 207.480413 165.4 207.480413 165.1L207.480413 150.15C207.480413 146.9 205.730413 145.15 202.630413 145.15 200.430413 145.15 198.580413 146.35 197.380413 148.45 197.180413 148.85 197.130413 149.1 197.130413 149.5L197.130413 165.1C197.130413 165.4 196.930413 165.6 196.630413 165.6ZM222.230413 162.45 234.280413 162.45C234.580413 162.45 234.780413 162.65 234.780413 163L234.780413 165.1C234.780413 165.4 234.580413 165.6 234.280413 165.6L217.030413 165.6C216.430413 165.6 216.280413 165.1 216.580413 164.6L228.480413 145.85C228.580413 145.65 228.530413 145.55 228.330413 145.55L216.980413 145.55C216.680413 145.55 216.480413 145.35 216.480413 145.05L216.480413 142.9C216.480413 142.6 216.680413 142.4 216.980413 142.4L233.580413 142.4C234.130413 142.4 234.280413 142.9 233.980413 143.4L222.030413 162.15C221.930413 162.35 222.030413 162.45 222.230413 162.45ZM246.230413 163.05 246.230413 165.3C246.230413 165.6 246.030413 165.8 245.730413 165.8L244.830413 165.8C241.780413 165.8 239.880413 164.4 239.880413 161.2L239.880413 129.9C239.880413 129.6 240.080413 129.4 240.380413 129.4L243.030413 129.4C243.330413 129.4 243.530413 129.6 243.530413 129.9L243.530413 160.75C243.530413 161.85 243.930413 162.55 245.030413 162.55L245.730413 162.55C246.030413 162.55 246.230413 162.75 246.230413 163.05ZM249.830413 154C249.830413 146.65 254.730413 141.9 261.130413 141.9 267.530413 141.9 272.330413 146.75 272.330413 153.45 272.330413 153.8 272.330413 154.2 272.280413 154.6 272.230413 154.85 272.080413 155 271.780413 155L254.130413 155C253.780413 155 253.580413 155.15 253.680413 155.65 254.230413 160 257.180413 162.85 261.630413 162.85 264.380413 162.85 266.580413 161.6 268.180413 159.95 268.530413 159.6 268.780413 159.5 269.030413 159.75L270.680413 161.55C270.880413 161.75 270.880413 162 270.680413 162.2 268.330413 164.65 265.180413 166.15 261.630413 166.15 254.730413 166.15 249.830413 161.35 249.830413 154ZM268.430413 151.5C267.780413 147.75 264.980413 145.2 261.130413 145.2 257.330413 145.2 254.380413 147.85 253.780413 151.55 253.680413 151.95 253.780413 152.1 254.230413 152.1L267.980413 152.1C268.380413 152.1 268.530413 151.95 268.430413 151.5ZM277.230413 134.25C277.230413 132.8 278.480413 131.55 279.980413 131.55 281.380413 131.55 282.630413 132.8 282.630413 134.25 282.630413 135.7 281.380413 137 279.980413 137 278.480413 137 277.230413 135.7 277.230413 134.25ZM278.080413 165.1 278.080413 142.9C278.080413 142.6 278.280413 142.4 278.580413 142.4L281.230413 142.4C281.530413 142.4 281.730413 142.6 281.730413 142.9L281.730413 165.1C281.730413 165.4 281.530413 165.6 281.230413 165.6L278.580413 165.6C278.280413 165.6 278.080413 165.4 278.080413 165.1Z" transform="translate(69.4 334.49)"/></g></svg>