<svg xmlns="http://www.w3.org/2000/svg" width="66" height="22"><g fill="none" fill-rule="nonzero"><path fill="#000" d="M0 0v22h66V0H0Zm44 21.56H.44V.44H44v21.12Zm21.56 0H44.44V.44h21.12v21.12Z"/><path fill="#E40422" d="M37.577 8.145v4.535c0 .06-.042.078-.074.02l-2.791-4.593a.19.19 0 0 0-.157-.079h-1.2a.128.128 0 0 0-.09.033.109.109 0 0 0-.036.084v6.621a.109.109 0 0 0 .035.085.128.128 0 0 0 .092.033h1.036a.128.128 0 0 0 .091-.033.109.109 0 0 0 .036-.085v-4.525c0-.058.042-.078.074-.02l2.794 4.585a.19.19 0 0 0 .156.078h1.198a.128.128 0 0 0 .091-.033.11.11 0 0 0 .036-.085v-6.62a.11.11 0 0 0-.036-.085.128.128 0 0 0-.09-.033h-1.038a.128.128 0 0 0-.091.033.109.109 0 0 0-.036.084m-7.476 6.739h1.048a.128.128 0 0 0 .091-.033.109.109 0 0 0 .036-.085v-6.62a.109.109 0 0 0-.036-.085.128.128 0 0 0-.091-.033H30.1a.128.128 0 0 0-.09.033.11.11 0 0 0-.037.084v6.621a.11.11 0 0 0 .036.085.128.128 0 0 0 .091.033m-4.176-1.195V8.145a.11.11 0 0 0-.036-.084.128.128 0 0 0-.091-.033H24.75a.128.128 0 0 0-.091.033.109.109 0 0 0-.036.084v6.621a.109.109 0 0 0 .036.085.128.128 0 0 0 .091.033h3.606a.128.128 0 0 0 .092-.033.109.109 0 0 0 .035-.085v-.9a.109.109 0 0 0-.035-.085.128.128 0 0 0-.092-.033h-2.368a.063.063 0 0 1-.046-.016.054.054 0 0 1-.017-.042M19.08 9.162h.963c.857 0 1.544.421 1.544 1.293 0 .872-.687 1.293-1.555 1.293h-.952a.064.064 0 0 1-.046-.017.054.054 0 0 1-.017-.042v-2.47a.05.05 0 0 1 .016-.043.058.058 0 0 1 .047-.015m2.455 5.72h1.333c.105 0 .138-.069.074-.145l-1.587-1.988a.054.054 0 0 1-.013-.049.058.058 0 0 1 .034-.039c.94-.353 1.568-1.127 1.568-2.204 0-1.525-1.25-2.43-2.836-2.43h-2.266a.129.129 0 0 0-.092.034.11.11 0 0 0-.035.085v6.621a.11.11 0 0 0 .036.085.128.128 0 0 0 .09.033h1.049a.128.128 0 0 0 .09-.033.11.11 0 0 0 .037-.085v-1.82c-.001-.016.005-.032.017-.043a.063.063 0 0 1 .046-.016h.804a.134.134 0 0 1 .085.039l1.415 1.88c.03.05.087.08.148.079M15.79 9.047v-.902a.11.11 0 0 0-.036-.084.129.129 0 0 0-.091-.033h-3.849a.129.129 0 0 0-.09.033.11.11 0 0 0-.037.084v6.621a.11.11 0 0 0 .036.085.129.129 0 0 0 .091.033h3.852a.129.129 0 0 0 .09-.033.11.11 0 0 0 .037-.085v-.9a.11.11 0 0 0-.036-.085.128.128 0 0 0-.091-.033h-2.624a.063.063 0 0 1-.046-.016.054.054 0 0 1-.018-.042v-1.646c0-.016.006-.031.018-.042a.064.064 0 0 1 .046-.017h2.624a.128.128 0 0 0 .091-.033.109.109 0 0 0 .036-.084v-.89a.11.11 0 0 0-.036-.084.128.128 0 0 0-.091-.034h-2.624a.058.058 0 0 1-.048-.014.05.05 0 0 1-.016-.044V9.223c0-.016.006-.03.018-.042a.063.063 0 0 1 .046-.016h2.624a.128.128 0 0 0 .09-.033.11.11 0 0 0 .037-.085m-8.25 4.701h-1.12a.063.063 0 0 1-.047-.016.054.054 0 0 1-.017-.042v-1.646A.05.05 0 0 1 6.375 12a.06.06 0 0 1 .047-.015h1.122c.687 0 1.068.363 1.068.882s-.38.881-1.068.881m-.106-4.586c.666 0 1.036.333 1.036.842 0 .509-.37.852-1.036.852H6.42a.058.058 0 0 1-.048-.014.05.05 0 0 1-.016-.044V9.223a.05.05 0 0 1 .016-.044.058.058 0 0 1 .048-.014l1.02-.003Zm1.544 2.154c.54-.305.863-.854.847-1.44 0-1.047-.784-1.85-2.222-1.85H5.194a.128.128 0 0 0-.091.034.109.109 0 0 0-.035.085v6.621a.109.109 0 0 0 .036.085.128.128 0 0 0 .09.033h2.51c1.48 0 2.263-.833 2.263-1.93 0-.715-.37-1.253-.984-1.557-.042-.03-.042-.059 0-.078"/><path fill="#000" d="M57.956 17.492s-.377-2.47-.556-3.513l.076-.016a.233.233 0 0 0 .164-.132.227.227 0 0 0-.012-.208c-.424-.729-.577-1.631-.577-2.533a4.775 4.775 0 0 1 .302-1.664l.021-.06c.2-.44.328-.908.382-1.387a3.888 3.888 0 0 0-.313-1.9l-.035-.06a.488.488 0 0 0 .066-.602c-.14-.237-.427-.332-.641-.21a1.44 1.44 0 0 0-.1.067c-.038-.029-.061-.043-.061-.043s-.06-.04-.112-.066l-.02-.01a1.834 1.834 0 0 0-1.08-.11 1.788 1.788 0 0 0-.695.307 1.048 1.048 0 0 1-.22.041l-.29.014c-.136.005-.292 0-.292 0a.123.123 0 0 0-.124.12l.045.4a.32.32 0 0 0 .137.244l.01.006c.02.01.035.027.045.047a.441.441 0 0 0 .14.197c.02.012.052.006.057-.016.056-.214.185.017.432-.115.063-.034.097.118.07.184l-.023.057a.388.388 0 0 1-.305.24c-.11.015-.172.026-.17.04.013.122 0 .226.123.302.018.01.036.017.055.023.191.05.75.26.04 1.087a1.841 1.841 0 0 0-.12.15.393.393 0 0 0-.039.067l-.015.03-2.136-.787a.485.485 0 0 1-.186-.15l-.21-.357a.556.556 0 0 0-.472-.264 1.928 1.928 0 0 0-.297 0c-.063 0-.1.018-.114.055-.017.09 0 .184.047.264l.183.331c.016.024.247.533.247.533a.38.38 0 0 0 .115.161l2.19 1.63-2.31 1.137a.287.287 0 0 1-.217.022l-.207-.062c-.381-.166-.663-.05-.83.087l-.065.061a.107.107 0 0 0 .032.18s.364.212.445.266l.568.332a.42.42 0 0 0 .292.046l2.243-.446c.036.525.126 1.044.27 1.55a3.967 3.967 0 0 0-1.144 2.12c-.108.597-.076 1.137.092 1.774-.313.017-.615.062-.866.234-.251.172-.289.456-.29.602l1.754.003h.148a.25.25 0 0 0 .23-.183c.015-.059.026-.119.032-.18.055-.46.195-.91.411-1.322.188-.347.423-.667.698-.951a6.92 6.92 0 0 0 1.983 1.812 1.973 1.973 0 0 0-.729.193.737.737 0 0 0-.363.636h1.815a.28.28 0 0 0 .275-.222v-.026a.233.233 0 0 0 .001-.057Z"/></g></svg>