<svg width="157" height="145" xmlns="http://www.w3.org/2000/svg" xmlns:xlink="http://www.w3.org/1999/xlink"><defs><filter color-interpolation-filters="auto" id="a"><feColorMatrix in="SourceGraphic" values="0 0 0 0 0.000000 0 0 0 0 0.000000 0 0 0 0 0.761266 0 0 0 1.000000 0"/></filter><filter color-interpolation-filters="auto" id="b"><feColorMatrix in="SourceGraphic" values="0 0 0 0 0.511792 0 0 0 0 0.190149 0 0 0 0 1.000000 0 0 0 1.000000 0"/></filter><filter color-interpolation-filters="auto" id="c"><feColorMatrix in="SourceGraphic" values="0 0 0 0 0.511792 0 0 0 0 0.190149 0 0 0 0 1.000000 0 0 0 1.000000 0"/></filter><filter color-interpolation-filters="auto" id="e"><feColorMatrix in="SourceGraphic" values="0 0 0 0 0.274510 0 0 0 0 0.925490 0 0 0 0 0.631373 0 0 0 1.000000 0"/></filter><filter color-interpolation-filters="auto" id="g"><feColorMatrix in="SourceGraphic" values="0 0 0 0 0.974977 0 0 0 0 0.989612 0 0 0 0 0.991508 0 0 0 1.000000 0"/></filter><filter color-interpolation-filters="auto" id="h"><feColorMatrix in="SourceGraphic" values="0 0 0 0 0.274510 0 0 0 0 0.925490 0 0 0 0 0.631373 0 0 0 1.000000 0"/></filter><filter color-interpolation-filters="auto" id="i"><feColorMatrix in="SourceGraphic" values="0 0 0 0 0.511792 0 0 0 0 0.190149 0 0 0 0 1.000000 0 0 0 1.000000 0"/></filter><filter color-interpolation-filters="auto" id="j"><feColorMatrix in="SourceGraphic" values="0 0 0 0 0.511792 0 0 0 0 0.190149 0 0 0 0 1.000000 0 0 0 1.000000 0"/></filter><path id="d" d="M0 0h39v29H0z"/></defs><g fill="none" fill-rule="evenodd"><g transform="translate(0 58)"><path fill="#8330FF" d="M0 0h39v29H0z"/><path fill="#0000C2" d="M39 0h118v29H39z"/><path d="M53.104 20.708c1.364 0 2.45-.3 3.256-.902.807-.601 1.21-1.445 1.21-2.53 0-.733-.187-1.32-.561-1.76-.374-.44-.884-.777-1.529-1.012a12.24 12.24 0 0 0-2.134-.55l-.77-.132c-.587-.103-1.052-.257-1.397-.462-.345-.205-.517-.528-.517-.968 0-.41.176-.73.528-.957.352-.227.836-.341 1.452-.341.63 0 1.159.136 1.584.407.425.271.704.737.836 1.397l2.112-.594a3.752 3.752 0 0 0-1.529-2.233c-.785-.55-1.786-.825-3.003-.825-1.261 0-2.273.282-3.036.847-.763.565-1.144 1.36-1.144 2.387 0 .69.176 1.254.528 1.694.352.44.829.785 1.43 1.034a9.71 9.71 0 0 0 2.002.572l.748.132c.719.132 1.261.3 1.628.506.367.205.55.528.55.968 0 .44-.194.8-.583 1.078-.389.279-.942.418-1.661.418-.484 0-.935-.073-1.353-.22a2.266 2.266 0 0 1-1.045-.748c-.279-.352-.477-.829-.594-1.43L48 16.99c.205 1.247.763 2.178 1.672 2.794.91.616 2.053.924 3.432.924Zm14.177-.308v-1.914h-2.266c-.41 0-.616-.22-.616-.66v-6.358h3.234V9.554h-3.234V5.968h-2.266v3.586H59.14v1.914h2.992v6.754c0 .66.194 1.188.583 1.584.388.396.913.594 1.573.594h2.992Zm6.382.308c.748 0 1.35-.106 1.804-.319.455-.213.8-.466 1.034-.759.235-.293.41-.55.528-.77h.33v.066c0 .455.161.814.484 1.078.323.264.74.396 1.254.396h1.694v-1.892h-.924c-.41 0-.616-.22-.616-.66v-4.466c0-1.32-.403-2.34-1.21-3.058-.807-.719-1.914-1.078-3.322-1.078-.91 0-1.687.147-2.332.44-.645.293-1.162.678-1.551 1.155a4.586 4.586 0 0 0-.847 1.595l2.112.682c.132-.587.403-1.063.814-1.43.41-.367 1.005-.55 1.782-.55.792 0 1.379.19 1.76.572.381.381.572.887.572 1.518v.704h-3.3c-.792 0-1.5.125-2.123.374-.623.25-1.115.62-1.474 1.111-.36.491-.539 1.111-.539 1.859 0 .733.18 1.357.539 1.87.36.513.843.902 1.452 1.166.609.264 1.302.396 2.079.396Zm.33-1.87c-.66 0-1.18-.147-1.562-.44-.381-.293-.572-.69-.572-1.188 0-.499.183-.876.55-1.133.367-.257.85-.385 1.452-.385h3.168v.22c0 .91-.279 1.624-.836 2.145-.557.52-1.29.781-2.2.781Zm13.477 1.87c1.056 0 1.867-.19 2.431-.572.565-.381.987-.807 1.265-1.276h.352v1.54h2.222V5h-2.266v6.028h-.352a3.203 3.203 0 0 0-.704-.847c-.308-.271-.7-.495-1.177-.671-.476-.176-1.067-.264-1.77-.264-.91 0-1.746.22-2.509.66-.762.44-1.371 1.078-1.826 1.914-.454.836-.682 1.833-.682 2.992v.33c0 1.173.231 2.174.693 3.003.462.829 1.075 1.463 1.837 1.903.763.44 1.592.66 2.486.66Zm.638-1.98c-.968 0-1.77-.315-2.409-.946-.638-.63-.957-1.533-.957-2.706v-.198c0-1.159.32-2.053.957-2.684.638-.63 1.441-.946 2.41-.946.997 0 1.81.315 2.441.946.63.63.946 1.525.946 2.684v.198c0 1.173-.319 2.075-.957 2.706-.638.63-1.448.946-2.43.946Zm16.034 1.672v-1.914h-2.266c-.41 0-.616-.22-.616-.66v-6.358h3.234V9.554h-3.234V5.968h-2.266v3.586h-2.992v1.914h2.992v6.754c0 .66.194 1.188.583 1.584.388.396.913.594 1.573.594h2.992Zm5.282 4.4v-5.874h.352c.176.293.41.576.704.847.293.271.682.495 1.166.671.484.176 1.078.264 1.782.264.91 0 1.745-.22 2.508-.66.763-.44 1.371-1.074 1.826-1.903.455-.829.682-1.83.682-3.003v-.33c0-1.173-.231-2.174-.693-3.003-.462-.829-1.07-1.463-1.826-1.903a4.871 4.871 0 0 0-2.497-.66c-1.056 0-1.866.19-2.431.572-.565.381-.986.814-1.265 1.298h-.352V9.554h-2.222V24.8h2.266Zm3.344-6.072c-.968 0-1.771-.315-2.409-.946-.638-.63-.957-1.533-.957-2.706v-.198c0-1.159.319-2.053.957-2.684.638-.63 1.441-.946 2.409-.946.983 0 1.793.315 2.431.946.638.63.957 1.525.957 2.684v.198c0 1.173-.315 2.075-.946 2.706-.63.63-1.445.946-2.442.946Zm12.646 1.87c1.026 0 1.804-.194 2.332-.583.528-.389.894-.803 1.1-1.243h.352V20.4h2.222V9.554h-2.266v5.478c0 1.173-.283 2.072-.847 2.695-.565.623-1.31.935-2.233.935-.836 0-1.49-.224-1.958-.671-.47-.447-.704-1.14-.704-2.079V9.554h-2.266v6.512c0 .939.183 1.745.55 2.42a3.893 3.893 0 0 0 1.518 1.562c.645.367 1.378.55 2.2.55Zm11.621-.198V5h-2.266v15.4h2.266Zm7.8.308c1.363 0 2.448-.3 3.255-.902.807-.601 1.21-1.445 1.21-2.53 0-.733-.187-1.32-.56-1.76-.375-.44-.885-.777-1.53-1.012a12.24 12.24 0 0 0-2.134-.55l-.77-.132c-.587-.103-1.052-.257-1.397-.462-.345-.205-.517-.528-.517-.968 0-.41.176-.73.528-.957.352-.227.836-.341 1.452-.341.63 0 1.159.136 1.584.407.425.271.704.737.836 1.397l2.112-.594a3.752 3.752 0 0 0-1.529-2.233c-.785-.55-1.786-.825-3.003-.825-1.261 0-2.273.282-3.036.847-.763.565-1.144 1.36-1.144 2.387 0 .69.176 1.254.528 1.694.352.44.829.785 1.43 1.034a9.71 9.71 0 0 0 2.002.572l.748.132c.719.132 1.261.3 1.628.506.367.205.55.528.55.968 0 .44-.194.8-.583 1.078-.389.279-.942.418-1.66.418-.485 0-.936-.073-1.354-.22a2.266 2.266 0 0 1-1.045-.748c-.279-.352-.477-.829-.594-1.43l-2.112.506c.205 1.247.763 2.178 1.672 2.794.91.616 2.053.924 3.432.924Z" fill="#46ECA1" fill-rule="nonzero"/><g filter="url(#a)"><g transform="translate(3 3)" fill="#D8D8D8"><circle cx="11.5" cy="1.5" r="1.5"/><circle cx="1.5" cy="21.5" r="1.5"/><circle cx="21.5" cy="21.5" r="1.5"/></g></g><circle fill="#46ECA1" cx="14.5" cy="14.5" r="1.5"/><circle fill="#46ECA1" cx="14.5" cy="24.5" r="1.5"/><circle fill="#46ECA1" cx="24.5" cy="14.5" r="1.5"/><circle fill="#F9FCFD" cx="24.5" cy="4.5" r="1.5"/><circle fill="#F9FCFD" cx="34.5" cy="4.5" r="1.5"/><circle fill="#F9FCFD" cx="34.5" cy="14.5" r="1.5"/><circle fill="#F9FCFD" cx="34.5" cy="24.5" r="1.5"/><path d="M4.5 3A1.5 1.5 0 0 1 5 5.914v7.172a1.5 1.5 0 1 1-1 0V5.914A1.5 1.5 0 0 1 4.5 3Z" fill="#0000C2"/><path stroke="#46ECA1" stroke-linecap="round" stroke-linejoin="round" d="M14.5 24.4v-9.724h10"/><path stroke="#F9FCFD" stroke-linecap="round" stroke-linejoin="round" d="M24.638 4.538h9.724V24.4"/></g><g transform="translate(0 87)"><path fill="#46ECA1" d="M39 0h118v29H39z"/><path fill="#0000C2" d="M39 0H0v29h39z"/><path d="M53.104 20.708c1.364 0 2.45-.3 3.256-.902.807-.601 1.21-1.445 1.21-2.53 0-.733-.187-1.32-.561-1.76-.374-.44-.884-.777-1.529-1.012a12.24 12.24 0 0 0-2.134-.55l-.77-.132c-.587-.103-1.052-.257-1.397-.462-.345-.205-.517-.528-.517-.968 0-.41.176-.73.528-.957.352-.227.836-.341 1.452-.341.63 0 1.159.136 1.584.407.425.271.704.737.836 1.397l2.112-.594a3.752 3.752 0 0 0-1.529-2.233c-.785-.55-1.786-.825-3.003-.825-1.261 0-2.273.282-3.036.847-.763.565-1.144 1.36-1.144 2.387 0 .69.176 1.254.528 1.694.352.44.829.785 1.43 1.034a9.71 9.71 0 0 0 2.002.572l.748.132c.719.132 1.261.3 1.628.506.367.205.55.528.55.968 0 .44-.194.8-.583 1.078-.389.279-.942.418-1.661.418-.484 0-.935-.073-1.353-.22a2.266 2.266 0 0 1-1.045-.748c-.279-.352-.477-.829-.594-1.43L48 16.99c.205 1.247.763 2.178 1.672 2.794.91.616 2.053.924 3.432.924Zm14.177-.308v-1.914h-2.266c-.41 0-.616-.22-.616-.66v-6.358h3.234V9.554h-3.234V5.968h-2.266v3.586H59.14v1.914h2.992v6.754c0 .66.194 1.188.583 1.584.388.396.913.594 1.573.594h2.992Zm6.382.308c.748 0 1.35-.106 1.804-.319.455-.213.8-.466 1.034-.759.235-.293.41-.55.528-.77h.33v.066c0 .455.161.814.484 1.078.323.264.74.396 1.254.396h1.694v-1.892h-.924c-.41 0-.616-.22-.616-.66v-4.466c0-1.32-.403-2.34-1.21-3.058-.807-.719-1.914-1.078-3.322-1.078-.91 0-1.687.147-2.332.44-.645.293-1.162.678-1.551 1.155a4.586 4.586 0 0 0-.847 1.595l2.112.682c.132-.587.403-1.063.814-1.43.41-.367 1.005-.55 1.782-.55.792 0 1.379.19 1.76.572.381.381.572.887.572 1.518v.704h-3.3c-.792 0-1.5.125-2.123.374-.623.25-1.115.62-1.474 1.111-.36.491-.539 1.111-.539 1.859 0 .733.18 1.357.539 1.87.36.513.843.902 1.452 1.166.609.264 1.302.396 2.079.396Zm.33-1.87c-.66 0-1.18-.147-1.562-.44-.381-.293-.572-.69-.572-1.188 0-.499.183-.876.55-1.133.367-.257.85-.385 1.452-.385h3.168v.22c0 .91-.279 1.624-.836 2.145-.557.52-1.29.781-2.2.781Zm13.477 1.87c1.056 0 1.867-.19 2.431-.572.565-.381.987-.807 1.265-1.276h.352v1.54h2.222V5h-2.266v6.028h-.352a3.203 3.203 0 0 0-.704-.847c-.308-.271-.7-.495-1.177-.671-.476-.176-1.067-.264-1.77-.264-.91 0-1.746.22-2.509.66-.762.44-1.371 1.078-1.826 1.914-.454.836-.682 1.833-.682 2.992v.33c0 1.173.231 2.174.693 3.003.462.829 1.075 1.463 1.837 1.903.763.44 1.592.66 2.486.66Zm.638-1.98c-.968 0-1.77-.315-2.409-.946-.638-.63-.957-1.533-.957-2.706v-.198c0-1.159.32-2.053.957-2.684.638-.63 1.441-.946 2.41-.946.997 0 1.81.315 2.441.946.63.63.946 1.525.946 2.684v.198c0 1.173-.319 2.075-.957 2.706-.638.63-1.448.946-2.43.946Zm16.034 1.672v-1.914h-2.266c-.41 0-.616-.22-.616-.66v-6.358h3.234V9.554h-3.234V5.968h-2.266v3.586h-2.992v1.914h2.992v6.754c0 .66.194 1.188.583 1.584.388.396.913.594 1.573.594h2.992Zm5.282 4.4v-5.874h.352c.176.293.41.576.704.847.293.271.682.495 1.166.671.484.176 1.078.264 1.782.264.91 0 1.745-.22 2.508-.66.763-.44 1.371-1.074 1.826-1.903.455-.829.682-1.83.682-3.003v-.33c0-1.173-.231-2.174-.693-3.003-.462-.829-1.07-1.463-1.826-1.903a4.871 4.871 0 0 0-2.497-.66c-1.056 0-1.866.19-2.431.572-.565.381-.986.814-1.265 1.298h-.352V9.554h-2.222V24.8h2.266Zm3.344-6.072c-.968 0-1.771-.315-2.409-.946-.638-.63-.957-1.533-.957-2.706v-.198c0-1.159.319-2.053.957-2.684.638-.63 1.441-.946 2.409-.946.983 0 1.793.315 2.431.946.638.63.957 1.525.957 2.684v.198c0 1.173-.315 2.075-.946 2.706-.63.63-1.445.946-2.442.946Zm12.646 1.87c1.026 0 1.804-.194 2.332-.583.528-.389.894-.803 1.1-1.243h.352V20.4h2.222V9.554h-2.266v5.478c0 1.173-.283 2.072-.847 2.695-.565.623-1.31.935-2.233.935-.836 0-1.49-.224-1.958-.671-.47-.447-.704-1.14-.704-2.079V9.554h-2.266v6.512c0 .939.183 1.745.55 2.42a3.893 3.893 0 0 0 1.518 1.562c.645.367 1.378.55 2.2.55Zm11.621-.198V5h-2.266v15.4h2.266Zm7.8.308c1.363 0 2.448-.3 3.255-.902.807-.601 1.21-1.445 1.21-2.53 0-.733-.187-1.32-.56-1.76-.375-.44-.885-.777-1.53-1.012a12.24 12.24 0 0 0-2.134-.55l-.77-.132c-.587-.103-1.052-.257-1.397-.462-.345-.205-.517-.528-.517-.968 0-.41.176-.73.528-.957.352-.227.836-.341 1.452-.341.63 0 1.159.136 1.584.407.425.271.704.737.836 1.397l2.112-.594a3.752 3.752 0 0 0-1.529-2.233c-.785-.55-1.786-.825-3.003-.825-1.261 0-2.273.282-3.036.847-.763.565-1.144 1.36-1.144 2.387 0 .69.176 1.254.528 1.694.352.44.829.785 1.43 1.034a9.71 9.71 0 0 0 2.002.572l.748.132c.719.132 1.261.3 1.628.506.367.205.55.528.55.968 0 .44-.194.8-.583 1.078-.389.279-.942.418-1.66.418-.485 0-.936-.073-1.354-.22a2.266 2.266 0 0 1-1.045-.748c-.279-.352-.477-.829-.594-1.43l-2.112.506c.205 1.247.763 2.178 1.672 2.794.91.616 2.053.924 3.432.924Z" fill="#0000C2" fill-rule="nonzero"/><g filter="url(#b)"><g transform="translate(3 3)" fill="#D8D8D8"><circle cx="1.5" cy="1.5" r="1.5"/><circle cx="21.5" cy="1.5" r="1.5"/></g></g><circle fill="#46ECA1" cx="4.5" cy="14.5" r="1.5"/><circle fill="#46ECA1" cx="4.5" cy="24.5" r="1.5"/><circle fill="#46ECA1" cx="34.5" cy="4.5" r="1.5"/><circle fill="#46ECA1" cx="34.5" cy="14.5" r="1.5"/><circle fill="#46ECA1" cx="34.5" cy="24.5" r="1.5"/><path d="M14.5 3a1.5 1.5 0 0 1 .5 2.914v7.172a1.5 1.5 0 0 1 0 2.828v7.172a1.5 1.5 0 1 1-1 0v-7.171a1.5 1.5 0 0 1 0-2.83v-7.17A1.5 1.5 0 0 1 14.5 3Zm10 10a1.5 1.5 0 0 1 .5 2.914v7.172a1.5 1.5 0 1 1-1 0v-7.171A1.5 1.5 0 0 1 24.5 13Z" fill="#F9FCFD"/><path d="M4.5 14c.245 0 .45.181.492.42l.008.093v9.974a.507.507 0 0 1-.5.513.504.504 0 0 1-.492-.42L4 24.486v-9.974c0-.283.224-.513.5-.513ZM35 24.362a.5.5 0 0 1-.992.09l-.008-.09V4.5a.5.5 0 0 1 .992-.09L35 4.5v19.862Z" fill="#46ECA1" fill-rule="nonzero"/></g><path fill="#8330FF" d="M39 0h118v29H39z"/><path fill="#46ECA1" d="M39 0H0v29h39z"/><g filter="url(#c)"><g transform="translate(3 3)" fill="#D8D8D8"><circle cx="1.5" cy="1.5" r="1.5"/><circle cx="11.5" cy="11.5" r="1.5"/><circle cx="21.5" cy="21.5" r="1.5"/><circle cx="31.5" cy="11.5" r="1.5"/></g></g><path d="M34.5 3a1.5 1.5 0 1 1-.584 2.882l-8.059 7.978a1.5 1.5 0 1 1-2.717.006l-8.106-7.964A1.497 1.497 0 0 1 13.96 5.9l-8.13 7.905a1.5 1.5 0 1 1-.734-.682l8.101-7.879a1.5 1.5 0 1 1 2.602.006l8.043 7.901a1.494 1.494 0 0 1 1.31-.002l8.024-7.943A1.5 1.5 0 0 1 34.5 3Z" fill="#F9FCFD"/><circle fill="#0000C2" cx="4.5" cy="24.5" r="1.5"/><circle fill="#0000C2" cx="14.5" cy="24.5" r="1.5"/><circle fill="#0000C2" cx="24.5" cy="4.5" r="1.5"/><circle fill="#0000C2" cx="34.5" cy="24.5" r="1.5"/><path d="M53.104 20.708c1.364 0 2.45-.3 3.256-.902.807-.601 1.21-1.445 1.21-2.53 0-.733-.187-1.32-.561-1.76-.374-.44-.884-.777-1.529-1.012a12.24 12.24 0 0 0-2.134-.55l-.77-.132c-.587-.103-1.052-.257-1.397-.462-.345-.205-.517-.528-.517-.968 0-.41.176-.73.528-.957.352-.227.836-.341 1.452-.341.63 0 1.159.136 1.584.407.425.271.704.737.836 1.397l2.112-.594a3.752 3.752 0 0 0-1.529-2.233c-.785-.55-1.786-.825-3.003-.825-1.261 0-2.273.282-3.036.847-.763.565-1.144 1.36-1.144 2.387 0 .69.176 1.254.528 1.694.352.44.829.785 1.43 1.034a9.71 9.71 0 0 0 2.002.572l.748.132c.719.132 1.261.3 1.628.506.367.205.55.528.55.968 0 .44-.194.8-.583 1.078-.389.279-.942.418-1.661.418-.484 0-.935-.073-1.353-.22a2.266 2.266 0 0 1-1.045-.748c-.279-.352-.477-.829-.594-1.43L48 16.99c.205 1.247.763 2.178 1.672 2.794.91.616 2.053.924 3.432.924Zm14.177-.308v-1.914h-2.266c-.41 0-.616-.22-.616-.66v-6.358h3.234V9.554h-3.234V5.968h-2.266v3.586H59.14v1.914h2.992v6.754c0 .66.194 1.188.583 1.584.388.396.913.594 1.573.594h2.992Zm6.382.308c.748 0 1.35-.106 1.804-.319.455-.213.8-.466 1.034-.759.235-.293.41-.55.528-.77h.33v.066c0 .455.161.814.484 1.078.323.264.74.396 1.254.396h1.694v-1.892h-.924c-.41 0-.616-.22-.616-.66v-4.466c0-1.32-.403-2.34-1.21-3.058-.807-.719-1.914-1.078-3.322-1.078-.91 0-1.687.147-2.332.44-.645.293-1.162.678-1.551 1.155a4.586 4.586 0 0 0-.847 1.595l2.112.682c.132-.587.403-1.063.814-1.43.41-.367 1.005-.55 1.782-.55.792 0 1.379.19 1.76.572.381.381.572.887.572 1.518v.704h-3.3c-.792 0-1.5.125-2.123.374-.623.25-1.115.62-1.474 1.111-.36.491-.539 1.111-.539 1.859 0 .733.18 1.357.539 1.87.36.513.843.902 1.452 1.166.609.264 1.302.396 2.079.396Zm.33-1.87c-.66 0-1.18-.147-1.562-.44-.381-.293-.572-.69-.572-1.188 0-.499.183-.876.55-1.133.367-.257.85-.385 1.452-.385h3.168v.22c0 .91-.279 1.624-.836 2.145-.557.52-1.29.781-2.2.781Zm13.477 1.87c1.056 0 1.867-.19 2.431-.572.565-.381.987-.807 1.265-1.276h.352v1.54h2.222V5h-2.266v6.028h-.352a3.203 3.203 0 0 0-.704-.847c-.308-.271-.7-.495-1.177-.671-.476-.176-1.067-.264-1.77-.264-.91 0-1.746.22-2.509.66-.762.44-1.371 1.078-1.826 1.914-.454.836-.682 1.833-.682 2.992v.33c0 1.173.231 2.174.693 3.003.462.829 1.075 1.463 1.837 1.903.763.44 1.592.66 2.486.66Zm.638-1.98c-.968 0-1.77-.315-2.409-.946-.638-.63-.957-1.533-.957-2.706v-.198c0-1.159.32-2.053.957-2.684.638-.63 1.441-.946 2.41-.946.997 0 1.81.315 2.441.946.63.63.946 1.525.946 2.684v.198c0 1.173-.319 2.075-.957 2.706-.638.63-1.448.946-2.43.946Zm16.034 1.672v-1.914h-2.266c-.41 0-.616-.22-.616-.66v-6.358h3.234V9.554h-3.234V5.968h-2.266v3.586h-2.992v1.914h2.992v6.754c0 .66.194 1.188.583 1.584.388.396.913.594 1.573.594h2.992Zm5.282 4.4v-5.874h.352c.176.293.41.576.704.847.293.271.682.495 1.166.671.484.176 1.078.264 1.782.264.91 0 1.745-.22 2.508-.66.763-.44 1.371-1.074 1.826-1.903.455-.829.682-1.83.682-3.003v-.33c0-1.173-.231-2.174-.693-3.003-.462-.829-1.07-1.463-1.826-1.903a4.871 4.871 0 0 0-2.497-.66c-1.056 0-1.866.19-2.431.572-.565.381-.986.814-1.265 1.298h-.352V9.554h-2.222V24.8h2.266Zm3.344-6.072c-.968 0-1.771-.315-2.409-.946-.638-.63-.957-1.533-.957-2.706v-.198c0-1.159.319-2.053.957-2.684.638-.63 1.441-.946 2.409-.946.983 0 1.793.315 2.431.946.638.63.957 1.525.957 2.684v.198c0 1.173-.315 2.075-.946 2.706-.63.63-1.445.946-2.442.946Zm12.646 1.87c1.026 0 1.804-.194 2.332-.583.528-.389.894-.803 1.1-1.243h.352V20.4h2.222V9.554h-2.266v5.478c0 1.173-.283 2.072-.847 2.695-.565.623-1.31.935-2.233.935-.836 0-1.49-.224-1.958-.671-.47-.447-.704-1.14-.704-2.079V9.554h-2.266v6.512c0 .939.183 1.745.55 2.42a3.893 3.893 0 0 0 1.518 1.562c.645.367 1.378.55 2.2.55Zm11.621-.198V5h-2.266v15.4h2.266Zm7.8.308c1.363 0 2.448-.3 3.255-.902.807-.601 1.21-1.445 1.21-2.53 0-.733-.187-1.32-.56-1.76-.375-.44-.885-.777-1.53-1.012a12.24 12.24 0 0 0-2.134-.55l-.77-.132c-.587-.103-1.052-.257-1.397-.462-.345-.205-.517-.528-.517-.968 0-.41.176-.73.528-.957.352-.227.836-.341 1.452-.341.63 0 1.159.136 1.584.407.425.271.704.737.836 1.397l2.112-.594a3.752 3.752 0 0 0-1.529-2.233c-.785-.55-1.786-.825-3.003-.825-1.261 0-2.273.282-3.036.847-.763.565-1.144 1.36-1.144 2.387 0 .69.176 1.254.528 1.694.352.44.829.785 1.43 1.034a9.71 9.71 0 0 0 2.002.572l.748.132c.719.132 1.261.3 1.628.506.367.205.55.528.55.968 0 .44-.194.8-.583 1.078-.389.279-.942.418-1.66.418-.485 0-.936-.073-1.354-.22a2.266 2.266 0 0 1-1.045-.748c-.279-.352-.477-.829-.594-1.43l-2.112.506c.205 1.247.763 2.178 1.672 2.794.91.616 2.053.924 3.432.924Z" fill="#F9FCFD" fill-rule="nonzero"/><path stroke="#0000C2" stroke-linecap="round" stroke-linejoin="round" d="m34.5 24.4-10-19.9-10 20-10-.1"/><g><path fill="#46ECA1" d="M39 29h118v29H39z"/><path d="M53.104 49.708c1.364 0 2.45-.3 3.256-.902.807-.601 1.21-1.445 1.21-2.53 0-.733-.187-1.32-.561-1.76-.374-.44-.884-.777-1.529-1.012a12.24 12.24 0 0 0-2.134-.55l-.77-.132c-.587-.103-1.052-.257-1.397-.462-.345-.205-.517-.528-.517-.968 0-.41.176-.73.528-.957.352-.227.836-.341 1.452-.341.63 0 1.159.136 1.584.407.425.271.704.737.836 1.397l2.112-.594a3.752 3.752 0 0 0-1.529-2.233c-.785-.55-1.786-.825-3.003-.825-1.261 0-2.273.282-3.036.847-.763.565-1.144 1.36-1.144 2.387 0 .69.176 1.254.528 1.694.352.44.829.785 1.43 1.034a9.71 9.71 0 0 0 2.002.572l.748.132c.719.132 1.261.3 1.628.506.367.205.55.528.55.968 0 .44-.194.8-.583 1.078-.389.279-.942.418-1.661.418-.484 0-.935-.073-1.353-.22a2.266 2.266 0 0 1-1.045-.748c-.279-.352-.477-.829-.594-1.43L48 45.99c.205 1.247.763 2.178 1.672 2.794.91.616 2.053.924 3.432.924Zm14.177-.308v-1.914h-2.266c-.41 0-.616-.22-.616-.66v-6.358h3.234v-1.914h-3.234v-3.586h-2.266v3.586H59.14v1.914h2.992v6.754c0 .66.194 1.188.583 1.584.388.396.913.594 1.573.594h2.992Zm6.382.308c.748 0 1.35-.106 1.804-.319.455-.213.8-.466 1.034-.759.235-.293.41-.55.528-.77h.33v.066c0 .455.161.814.484 1.078.323.264.74.396 1.254.396h1.694v-1.892h-.924c-.41 0-.616-.22-.616-.66v-4.466c0-1.32-.403-2.34-1.21-3.058-.807-.719-1.914-1.078-3.322-1.078-.91 0-1.687.147-2.332.44-.645.293-1.162.678-1.551 1.155a4.586 4.586 0 0 0-.847 1.595l2.112.682c.132-.587.403-1.063.814-1.43.41-.367 1.005-.55 1.782-.55.792 0 1.379.19 1.76.572.381.381.572.887.572 1.518v.704h-3.3c-.792 0-1.5.125-2.123.374-.623.25-1.115.62-1.474 1.111-.36.491-.539 1.111-.539 1.859 0 .733.18 1.357.539 1.87.36.513.843.902 1.452 1.166.609.264 1.302.396 2.079.396Zm.33-1.87c-.66 0-1.18-.147-1.562-.44-.381-.293-.572-.69-.572-1.188 0-.499.183-.876.55-1.133.367-.257.85-.385 1.452-.385h3.168v.22c0 .91-.279 1.624-.836 2.145-.557.52-1.29.781-2.2.781Zm13.477 1.87c1.056 0 1.867-.19 2.431-.572.565-.381.987-.807 1.265-1.276h.352v1.54h2.222V34h-2.266v6.028h-.352a3.203 3.203 0 0 0-.704-.847c-.308-.271-.7-.495-1.177-.671-.476-.176-1.067-.264-1.77-.264-.91 0-1.746.22-2.509.66-.762.44-1.371 1.078-1.826 1.914-.454.836-.682 1.833-.682 2.992v.33c0 1.173.231 2.174.693 3.003.462.829 1.075 1.463 1.837 1.903.763.44 1.592.66 2.486.66Zm.638-1.98c-.968 0-1.77-.315-2.409-.946-.638-.63-.957-1.533-.957-2.706v-.198c0-1.159.32-2.053.957-2.684.638-.63 1.441-.946 2.41-.946.997 0 1.81.315 2.441.946.63.63.946 1.525.946 2.684v.198c0 1.173-.319 2.075-.957 2.706-.638.63-1.448.946-2.43.946Zm16.034 1.672v-1.914h-2.266c-.41 0-.616-.22-.616-.66v-6.358h3.234v-1.914h-3.234v-3.586h-2.266v3.586h-2.992v1.914h2.992v6.754c0 .66.194 1.188.583 1.584.388.396.913.594 1.573.594h2.992Zm5.282 4.4v-5.874h.352c.176.293.41.576.704.847.293.271.682.495 1.166.671.484.176 1.078.264 1.782.264.91 0 1.745-.22 2.508-.66.763-.44 1.371-1.074 1.826-1.903.455-.829.682-1.83.682-3.003v-.33c0-1.173-.231-2.174-.693-3.003-.462-.829-1.07-1.463-1.826-1.903a4.871 4.871 0 0 0-2.497-.66c-1.056 0-1.866.19-2.431.572-.565.381-.986.814-1.265 1.298h-.352v-1.562h-2.222V53.8h2.266Zm3.344-6.072c-.968 0-1.771-.315-2.409-.946-.638-.63-.957-1.533-.957-2.706v-.198c0-1.159.319-2.053.957-2.684.638-.63 1.441-.946 2.409-.946.983 0 1.793.315 2.431.946.638.63.957 1.525.957 2.684v.198c0 1.173-.315 2.075-.946 2.706-.63.63-1.445.946-2.442.946Zm12.646 1.87c1.026 0 1.804-.194 2.332-.583.528-.389.894-.803 1.1-1.243h.352V49.4h2.222V38.554h-2.266v5.478c0 1.173-.283 2.072-.847 2.695-.565.623-1.31.935-2.233.935-.836 0-1.49-.224-1.958-.671-.47-.447-.704-1.14-.704-2.079v-6.358h-2.266v6.512c0 .939.183 1.745.55 2.42a3.893 3.893 0 0 0 1.518 1.562c.645.367 1.378.55 2.2.55Zm11.621-.198V34h-2.266v15.4h2.266Zm7.8.308c1.363 0 2.448-.3 3.255-.902.807-.601 1.21-1.445 1.21-2.53 0-.733-.187-1.32-.56-1.76-.375-.44-.885-.777-1.53-1.012a12.24 12.24 0 0 0-2.134-.55l-.77-.132c-.587-.103-1.052-.257-1.397-.462-.345-.205-.517-.528-.517-.968 0-.41.176-.73.528-.957.352-.227.836-.341 1.452-.341.63 0 1.159.136 1.584.407.425.271.704.737.836 1.397l2.112-.594a3.752 3.752 0 0 0-1.529-2.233c-.785-.55-1.786-.825-3.003-.825-1.261 0-2.273.282-3.036.847-.763.565-1.144 1.36-1.144 2.387 0 .69.176 1.254.528 1.694.352.44.829.785 1.43 1.034a9.71 9.71 0 0 0 2.002.572l.748.132c.719.132 1.261.3 1.628.506.367.205.55.528.55.968 0 .44-.194.8-.583 1.078-.389.279-.942.418-1.66.418-.485 0-.936-.073-1.354-.22a2.266 2.266 0 0 1-1.045-.748c-.279-.352-.477-.829-.594-1.43l-2.112.506c.205 1.247.763 2.178 1.672 2.794.91.616 2.053.924 3.432.924Z" fill="#0000C2" fill-rule="nonzero"/><g transform="translate(0 29)"><mask id="f" fill="#fff"><use xlink:href="#d"/></mask><use fill="#0000C2" transform="matrix(-1 0 0 1 39 0)" xlink:href="#d"/><g filter="url(#e)"><g mask="url(#f)"><g transform="translate(3 3)" fill="#D8D8D8"><circle cx="11.5" cy="1.5" r="1.5"/><circle cx="11.5" cy="11.5" r="1.5"/><circle cx="11.5" cy="21.5" r="1.5"/><circle cx="1.5" cy="1.5" r="1.5"/><circle cx="1.5" cy="11.5" r="1.5"/><circle cx="1.5" cy="21.5" r="1.5"/><circle cx="21.5" cy="1.5" r="1.5"/><circle cx="21.5" cy="11.5" r="1.5"/><circle cx="21.5" cy="21.5" r="1.5"/><circle cx="31.5" cy="1.5" r="1.5"/><circle cx="31.5" cy="11.5" r="1.5"/><circle cx="31.5" cy="21.5" r="1.5"/></g></g></g><g mask="url(#f)"><g filter="url(#g)" transform="translate(-2 -2)"><g transform="translate(30 10)" fill="red"><circle opacity=".317" cx="6.5" cy="6.5" r="6.5"/><circle opacity=".317" cx="6.5" cy="6.5" r="4.5"/><circle cx="6.5" cy="6.5" r="1.5"/></g></g><g filter="url(#h)" transform="translate(-2 -2)"><g style="mix-blend-mode:screen" transform="translate(10 20)" fill="#46ECA1"><circle opacity=".317" cx="6.5" cy="6.5" r="6.5"/><circle opacity=".317" cx="6.5" cy="6.5" r="4.5"/><circle cx="6.5" cy="6.5" r="1.5"/></g></g><g filter="url(#i)" transform="translate(-2 -2)"><g fill="#00F"><circle opacity=".317" cx="6.5" cy="6.5" r="6.5"/><circle opacity=".317" cx="6.5" cy="6.5" r="4.5"/><circle cx="6.5" cy="6.5" r="1.5"/></g></g></g></g></g><g transform="translate(0 116)"><path fill="#8330FF" d="M39 0h118v29H39z"/><path fill="#46ECA1" d="M39 0H0v29h39z"/><g filter="url(#j)"><g transform="translate(3 3)" fill="#D8D8D8"><circle cx="1.5" cy="1.5" r="1.5"/><circle cx="11.5" cy="11.5" r="1.5"/><circle cx="21.5" cy="21.5" r="1.5"/><circle cx="31.5" cy="11.5" r="1.5"/></g></g><path d="M34.5 3a1.5 1.5 0 1 1-.584 2.882l-8.059 7.978a1.5 1.5 0 1 1-2.717.006l-8.106-7.964A1.497 1.497 0 0 1 13.96 5.9l-8.13 7.905a1.5 1.5 0 1 1-.734-.682l8.101-7.879a1.5 1.5 0 1 1 2.602.006l8.043 7.901a1.494 1.494 0 0 1 1.31-.002l8.024-7.943A1.5 1.5 0 0 1 34.5 3Z" fill="#F9FCFD"/><circle fill="#0000C2" cx="4.5" cy="24.5" r="1.5"/><circle fill="#0000C2" cx="14.5" cy="24.5" r="1.5"/><circle fill="#0000C2" cx="24.5" cy="4.5" r="1.5"/><circle fill="#0000C2" cx="34.5" cy="24.5" r="1.5"/><path d="M53.104 20.708c1.364 0 2.45-.3 3.256-.902.807-.601 1.21-1.445 1.21-2.53 0-.733-.187-1.32-.561-1.76-.374-.44-.884-.777-1.529-1.012a12.24 12.24 0 0 0-2.134-.55l-.77-.132c-.587-.103-1.052-.257-1.397-.462-.345-.205-.517-.528-.517-.968 0-.41.176-.73.528-.957.352-.227.836-.341 1.452-.341.63 0 1.159.136 1.584.407.425.271.704.737.836 1.397l2.112-.594a3.752 3.752 0 0 0-1.529-2.233c-.785-.55-1.786-.825-3.003-.825-1.261 0-2.273.282-3.036.847-.763.565-1.144 1.36-1.144 2.387 0 .69.176 1.254.528 1.694.352.44.829.785 1.43 1.034a9.71 9.71 0 0 0 2.002.572l.748.132c.719.132 1.261.3 1.628.506.367.205.55.528.55.968 0 .44-.194.8-.583 1.078-.389.279-.942.418-1.661.418-.484 0-.935-.073-1.353-.22a2.266 2.266 0 0 1-1.045-.748c-.279-.352-.477-.829-.594-1.43L48 16.99c.205 1.247.763 2.178 1.672 2.794.91.616 2.053.924 3.432.924Zm14.177-.308v-1.914h-2.266c-.41 0-.616-.22-.616-.66v-6.358h3.234V9.554h-3.234V5.968h-2.266v3.586H59.14v1.914h2.992v6.754c0 .66.194 1.188.583 1.584.388.396.913.594 1.573.594h2.992Zm6.382.308c.748 0 1.35-.106 1.804-.319.455-.213.8-.466 1.034-.759.235-.293.41-.55.528-.77h.33v.066c0 .455.161.814.484 1.078.323.264.74.396 1.254.396h1.694v-1.892h-.924c-.41 0-.616-.22-.616-.66v-4.466c0-1.32-.403-2.34-1.21-3.058-.807-.719-1.914-1.078-3.322-1.078-.91 0-1.687.147-2.332.44-.645.293-1.162.678-1.551 1.155a4.586 4.586 0 0 0-.847 1.595l2.112.682c.132-.587.403-1.063.814-1.43.41-.367 1.005-.55 1.782-.55.792 0 1.379.19 1.76.572.381.381.572.887.572 1.518v.704h-3.3c-.792 0-1.5.125-2.123.374-.623.25-1.115.62-1.474 1.111-.36.491-.539 1.111-.539 1.859 0 .733.18 1.357.539 1.87.36.513.843.902 1.452 1.166.609.264 1.302.396 2.079.396Zm.33-1.87c-.66 0-1.18-.147-1.562-.44-.381-.293-.572-.69-.572-1.188 0-.499.183-.876.55-1.133.367-.257.85-.385 1.452-.385h3.168v.22c0 .91-.279 1.624-.836 2.145-.557.52-1.29.781-2.2.781Zm13.477 1.87c1.056 0 1.867-.19 2.431-.572.565-.381.987-.807 1.265-1.276h.352v1.54h2.222V5h-2.266v6.028h-.352a3.203 3.203 0 0 0-.704-.847c-.308-.271-.7-.495-1.177-.671-.476-.176-1.067-.264-1.77-.264-.91 0-1.746.22-2.509.66-.762.44-1.371 1.078-1.826 1.914-.454.836-.682 1.833-.682 2.992v.33c0 1.173.231 2.174.693 3.003.462.829 1.075 1.463 1.837 1.903.763.44 1.592.66 2.486.66Zm.638-1.98c-.968 0-1.77-.315-2.409-.946-.638-.63-.957-1.533-.957-2.706v-.198c0-1.159.32-2.053.957-2.684.638-.63 1.441-.946 2.41-.946.997 0 1.81.315 2.441.946.63.63.946 1.525.946 2.684v.198c0 1.173-.319 2.075-.957 2.706-.638.63-1.448.946-2.43.946Zm16.034 1.672v-1.914h-2.266c-.41 0-.616-.22-.616-.66v-6.358h3.234V9.554h-3.234V5.968h-2.266v3.586h-2.992v1.914h2.992v6.754c0 .66.194 1.188.583 1.584.388.396.913.594 1.573.594h2.992Zm5.282 4.4v-5.874h.352c.176.293.41.576.704.847.293.271.682.495 1.166.671.484.176 1.078.264 1.782.264.91 0 1.745-.22 2.508-.66.763-.44 1.371-1.074 1.826-1.903.455-.829.682-1.83.682-3.003v-.33c0-1.173-.231-2.174-.693-3.003-.462-.829-1.07-1.463-1.826-1.903a4.871 4.871 0 0 0-2.497-.66c-1.056 0-1.866.19-2.431.572-.565.381-.986.814-1.265 1.298h-.352V9.554h-2.222V24.8h2.266Zm3.344-6.072c-.968 0-1.771-.315-2.409-.946-.638-.63-.957-1.533-.957-2.706v-.198c0-1.159.319-2.053.957-2.684.638-.63 1.441-.946 2.409-.946.983 0 1.793.315 2.431.946.638.63.957 1.525.957 2.684v.198c0 1.173-.315 2.075-.946 2.706-.63.63-1.445.946-2.442.946Zm12.646 1.87c1.026 0 1.804-.194 2.332-.583.528-.389.894-.803 1.1-1.243h.352V20.4h2.222V9.554h-2.266v5.478c0 1.173-.283 2.072-.847 2.695-.565.623-1.31.935-2.233.935-.836 0-1.49-.224-1.958-.671-.47-.447-.704-1.14-.704-2.079V9.554h-2.266v6.512c0 .939.183 1.745.55 2.42a3.893 3.893 0 0 0 1.518 1.562c.645.367 1.378.55 2.2.55Zm11.621-.198V5h-2.266v15.4h2.266Zm7.8.308c1.363 0 2.448-.3 3.255-.902.807-.601 1.21-1.445 1.21-2.53 0-.733-.187-1.32-.56-1.76-.375-.44-.885-.777-1.53-1.012a12.24 12.24 0 0 0-2.134-.55l-.77-.132c-.587-.103-1.052-.257-1.397-.462-.345-.205-.517-.528-.517-.968 0-.41.176-.73.528-.957.352-.227.836-.341 1.452-.341.63 0 1.159.136 1.584.407.425.271.704.737.836 1.397l2.112-.594a3.752 3.752 0 0 0-1.529-2.233c-.785-.55-1.786-.825-3.003-.825-1.261 0-2.273.282-3.036.847-.763.565-1.144 1.36-1.144 2.387 0 .69.176 1.254.528 1.694.352.44.829.785 1.43 1.034a9.71 9.71 0 0 0 2.002.572l.748.132c.719.132 1.261.3 1.628.506.367.205.55.528.55.968 0 .44-.194.8-.583 1.078-.389.279-.942.418-1.66.418-.485 0-.936-.073-1.354-.22a2.266 2.266 0 0 1-1.045-.748c-.279-.352-.477-.829-.594-1.43l-2.112.506c.205 1.247.763 2.178 1.672 2.794.91.616 2.053.924 3.432.924Z" fill="#F9FCFD" fill-rule="nonzero"/><path stroke="#0000C2" stroke-linecap="round" stroke-linejoin="round" d="m34.5 24.4-10-19.9-10 20-10-.1"/></g></g></svg>