<svg width="384" height="128" xmlns="http://www.w3.org/2000/svg" xmlns:xlink="http://www.w3.org/1999/xlink"><defs><path d="M55.406 33.566 110.813 0v67.131H0V0l55.406 33.566Z" id="a"/></defs><g fill="none" fill-rule="evenodd"><path d="M246.507 50.083 191.1 83.649l-55.406-33.566h110.813Zm-55.407-36 55.407 35.976H135.694L191.1 14.083Z" fill="#8330FF" fill-rule="nonzero"/><path stroke="#E7EAF2" fill="#F2F3F8" d="M147.194 35.583h88v72h-88z"/><g transform="translate(152.5 42.083)"><path fill="#8330FF" d="M9.688 0H39v7H9.688z"/><path fill="#46ECA1" d="M9.688 0H0v7h9.688z"/><g transform="translate(.745 .724)" fill="#8330FF"><circle cx=".373" cy=".362" r="1"/><circle cx="2.857" cy="2.776" r="1"/><circle cx="5.341" cy="5.19" r="1"/><circle cx="7.825" cy="2.776" r="1"/></g><path d="M6.424 3.346a.352.352 0 0 1 .035.154c0 .2-.167.362-.373.362a.367.367 0 0 1-.373-.362c0-.054.013-.106.035-.153L3.734 1.425a.381.381 0 0 1-.266 0l-2.02 1.908c.027.05.042.107.042.167 0 .2-.166.362-.372.362A.367.367 0 0 1 .745 3.5c0-.2.167-.362.373-.362a.38.38 0 0 1 .148.03l2.013-1.902a.353.353 0 0 1-.05-.18c0-.2.167-.362.373-.362s.373.162.373.362a.353.353 0 0 1-.05.181l1.998 1.907a.38.38 0 0 1 .326 0L8.24 1.256a.352.352 0 0 1-.044-.17c0-.2.167-.362.373-.362s.373.162.373.362c0 .2-.167.362-.373.362a.38.38 0 0 1-.145-.028Z" fill="#F9FCFD"/><circle fill="#0000C2" cx="1.118" cy="5.914" r="1"/><circle fill="#0000C2" cx="3.602" cy="5.914" r="1"/><circle fill="#0000C2" cx="6.086" cy="1.086" r="1"/><circle fill="#0000C2" cx="8.57" cy="5.914" r="1"/><path d="M13.191 4.998c.34 0 .609-.072.81-.217a.71.71 0 0 0 .3-.61.622.622 0 0 0-.14-.426.882.882 0 0 0-.38-.244c-.16-.057-.336-.1-.53-.133l-.19-.032a1.052 1.052 0 0 1-.348-.111.25.25 0 0 1-.128-.234c0-.099.044-.176.131-.23a.676.676 0 0 1 .36-.083c.157 0 .288.033.394.098.106.066.175.178.208.337l.524-.143a.906.906 0 0 0-.38-.54c-.194-.132-.443-.198-.745-.198-.314 0-.565.068-.754.204a.668.668 0 0 0-.285.576c0 .167.044.303.131.41a.87.87 0 0 0 .356.249c.15.06.315.106.497.138l.186.032c.178.032.313.072.404.122.091.05.137.127.137.234a.305.305 0 0 1-.145.26c-.097.067-.234.1-.413.1-.12 0-.232-.017-.336-.052a.563.563 0 0 1-.26-.18.783.783 0 0 1-.147-.346l-.524.122c.05.301.189.526.415.674.226.15.51.223.852.223Zm3.522-.074v-.462h-.563c-.102 0-.153-.053-.153-.16V2.769h.804v-.462h-.804v-.865h-.563v.865h-.743v.462h.743v1.63c0 .16.049.287.145.383a.531.531 0 0 0 .39.143h.744Zm1.585.074c.186 0 .336-.025.449-.077a.702.702 0 0 0 .256-.183c.059-.07.102-.132.132-.186h.082v.016c0 .11.04.197.12.26.08.064.184.096.311.096h.421v-.457h-.23c-.101 0-.152-.053-.152-.159V3.23c0-.318-.1-.565-.301-.738-.2-.173-.475-.26-.825-.26-.226 0-.42.035-.58.106a1.042 1.042 0 0 0-.595.664l.524.164a.632.632 0 0 1 .203-.345c.102-.088.25-.133.442-.133.197 0 .343.047.438.139a.488.488 0 0 1 .142.366v.17h-.82c-.197 0-.373.03-.528.09a.815.815 0 0 0-.366.268.725.725 0 0 0-.134.45c0 .176.045.327.134.45.09.124.21.218.361.282.151.064.323.095.516.095Zm.082-.45a.635.635 0 0 1-.388-.107.34.34 0 0 1-.142-.287.31.31 0 0 1 .137-.273.63.63 0 0 1 .36-.093h.788v.053c0 .22-.07.392-.208.518-.139.125-.32.188-.547.188Zm3.348.45c.263 0 .464-.046.604-.138.14-.092.245-.194.314-.308h.088v.372h.552V1.207h-.563v1.455h-.088a.778.778 0 0 0-.174-.205.926.926 0 0 0-.293-.161 1.314 1.314 0 0 0-.44-.064c-.226 0-.433.053-.623.16-.19.105-.34.26-.453.461-.113.202-.17.443-.17.722v.08c0 .283.058.525.172.725.115.2.267.353.457.46.19.105.395.158.617.158Zm.159-.477a.83.83 0 0 1-.599-.229c-.158-.152-.237-.37-.237-.653v-.048c0-.28.079-.495.237-.648a.83.83 0 0 1 .599-.228c.247 0 .45.076.606.228.157.153.235.369.235.648v.048c0 .283-.079.501-.237.653a.836.836 0 0 1-.604.229Zm3.983.403v-.462h-.563c-.102 0-.153-.053-.153-.16V2.769h.803v-.462h-.803v-.865h-.563v.865h-.743v.462h.743v1.63c0 .16.048.287.145.383a.531.531 0 0 0 .39.143h.744Zm1.312 1.062V4.568h.087a.854.854 0 0 0 .465.366c.12.043.268.064.442.064.226 0 .434-.053.623-.159.19-.106.341-.26.454-.46.113-.2.17-.44.17-.724v-.08c0-.283-.058-.525-.173-.725a1.201 1.201 0 0 0-1.074-.618c-.262 0-.463.046-.603.138a.98.98 0 0 0-.315.313h-.087v-.377h-.552v3.68h.563Zm.83-1.465a.83.83 0 0 1-.598-.229c-.158-.152-.238-.37-.238-.653v-.048c0-.28.08-.495.238-.648a.83.83 0 0 1 .598-.228c.245 0 .446.076.604.228.159.153.238.369.238.648v.048c0 .283-.078.501-.235.653a.834.834 0 0 1-.607.229Zm3.142.45c.255 0 .448-.046.579-.14a.82.82 0 0 0 .273-.3h.088v.393h.552V2.306h-.563v1.322c0 .284-.07.5-.21.65a.723.723 0 0 1-.555.227c-.208 0-.37-.054-.487-.162-.116-.108-.175-.276-.175-.502V2.306h-.563v1.572c0 .227.046.421.137.584a.953.953 0 0 0 .377.377c.16.089.343.133.547.133Zm2.887-.047V1.207h-.563v3.717h.563Zm1.937.074c.339 0 .608-.072.809-.217a.71.71 0 0 0 .3-.61.622.622 0 0 0-.14-.426.882.882 0 0 0-.379-.244c-.16-.057-.337-.1-.53-.133l-.191-.032a1.052 1.052 0 0 1-.347-.111.25.25 0 0 1-.129-.234c0-.099.044-.176.131-.23a.676.676 0 0 1 .361-.083c.157 0 .288.033.394.098.105.066.174.178.207.337l.525-.143a.906.906 0 0 0-.38-.54c-.195-.132-.443-.198-.746-.198-.313 0-.565.068-.754.204a.668.668 0 0 0-.284.576c0 .167.044.303.13.41a.87.87 0 0 0 .356.249c.15.06.315.106.497.138l.186.032c.179.032.314.072.405.122.09.05.136.127.136.234a.305.305 0 0 1-.144.26c-.097.067-.235.1-.413.1-.12 0-.232-.017-.336-.052a.563.563 0 0 1-.26-.18.783.783 0 0 1-.147-.346l-.525.122c.051.301.19.526.415.674.226.15.51.223.853.223Z" fill="#F9FCFD" fill-rule="nonzero"/><path stroke="#0000C2" stroke-width=".5" stroke-linecap="round" stroke-linejoin="round" d="M8.57 5.89 6.086 1.086 3.602 5.914 1.118 5.89"/></g><path stroke="#CFD0DC" stroke-width="2" stroke-linecap="round" d="M153 56h26M153 66h26M153 61h35"/><g transform="translate(135.694 50.083)"><mask id="b" fill="#fff"><use xlink:href="#a"/></mask><use fill="#0000C2" fill-rule="nonzero" xlink:href="#a"/><path stroke="#8330FF" stroke-width="1.556" stroke-linecap="round" mask="url(#b)" transform="matrix(1 0 0 -1 0 90.38)" d="m10.94 32.566 44.466 25.248 44.467-25.248"/></g><path stroke="#46ECA1" stroke-width="2" stroke-linecap="round" d="m135.5 19.5 11 8M203.5 73.5l11 8"/><path stroke="#8330FF" stroke-width="2" stroke-linecap="round" d="M130.5 85.5 141 81M236.5 13.5 247 18"/><path stroke="#46ECA1" stroke-width="2" stroke-linecap="round" d="M240.5 77.5 253 72M105.5 65.5 111 58"/><path stroke="#0000C2" stroke-width="2" stroke-linecap="round" d="m281 27 4-13M111 32l-7-9M225 39l3-7"/></g></svg>