<?xml version="1.0" encoding="UTF-8"?>
<svg width="430px" height="753px" viewBox="0 0 430 753" version="1.1" xmlns="http://www.w3.org/2000/svg" xmlns:xlink="http://www.w3.org/1999/xlink">
    <title>Artboard</title>
    <g id="Artboard" stroke="none" stroke-width="1" fill="none" fill-rule="evenodd">
        <g id="Pixels" transform="translate(-2.000000, -1.000000)" fill="#F9FCFD">
            <path d="M374,696 L374,754 L60,754 L60,638 L2,638 L2,580 L60,580 L60,522 L118,522 L118,580 L234,580 L234,696 L374,696 Z M60,464 L60,522 L2,522 L2,464 L60,464 Z M60,348 L60,406 L118,406 L118,348 L176,348 L176,464 L60,464 L60,408 L0,408 L0,348 L60,348 Z M60,232 L60,290 L118,290 L118,348 L60,348 L60,291 L1,291 L1,232 L60,232 Z M176,116 L176,174 L2,174 L2,116 L176,116 Z M118,58 L118,116 L60,116 L60,58 L118,58 Z M60,0 L60,58 L2,58 L2,0 L60,0 Z" id="Shape"></path>
            <polygon id="Rectangle" opacity="0.582542783" transform="translate(31.000000, 725.000000) rotate(-90.000000) translate(-31.000000, -725.000000) " points="2 696 60 696 60 754 2 754"></polygon>
            <polygon id="Rectangle" opacity="0.734188988" transform="translate(30.000000, 434.000000) rotate(-90.000000) translate(-30.000000, -434.000000) " points="1.0658141e-13 404 60 404 60 464 1.0658141e-13 464"></polygon>
            <polygon id="Rectangle" opacity="0.734188988" transform="translate(31.000000, 319.000000) rotate(-90.000000) translate(-31.000000, -319.000000) " points="2 290 60 290 60 348 2 348"></polygon>
            <polygon id="Rectangle" opacity="0.630301339" transform="translate(31.000000, 667.000000) rotate(-90.000000) translate(-31.000000, -667.000000) " points="2 638 60 638 60 696 2 696"></polygon>
            <polygon id="Rectangle" opacity="0.630301339" transform="translate(60.000000, 203.000000) rotate(-90.000000) translate(-60.000000, -203.000000) " points="31 145 89 145 89 261 31 261"></polygon>
            <polygon id="Rectangle" opacity="0.842750186" transform="translate(31.000000, 551.000000) rotate(-90.000000) translate(-31.000000, -551.000000) " points="2 522 60 522 60 580 2 580"></polygon>
            <polygon id="Rectangle" opacity="0.842750186" transform="translate(31.000000, 87.000000) rotate(-90.000000) translate(-31.000000, -87.000000) " points="2 58 60 58 60 116 2 116"></polygon>
            <polygon id="Rectangle" opacity="0.582542783" transform="translate(205.000000, 551.000000) rotate(-90.000000) translate(-205.000000, -551.000000) " points="176 522 234 522 234 580 176 580"></polygon>
            <polygon id="Rectangle" opacity="0.582542783" transform="translate(147.000000, 493.000000) rotate(-90.000000) translate(-147.000000, -493.000000) " points="118 464 176 464 176 522 118 522"></polygon>
            <polygon id="Rectangle" opacity="0.582542783" transform="translate(147.000000, 29.000000) rotate(-90.000000) translate(-147.000000, -29.000000) " points="118 -4.7908344e-12 176 -4.7908344e-12 176 58 118 58"></polygon>
            <rect id="Rectangle" opacity="0.582542783" transform="translate(403.000000, 667.000000) rotate(-180.000000) translate(-403.000000, -667.000000) " x="374" y="638" width="58" height="58"></rect>
            <rect id="Rectangle" opacity="0.768345424" transform="translate(263.000000, 667.000000) rotate(-180.000000) translate(-263.000000, -667.000000) " x="234" y="638" width="58" height="58"></rect>
            <rect id="Rectangle" opacity="0.582542783" transform="translate(31.000000, 725.000000) rotate(-180.000000) translate(-31.000000, -725.000000) " x="2" y="696" width="58" height="58"></rect>
        </g>
    </g>
</svg>