<svg width="430" height="753" xmlns="http://www.w3.org/2000/svg"><g fill="#F9FCFD" fill-rule="evenodd"><path d="M372 695v58H58V637H0v-58h58v-58h58v58h116v116h140ZM58 463v58H0v-58h58Zm0-116v58h58v-58h58v116H58v-56H-2v-60h60Zm0-116v58h58v58H58v-57H-1v-59h59Zm116-116v58H0v-58h174Zm-58-58v58H58V57h58ZM58-1v58H0V-1h58Z"/><path opacity=".583" d="M0 753v-58h58v58z"/><path opacity=".734" d="M-2 463v-60h60v60zm2-116v-58h58v58z"/><path opacity=".63" d="M0 695v-58h58v58zm0-464v-58h116v58z"/><path opacity=".843" d="M0 579v-58h58v58zm0-464V57h58v58z"/><path opacity=".583" d="M174 579v-58h58v58zm-58-58v-58h58v58zm0-464V-1h58v58zm314 638h-58v-58h58z"/><path opacity=".768" d="M290 695h-58v-58h58z"/><path opacity=".583" d="M58 753H0v-58h58z"/></g></svg>