<svg xmlns="http://www.w3.org/2000/svg" width="235" height="171" viewBox="0 0 235 171">
  <g fill="#1E3791">
    <path d="M199.970355,2.02599203 C197.232364,-0.675330676 192.792303,-0.675330676 190.053844,2.02599203 C187.315385,4.72731473 187.315385,9.10670389 190.053844,11.8080266 C209.994385,31.4776954 220.975801,57.6488918 220.975801,85.5 C220.975801,113.351107 209.994385,139.522303 190.053844,159.191972 C187.315385,161.892833 187.315385,166.272684 190.053844,168.974006 C192.796977,171.679941 197.236571,171.670718 199.970355,168.974006 C222.5596,146.691553 235,117.046634 235,85.5 C235,53.9533643 222.5596,24.3084458 199.970355,2.02599203 L199.970355,2.02599203 Z" opacity=".25"/>
    <path d="M179.217066,23.0082156 C176.422167,20.3305948 171.890595,20.3305948 169.096174,23.0082156 C166.301752,25.6862935 166.301752,30.0279983 169.096174,32.7060762 C183.663712,46.6638089 191.68676,65.2357172 191.68676,84.9999143 C191.68676,104.764111 183.664189,123.335562 169.096174,137.293752 C166.301275,139.97183 166.301275,144.313535 169.096174,146.991613 C171.890118,149.668777 176.421213,149.670148 179.217066,146.991613 C196.488375,130.443121 206,108.427382 206,84.9994571 C206,61.5715324 196.487898,39.5562504 179.217066,23.0082156 Z" opacity=".5"/>
    <path d="M157.207814,43.9979691 C154.415032,41.3340103 149.886892,41.3340103 147.094587,43.9979691 C144.301804,46.6623828 144.302281,50.9823898 147.094587,53.6463486 C155.866725,62.0143722 160.6976,73.1496018 160.6976,84.9998294 C160.6976,96.850057 155.866725,107.985287 147.094587,116.35331 C144.301804,119.017269 144.301804,123.337276 147.094587,126.00169 C149.886892,128.665649 154.414555,128.666558 157.207814,126.00169 C168.681199,115.056126 175,100.494637 175,84.9993746 C175,69.5041127 168.681199,54.9435332 157.207814,43.9979691 Z" opacity=".75"/>
    <path d="M14.0241992,85.4999135 C14.0241992,57.6487777 25.0056147,31.4775546 44.946156,11.8078657 C47.6846147,9.10700139 47.6846147,4.72714663 44.946156,2.02582117 C42.2081649,-0.675043152 37.7685709,-0.675504286 35.0296448,2.02582117 C12.4403996,24.3082977 0,53.9532464 0,85.4999135 C0,117.046581 12.4403996,146.691529 35.0296448,168.974006 C37.7671685,171.67487 42.2076974,171.675792 44.946156,168.974006 C47.6846147,166.27268 47.6846147,161.893287 44.946156,159.191961 C25.0056147,139.522272 14.0241992,113.351049 14.0241992,85.4999135 Z" opacity=".25"/>
    <path d="M43.3132397,84.999771 C43.3132397,65.2356712 51.3358106,46.6643113 65.903826,32.7061901 C68.6987247,30.0281253 68.6987247,25.6864419 65.903826,23.0083772 C63.1094045,20.3303124 58.5778328,20.3307695 55.7829342,23.0083772 C38.5116249,39.5563306 29,61.5724187 29,84.999771 C29,108.427123 38.5116249,130.443211 55.7829342,146.991622 C58.5816497,149.672887 63.1127443,149.66603 65.903826,146.991622 C68.6982475,144.313557 68.6982475,139.971874 65.903826,137.293809 C51.3358106,123.335688 43.3132397,104.763871 43.3132397,84.999771 Z" opacity=".5"/>
    <path d="M87.9055798,43.9982851 C85.1132578,41.333905 80.5850908,41.333905 77.7922921,43.9982851 C66.3188382,54.9437117 60,69.5050177 60,85.0000849 C60,100.495152 66.3188382,115.056458 77.7922921,126.001885 C80.5889048,128.669449 85.1165951,128.662626 87.9055798,126.001885 C90.6983785,123.337504 90.6979017,119.017552 87.9055798,116.353626 C79.1333886,107.985708 74.3024857,96.8506184 74.3024857,85.0005397 C74.3024857,73.150461 79.1333886,62.0153714 87.9055798,53.647453 C90.6979017,50.982618 90.6979017,46.6626653 87.9055798,43.9982851 L87.9055798,43.9982851 Z" opacity=".75"/>
    <path d="M115,55 C98.4577532,55 85,68.4582278 85,85 C85,101.541772 98.4582278,115 115,115 C131.541772,115 145,101.541772 145,85 C145,68.4582278 131.542247,55 115,55 Z M115,100.759494 C106.309968,100.759494 99.2405063,93.689557 99.2405063,85 C99.2405063,76.310443 106.310443,69.2405063 115,69.2405063 C123.689557,69.2405063 130.759494,76.310443 130.759494,85 C130.759494,93.689557 123.690032,100.759494 115,100.759494 Z"/>
  </g>
</svg>
