<svg width="489" height="149" xmlns="http://www.w3.org/2000/svg" xmlns:xlink="http://www.w3.org/1999/xlink"><defs><path id="a" d="M7.4 2.852h278.14v128.406H7.4z"/><path id="c" d="M0 5.838h51.933v46.829H0z"/><path id="e" d="M0 .248h165.703v116.325H0z"/><path id="g" d="M0 6.199h165.703v80.279H0z"/><path id="i" d="M0 .248h144.501v97.358H0z"/><path id="k" d="M0 6.199h102.883V67.51H0z"/></defs><g fill="none" fill-rule="evenodd"><g transform="translate(202.5 -2.324)"><mask id="b" fill="#fff"><use xlink:href="#a"/></mask><path d="M238.212 25.323c-.765.218-1.627.286-2.565.286-4.132 0-5.565-1.76-5.565-8.796 0-6.936 1.47-8.81 6.293-8.81 2.01 0 4.2.436 5.894 1.121l.563-5.04c-1.86-.76-4.447-1.235-6.78-1.235-8.31 0-11.903 4.364-11.903 14.032 0 9.45 3.203 13.994 11.655 13.994 2.73 0 5.64-.609 7.47-1.482v-13.67h-5.062v9.6Zm-21.75-8.48c0 10.21-3.157 13.995-10.822 13.995-7.515 0-10.823-4.003-10.823-13.994 0-9.992 3.172-13.957 10.822-13.957 7.665 0 10.823 3.965 10.823 13.957Zm-5.925 0c0-7.177-1.23-8.697-4.898-8.697-3.63 0-4.89 1.557-4.89 8.698 0 7.177 1.26 8.772 4.92 8.772 3.638 0 4.868-1.632 4.868-8.772ZM69.732 30.839c2.13 0 4.47-.542 6.052-1.332l-.57-4.8a10.955 10.955 0 0 1-4.642 1.016c-4.425 0-5.97-1.987-5.97-9.059 0-6.636 1.47-8.555 5.865-8.555 1.755 0 3.442.37 4.665.836l.585-5.019c-1.38-.602-3.742-1.076-5.647-1.076-7.883 0-11.393 4.537-11.393 13.814 0 9.856 3.547 14.175 11.055 14.175Zm183.135-.474h5.782V3.324h-5.782v27.04Zm-99.45.474c-7.515 0-10.808-4.003-10.808-13.994 0-9.992 3.165-13.957 10.808-13.957 7.665 0 10.83 3.965 10.83 13.957 0 10.21-3.165 13.994-10.83 13.994Zm4.905-13.994c0-7.178-1.222-8.698-4.905-8.698-3.623 0-4.882 1.557-4.882 8.698 0 7.177 1.26 8.765 4.92 8.765 3.644 0 4.867-1.625 4.867-8.765ZM50.997 25.248H39.882V18.83h8.88v-4.755h-8.88V8.507h10.575l-.113-5.184H34.25v27.04h16.605l.143-5.115Zm38.895-6.095h8.348v11.21h5.64V3.324h-5.64v10.564h-8.348V3.323h-5.64v27.04h5.64v-11.21Zm99.037 5.952H179V3.315h-5.662v27.049h15.443l.15-5.26Zm85.508.143V18.83h8.88v-4.755h-8.88V8.507h10.56l-.105-5.184h-16.11v27.04h16.62l.143-5.115h-11.108ZM13.954 30.364h5.7V8.62h6.54l-.09-5.297H7.535L7.4 8.62h6.555v21.744Zm119.813 0V3.324h-4.95v13.482l.067 2.882-.067.037-9.998-16.402h-4.852v27.04h4.987V16.16l-.03-2.92.068-.037 1.507 2.52 9.248 14.642h4.02Zm-17.483 24.151h-18.54l-.15 5.297h6.548v21.751h5.715V59.812h6.547l-.12-5.297Zm27.143 17.862V54.515h-5.64v17.787c0 3.137-1.23 4.431-4.245 4.431-3.023 0-4.282-1.332-4.282-4.431V54.515h-5.67v17.862c0 6.485 3.404 9.653 9.952 9.653 6.547 0 9.885-3.168 9.885-9.653Zm-53.52-6.53h-8.805v-6.035h10.537l-.082-5.297H75.462v27.048h5.64V70.857h8.737l.068-5.01Zm78.045 2.158.075 2.882-.075.038-9.998-16.41h-4.86v27.048h4.995V67.358l-.037-2.926.075-.03 1.515 2.52 9.248 14.641h4.02V54.515h-4.958v13.49Zm-150.69 8.946c-2.415 0-4.605-.684-6.697-1.798l-.75 4.973c2.085 1.227 4.747 1.904 7.552 1.904 5.828 0 9.195-3.168 9.195-8.472 0-8.87-11.213-7.283-11.213-11.61 0-1.519.863-2.67 3.923-2.67 1.838 0 3.78.353 5.79 1.038l.645-4.89c-1.867-.873-4.343-1.34-6.795-1.34-6.225 0-8.992 3.53-8.992 8.111 0 8.84 11.227 7.29 11.227 11.73 0 1.978-1.2 3.024-3.885 3.024Zm21.99 4.612h5.707V59.812h6.548l-.097-5.297H32.847l-.135 5.297h6.54v21.751Zm25.913-27.048h-5.791v27.048h5.79V54.515Zm130.837 22.007c-.758.219-1.62.286-2.558.286-4.14 0-5.572-1.768-5.572-8.803 0-6.929 1.47-8.802 6.3-8.802 2.01 0 4.2.428 5.888 1.113l.57-5.04c-1.868-.76-4.448-1.227-6.788-1.227-8.303 0-11.895 4.364-11.895 14.032 0 9.45 3.188 13.986 11.648 13.986 2.737 0 5.64-.616 7.47-1.474V66.922h-5.063v9.6Zm-50.76 27.688v17.628l.068 2.89-.068.037-1.477-2.52-10.688-18.035h-3.113v27.048h3.053v-18.177l-.037-2.92.075-.037 1.44 2.528 11.25 18.606h2.475V104.21h-2.978Zm-30.712 27.048h3.48V104.21h-3.481v27.048ZM23.614 116.94c2.842.715 4.522 2.777 4.522 6.636 0 4.868-2.288 7.682-8.047 7.682h-9.143V104.21h8.82c4.92 0 7.402 2.197 7.402 6.711 0 3.31-1.432 5.184-3.555 5.944v.075Zm-9.353-1.083h5.543c2.805 0 4.064-1.37 4.064-4.334 0-3.137-1.29-4.22-4.215-4.22h-5.392v8.554Zm5.872 12.377c2.94 0 4.59-1.234 4.59-4.913 0-3.318-1.5-4.688-4.755-4.688h-5.707v9.6h5.872Zm55.08-9.21 6.436 12.234h-4.028l-5.543-11.587h-4.71v11.587h-3.412V104.21h8.092c5.423 0 7.973 2.34 7.973 7.644 0 4.251-1.688 6.599-4.808 7.17Zm1.29-7.034c0-3.537-1.365-4.718-4.425-4.718h-4.71v9.593h4.576c3.157 0 4.56-1.226 4.56-4.875Zm-37.95-7.78v27.048h15.428l.098-3.205H41.975v-9.39h9.87v-2.987h-9.87v-8.223H53.51l-.075-3.243h-14.88Zm55.658 0v23.768h11.138l-.105 3.28H90.769V104.21h3.443Z" fill="#000" mask="url(#b)"/></g><g transform="translate(0 95.486)"><mask id="d" fill="#fff"><use xlink:href="#c"/></mask><path fill="#E40134" mask="url(#d)" d="M15.438 52.667-.005 6.282l.736-.444 51.202 8.585-.405.421z"/></g><path fill="#71CBF4" d="m35.748 26.87 146.925 64.954-16.965 37.468L.003 101.77z"/><g transform="translate(0 12.724)"><mask id="f" fill="#fff"><use xlink:href="#e"/></mask><path fill="#63B9E9" mask="url(#f)" d="M-.002 89.044 144.501.248l21.202 116.325z"/></g><g transform="translate(0 42.819)"><mask id="h" fill="#fff"><use xlink:href="#g"/></mask><path fill="#3192D0" mask="url(#h)" d="m-.002 58.948 85.846-52.75 70.942 31.36 8.917 48.92z"/></g><g transform="translate(0 12.724)"><mask id="j" fill="#fff"><use xlink:href="#i"/></mask><path fill="#3A5BA7" mask="url(#j)" d="M-.002 89.044 144.501.248l-92.97 97.358z"/></g><g transform="translate(0 42.819)"><mask id="l" fill="#fff"><use xlink:href="#k"/></mask><path fill="#213A8F" mask="url(#l)" d="m-.002 58.948 85.846-52.75 17.04 7.532L51.53 67.51z"/></g></g></svg>