<?xml version="1.0" encoding="UTF-8"?>
<svg width="1920px" height="181px" viewBox="0 0 1920 181" version="1.1" xmlns="http://www.w3.org/2000/svg" xmlns:xlink="http://www.w3.org/1999/xlink">
    <title>colors-representation</title>
    <g id="colors-representation" stroke="none" stroke-width="1" fill="none" fill-rule="evenodd">
        <rect fill="#FFFFFF" x="0" y="0" width="1920" height="181"></rect>
        <g id="Group-2">
            <path d="M28.9568211,-1.16989023e-15 L874.572591,1.16989023e-15 C884.641508,-6.79739914e-16 888.292741,1.04838337 891.973787,3.01702818 C895.654833,4.98567299 898.543739,7.87457924 900.512384,11.555625 C902.481028,15.2366707 903.529412,18.8879035 903.529412,28.9568211 L903.529412,151.749061 C903.529412,161.817979 902.481028,165.469212 900.512384,169.150257 C898.543739,172.831303 895.654833,175.720209 891.973787,177.688854 C888.292741,179.657499 884.641508,180.705882 874.572591,180.705882 L28.9568211,180.705882 C18.8879035,180.705882 15.2366707,179.657499 11.555625,177.688854 C7.87457924,175.720209 4.98567299,172.831303 3.01702818,169.150257 C1.04838337,165.469212 5.72212744e-15,161.817979 -9.84826821e-15,151.749061 L7.7992682e-16,28.9568211 C-4.53159943e-16,18.8879035 1.04838337,15.2366707 3.01702818,11.555625 C4.98567299,7.87457924 7.87457924,4.98567299 11.555625,3.01702818 C15.2366707,1.04838337 18.8879035,6.79739914e-16 28.9568211,-1.16989023e-15 Z" id="Rectangle" fill="#F9FCFD"></path>
            <path d="M180.705882,0 L361.411765,0 L361.411765,11.2941176 L192,11.2941176 C185.762431,11.2941176 180.705882,6.23756894 180.705882,0 L180.705882,0 L180.705882,0 Z" id="Rectangle" fill="#46ECA1"></path>
            <path d="M361.411765,0 L542.117647,0 L542.117647,25.4117647 L386.477085,25.4117647 C381.077968,25.4117647 376.648435,24.3633813 372.96739,22.3947365 C369.286344,20.4260917 366.397438,17.5371855 364.428793,13.8561397 C362.460148,10.175094 361.411765,5.74556101 361.411765,0.346444355 L361.411765,0 L361.411765,0 Z" id="Rectangle" fill="#0000C2"></path>
            <path d="M542.117647,0 L722.823529,0 L722.823529,90.3529412 L571.074468,90.3529412 C561.005551,90.3529412 557.354318,89.3045578 553.673272,87.335913 C549.992226,85.3672682 547.10332,82.4783619 545.134675,78.7973162 C543.16603,75.1162704 542.117647,71.4650376 542.117647,61.3961201 L542.117647,0 L542.117647,0 Z" id="Rectangle" fill="#8330FF"></path>
            <path d="M722.823529,0 L874.572591,1.16989023e-15 C884.641508,-6.79739914e-16 888.292741,1.04838337 891.973787,3.01702818 C895.654833,4.98567299 898.543739,7.87457924 900.512384,11.555625 C902.481028,15.2366707 903.529412,18.8879035 903.529412,28.9568211 L903.529412,151.749061 C903.529412,161.817979 902.481028,165.469212 900.512384,169.150257 C898.543739,172.831303 895.654833,175.720209 891.973787,177.688854 C888.292741,179.657499 884.641508,180.705882 874.572591,180.705882 L751.78035,180.705882 C741.711433,180.705882 738.0602,179.657499 734.379154,177.688854 C730.698109,175.720209 727.809202,172.831303 725.840558,169.150257 C723.871913,165.469212 722.823529,161.817979 722.823529,151.749061 L722.823529,0 L722.823529,0 Z" id="Rectangle" fill="#100C53"></path>
            <path d="M874.572591,1.41176471 C884.2417,1.41176471 887.767795,2.36861838 891.308,4.26194093 C894.739381,6.09706338 897.432348,8.79003098 899.267471,12.2214116 C901.160793,15.761617 902.117647,19.2877114 902.117647,28.9568211 L902.117647,28.9568211 L902.117647,151.749061 C902.117647,161.418171 901.160793,164.944265 899.267471,168.484471 C897.432348,171.915851 894.739381,174.608819 891.308,176.443941 C887.767795,178.337264 884.2417,179.294118 874.572591,179.294118 L874.572591,179.294118 L28.9568211,179.294118 C19.2877114,179.294118 15.761617,178.337264 12.2214116,176.443941 C8.79003098,174.608819 6.09706338,171.915851 4.26194093,168.484471 C2.40354941,165.009581 1.44735965,161.548608 1.41273205,152.273102 L1.41273205,152.273102 L1.41176471,28.9568211 C1.41176471,19.2877114 2.36861838,15.761617 4.26194093,12.2214116 C6.09706338,8.79003098 8.79003098,6.09706338 12.2214116,4.26194093 C15.6963016,2.40354941 19.157274,1.44735965 28.4327707,1.41273205 L28.4327707,1.41273205 Z" id="Rectangle" stroke="#EBEBEB" stroke-width="2.82352941" style="mix-blend-mode: multiply;"></path>
        </g>
        <g id="Group-4" transform="translate(1002.000000, 0.000000)">
            <path d="M28.9568211,-1.16989023e-15 L889.043179,1.16989023e-15 C899.112096,-6.79739914e-16 902.763329,1.04838337 906.444375,3.01702818 C910.125421,4.98567299 913.014327,7.87457924 914.982972,11.555625 C916.951617,15.2366707 918,18.8879035 918,28.9568211 L918,152.043179 C918,162.112096 916.951617,165.763329 914.982972,169.444375 C913.014327,173.125421 910.125421,176.014327 906.444375,177.982972 C902.763329,179.951617 899.112096,181 889.043179,181 L28.9568211,181 C18.8879035,181 15.2366707,179.951617 11.555625,177.982972 C7.87457924,176.014327 4.98567299,173.125421 3.01702818,169.444375 C1.04838337,165.763329 4.53159943e-16,162.112096 -7.7992682e-16,152.043179 L7.7992682e-16,28.9568211 C-4.53159943e-16,18.8879035 1.04838337,15.2366707 3.01702818,11.555625 C4.98567299,7.87457924 7.87457924,4.98567299 11.555625,3.01702818 C15.2366707,1.04838337 18.8879035,6.79739914e-16 28.9568211,-1.16989023e-15 Z" id="Rectangle" fill="#100C53"></path>
            <path d="M184,0 L368,0 L368,11 L195,11 C188.924868,11 184,6.07513225 184,0 L184,0 L184,0 Z" id="Rectangle" fill="#0000C2"></path>
            <path d="M367,0 L551,0 L551,25 L391.906171,25 C386.698034,25 382.236671,23.9516166 378.555625,21.9829718 C374.874579,20.014327 371.985673,17.1254208 370.017028,13.444375 C368.048383,9.76332925 367,5.3019665 367,0.0938286794 L367,0 L367,0 Z" id="Rectangle" fill="#8330FF"></path>
            <path d="M551,0 L735,0 L735,92 L579.956821,92 C569.887904,92 566.236671,90.9516166 562.555625,88.9829718 C558.874579,87.014327 555.985673,84.1254208 554.017028,80.444375 C552.048383,76.7633293 551,73.1120965 551,63.0431789 L551,0 L551,0 Z" id="Rectangle" fill="#46ECA1"></path>
            <path d="M734,0 L889.043179,1.16989023e-15 C899.112096,-6.79739914e-16 902.763329,1.04838337 906.444375,3.01702818 C910.125421,4.98567299 913.014327,7.87457924 914.982972,11.555625 C916.951617,15.2366707 918,18.8879035 918,28.9568211 L918,152.043179 C918,162.112096 916.951617,165.763329 914.982972,169.444375 C913.014327,173.125421 910.125421,176.014327 906.444375,177.982972 C902.763329,179.951617 899.112096,181 889.043179,181 L762.956821,181 C752.887904,181 749.236671,179.951617 745.555625,177.982972 C741.874579,176.014327 738.985673,173.125421 737.017028,169.444375 C735.048383,165.763329 734,162.112096 734,152.043179 L734,0 L734,0 Z" id="Rectangle" fill="#F9FCFD"></path>
            <path d="M889.043179,1.41176471 C898.712289,1.41176471 902.238383,2.36861838 905.778588,4.26194093 C909.209969,6.09706338 911.902937,8.79003098 913.738059,12.2214116 C915.631382,15.761617 916.588235,19.2877114 916.588235,28.9568211 L916.588235,28.9568211 L916.588235,152.043179 C916.588235,161.712289 915.631382,165.238383 913.738059,168.778588 C911.902937,172.209969 909.209969,174.902937 905.778588,176.738059 C902.238383,178.631382 898.712289,179.588235 889.043179,179.588235 L889.043179,179.588235 L28.9568211,179.588235 C19.2877114,179.588235 15.761617,178.631382 12.2214116,176.738059 C8.79003098,174.902937 6.09706338,172.209969 4.26194093,168.778588 C2.40354941,165.303698 1.44735965,161.842726 1.41273205,152.56722 L1.41273205,152.56722 L1.41176471,28.9568211 C1.41176471,19.2877114 2.36861838,15.761617 4.26194093,12.2214116 C6.09706338,8.79003098 8.79003098,6.09706338 12.2214116,4.26194093 C15.6963016,2.40354941 19.157274,1.44735965 28.4327707,1.41273205 L28.4327707,1.41273205 Z" id="Rectangle" stroke="#EBEBEB" stroke-width="2.82352941" style="mix-blend-mode: multiply;"></path>
        </g>
    </g>
</svg>