<?xml version="1.0" encoding="UTF-8"?>
<svg width="29px" height="29px" viewBox="0 0 29 29" version="1.1" xmlns="http://www.w3.org/2000/svg" xmlns:xlink="http://www.w3.org/1999/xlink">
    <title>logo/v1/square/monochrome/negative</title>
    <defs>
        <path d="M29,0 L29,29 L0,29 L0,0 L29,0 Z M23.083,4.006 L23.078,4.021 L23.0727066,4.03734678 L15.9272934,4.03734678 C15.9238934,4.02685033 15.9203809,4.01640455 15.9168481,4.00627174 C15.9068559,3.97759404 15.8960175,3.9493128 15.8844721,3.92171892 C15.8783609,3.90710502 15.872025,3.89260843 15.8654305,3.8781494 C15.8540293,3.85315544 15.841962,3.82852921 15.8291455,3.80409181 C15.8177316,3.78233669 15.8057993,3.76089627 15.7932551,3.73960064 C15.7843631,3.72451005 15.7752145,3.70958873 15.7661423,3.69535599 L15.7661423,3.69535599 L15.7202635,3.62747315 C15.7082394,3.61068685 15.6958775,3.59415896 15.6833905,3.57815922 C15.672146,3.56374501 15.660644,3.54954157 15.6487115,3.53534198 C15.631654,3.51505109 15.6140686,3.49521862 15.5961629,3.47606489 C15.5835952,3.46261633 15.5707829,3.44939923 15.5576621,3.43635013 C15.5392635,3.41805445 15.5203928,3.40023292 15.5009654,3.38281152 C15.4841756,3.36775831 15.4670446,3.35307806 15.4496065,3.33880107 C15.4336316,3.32572164 15.417382,3.31296536 15.4009682,3.30061797 C15.3407388,3.2553021 15.2769861,3.21441753 15.2100249,3.17835731 C15.1969053,3.17129427 15.1836685,3.16442088 15.1706504,3.15790708 C15.1565902,3.15086746 15.142404,3.14404228 15.1278367,3.13731609 C15.0485807,3.10073935 14.9655912,3.0708736 14.8797311,3.04848254 C14.8166378,3.03202244 14.7519267,3.0195672 14.6857649,3.01138974 C14.6248978,3.00387168 14.562901,3 14.5,3 C13.6715729,3 13,3.67157288 13,4.5 C13,5.32842712 13.6715729,6 14.5,6 L14.5,6 L14.6457161,5.99301287 C14.7230628,5.98555656 14.7986923,5.97222617 14.8716381,5.95360456 C14.9626398,5.93040836 15.0503159,5.89889148 15.1342715,5.85969565 C15.1750951,5.8406196 15.2149179,5.81975916 15.2534197,5.79734247 C15.3073999,5.76592629 15.3592406,5.73123763 15.4085057,5.69367371 C15.4648757,5.65070468 15.518111,5.60383361 15.567623,5.55365159 C15.6137475,5.50691936 15.6568263,5.45717374 15.6968362,5.40434191 C15.781039,5.29307932 15.8500842,5.16970931 15.9008986,5.03730511 L15.9008986,5.03730511 L23.0991014,5.03730511 L23.1048364,5.0520151 C23.1178264,5.0848185 23.1319398,5.11705459 23.1473712,5.14917954 C23.1849355,5.22730624 23.2290692,5.30167715 23.2790307,5.37154061 C23.3151659,5.42207318 23.35436,5.47026868 23.3966223,5.51616009 C23.4090511,5.52964875 23.421724,5.54290894 23.4343617,5.5556587 L23.4343617,5.5556587 L23.4989412,5.61710467 C23.5083295,5.62552344 23.5178246,5.63382557 23.5273824,5.64197317 C23.5525362,5.66341736 23.5784073,5.68404513 23.6049894,5.70384139 C23.622907,5.71718425 23.6411327,5.73013653 23.6593251,5.74246284 C23.67724,5.75460807 23.6954314,5.766376 23.7143223,5.77802289 C23.7619237,5.80734873 23.8112875,5.83408957 23.862218,5.85804974 L23.8135711,5.83407577 L23.8135711,5.83407577 L23.839495,5.84712448 L23.862218,5.85804974 L23.862218,13.1419503 C23.8543426,13.1456553 23.8465046,13.1494267 23.839495,13.1528755 L23.839495,13.1528755 L23.7854014,13.1808299 C23.7628274,13.1930841 23.7406031,13.2059009 23.7188066,13.2192253 L23.7188066,13.2192253 L23.6565615,13.2594152 L23.6565615,13.2594152 L23.6107984,13.2918544 L23.6107984,13.2918544 L23.5545177,13.3354366 C23.5352677,13.3510843 23.5164132,13.3671998 23.4979601,13.3837758 C23.4838766,13.3964271 23.4700338,13.409341 23.4562692,13.4226748 C23.4390646,13.4393462 23.4222582,13.456426 23.405953,13.4738053 L23.405953,13.4738053 L23.3411329,13.5475526 C23.3328274,13.5576464 23.3246512,13.5678506 23.3168123,13.5778994 C23.2989052,13.600844 23.281651,13.6243229 23.2647692,13.6487547 C23.2539477,13.6644279 23.2434167,13.6803171 23.233532,13.6958677 C23.2225042,13.7131997 23.2118225,13.7307733 23.2013819,13.7487764 L23.2013819,13.7487764 L23.169531,13.8066202 L23.1611878,13.8228368 C23.1063058,13.931129 23.0641764,14.0469779 23.0368729,14.167976 C23.0339038,14.1811157 23.0311071,14.1943209 23.0270472,14.2149651 C23.0092951,14.307247 23,14.402538 23,14.5 L23,14.5 L23.0068666,14.64446 C23.014102,14.7182995 23.0258086,14.7870151 23.0419339,14.853669 C23.0699946,14.9697662 23.1115608,15.0805927 23.1652544,15.1851281 L23.1652544,15.1851281 L23.1957358,15.2413991 L23.1957358,15.2413991 L23.2316604,15.3011833 C23.2435092,15.3199016 23.2557609,15.3383395 23.2685365,15.356676 C23.2820557,15.3760734 23.2960215,15.3951364 23.310279,15.413668 C23.328305,15.4371053 23.347008,15.4599949 23.3665259,15.4825002 C23.3769178,15.4944784 23.3874963,15.5062904 23.3981585,15.5178248 C23.4164921,15.537662 23.4353547,15.557003 23.4544139,15.5755243 C23.4683467,15.5890717 23.4825419,15.6023507 23.4973761,15.6156993 C23.5142161,15.6308424 23.5314007,15.6456098 23.5483771,15.6595451 C23.5665596,15.6744847 23.5850998,15.6890049 23.6042278,15.7032739 C23.6224161,15.7168361 23.6409223,15.7299957 23.6593251,15.7424628 C23.6791472,15.7559011 23.699308,15.7688774 23.7199465,15.7814708 L23.7199465,15.7814708 L23.783,15.817 L23.817,15.835 L23.7894516,15.8213608 L23.7894516,15.8213608 L23.8063423,15.8303238 L23.8063423,15.8303238 L23.8404785,15.8476072 L23.8612257,15.8575824 L23.8612257,23.1424176 C23.8557529,23.1449972 23.8502981,23.1476089 23.8454023,23.1499898 C23.8207889,23.1619465 23.7965517,23.1745566 23.7726086,23.1878553 C23.7558762,23.1971509 23.7393402,23.2067572 23.7227505,23.2168229 C23.7033283,23.2286126 23.6841951,23.2408309 23.6656655,23.2532623 C23.64481,23.2672467 23.6243248,23.2817406 23.6039827,23.2969089 C23.5878899,23.3089137 23.572046,23.3212339 23.5568323,23.3335589 C23.5365709,23.3499623 23.5167455,23.3668829 23.4969911,23.3846471 C23.48569,23.3948164 23.4745444,23.4051551 23.4637324,23.4154924 C23.4411925,23.4370358 23.419323,23.4592749 23.3982571,23.4820686 C23.3892652,23.491796 23.3804006,23.5016428 23.3715813,23.5117026 C23.3503685,23.5359034 23.3299218,23.5607925 23.310419,23.58615 C23.3034097,23.5952606 23.2965027,23.6044539 23.2897342,23.6136815 C23.2703429,23.6401154 23.2517968,23.6672081 23.2341847,23.6948427 C23.2264388,23.706995 23.218863,23.7192664 23.2116873,23.7312745 C23.1959186,23.7576445 23.1809367,23.7845391 23.1664685,23.8125164 C23.1136187,23.9148234 23.0721965,24.0239921 23.0439738,24.1379966 C23.0382611,24.1610497 23.0330816,24.1843132 23.0270472,24.2149651 C23.0092951,24.307247 23,24.402538 23,24.5 C23,25.3284271 23.6715729,26 24.5,26 L24.5,26 L24.64446,25.9931334 C25.4051119,25.9204487 26,25.2796961 26,24.5 C26,24.4530845 25.9978461,24.406672 25.9936319,24.3608561 L25.9936319,24.3608561 L25.996,24.43 L25.9916714,24.3410064 C25.9806581,24.2365073 25.9589063,24.1351799 25.927515,24.0380943 L25.8733359,23.8957813 C25.8634322,23.8733037 25.8529929,23.8511154 25.8422592,23.8296818 C25.8338489,23.8128736 25.8251322,23.7962453 25.815988,23.7795704 C25.8041411,23.7579758 25.791778,23.7367045 25.7789652,23.7158539 C25.7686963,23.6991406 25.7581089,23.682644 25.7474003,23.6666545 C25.7332206,23.6454715 25.7185156,23.6246698 25.7030911,23.6039827 C25.6921269,23.5892849 25.6808998,23.5747948 25.6695848,23.5607285 C25.6532048,23.5403582 25.6363036,23.5204247 25.6188329,23.5008718 C25.6053496,23.4857835 25.5915655,23.4709696 25.5777515,23.4567093 C25.5597551,23.4381223 25.5412823,23.4199994 25.5220703,23.4020973 C25.5106818,23.3914907 25.499128,23.3810592 25.4874151,23.3708085 C25.466149,23.3521974 25.4443526,23.3341772 25.4221006,23.3168123 C25.4099794,23.3073523 25.3977091,23.2980745 25.3853221,23.2890039 C25.3601734,23.2705871 25.3344296,23.2529349 25.308229,23.2361479 C25.2979869,23.2295845 25.2876597,23.2231421 25.2770605,23.2167083 C25.2495534,23.2000163 25.2214667,23.1841839 25.1926265,23.1691379 C25.1797304,23.1624126 25.1667244,23.1558692 25.1539406,23.1496708 C25.1302421,23.1381727 25.1061953,23.1272802 25.0815866,23.1169148 C25.0617814,23.1085767 25.0417597,23.1006516 25.0216426,23.0931911 L25.0216426,23.0931911 L24.947,23.068 C24.9453367,23.0671733 24.935031,23.0640144 24.9246786,23.0609641 L24.8934833,23.0521406 L24.91,23.057 L24.8616658,23.0438902 L24.8616658,15.9561098 C24.8724766,15.9534335 24.8832412,15.95064 24.8934833,15.9478594 C24.9143716,15.9421962 24.9350789,15.936093 24.9557026,15.929526 C24.9779116,15.9224524 24.999896,15.9148755 25.0215321,15.9068498 C25.0417597,15.8993484 25.0617814,15.8914233 25.0818203,15.8829868 C25.1082639,15.8718485 25.1343213,15.8599739 25.1595215,15.8476072 C25.1706345,15.8421582 25.1816701,15.8365758 25.192838,15.8307518 C25.2228686,15.8150847 25.2523027,15.798431 25.2811934,15.7807747 C25.2902693,15.7752272 25.2992816,15.7695858 25.3081251,15.7639187 C25.3344296,15.7470651 25.3601734,15.7294129 25.3852937,15.7110169 C25.3977091,15.7019255 25.4099794,15.6926477 25.4220514,15.6832262 L25.4220514,15.6832262 L25.4962097,15.6214342 L25.4962097,15.6214342 L25.5262818,15.5939652 C25.5471782,15.574354 25.5675124,15.5541508 25.5872628,15.5333773 C25.5979604,15.5221254 25.6084852,15.5107076 25.6189014,15.4990516 C25.6394288,15.4760776 25.659259,15.4524676 25.678356,15.4282585 C25.6867428,15.4176267 25.6949888,15.4068787 25.703304,15.3957319 C25.7220667,15.3705675 25.7400586,15.3447946 25.7572559,15.3184313 C25.7646421,15.3071079 25.7718795,15.2956786 25.7789156,15.2842269 C25.798743,15.2519613 25.8173835,15.2188881 25.8351238,15.1843923 C25.8375262,15.1797151 25.8399047,15.1750237 25.8420342,15.1707677 C25.8529929,15.1488846 25.8634322,15.1266963 25.8735167,15.1038081 C25.9548478,14.9190667 26,14.7148063 26,14.5 C26,14.2851937 25.9548478,14.0809333 25.8733359,13.8957813 C25.8634322,13.8733037 25.8529929,13.8511154 25.8422592,13.8296818 L25.8422592,13.8296818 L25.8225329,13.7916311 C25.8087143,13.7658857 25.794166,13.7405905 25.7789652,13.7158539 C25.7699695,13.7012129 25.7607295,13.6867382 25.7513588,13.6725985 C25.7359624,13.6493598 25.719936,13.6265749 25.7030911,13.6039827 C25.6926473,13.5899824 25.6819648,13.5761706 25.6711876,13.5627253 C25.654308,13.5416604 25.6368718,13.5210607 25.6188329,13.5008718 C25.6066038,13.487187 25.5941274,13.473728 25.5815648,13.4606622 C25.5636098,13.4419823 25.5451756,13.4237666 25.5261947,13.405953 L25.5261947,13.405953 L25.4864023,13.369923 C25.4654571,13.3516256 25.4439987,13.3339011 25.4221006,13.3168123 C25.4099794,13.3073523 25.3977091,13.2980745 25.3853221,13.2890039 C25.3601734,13.2705871 25.3344296,13.2529349 25.308229,13.2361479 C25.2992816,13.2304142 25.2902693,13.2247728 25.2810973,13.2191665 C25.2523027,13.201569 25.2228686,13.1849153 25.1926265,13.1691379 C25.1800537,13.1625812 25.1673764,13.1561974 25.154946,13.150159 C25.1309223,13.138481 25.10654,13.1274254 25.0815866,13.1169148 C25.0617814,13.1085767 25.0417597,13.1006516 25.0216426,13.0931911 L25.0216426,13.0931911 L24.947,13.068 L24.917,13.059 L24.8616658,13.0438902 L24.8616658,5.95610985 C24.8724766,5.95343355 24.8832412,5.95064 24.8934833,5.94785943 C24.9143716,5.94219619 24.9350789,5.93609298 24.9557026,5.92952597 C24.9779116,5.92245235 24.999896,5.91487551 25.0215321,5.90684981 C25.0417597,5.89934844 25.0617814,5.89142329 25.0818203,5.88298675 C25.10654,5.87257459 25.1309223,5.86151901 25.1545977,5.85001024 L25.1545977,5.85001024 L25.192838,5.8307518 C25.2228686,5.81508474 25.2523027,5.79843096 25.2811934,5.78077473 C25.2902693,5.77522716 25.2992816,5.76958583 25.3081251,5.76391869 C25.3344296,5.74706512 25.3601734,5.72941286 25.3852937,5.71101693 C25.3977091,5.70192547 25.4099794,5.6926477 25.4220514,5.68322617 C25.4471836,5.66361347 25.4716748,5.64321755 25.4952354,5.62229961 C25.5056866,5.6130248 25.5160074,5.60360623 25.5262818,5.59396524 C25.5451756,5.57623339 25.5636098,5.55801766 25.5814106,5.53949824 C25.5941274,5.52627199 25.6066038,5.51281297 25.6189014,5.49905156 C25.6368718,5.47893933 25.654308,5.45833961 25.6710497,5.43744677 L25.6710497,5.43744677 L25.703304,5.39573187 L25.703304,5.39573187 L25.7512508,5.32756455 C25.7607295,5.31326178 25.7699695,5.29878706 25.7789156,5.28422692 C25.794166,5.25940948 25.8087143,5.23411425 25.8227388,5.20798506 L25.8227388,5.20798506 L25.8425469,5.16974288 C25.8533187,5.14819197 25.8635868,5.12634545 25.8735167,5.10380808 C25.9548478,4.91906671 26,4.71480628 26,4.5 C26,3.67157288 25.3284271,3 24.5,3 C24.437099,3 24.3751022,3.00387168 24.3141145,3.01140464 C24.2484174,3.01952468 24.1840364,3.03189279 24.1213971,3.04818868 C24.0350483,3.07064361 23.9517246,3.10059845 23.8719039,3.13743583 L23.8719039,3.13743583 L23.8296818,3.1577408 C23.8163315,3.16442088 23.8030947,3.17129427 23.7898056,3.17844857 C23.7230139,3.21441753 23.6592612,3.2553021 23.5991325,3.30054221 C23.582618,3.31296536 23.5663684,3.32572164 23.5504146,3.3387838 L23.5504146,3.3387838 L23.4989299,3.38290542 L23.4989299,3.38290542 L23.442267,3.4364207 C23.4292171,3.44939923 23.4164048,3.46261633 23.4040233,3.47586572 C23.3859314,3.49521862 23.368346,3.51505109 23.3511088,3.53555582 C23.339356,3.54954157 23.327854,3.56374501 23.3168123,3.57789939 C23.3041225,3.59415896 23.2917606,3.61068685 23.2794812,3.62782966 C23.2636821,3.64989961 23.2484668,3.67241591 23.2341847,3.69484269 C23.2247855,3.70958873 23.2156369,3.72451005 23.2066351,3.73978697 C23.1942007,3.76089627 23.1822684,3.78233669 23.1707487,3.8042934 C23.158038,3.82852921 23.1459707,3.85315544 23.1345312,3.87823346 L23.1345312,3.87823346 L23.109,3.936 L23.105,3.947 L23.083,4.006 Z M5.07876279,13.1157294 L5.072,13.113 L5.05949008,13.1078199 L5.05949008,13.1078199 L5.01757572,13.0916893 L5.00070296,13.0856015 L5.00070296,5.91439849 C5.00748885,5.9119962 5.0142523,5.90954645 5.02054351,5.90721604 C5.04767015,5.89717798 5.07442724,5.88637797 5.10075874,5.87485514 C5.12065647,5.86614829 5.14032886,5.85702215 5.15952148,5.84760719 C5.17792917,5.83858144 5.19612481,5.82918964 5.21429996,5.81933221 C5.2373394,5.80683207 5.2600147,5.79374602 5.28217811,5.7801723 L5.28217811,5.7801723 L5.34023961,5.74275783 C5.35631943,5.73186485 5.37217661,5.720668 5.38822555,5.70886457 L5.42025942,5.68462255 L5.42025942,5.68462255 L5.45159488,5.65956808 C5.46819369,5.64593042 5.4844945,5.63194332 5.50009953,5.61796416 C5.52326723,5.59722482 5.54578645,5.57577591 5.56754202,5.55373366 L5.59211343,5.5282514 L5.59211343,5.5282514 L5.65049534,5.46253211 L5.65049534,5.46253211 L5.68479131,5.42004224 C5.69939845,5.40125889 5.71356874,5.38211899 5.72723135,5.3627167 C5.74094884,5.34323915 5.75421436,5.32342038 5.76712002,5.30310667 C5.77606161,5.28902832 5.78477504,5.27479082 5.79305903,5.26073203 C5.80768304,5.23592832 5.82161374,5.21066704 5.83512381,5.18439231 C5.88843918,5.08059275 5.93000537,4.96976623 5.95797635,4.85404004 C5.96713246,4.81620042 5.97485379,4.77780058 5.98107951,4.73890135 L5.994,4.632 L5.995,4.62 L5.99827026,4.57267635 L5.99827026,4.57267635 L6,4.5 C6,3.67157288 5.32842712,3 4.5,3 C3.67157288,3 3,3.67157288 3,4.5 L3,4.5 L3.00686658,4.64446001 C3.01419214,4.71886621 3.02589491,4.78742361 3.04193393,4.85366905 C3.06864251,4.96417203 3.1075864,5.06990006 3.15748314,5.16980296 C3.17336054,5.20156506 3.19033194,5.23268499 3.20850779,5.26338327 L3.20850779,5.26338327 L3.23448566,5.30562921 C3.24544121,5.32280281 3.25673674,5.33973847 3.26853649,5.35667602 C3.28379898,5.37857467 3.29963064,5.40004707 3.31614356,5.42124315 C3.32949754,5.43837932 3.34321543,5.45521797 3.35718157,5.47162526 C3.37177853,5.48877734 3.38675477,5.50559667 3.40199506,5.52196043 C3.41905605,5.54028278 3.43657015,5.55817758 3.45441389,5.57552428 C3.46928077,5.58997988 3.48444635,5.60412988 3.50003814,5.61808739 C3.51658114,5.63289276 3.53345467,5.64733639 3.55039352,5.66119893 C3.56980356,5.67709093 3.58961933,5.69250586 3.60987968,5.70746775 C3.62624946,5.71955533 3.64287381,5.73131798 3.65932512,5.74246284 C3.67851148,5.75547008 3.69801508,5.76804458 3.71821317,5.7804118 C3.74176248,5.79482115 3.76574011,5.80859908 3.78997511,5.82164269 C3.80662333,5.8306054 3.8234603,5.83926273 3.84029253,5.84751597 L3.84029253,5.84751597 L3.911,5.879 L3.979,5.906 L3.91911511,5.88338037 L3.91911511,5.88338037 L3.94553274,5.89419 L3.94553274,5.89419 L3.9863859,5.90976072 L4.00029246,5.91475048 L4.00029246,13.0852495 C3.9955381,13.0869288 3.99079473,13.0886314 3.9863859,13.0902393 C3.95896138,13.1002333 3.93191058,13.1110047 3.90506905,13.1226095 C3.88320233,13.1320671 3.86160525,13.1420302 3.84047852,13.1523928 L3.84047852,13.1523928 L3.7901225,13.178278 C3.76644692,13.1910205 3.74315299,13.2043806 3.71979185,13.2186236 C3.70242279,13.2292219 3.68528607,13.2401635 3.66869369,13.251237 C3.65051451,13.2633631 3.6326151,13.2758756 3.61470628,13.2889831 C3.59421469,13.3039886 3.57411814,13.3195016 3.55458693,13.3353803 C3.53674775,13.3498795 3.51924813,13.3647803 3.50184386,13.3802992 C3.48641961,13.3940588 3.47128148,13.4081323 3.45650492,13.4224465 C3.43786112,13.4405046 3.41968453,13.4590423 3.40209735,13.4779297 L3.40209735,13.4779297 L3.36674075,13.5172523 L3.36674075,13.5172523 L3.31681226,13.5778994 C3.30611008,13.5916123 3.29564109,13.605516 3.28560894,13.6193324 C3.26783617,13.6437978 3.25078466,13.668821 3.23483833,13.6938182 L3.23483833,13.6938182 L3.21250905,13.729902 C3.19499352,13.7591224 3.17844457,13.7889886 3.16276388,13.8197359 C3.11046209,13.922344 3.06962296,14.0317715 3.04207061,14.1457659 C3.0372179,14.1658091 3.03276776,14.1860094 3.02704725,14.2149651 C3.00929513,14.307247 3,14.402538 3,14.5 C3,15.3284271 3.67157288,16 4.5,16 L4.5,16 L4.64446001,15.9931334 C5.40511192,15.9204487 6,15.2796961 6,14.5 L6,14.5 L5.9929272,14.3544844 L5.9929272,14.3544844 L5.97130298,14.2065202 C5.96726892,14.1861825 5.9628237,14.1659927 5.95806607,14.146331 C5.93000537,14.0302338 5.88843918,13.9194073 5.83482445,13.8150252 C5.81983806,13.7858796 5.80392515,13.7572887 5.78735279,13.7296715 C5.7807452,13.7186528 5.77400015,13.7077259 5.76701268,13.6967244 C5.75025544,13.6703482 5.73269725,13.6445309 5.71458877,13.6196047 C5.70435891,13.605516 5.69388992,13.5916123 5.68337411,13.5781382 C5.67264694,13.5643876 5.66168535,13.5508289 5.65038761,13.5373393 L5.65038761,13.5373393 L5.59219785,13.4718382 L5.59219785,13.4718382 L5.52938349,13.4089526 L5.52938349,13.4089526 L5.49739225,13.3796182 L5.49739225,13.3796182 L5.44556489,13.3355037 C5.42588186,13.3195016 5.40578531,13.3039886 5.38469741,13.2885466 C5.36911961,13.2771511 5.3533138,13.2660488 5.33765809,13.2554973 C5.31848971,13.2425699 5.29900652,13.2300737 5.27926005,13.2180455 C5.25795003,13.2050641 5.23629087,13.1925991 5.21409889,13.1805587 C5.19452386,13.1699421 5.17468604,13.1597483 5.15465002,13.1500152 L5.15465002,13.1500152 L5.10078879,13.125158 L5.10078879,13.125158 L5.005,13.087 L5.072,13.113 L5.093,13.122 L5.07876279,13.1157294 L5.07876279,13.1157294 Z M14.0002925,15.9147505 L14.0002925,23.0852495 L14.0002925,23.0852495 L13.9883687,23.0895183 C13.9543756,23.1018515 13.920955,23.1153785 13.8879098,23.1301595 L13.862461,23.141835 L13.862461,23.141835 L13.8375291,23.153843 C13.8187389,23.1631077 13.8001707,23.1727541 13.7817592,23.1828135 C13.761188,23.1940545 13.740909,23.2057633 13.7209367,23.2179257 L13.7209367,23.2179257 L13.5923678,23.3056609 C13.5667532,23.3251566 13.5417846,23.3454576 13.5174875,23.3665366 C13.4844898,23.3951647 13.4527546,23.4252097 13.4225098,23.4564395 C13.4096431,23.4697219 13.3970198,23.4832415 13.3844013,23.4972642 C13.3693136,23.5140392 13.3545987,23.5311563 13.3404549,23.5483771 C13.3229531,23.569678 13.3060268,23.5914697 13.2897756,23.613625 C13.2770558,23.6309628 13.2646996,23.648584 13.2527885,23.6663724 C13.2384712,23.6877505 13.2246889,23.7095172 13.2112897,23.7319398 L13.2112897,23.7319398 L13.166,23.812 L13.1557471,23.8336812 L13.1557471,23.8336812 L13.135,23.877 L13.127,23.895 L13.124,23.9 L13.1242781,23.901226 L5.8752823,23.9002184 C5.86934853,23.8866315 5.86321931,23.8731496 5.85711445,23.8602337 L5.85711445,23.8602337 L5.82923102,23.8042548 C5.81529776,23.7776897 5.80059149,23.7515938 5.7849711,23.7257137 L5.7849711,23.7257137 L5.76602183,23.6951669 C5.74899089,23.6684326 5.73113642,23.6422741 5.71244798,23.6166638 C5.70341276,23.6042835 5.69419251,23.5920468 5.68480921,23.5799808 C5.66663204,23.5566058 5.64777836,23.5337829 5.62833421,23.5116063 C5.61835842,23.5002272 5.60821326,23.4890004 5.5979766,23.4780091 C5.5780428,23.4566028 5.55749051,23.43578 5.5364419,23.415659 C5.52545561,23.4051551 5.51430996,23.3948164 5.50283362,23.3844894 C5.4840954,23.3676328 5.4649302,23.3512417 5.44556489,23.3355037 C5.42870061,23.3217932 5.41153275,23.3084417 5.3938509,23.2952958 C5.37219334,23.2792003 5.3500868,23.2636749 5.32756455,23.2487492 C5.31582381,23.2409684 5.30396721,23.2333484 5.29218365,23.2260081 C5.26513629,23.2091541 5.23751314,23.1931375 5.20900521,23.1778089 C5.19557767,23.1705934 5.18202755,23.1635766 5.16869283,23.1569288 C5.15359129,23.1493954 5.13834484,23.1421092 5.12284926,23.1350255 C5.05489008,23.1039649 4.98420782,23.0778303 4.91151814,23.0571521 C4.8424738,23.0374974 4.77139839,23.0226649 4.69879049,23.0130565 C4.63374982,23.0044445 4.56739395,23 4.5,23 C3.67157288,23 3,23.6715729 3,24.5 C3,25.3284271 3.67157288,26 4.5,26 C4.57637981,26 4.65142626,25.9942912 4.72482107,25.9832643 C4.74249092,25.9806086 4.76005987,25.9776446 4.77717391,25.9744431 C4.79917078,25.9703337 4.82099865,25.9657443 4.84293665,25.9606181 C4.86399358,25.9556934 4.88487985,25.950325 4.90534371,25.9445911 C4.93382585,25.9366158 4.96196552,25.9278207 4.99029812,25.9180386 C5.00433477,25.9131862 5.01827693,25.9081311 5.03140014,25.9031505 L5.03140014,25.9031505 L5.10918086,25.8711388 C5.12555604,25.8638526 5.14177653,25.8562816 5.15755318,25.8485705 C5.17593704,25.8395899 5.19411007,25.8302444 5.21220039,25.8204692 C5.23622164,25.8074859 5.25984847,25.7938663 5.28316234,25.7795691 L5.28316234,25.7795691 L5.31524927,25.7593257 C5.34111392,25.7425473 5.36642913,25.7249937 5.39115197,25.7067053 C5.4071699,25.6948564 5.42294358,25.6826962 5.4383539,25.670322 C5.45430169,25.6575188 5.46998222,25.6443963 5.48545033,25.6309079 C5.50315841,25.6154645 5.52050041,25.599612 5.53759298,25.5832393 L5.53759298,25.5832393 L5.58531586,25.5354213 C5.59848296,25.5216237 5.61138963,25.5075755 5.62426294,25.4930186 C5.6412768,25.4737707 5.65780402,25.4540826 5.67349298,25.4343905 C5.68557356,25.4192386 5.69736684,25.4038476 5.70927739,25.3876644 L5.70927739,25.3876644 L5.75526135,25.3214808 L5.75526135,25.3214808 L5.77920776,25.2837512 L5.77920776,25.2837512 L5.82109349,25.2110441 C5.83042479,25.1937433 5.83942617,25.1762383 5.84804541,25.158627 C5.85526428,25.1438795 5.86224827,25.1289961 5.86905286,25.1138473 C5.89694994,25.0517246 5.92074291,24.9873592 5.9400866,24.9210962 L5.9400866,24.9210962 L5.94596444,24.9004066 L13.0540356,24.9004066 L13.0599134,24.9210962 C13.0792571,24.9873592 13.1030501,25.0517246 13.1310075,25.1139816 C13.1377517,25.1289961 13.1447357,25.1438795 13.1519108,25.1585375 C13.1605738,25.1762383 13.1695752,25.1937433 13.1788736,25.2109831 C13.1921833,25.2356628 13.2061643,25.259927 13.2210348,25.2841461 C13.2287572,25.2967147 13.2366597,25.3091608 13.2443634,25.3209084 C13.2592257,25.3435951 13.2746862,25.3658545 13.2911354,25.3882256 C13.3026332,25.4038476 13.3144264,25.4192386 13.3261747,25.4339735 C13.342196,25.4540826 13.3587232,25.4737707 13.375972,25.4932844 C13.3886104,25.5075755 13.401517,25.5216237 13.4143781,25.5351005 L13.4143781,25.5351005 L13.4625384,25.5833651 C13.4794996,25.599612 13.4968416,25.6154645 13.5146142,25.6309642 C13.5300178,25.6443963 13.5456983,25.6575188 13.5615359,25.6702336 C13.5770564,25.6826962 13.5928301,25.6948564 13.608838,25.7066979 C13.6335709,25.7249937 13.6588861,25.7425473 13.6846234,25.7592432 L13.6846234,25.7592432 L13.7169417,25.779633 C13.7401515,25.7938663 13.7637784,25.8074859 13.7879372,25.8205435 C13.8058899,25.8302444 13.824063,25.8395899 13.8421639,25.8484323 L13.8664167,25.8600161 L13.8664167,25.8600161 L13.8911675,25.8712937 C13.9166129,25.8826079 13.9424315,25.8932347 13.9678789,25.9028771 C13.9817231,25.9081311 13.9956652,25.9131862 14.0102643,25.918233 C14.0380345,25.9278207 14.0661742,25.9366158 14.0944149,25.9445235 C14.1151201,25.950325 14.1360064,25.9556934 14.1573538,25.960686 C14.1790013,25.9657443 14.2008292,25.9703337 14.2224777,25.974378 C14.2399401,25.9776446 14.2575091,25.9806086 14.275264,25.9832771 C14.3485737,25.9942912 14.4236202,26 14.5,26 L14.5,26 L14.64446,25.9931334 C15.4051119,25.9204487 16,25.2796961 16,24.5 L16,24.5 L15.9929272,24.3544844 L15.9929272,24.3544844 L15.971303,24.2065202 C15.9672689,24.1861825 15.9628237,24.1659927 15.9580661,24.146331 C15.9300054,24.0302338 15.8884392,23.9194073 15.8348245,23.8150252 C15.8216137,23.789333 15.807683,23.7640717 15.7932551,23.7396006 C15.784775,23.7252092 15.7760616,23.7109717 15.7670127,23.6967244 L15.7670127,23.6967244 L15.7237849,23.6324103 C15.7111607,23.6146353 15.6981589,23.5971472 15.6848814,23.5800736 C15.6736743,23.5656595 15.66221,23.5514553 15.6503876,23.5373393 L15.6503876,23.5373393 L15.5921979,23.4718382 L15.5921979,23.4718382 L15.5293835,23.4089526 L15.5293835,23.4089526 L15.4973923,23.3796182 C15.4823935,23.3662564 15.4671246,23.3531912 15.4516229,23.3404549 C15.4300102,23.3226969 15.4078922,23.3055314 15.3846974,23.2885466 C15.3691196,23.2771511 15.3533138,23.2660488 15.3376581,23.2554973 L15.3076973,23.2358074 L15.3076973,23.2358074 L15.2772269,23.2168092 C15.2565727,23.2042722 15.2355919,23.1922198 15.2140989,23.1805587 C15.1945239,23.1699421 15.174686,23.1597483 15.15465,23.1500152 C15.1048139,23.1258032 15.0534359,23.1042696 15.000703,23.0856015 L15.072,23.113 L15.0594901,23.1078199 L15.0594901,23.1078199 L15.0175757,23.0916893 L15.000703,23.0856015 L15.000703,15.9143985 C15.006471,15.9123565 15.0122228,15.9102803 15.0175757,15.9083107 C15.045719,15.8979643 15.0734664,15.8867985 15.1007587,15.8748551 L15.1007587,15.8748551 L15.1545977,15.8500102 C15.174686,15.8402517 15.1945239,15.8300579 15.2143,15.8193322 C15.2362909,15.8074009 15.25795,15.7949359 15.2792224,15.7819774 C15.2990065,15.7699263 15.3184897,15.7574301 15.3372881,15.7447522 C15.3543798,15.7332327 15.3712213,15.7213706 15.3882256,15.7088646 C15.409806,15.6929815 15.4309457,15.6765344 15.4515949,15.6595681 C15.4671246,15.6468088 15.4823935,15.6337436 15.4971833,15.6205679 C15.5189184,15.6012122 15.5400867,15.5812336 15.5607217,15.5605986 L15.5921134,15.5282514 L15.5921134,15.5282514 L15.6504953,15.4625321 L15.6504953,15.4625321 L15.6847913,15.4200422 C15.6993984,15.4012589 15.7135687,15.382119 15.7272314,15.3627167 C15.7409488,15.3432391 15.7542144,15.3234204 15.76712,15.3031067 C15.7760616,15.2890283 15.784775,15.2747908 15.793059,15.260732 C15.807683,15.2359283 15.8216137,15.210667 15.8351238,15.1843923 C15.8884392,15.0805927 15.9300054,14.9697662 15.9579764,14.85404 C15.9671325,14.8162004 15.9748538,14.7778006 15.9810795,14.7389014 L15.994,14.632 L15.995,14.62 L15.9982703,14.5726764 L15.9982703,14.5726764 L16,14.5 C16,13.6715729 15.3284271,13 14.5,13 C13.6715729,13 13,13.6715729 13,14.5 L13,14.5 L13.0068666,14.64446 C13.0141921,14.7188662 13.0258949,14.7874236 13.0419339,14.853669 C13.0583801,14.9217128 13.0794655,14.987946 13.1048364,15.0520151 L13.1048364,15.0520151 L13.1112415,15.0679216 C13.1389479,15.1356024 13.171458,15.2008076 13.2085078,15.2633833 L13.2085078,15.2633833 L13.2344857,15.3056292 C13.2454412,15.3228028 13.2567367,15.3397385 13.2685365,15.356676 C13.283799,15.3785747 13.2996306,15.4000471 13.3161436,15.4212432 C13.3294975,15.4383793 13.3432154,15.455218 13.3571816,15.4716253 C13.3717785,15.4887773 13.3867548,15.5055967 13.4019951,15.5219604 C13.419056,15.5402828 13.4365701,15.5581776 13.4544139,15.5755243 C13.4699035,15.5905853 13.4857173,15.6053147 13.5021019,15.6199309 L13.5021019,15.6199309 L13.5503935,15.6611989 C13.5698036,15.6770909 13.5896193,15.6925059 13.6098797,15.7074677 C13.6291372,15.7216877 13.6487471,15.7354579 13.6683911,15.7485611 C13.6852861,15.7598365 13.7024228,15.7707781 13.7202623,15.7816633 C13.743153,15.7956194 13.7664469,15.8089795 13.7899751,15.8216427 C13.8066233,15.8306054 13.8234603,15.8392627 13.8402925,15.847516 L13.8402925,15.847516 L13.911,15.879 L13.979,15.906 L13.9191151,15.8833804 L13.9191151,15.8833804 L13.9455327,15.89419 L13.9455327,15.89419 L13.9863859,15.9097607 L13.992,15.911 L14.0002925,15.9147505 Z" id="path-1"></path>
    </defs>
    <g id="logo/v1/square/monochrome/negative" stroke="none" stroke-width="1" fill="none" fill-rule="evenodd">
        <mask id="mask-2" fill="white">
            <use xlink:href="#path-1"></use>
        </mask>
        <use id="Combined-Shape" fill="#100C53" xlink:href="#path-1"></use>
    </g>
</svg>