<?xml version="1.0" encoding="UTF-8"?>
<svg width="29px" height="29px" viewBox="0 0 29 29" version="1.1" xmlns="http://www.w3.org/2000/svg" xmlns:xlink="http://www.w3.org/1999/xlink">
    <title>logo/v1/square/monochrome/positive</title>
    <defs>
        <rect id="path-1" x="0" y="0" width="29" height="29"></rect>
    </defs>
    <g id="logo/v1/square/monochrome/positive" stroke="none" stroke-width="1" fill="none" fill-rule="evenodd">
        <mask id="mask-2" fill="white">
            <use xlink:href="#path-1"></use>
        </mask>
        <rect stroke="#100C53" x="0.5" y="0.5" width="28" height="28"></rect>
        <path d="M24.5,3 C25.3284271,3 26,3.67157288 26,4.5 C26,4.71480628 25.9548478,4.91906671 25.8735167,5.10380808 C25.8635868,5.12634545 25.8533187,5.14819197 25.8425469,5.16974288 C25.8362607,5.18232927 25.8295895,5.19521252 25.8227388,5.20798506 C25.8087143,5.23411425 25.794166,5.25940948 25.7789156,5.28422692 C25.7699695,5.29878706 25.7607295,5.31326178 25.7512508,5.32756455 C25.7359624,5.35064019 25.719936,5.3734251 25.703304,5.39573187 C25.6926473,5.41001757 25.6819648,5.42382941 25.6710497,5.43744677 C25.654308,5.45833961 25.6368718,5.47893933 25.6189014,5.49905156 C25.6066038,5.51281297 25.5941274,5.52627199 25.5814106,5.53949824 C25.5636098,5.55801766 25.5451756,5.57623339 25.5262818,5.59396524 C25.5160074,5.60360623 25.5056866,5.6130248 25.4952354,5.62229961 C25.4716748,5.64321755 25.4471836,5.66361347 25.4220514,5.68322617 C25.4099794,5.6926477 25.3977091,5.70192547 25.3852937,5.71101693 C25.3601734,5.72941286 25.3344296,5.74706512 25.3081251,5.76391869 C25.2992816,5.76958583 25.2902693,5.77522716 25.2811934,5.78077473 C25.2523027,5.79843096 25.2228686,5.81508474 25.192838,5.8307518 C25.1800537,5.83741882 25.1673764,5.84380258 25.1545977,5.85001024 C25.1309223,5.86151901 25.10654,5.87257459 25.0818203,5.88298675 C25.0617814,5.89142329 25.0417597,5.89934844 25.0215321,5.90684981 C24.999896,5.91487551 24.9779116,5.92245235 24.9557026,5.92952597 C24.9350789,5.93609298 24.9143716,5.94219619 24.8934833,5.94785943 C24.8832412,5.95064 24.8724766,5.95343355 24.8616658,5.95610985 L24.8616658,13.0438902 L24.8934833,13.0521406 C24.9143716,13.0578038 24.9350789,13.063907 24.9555946,13.0704396 L24.8616658,13.0438902 C24.9162307,13.0573981 24.9696174,13.073893 25.0216426,13.0931911 C25.0417597,13.1006516 25.0617814,13.1085767 25.0815866,13.1169148 C25.10654,13.1274254 25.1309223,13.138481 25.154946,13.150159 C25.1673764,13.1561974 25.1800537,13.1625812 25.1926265,13.1691379 C25.2228686,13.1849153 25.2523027,13.201569 25.2810973,13.2191665 C25.2902693,13.2247728 25.2992816,13.2304142 25.308229,13.2361479 C25.3344296,13.2529349 25.3601734,13.2705871 25.3853221,13.2890039 C25.3977091,13.2980745 25.4099794,13.3073523 25.4221006,13.3168123 C25.4439987,13.3339011 25.4654571,13.3516256 25.4864023,13.369923 C25.4999008,13.3817157 25.5131571,13.3937192 25.5261947,13.405953 C25.5451756,13.4237666 25.5636098,13.4419823 25.5815648,13.4606622 C25.5941274,13.473728 25.6066038,13.487187 25.6188329,13.5008718 C25.6368718,13.5210607 25.654308,13.5416604 25.6711876,13.5627253 C25.6819648,13.5761706 25.6926473,13.5899824 25.7030911,13.6039827 C25.719936,13.6265749 25.7359624,13.6493598 25.7513588,13.6725985 C25.7607295,13.6867382 25.7699695,13.7012129 25.7789652,13.7158539 C25.794166,13.7405905 25.8087143,13.7658857 25.8225329,13.7916311 C25.8294173,13.8044664 25.8359252,13.8170231 25.8422592,13.8296818 C25.8529929,13.8511154 25.8634322,13.8733037 25.8733359,13.8957813 C25.9548478,14.0809333 26,14.2851937 26,14.5 C26,14.7148063 25.9548478,14.9190667 25.8735167,15.1038081 C25.8634322,15.1266963 25.8529929,15.1488846 25.8420342,15.1707677 C25.8399047,15.1750237 25.8375262,15.1797151 25.8351238,15.1843923 C25.8173835,15.2188881 25.798743,15.2519613 25.7789156,15.2842269 C25.7718795,15.2956786 25.7646421,15.3071079 25.7572559,15.3184313 C25.7400586,15.3447946 25.7220667,15.3705675 25.703304,15.3957319 C25.6949888,15.4068787 25.6867428,15.4176267 25.678356,15.4282585 C25.659259,15.4524676 25.6394288,15.4760776 25.6189014,15.4990516 C25.6084852,15.5107076 25.5979604,15.5221254 25.5872628,15.5333773 C25.5675124,15.5541508 25.5471782,15.574354 25.5262818,15.5939652 C25.5163241,15.6033091 25.5063282,15.6124391 25.4962097,15.6214342 C25.4723644,15.642643 25.4475375,15.6633373 25.4220514,15.6832262 C25.4099794,15.6926477 25.3977091,15.7019255 25.3852937,15.7110169 C25.3601734,15.7294129 25.3344296,15.7470651 25.3081251,15.7639187 C25.2992816,15.7695858 25.2902693,15.7752272 25.2811934,15.7807747 C25.2523027,15.798431 25.2228686,15.8150847 25.192838,15.8307518 C25.1816701,15.8365758 25.1706345,15.8421582 25.1595215,15.8476072 C25.1343213,15.8599739 25.1082639,15.8718485 25.0818203,15.8829868 C25.0617814,15.8914233 25.0417597,15.8993484 25.0215321,15.9068498 C24.999896,15.9148755 24.9779116,15.9224524 24.9557026,15.929526 C24.9350789,15.936093 24.9143716,15.9421962 24.8934833,15.9478594 C24.8832412,15.95064 24.8724766,15.9534335 24.8616658,15.9561098 L24.8616658,23.0438902 L24.8934833,23.0521406 C24.9143716,23.0578038 24.9350789,23.063907 24.9555946,23.0704396 L24.8616658,23.0438902 C24.9162307,23.0573981 24.9696174,23.073893 25.0216426,23.0931911 C25.0417597,23.1006516 25.0617814,23.1085767 25.0815866,23.1169148 C25.1061953,23.1272802 25.1302421,23.1381727 25.1539406,23.1496708 C25.1667244,23.1558692 25.1797304,23.1624126 25.1926265,23.1691379 C25.2214667,23.1841839 25.2495534,23.2000163 25.2770605,23.2167083 C25.2876597,23.2231421 25.2979869,23.2295845 25.308229,23.2361479 C25.3344296,23.2529349 25.3601734,23.2705871 25.3853221,23.2890039 C25.3977091,23.2980745 25.4099794,23.3073523 25.4221006,23.3168123 C25.4443526,23.3341772 25.466149,23.3521974 25.4874151,23.3708085 C25.499128,23.3810592 25.5106818,23.3914907 25.5220703,23.4020973 C25.5412823,23.4199994 25.5597551,23.4381223 25.5777515,23.4567093 C25.5915655,23.4709696 25.6053496,23.4857835 25.6188329,23.5008718 C25.6363036,23.5204247 25.6532048,23.5403582 25.6695848,23.5607285 C25.6808998,23.5747948 25.6921269,23.5892849 25.7030911,23.6039827 C25.7185156,23.6246698 25.7332206,23.6454715 25.7474003,23.6666545 C25.7581089,23.682644 25.7686963,23.6991406 25.7789652,23.7158539 C25.791778,23.7367045 25.8041411,23.7579758 25.815988,23.7795704 C25.8251322,23.7962453 25.8338489,23.8128736 25.8422592,23.8296818 C25.8529929,23.8511154 25.8634322,23.8733037 25.8733359,23.8957813 C25.9548478,24.0809333 26,24.2851937 26,24.5 L25.9936319,24.3608561 C25.9978461,24.406672 26,24.4530845 26,24.5 C26,25.2796961 25.4051119,25.9204487 24.64446,25.9931334 L24.5,26 C23.6715729,26 23,25.3284271 23,24.5 C23,24.402538 23.0092951,24.307247 23.0270472,24.2149651 C23.0330816,24.1843132 23.0382611,24.1610497 23.0439738,24.1379966 C23.0721965,24.0239921 23.1136187,23.9148234 23.1664685,23.8125164 C23.1809367,23.7845391 23.1959186,23.7576445 23.2116873,23.7312745 C23.218863,23.7192664 23.2264388,23.706995 23.2341847,23.6948427 C23.2517968,23.6672081 23.2703429,23.6401154 23.2897342,23.6136815 C23.2965027,23.6044539 23.3034097,23.5952606 23.310419,23.58615 C23.3299218,23.5607925 23.3503685,23.5359034 23.3715813,23.5117026 C23.3804006,23.5016428 23.3892652,23.491796 23.3982571,23.4820686 C23.419323,23.4592749 23.4411925,23.4370358 23.4637324,23.4154924 C23.4745444,23.4051551 23.48569,23.3948164 23.4969911,23.3846471 C23.5167455,23.3668829 23.5365709,23.3499623 23.5568323,23.3335589 C23.572046,23.3212339 23.5878899,23.3089137 23.6039827,23.2969089 C23.6243248,23.2817406 23.64481,23.2672467 23.6656655,23.2532623 C23.6841951,23.2408309 23.7033283,23.2286126 23.7227505,23.2168229 C23.7393402,23.2067572 23.7558762,23.1971509 23.7726086,23.1878553 C23.7965517,23.1745566 23.8207889,23.1619465 23.8454023,23.1499898 C23.8502981,23.1476089 23.8557529,23.1449972 23.8612257,23.1424176 L23.8612257,15.8575824 L23.8404785,15.8476072 C23.817555,15.8363672 23.7949604,15.8245596 23.772713,15.8122026 L23.8612257,15.8575824 C23.8126484,15.8346857 23.7654986,15.8092585 23.7199465,15.7814708 C23.699308,15.7688774 23.6791472,15.7559011 23.6593251,15.7424628 C23.6409223,15.7299957 23.6224161,15.7168361 23.6042278,15.7032739 C23.5850998,15.6890049 23.5665596,15.6744847 23.5483771,15.6595451 C23.5314007,15.6456098 23.5142161,15.6308424 23.4973761,15.6156993 C23.4825419,15.6023507 23.4683467,15.5890717 23.4544139,15.5755243 C23.4353547,15.557003 23.4164921,15.537662 23.3981585,15.5178248 C23.3874963,15.5062904 23.3769178,15.4944784 23.3665259,15.4825002 C23.347008,15.4599949 23.328305,15.4371053 23.310279,15.413668 C23.2960215,15.3951364 23.2820557,15.3760734 23.2685365,15.356676 C23.2557609,15.3383395 23.2435092,15.3199016 23.2316604,15.3011833 C23.2191853,15.281471 23.2072331,15.2615814 23.1957358,15.2413991 C23.1853239,15.2231339 23.1750897,15.2042504 23.1652544,15.1851281 C23.1115608,15.0805927 23.0699946,14.9697662 23.0419339,14.853669 C23.0258086,14.7870151 23.014102,14.7182995 23.0072254,14.6481669 L23.0068666,14.64446 L23,14.5 C23,14.402538 23.0092951,14.307247 23.0270472,14.2149651 C23.0311071,14.1943209 23.0339038,14.1811157 23.0368729,14.167976 C23.0641764,14.0469779 23.1063058,13.931129 23.1611878,13.8228368 L23.169531,13.8066202 C23.1797342,13.7870823 23.1903551,13.767797 23.2013819,13.7487764 C23.2118225,13.7307733 23.2225042,13.7131997 23.233532,13.6958677 C23.2434167,13.6803171 23.2539477,13.6644279 23.2647692,13.6487547 C23.281651,13.6243229 23.2989052,13.600844 23.3168123,13.5778994 C23.3246512,13.5678506 23.3328274,13.5576464 23.3411329,13.5475526 C23.3620453,13.5221455 23.3836151,13.4976108 23.405953,13.4738053 C23.4222582,13.456426 23.4390646,13.4393462 23.4562692,13.4226748 C23.4700338,13.409341 23.4838766,13.3964271 23.4979601,13.3837758 C23.5164132,13.3671998 23.5352677,13.3510843 23.5545177,13.3354366 C23.5728654,13.3205201 23.5916582,13.3059653 23.6107984,13.2918544 C23.6260501,13.2806162 23.6412036,13.2698769 23.6565615,13.2594152 C23.676787,13.2456319 23.6976237,13.2321732 23.7188066,13.2192253 C23.7406031,13.2059009 23.7628274,13.1930841 23.7854014,13.1808299 C23.803555,13.170984 23.8214226,13.1617533 23.839495,13.1528755 C23.8465046,13.1494267 23.8543426,13.1456553 23.862218,13.1419503 L23.862218,5.85804974 L23.839495,5.84712448 C23.8221171,5.83858785 23.8049285,5.82972487 23.7879372,5.82054351 L23.862218,5.85804974 C23.8112875,5.83408957 23.7619237,5.80734873 23.7143223,5.77802289 C23.6954314,5.766376 23.67724,5.75460807 23.6593251,5.74246284 C23.6411327,5.73013653 23.622907,5.71718425 23.6049894,5.70384139 C23.5784073,5.68404513 23.5525362,5.66341736 23.5273824,5.64197317 C23.5178246,5.63382557 23.5083295,5.62552344 23.4989412,5.61710467 C23.4768044,5.59725375 23.4552717,5.57676518 23.4343617,5.5556587 C23.421724,5.54290894 23.4090511,5.52964875 23.3966223,5.51616009 C23.35436,5.47026868 23.3151659,5.42207318 23.2790307,5.37154061 C23.2290692,5.30167715 23.1849355,5.22730624 23.1473712,5.14917954 C23.1319398,5.11705459 23.1178264,5.0848185 23.1048364,5.0520151 L23.0991014,5.03730511 L23.0991014,5.03730511 L15.9008986,5.03730511 L15.8951636,5.0520151 C15.8863683,5.07422574 15.877058,5.09617629 15.8672474,5.11785205 L15.9008986,5.03730511 C15.8500842,5.16970931 15.781039,5.29307932 15.6968362,5.40434191 C15.6568263,5.45717374 15.6137475,5.50691936 15.567623,5.55365159 C15.518111,5.60383361 15.4648757,5.65070468 15.4085057,5.69367371 C15.3592406,5.73123763 15.3073999,5.76592629 15.2534197,5.79734247 C15.2149179,5.81975916 15.1750951,5.8406196 15.1342715,5.85969565 C15.0503159,5.89889148 14.9626398,5.93040836 14.8716381,5.95360456 C14.7986923,5.97222617 14.7230628,5.98555656 14.6457161,5.99301287 L14.5,6 C13.6715729,6 13,5.32842712 13,4.5 C13,3.67157288 13.6715729,3 14.5,3 C14.562901,3 14.6248978,3.00387168 14.6857649,3.01138974 C14.7519267,3.0195672 14.8166378,3.03202244 14.8797311,3.04848254 C14.9655912,3.0708736 15.0485807,3.10073935 15.1278367,3.13731609 C15.142404,3.14404228 15.1565902,3.15086746 15.1706504,3.15790708 C15.1836685,3.16442088 15.1969053,3.17129427 15.2100249,3.17835731 C15.2769861,3.21441753 15.3407388,3.2553021 15.4009682,3.30061797 C15.417382,3.31296536 15.4336316,3.32572164 15.4496065,3.33880107 C15.4670446,3.35307806 15.4841756,3.36775831 15.5009654,3.38281152 C15.5203928,3.40023292 15.5392635,3.41805445 15.5576621,3.43635013 C15.5707829,3.44939923 15.5835952,3.46261633 15.5961629,3.47606489 C15.6140686,3.49521862 15.631654,3.51505109 15.6487115,3.53534198 C15.660644,3.54954157 15.672146,3.56374501 15.6833905,3.57815922 C15.6958775,3.59415896 15.7082394,3.61068685 15.7202635,3.62747315 C15.7363179,3.64989961 15.7515332,3.67241591 15.7661423,3.69535599 C15.7752145,3.70958873 15.7843631,3.72451005 15.7932551,3.73960064 C15.8057993,3.76089627 15.8177316,3.78233669 15.8291455,3.80409181 C15.841962,3.82852921 15.8540293,3.85315544 15.8654305,3.8781494 C15.872025,3.89260843 15.8783609,3.90710502 15.8844721,3.92171892 C15.8960175,3.9493128 15.9068559,3.97759404 15.9168481,4.00627174 C15.9203809,4.01640455 15.9238934,4.02685033 15.9272934,4.03734678 L23.0727066,4.03734678 L23.0831519,4.00627174 C23.0931441,3.97759404 23.1039825,3.9493128 23.1156371,3.92145792 L23.0727066,4.03734678 C23.0903498,3.98287811 23.1110243,3.92977402 23.1345312,3.87823346 C23.1459707,3.85315544 23.158038,3.82852921 23.1707487,3.8042934 C23.1822684,3.78233669 23.1942007,3.76089627 23.2066351,3.73978697 C23.2156369,3.72451005 23.2247855,3.70958873 23.2341847,3.69484269 C23.2484668,3.67241591 23.2636821,3.64989961 23.2794812,3.62782966 C23.2917606,3.61068685 23.3041225,3.59415896 23.3168123,3.57789939 C23.327854,3.56374501 23.339356,3.54954157 23.3511088,3.53555582 C23.368346,3.51505109 23.3859314,3.49521862 23.4040233,3.47586572 C23.4164048,3.46261633 23.4292171,3.44939923 23.442267,3.4364207 C23.4607365,3.41805445 23.4796072,3.40023292 23.4989299,3.38290542 C23.5158244,3.36775831 23.5329554,3.35307806 23.5504146,3.3387838 C23.5663684,3.32572164 23.582618,3.31296536 23.5991325,3.30054221 C23.6592612,3.2553021 23.7230139,3.21441753 23.7898056,3.17844857 C23.8030947,3.17129427 23.8163315,3.16442088 23.8296818,3.1577408 C23.8434098,3.15086746 23.857596,3.14404228 23.8719039,3.13743583 C23.9517246,3.10059845 24.0350483,3.07064361 24.1213971,3.04818868 C24.1840364,3.03189279 24.2484174,3.01952468 24.3141145,3.01140464 C24.3751022,3.00387168 24.437099,3 24.5,3 Z M14.5,13 C15.3284271,13 16,13.6715729 16,14.5 C16,14.548731 15.9976762,14.5969193 15.9931334,14.64446 L16,14.5 C16,14.6219604 15.9854447,14.7405212 15.9579764,14.85404 C15.9300054,14.9697662 15.8884392,15.0805927 15.8351238,15.1843923 C15.8216137,15.210667 15.807683,15.2359283 15.793059,15.260732 C15.784775,15.2747908 15.7760616,15.2890283 15.76712,15.3031067 C15.7542144,15.3234204 15.7409488,15.3432391 15.7272314,15.3627167 C15.7135687,15.382119 15.6993984,15.4012589 15.6847913,15.4200422 C15.6736743,15.4343405 15.66221,15.4485447 15.6504953,15.4625321 C15.6315973,15.4850915 15.6121631,15.5069645 15.5921134,15.5282514 C15.5818679,15.539131 15.5713746,15.5499445 15.5607217,15.5605986 C15.5400867,15.5812336 15.5189184,15.6012122 15.4971833,15.6205679 C15.4823935,15.6337436 15.4671246,15.6468088 15.4515949,15.6595681 C15.4309457,15.6765344 15.409806,15.6929815 15.3882256,15.7088646 C15.3712213,15.7213706 15.3543798,15.7332327 15.3372881,15.7447522 C15.3184897,15.7574301 15.2990065,15.7699263 15.2792224,15.7819774 C15.25795,15.7949359 15.2362909,15.8074009 15.2143,15.8193322 C15.1945239,15.8300579 15.174686,15.8402517 15.1545977,15.8500102 C15.1368795,15.8586183 15.1189129,15.8669112 15.1007587,15.8748551 C15.0734664,15.8867985 15.045719,15.8979643 15.0175757,15.9083107 C15.0122228,15.9102803 15.006471,15.9123565 15.000703,15.9143985 L15.000703,23.0856015 L15.0175757,23.0916893 C15.045719,23.1020357 15.0734664,23.1132015 15.1007888,23.125158 L15.000703,23.0856015 C15.0534359,23.1042696 15.1048139,23.1258032 15.15465,23.1500152 C15.174686,23.1597483 15.1945239,23.1699421 15.2140989,23.1805587 C15.2355919,23.1922198 15.2565727,23.2042722 15.2772269,23.2168092 C15.2977115,23.2292438 15.3178528,23.2421404 15.3376581,23.2554973 C15.3533138,23.2660488 15.3691196,23.2771511 15.3846974,23.2885466 C15.4078922,23.3055314 15.4300102,23.3226969 15.4516229,23.3404549 C15.4671246,23.3531912 15.4823935,23.3662564 15.4973923,23.3796182 C15.5189184,23.3987878 15.5400867,23.4187664 15.5606602,23.4393398 C15.5713746,23.4500555 15.5818679,23.460869 15.5921979,23.4718382 C15.6121631,23.4930355 15.6315973,23.5149085 15.6503876,23.5373393 C15.66221,23.5514553 15.6736743,23.5656595 15.6848814,23.5800736 C15.6981589,23.5971472 15.7111607,23.6146353 15.7237849,23.6324103 C15.7386657,23.6533574 15.7531147,23.6748487 15.7670127,23.6967244 C15.7760616,23.7109717 15.784775,23.7252092 15.7932551,23.7396006 C15.807683,23.7640717 15.8216137,23.789333 15.8348245,23.8150252 C15.8884392,23.9194073 15.9300054,24.0302338 15.9580661,24.146331 C15.9628237,24.1659927 15.9672689,24.1861825 15.971303,24.2065202 C15.9907049,24.307247 16,24.402538 16,24.5 L16,24.5 C16,25.2796961 15.4051119,25.9204487 14.64446,25.9931334 L14.5,26 C14.4236202,26 14.3485737,25.9942912 14.275264,25.9832771 C14.2575091,25.9806086 14.2399401,25.9776446 14.2224777,25.974378 C14.2008292,25.9703337 14.1790013,25.9657443 14.1573538,25.960686 C14.1360064,25.9556934 14.1151201,25.950325 14.0944149,25.9445235 C14.0661742,25.9366158 14.0380345,25.9278207 14.0102643,25.918233 C13.9956652,25.9131862 13.9817231,25.9081311 13.9678789,25.9028771 C13.9424315,25.8932347 13.9166129,25.8826079 13.8911675,25.8712937 C13.874444,25.8638526 13.8582235,25.8562816 13.8421639,25.8484323 C13.824063,25.8395899 13.8058899,25.8302444 13.7879372,25.8205435 C13.7637784,25.8074859 13.7401515,25.7938663 13.7169417,25.779633 C13.706008,25.7729267 13.6952692,25.7661506 13.6846234,25.7592432 C13.6588861,25.7425473 13.6335709,25.7249937 13.608838,25.7066979 C13.5928301,25.6948564 13.5770564,25.6826962 13.5615359,25.6702336 C13.5456983,25.6575188 13.5300178,25.6443963 13.5146142,25.6309642 C13.4968416,25.6154645 13.4794996,25.599612 13.4625384,25.5833651 C13.4460382,25.567556 13.4300241,25.5515053 13.4143781,25.5351005 C13.401517,25.5216237 13.3886104,25.5075755 13.375972,25.4932844 C13.3587232,25.4737707 13.342196,25.4540826 13.3261747,25.4339735 C13.3144264,25.4192386 13.3026332,25.4038476 13.2911354,25.3882256 C13.2746862,25.3658545 13.2592257,25.3435951 13.2443634,25.3209084 C13.2366597,25.3091608 13.2287572,25.2967147 13.2210348,25.2841461 C13.2061643,25.259927 13.1921833,25.2356628 13.1788736,25.2109831 C13.1695752,25.1937433 13.1605738,25.1762383 13.1519108,25.1585375 C13.1447357,25.1438795 13.1377517,25.1289961 13.1310075,25.1139816 C13.1030501,25.0517246 13.0792571,24.9873592 13.0599134,24.9210962 L13.0540356,24.9004066 L13.0540356,24.9004066 L5.94596444,24.9004066 L5.9400866,24.9210962 C5.92074291,24.9873592 5.89694994,25.0517246 5.86905286,25.1138473 C5.86224827,25.1289961 5.85526428,25.1438795 5.84804541,25.158627 C5.83942617,25.1762383 5.83042479,25.1937433 5.82109349,25.2110441 C5.80781671,25.2356628 5.79383569,25.259927 5.77920776,25.2837512 C5.77124282,25.2967147 5.76334033,25.3091608 5.75526135,25.3214808 C5.74077429,25.3435951 5.72531376,25.3658545 5.70927739,25.3876644 C5.69736684,25.4038476 5.68557356,25.4192386 5.67349298,25.4343905 C5.65780402,25.4540826 5.6412768,25.4737707 5.62426294,25.4930186 C5.61138963,25.5075755 5.59848296,25.5216237 5.58531586,25.5354213 C5.5699759,25.5515053 5.55396184,25.567556 5.53759298,25.5832393 C5.52050041,25.599612 5.50315841,25.6154645 5.48545033,25.6309079 C5.46998222,25.6443963 5.45430169,25.6575188 5.4383539,25.670322 C5.42294358,25.6826962 5.4071699,25.6948564 5.39115197,25.7067053 C5.36642913,25.7249937 5.34111392,25.7425473 5.31524927,25.7593257 C5.30473083,25.7661506 5.29399199,25.7729267 5.28316234,25.7795691 C5.25984847,25.7938663 5.23622164,25.8074859 5.21220039,25.8204692 C5.19411007,25.8302444 5.17593704,25.8395899 5.15755318,25.8485705 C5.14177653,25.8562816 5.12555604,25.8638526 5.10918086,25.8711388 C5.08338713,25.8826079 5.05756848,25.8932347 5.03140014,25.9031505 C5.01827693,25.9081311 5.00433477,25.9131862 4.99029812,25.9180386 C4.96196552,25.9278207 4.93382585,25.9366158 4.90534371,25.9445911 C4.88487985,25.950325 4.86399358,25.9556934 4.84293665,25.9606181 C4.82099865,25.9657443 4.79917078,25.9703337 4.77717391,25.9744431 C4.76005987,25.9776446 4.74249092,25.9806086 4.72482107,25.9832643 C4.65142626,25.9942912 4.57637981,26 4.5,26 C3.67157288,26 3,25.3284271 3,24.5 C3,23.6715729 3.67157288,23 4.5,23 C4.56739395,23 4.63374982,23.0044445 4.69879049,23.0130565 C4.77139839,23.0226649 4.8424738,23.0374974 4.91151814,23.0571521 C4.98420782,23.0778303 5.05489008,23.1039649 5.12284926,23.1350255 C5.13834484,23.1421092 5.15359129,23.1493954 5.16869283,23.1569288 C5.18202755,23.1635766 5.19557767,23.1705934 5.20900521,23.1778089 C5.23751314,23.1931375 5.26513629,23.2091541 5.29218365,23.2260081 C5.30396721,23.2333484 5.31582381,23.2409684 5.32756455,23.2487492 C5.3500868,23.2636749 5.37219334,23.2792003 5.3938509,23.2952958 C5.41153275,23.3084417 5.42870061,23.3217932 5.44556489,23.3355037 C5.4649302,23.3512417 5.4840954,23.3676328 5.50283362,23.3844894 C5.51430996,23.3948164 5.52545561,23.4051551 5.5364419,23.415659 C5.55749051,23.43578 5.5780428,23.4566028 5.5979766,23.4780091 C5.60821326,23.4890004 5.61835842,23.5002272 5.62833421,23.5116063 C5.64777836,23.5337829 5.66663204,23.5566058 5.68480921,23.5799808 C5.69419251,23.5920468 5.70341276,23.6042835 5.71244798,23.6166638 C5.73113642,23.6422741 5.74899089,23.6684326 5.76602183,23.6951669 C5.77232127,23.7050497 5.77870722,23.7153407 5.7849711,23.7257137 C5.80059149,23.7515938 5.81529776,23.7776897 5.82923102,23.8042548 C5.83891416,23.8227179 5.84820521,23.841368 5.85711445,23.8602337 C5.86321931,23.8731496 5.86934853,23.8866315 5.8752823,23.9002184 L13.1242781,23.901226 L13.1350255,23.8771507 C13.1483872,23.8479161 13.1626604,23.8191853 13.1778089,23.7909948 L13.1242781,23.901226 C13.1497589,23.8427639 13.178857,23.7862409 13.2112897,23.7319398 C13.2246889,23.7095172 13.2384712,23.6877505 13.2527885,23.6663724 C13.2646996,23.648584 13.2770558,23.6309628 13.2897756,23.613625 C13.3060268,23.5914697 13.3229531,23.569678 13.3404549,23.5483771 C13.3545987,23.5311563 13.3693136,23.5140392 13.3844013,23.4972642 C13.3970198,23.4832415 13.4096431,23.4697219 13.4225098,23.4564395 C13.4527546,23.4252097 13.4844898,23.3951647 13.5174875,23.3665366 C13.5417846,23.3454576 13.5667532,23.3251566 13.5923678,23.3056609 L13.7209367,23.2179257 C13.740909,23.2057633 13.761188,23.1940545 13.7817592,23.1828135 C13.8001707,23.1727541 13.8187389,23.1631077 13.8375291,23.153843 C13.8539196,23.1457563 13.8708302,23.1378029 13.8879098,23.1301595 C13.920955,23.1153785 13.9543756,23.1018515 13.9883687,23.0895183 C13.9921161,23.0881577 13.9962002,23.086695 14.0002925,23.0852495 L14.0002925,15.9147505 L13.9863859,15.9097607 C13.9589614,15.8997667 13.9319106,15.8889953 13.9052602,15.8774731 L14.0002925,15.9147505 C13.9454244,15.8953703 13.8920209,15.8728886 13.8402925,15.847516 C13.8234603,15.8392627 13.8066233,15.8306054 13.7899751,15.8216427 C13.7664469,15.8089795 13.743153,15.7956194 13.7202623,15.7816633 C13.7024228,15.7707781 13.6852861,15.7598365 13.6683911,15.7485611 C13.6487471,15.7354579 13.6291372,15.7216877 13.6098797,15.7074677 C13.5896193,15.6925059 13.5698036,15.6770909 13.5503935,15.6611989 C13.534169,15.647921 13.5179838,15.6340923 13.5021019,15.6199309 C13.4857173,15.6053147 13.4699035,15.5905853 13.4544139,15.5755243 C13.4365701,15.5581776 13.419056,15.5402828 13.4019951,15.5219604 C13.3867548,15.5055967 13.3717785,15.4887773 13.3571816,15.4716253 C13.3432154,15.455218 13.3294975,15.4383793 13.3161436,15.4212432 C13.2996306,15.4000471 13.283799,15.3785747 13.2685365,15.356676 C13.2567367,15.3397385 13.2454412,15.3228028 13.2344857,15.3056292 C13.2258302,15.2920746 13.2170517,15.2778067 13.2085078,15.2633833 C13.171458,15.2008076 13.1389479,15.1356024 13.1112415,15.0679216 L13.1048364,15.0520151 C13.0794655,14.987946 13.0583801,14.9217128 13.0419339,14.853669 C13.0258949,14.7874236 13.0141921,14.7188662 13.0072972,14.6488968 L13.0068666,14.64446 L13,14.5 C13,13.6715729 13.6715729,13 14.5,13 Z M4.5,3 C5.32842712,3 6,3.67157288 6,4.5 C6,4.54873101 5.99767622,4.59691927 5.99313342,4.64446001 L6,4.5 C6,4.62196037 5.98544467,4.74052117 5.95797635,4.85404004 C5.93000537,4.96976623 5.88843918,5.08059275 5.83512381,5.18439231 C5.82161374,5.21066704 5.80768304,5.23592832 5.79305903,5.26073203 C5.78477504,5.27479082 5.77606161,5.28902832 5.76712002,5.30310667 C5.75421436,5.32342038 5.74094884,5.34323915 5.72723135,5.3627167 C5.71356874,5.38211899 5.69939845,5.40125889 5.68479131,5.42004224 C5.67367432,5.4343405 5.66221,5.44854471 5.65049534,5.46253211 C5.63159727,5.48509147 5.61216306,5.50696451 5.59211343,5.5282514 C5.58407954,5.53678247 5.5758603,5.54530706 5.56754202,5.55373366 C5.54578645,5.57577591 5.52326723,5.59722482 5.50009953,5.61796416 C5.4844945,5.63194332 5.46819369,5.64593042 5.45159488,5.65956808 C5.43094566,5.67653441 5.40980597,5.69298149 5.38822555,5.70886457 C5.37217661,5.720668 5.35631943,5.73186485 5.34023961,5.74275783 C5.32148852,5.75547008 5.30198492,5.76804458 5.28217811,5.7801723 C5.2600147,5.79374602 5.2373394,5.80683207 5.21429996,5.81933221 C5.19612481,5.82918964 5.17792917,5.83858144 5.15952148,5.84760719 C5.14032886,5.85702215 5.12065647,5.86614829 5.10075874,5.87485514 C5.07442724,5.88637797 5.04767015,5.89717798 5.02054351,5.90721604 C5.0142523,5.90954645 5.00748885,5.9119962 5.00070296,5.91439849 L5.00070296,13.0856015 L5.01757572,13.0916893 C5.04571902,13.1020357 5.07346635,13.1132015 5.10078879,13.125158 L5.00070296,13.0856015 C5.05343586,13.1042696 5.10481393,13.1258032 5.15465002,13.1500152 C5.17468604,13.1597483 5.19452386,13.1699421 5.21409889,13.1805587 C5.23629087,13.1925991 5.25795003,13.2050641 5.27926005,13.2180455 C5.29900652,13.2300737 5.31848971,13.2425699 5.33765809,13.2554973 C5.3533138,13.2660488 5.36911961,13.2771511 5.38469741,13.2885466 C5.40578531,13.3039886 5.42588186,13.3195016 5.44556489,13.3355037 C5.46322423,13.3498624 5.48047992,13.3645517 5.49739225,13.3796182 C5.51891843,13.3987878 5.54008673,13.4187664 5.56066017,13.4393398 C5.57137457,13.4500555 5.58186792,13.460869 5.59219785,13.4718382 C5.61216306,13.4930355 5.63159727,13.5149085 5.65038761,13.5373393 C5.66168535,13.5508289 5.67264694,13.5643876 5.68337411,13.5781382 C5.69388992,13.5916123 5.70435891,13.605516 5.71458877,13.6196047 C5.73269725,13.6445309 5.75025544,13.6703482 5.76701268,13.6967244 C5.77400015,13.7077259 5.7807452,13.7186528 5.78735279,13.7296715 C5.80392515,13.7572887 5.81983806,13.7858796 5.83482445,13.8150252 C5.88843918,13.9194073 5.93000537,14.0302338 5.95806607,14.146331 C5.9628237,14.1659927 5.96726892,14.1861825 5.97130298,14.2065202 C5.99070487,14.307247 6,14.402538 6,14.5 L6,14.5 C6,15.2796961 5.40511192,15.9204487 4.64446001,15.9931334 L4.5,16 C3.67157288,16 3,15.3284271 3,14.5 C3,14.402538 3.00929513,14.307247 3.02704725,14.2149651 C3.03276776,14.1860094 3.0372179,14.1658091 3.04207061,14.1457659 C3.06962296,14.0317715 3.11046209,13.922344 3.16276388,13.8197359 C3.17844457,13.7889886 3.19499352,13.7591224 3.21250905,13.729902 C3.21988056,13.7176093 3.22727864,13.7056572 3.23483833,13.6938182 C3.25078466,13.668821 3.26783617,13.6437978 3.28560894,13.6193324 C3.29564109,13.605516 3.30611008,13.5916123 3.31681226,13.5778994 C3.33299666,13.5571663 3.34961533,13.5369835 3.36674075,13.5172523 C3.3781515,13.5040995 3.39001075,13.4909073 3.40209735,13.4779297 C3.41968453,13.4590423 3.43786112,13.4405046 3.45650492,13.4224465 C3.47128148,13.4081323 3.48641961,13.3940588 3.50184386,13.3802992 C3.51924813,13.3647803 3.53674775,13.3498795 3.55458693,13.3353803 C3.57411814,13.3195016 3.59421469,13.3039886 3.61470628,13.2889831 C3.6326151,13.2758756 3.65051451,13.2633631 3.66869369,13.251237 C3.68528607,13.2401635 3.70242279,13.2292219 3.71979185,13.2186236 C3.74315299,13.2043806 3.76644692,13.1910205 3.7901225,13.178278 C3.80662333,13.1693946 3.8234603,13.1607373 3.84047852,13.1523928 C3.86160525,13.1420302 3.88320233,13.1320671 3.90506905,13.1226095 C3.93191058,13.1110047 3.95896138,13.1002333 3.9863859,13.0902393 C3.99079473,13.0886314 3.9955381,13.0869288 4.00029246,13.0852495 L4.00029246,5.91475048 L3.9863859,5.90976072 C3.95896138,5.89976674 3.93191058,5.88899532 3.90526017,5.87747312 L4.00029246,5.91475048 C3.9454244,5.89537027 3.89202089,5.87288856 3.84029253,5.84751597 C3.8234603,5.83926273 3.80662333,5.8306054 3.78997511,5.82164269 C3.76574011,5.80859908 3.74176248,5.79482115 3.71821317,5.7804118 C3.69801508,5.76804458 3.67851148,5.75547008 3.65932512,5.74246284 C3.64287381,5.73131798 3.62624946,5.71955533 3.60987968,5.70746775 C3.58961933,5.69250586 3.56980356,5.67709093 3.55039352,5.66119893 C3.53345467,5.64733639 3.51658114,5.63289276 3.50003814,5.61808739 C3.48444635,5.60412988 3.46928077,5.58997988 3.45441389,5.57552428 C3.43657015,5.55817758 3.41905605,5.54028278 3.40199506,5.52196043 C3.38675477,5.50559667 3.37177853,5.48877734 3.35718157,5.47162526 C3.34321543,5.45521797 3.32949754,5.43837932 3.31614356,5.42124315 C3.29963064,5.40004707 3.28379898,5.37857467 3.26853649,5.35667602 C3.25673674,5.33973847 3.24544121,5.32280281 3.23448566,5.30562921 C3.22583025,5.29207458 3.21705165,5.27780666 3.20850779,5.26338327 C3.19033194,5.23268499 3.17336054,5.20156506 3.15748314,5.16980296 C3.1075864,5.06990006 3.06864251,4.96417203 3.04193393,4.85366905 C3.02589491,4.78742361 3.01419214,4.71886621 3.00729716,4.64889675 L3.00686658,4.64446001 L3,4.5 C3,3.67157288 3.67157288,3 4.5,3 Z" id="Combined-Shape" fill="#100C53" mask="url(#mask-2)"></path>
    </g>
</svg>