<?xml version="1.0" encoding="UTF-8"?>
<svg width="29px" height="29px" viewBox="0 0 29 29" version="1.1" xmlns="http://www.w3.org/2000/svg" xmlns:xlink="http://www.w3.org/1999/xlink">
    <title>logo/v4/square/monochrome/negative</title>
    <defs>
        <path d="M29,0 L29,29 L0,29 L0,0 L29,0 Z M4.00029246,15.9147505 L4.00029246,23.0852495 C3.9955381,23.0869288 3.99079473,23.0886314 3.9863859,23.0902393 C3.95896138,23.1002333 3.93191058,23.1110047 3.90506905,23.1226095 C3.88320233,23.1320671 3.86160525,23.1420302 3.84047852,23.1523928 L3.84047852,23.1523928 L3.7901225,23.178278 C3.76644692,23.1910205 3.74315299,23.2043806 3.71979185,23.2186236 C3.70242279,23.2292219 3.68528607,23.2401635 3.66869369,23.251237 C3.64945404,23.2640705 3.63052773,23.2773368 3.61177445,23.2911354 C3.59089502,23.3065026 3.57042815,23.3223977 3.5506463,23.3385942 C3.53416896,23.352079 3.51798383,23.3659077 3.50184386,23.3802992 C3.48571728,23.3946853 3.46990347,23.4094147 3.45451952,23.424373 C3.43657015,23.4418224 3.41905605,23.4597172 3.40209735,23.4779297 C3.38675477,23.4944033 3.37177853,23.5112227 3.35728562,23.5282525 C3.34321543,23.544782 3.32949754,23.5616207 3.31601004,23.5789282 C3.29963064,23.5999529 3.28379898,23.6214253 3.26836277,23.6435733 L3.26836277,23.6435733 L3.23483833,23.6938182 C3.22583025,23.7079254 3.21705165,23.7221933 3.20834794,23.7368866 C3.19310751,23.7626272 3.17861462,23.7888626 3.16487619,23.8156077 C3.11156082,23.9194073 3.06999463,24.0302338 3.04207061,24.1457659 C3.0372179,24.1658091 3.03276776,24.1860094 3.02704725,24.2149651 C3.00929513,24.307247 3,24.402538 3,24.5 C3,25.3284271 3.67157288,26 4.5,26 L4.5,26 L4.64446001,25.9931334 C5.40511192,25.9204487 6,25.2796961 6,24.5 L6,24.5 L5.9929272,24.3544844 L5.9929272,24.3544844 L5.97130298,24.2065202 C5.96726892,24.1861825 5.9628237,24.1659927 5.95806607,24.146331 C5.93000537,24.0302338 5.88843918,23.9194073 5.83482445,23.8150252 C5.82108103,23.788297 5.80655841,23.7620351 5.79149221,23.7366167 C5.78294835,23.7221933 5.77416975,23.7079254 5.76514443,23.6937912 L5.76514443,23.6937912 L5.72728692,23.6373622 C5.71331801,23.617525 5.69888032,23.5980416 5.68412814,23.5791056 C5.67070601,23.5618716 5.6569159,23.5449382 5.64281843,23.5283747 C5.62639099,23.5090718 5.60948316,23.4901902 5.59219785,23.4718382 L5.59219785,23.4718382 L5.52938349,23.4089526 L5.52938349,23.4089526 L5.49739225,23.3796182 C5.48207453,23.3659722 5.46647514,23.3526357 5.45061505,23.3396276 C5.43025888,23.3229315 5.40945548,23.3067605 5.38780292,23.2908245 C5.36931077,23.2772243 5.35049528,23.2640381 5.33160888,23.2514389 C5.3143944,23.2399503 5.29692892,23.2288082 5.27926005,23.2180455 C5.25795003,23.2050641 5.23629087,23.1925991 5.21409889,23.1805587 C5.19452386,23.1699421 5.17468604,23.1597483 5.15465002,23.1500152 L5.15465002,23.1500152 L5.10078879,23.125158 L5.10078879,23.125158 L5.005,23.087 L5.008,23.088 L5.072,23.113 L5.093,23.122 L5.07876279,23.1157294 L5.07876279,23.1157294 L5.072,23.113 L5.05949008,23.1078199 L5.05949008,23.1078199 L5.01757572,23.0916893 L5.008,23.088 L5.00070296,23.0856015 L5.00070296,15.9143985 C5.00647097,15.9123565 5.01222276,15.9102803 5.01757572,15.9083107 C5.04571902,15.8979643 5.07346635,15.8867985 5.10075874,15.8748551 C5.12065647,15.8661483 5.14032886,15.8570221 5.15952148,15.8476072 C5.17792917,15.8385814 5.19612481,15.8291896 5.21429996,15.8193322 L5.21429996,15.8193322 L5.28020815,15.7813764 C5.29965375,15.769511 5.31880814,15.7572153 5.33728809,15.7447522 L5.33728809,15.7447522 L5.38920163,15.7081456 C5.41044349,15.6924853 5.4312575,15.6762782 5.45159488,15.6595681 C5.46748096,15.646516 5.48309408,15.6331439 5.49815614,15.6197008 C5.51955019,15.6006157 5.5403938,15.5809265 5.56072172,15.5605986 L5.56072172,15.5605986 L5.59211343,15.5282514 L5.59211343,15.5282514 L5.65049534,15.4625321 L5.65049534,15.4625321 L5.68479131,15.4200422 C5.70088586,15.3993462 5.71645006,15.3782173 5.73146017,15.3566808 C5.74367949,15.3391486 5.755534,15.3213433 5.76712002,15.3031067 C5.77606161,15.2890283 5.78477504,15.2747908 5.79305903,15.260732 C5.80768304,15.2359283 5.82161374,15.210667 5.83512381,15.1843923 C5.88843918,15.0805927 5.93000537,14.9697662 5.95797635,14.85404 C5.96713246,14.8162004 5.97485379,14.7778006 5.98107951,14.7389014 L5.994,14.632 L5.995,14.62 L5.99827026,14.5726764 L5.99827026,14.5726764 L6,14.5 C6,13.6715729 5.32842712,13 4.5,13 C3.67157288,13 3,13.6715729 3,14.5 L3,14.5 L3.00686658,14.64446 C3.01419214,14.7188662 3.02589491,14.7874236 3.04193393,14.853669 C3.0583801,14.9217128 3.07946547,14.987946 3.10483645,15.0520151 L3.10483645,15.0520151 L3.11124147,15.0679216 C3.13894789,15.1356024 3.17145803,15.2008076 3.20850779,15.2633833 C3.21643136,15.2767595 3.22455683,15.290002 3.23261765,15.3026935 L3.23261765,15.3026935 L3.26853649,15.356676 C3.28354994,15.3782173 3.29911414,15.3993462 3.31538292,15.4202663 L3.31538292,15.4202663 L3.34961239,15.4626607 C3.36658881,15.4829261 3.38409079,15.5027363 3.40199506,15.5219604 C3.41905605,15.5402828 3.43657015,15.5581776 3.45441389,15.5755243 C3.46990347,15.5905853 3.48571728,15.6053147 3.50210187,15.6199309 C3.51735168,15.6335287 3.53288101,15.6468196 3.54837711,15.6595451 C3.56843066,15.676022 3.5889192,15.6919888 3.60987968,15.7074677 C3.62913722,15.7216877 3.64874705,15.7354579 3.66839112,15.7485611 C3.68528607,15.7598365 3.70242279,15.7707781 3.72026226,15.7816633 C3.74155386,15.7946445 3.76319431,15.8071099 3.78488379,15.818889 C3.80318854,15.8288351 3.82172346,15.8384111 3.84029253,15.847516 L3.84029253,15.847516 L3.911,15.879 L3.984,15.908 L3.91911511,15.8833804 L3.91911511,15.8833804 L3.94553274,15.89419 L3.94553274,15.89419 L3.9863859,15.9097607 L3.992,15.911 L4.00029246,15.9147505 Z M24.0002925,15.9147505 L23.999297,23.0856015 C23.993529,23.0876435 23.9877772,23.0897197 23.9824243,23.0916893 C23.954281,23.1020357 23.9265336,23.1132015 23.8992413,23.1251449 L23.8992413,23.1251449 L23.8454023,23.1499898 C23.825314,23.1597483 23.8054761,23.1699421 23.7857,23.1806678 C23.7637091,23.1925991 23.74205,23.2050641 23.7207776,23.2180226 C23.7030711,23.2288082 23.6856056,23.2399503 23.6686299,23.2512796 C23.6495047,23.2640381 23.6306892,23.2772243 23.6117744,23.2911354 C23.5905445,23.3067605 23.5697411,23.3229315 23.5493961,23.3396184 C23.5335249,23.3526357 23.5179255,23.3659722 23.5028167,23.3794321 C23.4810816,23.3987878 23.4599133,23.4187664 23.4392783,23.4394014 L23.4078866,23.4717486 C23.3905168,23.4901902 23.373609,23.5090718 23.3572304,23.5283174 C23.3430841,23.5449382 23.329294,23.5618716 23.31601,23.5789282 C23.3011197,23.5980416 23.286682,23.617525 23.2727686,23.6372833 L23.2727686,23.6372833 L23.2348383,23.6938182 C23.2258302,23.7079254 23.2170517,23.7221933 23.2087134,23.7362697 C23.1934416,23.7620351 23.178919,23.788297 23.1648762,23.8156077 C23.1115608,23.9194073 23.0699946,24.0302338 23.0420236,24.14596 C23.0371763,24.1659927 23.0327311,24.1861825 23.0270472,24.2149651 C23.0092951,24.307247 23,24.402538 23,24.5 C23,25.3284271 23.6715729,26 24.5,26 L24.5,26 L24.64446,25.9931334 C25.4051119,25.9204487 26,25.2796961 26,24.5 L26,24.5 L25.9929232,24.3544641 L25.9929232,24.3544641 L25.9712708,24.206358 C25.9672322,24.1860094 25.9627821,24.1658091 25.9580661,24.146331 C25.9300054,24.0302338 25.8884392,23.9194073 25.8351008,23.815563 C25.8213854,23.7888626 25.8068925,23.7626272 25.7914922,23.7366167 L25.7914922,23.7366167 L25.7655143,23.6943708 C25.7545588,23.6771972 25.7432633,23.6602615 25.7314635,23.643324 C25.716201,23.6214253 25.7003694,23.5999529 25.6838564,23.5787568 C25.6705025,23.5616207 25.6567846,23.544782 25.6428184,23.5283747 C25.6282215,23.5112227 25.6132452,23.4944033 25.5980049,23.4780396 C25.580944,23.4597172 25.5634299,23.4418224 25.5455861,23.4244757 C25.5300965,23.4094147 25.5142827,23.3946853 25.4978981,23.3800691 L25.4978981,23.3800691 L25.4496065,23.3388011 C25.4295719,23.3223977 25.409105,23.3065026 25.3880713,23.2910219 C25.3694723,23.2773368 25.350546,23.2640705 25.3316089,23.2514389 C25.3147139,23.2401635 25.2975772,23.2292219 25.2797377,23.2183367 C25.256847,23.2043806 25.2335531,23.1910205 25.2100249,23.1783573 C25.1933767,23.1693946 25.1765397,23.1607373 25.1597075,23.152484 L25.1597075,23.152484 L25.088,23.12 L25.012,23.09 L25.08,23.116 L25.0544673,23.10581 L25.0544673,23.10581 L25.0136141,23.0902393 L25.007,23.088 L24.9997075,23.0852495 L25.000703,15.9143985 C25.006471,15.9123565 25.0122228,15.9102803 25.0175757,15.9083107 C25.045719,15.8979643 25.0734664,15.8867985 25.1007587,15.8748551 C25.1206565,15.8661483 25.1403289,15.8570221 25.1595215,15.8476072 C25.1779292,15.8385814 25.1961248,15.8291896 25.2143,15.8193322 L25.2143,15.8193322 L25.2802081,15.7813764 C25.2996538,15.769511 25.3188081,15.7572153 25.3372881,15.7447522 L25.3372881,15.7447522 L25.3892016,15.7081456 C25.4104435,15.6924853 25.4312575,15.6762782 25.4515949,15.6595681 C25.467481,15.646516 25.4830941,15.6331439 25.4981561,15.6197008 C25.5195502,15.6006157 25.5403938,15.5809265 25.5607217,15.5605986 L25.5607217,15.5605986 L25.5921134,15.5282514 L25.5921134,15.5282514 L25.6504953,15.4625321 L25.6504953,15.4625321 L25.6847913,15.4200422 C25.7008859,15.3993462 25.7164501,15.3782173 25.7314602,15.3566808 C25.7436795,15.3391486 25.755534,15.3213433 25.76712,15.3031067 C25.7760616,15.2890283 25.784775,15.2747908 25.793059,15.260732 C25.807683,15.2359283 25.8216137,15.210667 25.8351238,15.1843923 C25.8884392,15.0805927 25.9300054,14.9697662 25.9579764,14.85404 C25.9671325,14.8162004 25.9748538,14.7778006 25.9810795,14.7389014 L25.994,14.632 L25.995,14.62 L25.9982703,14.5726764 L25.9982703,14.5726764 L26,14.5 C26,13.6715729 25.3284271,13 24.5,13 C23.6715729,13 23,13.6715729 23,14.5 L23,14.5 L23.0068666,14.64446 C23.0141921,14.7188662 23.0258949,14.7874236 23.0419339,14.853669 C23.0583801,14.9217128 23.0794655,14.987946 23.1048364,15.0520151 L23.1048364,15.0520151 L23.1112415,15.0679216 C23.1389479,15.1356024 23.171458,15.2008076 23.2085078,15.2633833 C23.2164314,15.2767595 23.2245568,15.290002 23.2326177,15.3026935 L23.2326177,15.3026935 L23.2685365,15.356676 C23.2835499,15.3782173 23.2991141,15.3993462 23.3153829,15.4202663 L23.3153829,15.4202663 L23.3496124,15.4626607 C23.3665888,15.4829261 23.3840908,15.5027363 23.4019951,15.5219604 C23.419056,15.5402828 23.4365701,15.5581776 23.4544139,15.5755243 C23.4699035,15.5905853 23.4857173,15.6053147 23.5021019,15.6199309 C23.5173517,15.6335287 23.532881,15.6468196 23.5483771,15.6595451 C23.5684307,15.676022 23.5889192,15.6919888 23.6098797,15.7074677 C23.6291372,15.7216877 23.6487471,15.7354579 23.6683911,15.7485611 C23.6852861,15.7598365 23.7024228,15.7707781 23.7202623,15.7816633 C23.7415539,15.7946445 23.7631943,15.8071099 23.7848838,15.818889 C23.8031885,15.8288351 23.8217235,15.8384111 23.8402925,15.847516 L23.8402925,15.847516 L23.911,15.879 L23.984,15.908 L23.9191151,15.8833804 L23.9191151,15.8833804 L23.9455327,15.89419 L23.9455327,15.89419 L23.9863859,15.9097607 L23.992,15.911 L24.0002925,15.9147505 Z M4.5,3 C3.67157288,3 3,3.67157288 3,4.5 C3,5.32842712 3.67157288,6 4.5,6 C5.32842712,6 6,5.32842712 6,4.5 C6,3.67157288 5.32842712,3 4.5,3 Z M24.5,3 C23.6715729,3 23,3.67157288 23,4.5 C23,5.32842712 23.6715729,6 24.5,6 C25.3284271,6 26,5.32842712 26,4.5 C26,3.67157288 25.3284271,3 24.5,3 Z M14.0002925,5.91475048 L14.0002925,13.0852495 C13.9955381,13.0869288 13.9907947,13.0886314 13.9863859,13.0902393 C13.9589614,13.1002333 13.9319106,13.1110047 13.905069,13.1226095 C13.8832023,13.1320671 13.8616052,13.1420302 13.8404785,13.1523928 L13.8404785,13.1523928 L13.7901225,13.178278 C13.7664469,13.1910205 13.743153,13.2043806 13.7197919,13.2186236 C13.7024228,13.2292219 13.6852861,13.2401635 13.6686937,13.251237 C13.6487471,13.2645421 13.6291372,13.2783123 13.6098229,13.2925742 C13.5896193,13.3074941 13.5698036,13.3229091 13.5506463,13.3385942 C13.534169,13.352079 13.5179838,13.3659077 13.5018439,13.3802992 C13.4857173,13.3946853 13.4699035,13.4094147 13.4545195,13.424373 C13.4365701,13.4418224 13.419056,13.4597172 13.4020973,13.4779297 C13.3867548,13.4944033 13.3717785,13.5112227 13.3572856,13.5282525 C13.3432154,13.544782 13.3294975,13.5616207 13.31601,13.5789282 C13.2996306,13.5999529 13.283799,13.6214253 13.2683628,13.6435733 L13.2683628,13.6435733 L13.2348383,13.6938182 C13.2258302,13.7079254 13.2170517,13.7221933 13.2083479,13.7368866 C13.1923674,13.7638773 13.1772087,13.791412 13.1627639,13.8197359 C13.1104621,13.922344 13.069623,14.0317715 13.0420706,14.1457659 C13.0372179,14.1658091 13.0327678,14.1860094 13.0270472,14.2149651 C13.0092951,14.307247 13,14.402538 13,14.5 L13,14.5 L13.0068666,14.64446 C13.0141921,14.7188662 13.0258949,14.7874236 13.0419339,14.853669 C13.0583801,14.9217128 13.0794655,14.987946 13.1048364,15.0520151 L13.1048364,15.0520151 L13.1112415,15.0679216 C13.1389479,15.1356024 13.171458,15.2008076 13.2085078,15.2633833 L13.2085078,15.2633833 L13.2344857,15.3056292 C13.2454412,15.3228028 13.2567367,15.3397385 13.2685365,15.356676 C13.283799,15.3785747 13.2996306,15.4000471 13.3161436,15.4212432 C13.3294975,15.4383793 13.3432154,15.455218 13.3571816,15.4716253 C13.3717785,15.4887773 13.3867548,15.5055967 13.4019951,15.5219604 C13.419056,15.5402828 13.4365701,15.5581776 13.4544139,15.5755243 C13.4699035,15.5905853 13.4857173,15.6053147 13.5021019,15.6199309 L13.5021019,15.6199309 L13.5503935,15.6611989 C13.5698036,15.6770909 13.5896193,15.6925059 13.6098797,15.7074677 C13.6291372,15.7216877 13.6487471,15.7354579 13.6683911,15.7485611 C13.6852861,15.7598365 13.7024228,15.7707781 13.7202623,15.7816633 C13.743153,15.7956194 13.7664469,15.8089795 13.7899751,15.8216427 C13.8066233,15.8306054 13.8234603,15.8392627 13.8402925,15.847516 L13.8402925,15.847516 L13.911,15.879 L13.984,15.908 L13.9191151,15.8833804 L13.9191151,15.8833804 L13.9455327,15.89419 L13.9455327,15.89419 L13.9863859,15.9097607 L13.992,15.911 L14.0002925,15.9147505 L14.0002925,23.0852495 C13.9955381,23.0869288 13.9907947,23.0886314 13.9863859,23.0902393 C13.9589614,23.1002333 13.9319106,23.1110047 13.905069,23.1226095 C13.8832023,23.1320671 13.8616052,23.1420302 13.8404785,23.1523928 L13.8404785,23.1523928 L13.7901225,23.178278 C13.7664469,23.1910205 13.743153,23.2043806 13.7197919,23.2186236 C13.7024228,23.2292219 13.6852861,23.2401635 13.6686937,23.251237 C13.6487471,23.2645421 13.6291372,23.2783123 13.6098229,23.2925742 C13.5896193,23.3074941 13.5698036,23.3229091 13.5506463,23.3385942 C13.534169,23.352079 13.5179838,23.3659077 13.5018439,23.3802992 C13.4857173,23.3946853 13.4699035,23.4094147 13.4545195,23.424373 C13.4365701,23.4418224 13.419056,23.4597172 13.4020973,23.4779297 C13.3867548,23.4944033 13.3717785,23.5112227 13.3572856,23.5282525 C13.3432154,23.544782 13.3294975,23.5616207 13.31601,23.5789282 C13.2996306,23.5999529 13.283799,23.6214253 13.2683628,23.6435733 L13.2683628,23.6435733 L13.2348383,23.6938182 C13.2258302,23.7079254 13.2170517,23.7221933 13.2083479,23.7368866 C13.1923674,23.7638773 13.1772087,23.791412 13.1627639,23.8197359 C13.1104621,23.922344 13.069623,24.0317715 13.0420706,24.1457659 C13.0372179,24.1658091 13.0327678,24.1860094 13.0270472,24.2149651 C13.0092951,24.307247 13,24.402538 13,24.5 C13,25.3284271 13.6715729,26 14.5,26 L14.5,26 L14.64446,25.9931334 C15.4051119,25.9204487 16,25.2796961 16,24.5 L16,24.5 L15.9929272,24.3544844 L15.9929272,24.3544844 L15.971303,24.2065202 C15.9672689,24.1861825 15.9628237,24.1659927 15.9580661,24.146331 C15.9300054,24.0302338 15.8884392,23.9194073 15.8348245,23.8150252 C15.8216137,23.789333 15.807683,23.7640717 15.7932551,23.7396006 C15.784775,23.7252092 15.7760616,23.7109717 15.7670127,23.6967244 C15.7542144,23.6765796 15.7409488,23.6567609 15.7272869,23.6373622 C15.7135687,23.617881 15.6993984,23.5987411 15.6848814,23.5800736 C15.6736743,23.5656595 15.66221,23.5514553 15.6503876,23.5373393 L15.6503876,23.5373393 L15.5921979,23.4718382 L15.5921979,23.4718382 L15.5293835,23.4089526 L15.5293835,23.4089526 L15.4973923,23.3796182 C15.4823935,23.3662564 15.4671246,23.3531912 15.4516229,23.3404549 C15.4309457,23.3234656 15.409806,23.3070185 15.3878029,23.2908245 C15.3712213,23.2786294 15.3543798,23.2667673 15.3376581,23.2554973 C15.3184897,23.2425699 15.2990065,23.2300737 15.2792601,23.2180455 C15.25795,23.2050641 15.2362909,23.1925991 15.2140989,23.1805587 C15.1945239,23.1699421 15.174686,23.1597483 15.15465,23.1500152 L15.15465,23.1500152 L15.1007888,23.125158 L15.1007888,23.125158 L15.005,23.087 L15.008,23.088 L15.072,23.113 L15.093,23.122 L15.0787628,23.1157294 L15.0787628,23.1157294 L15.072,23.113 L15.0594901,23.1078199 L15.0594901,23.1078199 L15.0175757,23.0916893 L15.008,23.088 L15.000703,23.0856015 L15.000703,15.9143985 C15.006471,15.9123565 15.0122228,15.9102803 15.0175757,15.9083107 C15.045719,15.8979643 15.0734664,15.8867985 15.1007587,15.8748551 L15.1007587,15.8748551 L15.1545977,15.8500102 C15.174686,15.8402517 15.1945239,15.8300579 15.2143,15.8193322 C15.2362909,15.8074009 15.25795,15.7949359 15.2792224,15.7819774 C15.2990065,15.7699263 15.3184897,15.7574301 15.3372881,15.7447522 C15.3543798,15.7332327 15.3712213,15.7213706 15.3882256,15.7088646 C15.409806,15.6929815 15.4309457,15.6765344 15.4515949,15.6595681 C15.4671246,15.6468088 15.4823935,15.6337436 15.4971833,15.6205679 C15.5189184,15.6012122 15.5400867,15.5812336 15.5607217,15.5605986 L15.5921134,15.5282514 L15.5921134,15.5282514 L15.6504953,15.4625321 L15.6504953,15.4625321 L15.6847913,15.4200422 C15.6993984,15.4012589 15.7135687,15.382119 15.7272314,15.3627167 C15.7409488,15.3432391 15.7542144,15.3234204 15.76712,15.3031067 C15.7760616,15.2890283 15.784775,15.2747908 15.793059,15.260732 C15.807683,15.2359283 15.8216137,15.210667 15.8351238,15.1843923 C15.8884392,15.0805927 15.9300054,14.9697662 15.9579764,14.85404 C15.9671325,14.8162004 15.9748538,14.7778006 15.9810795,14.7389014 L15.994,14.632 L15.995,14.62 L15.9982703,14.5726764 L15.9982703,14.5726764 L16,14.5 C16,14.402538 15.9907049,14.307247 15.971303,14.2065202 C15.9672689,14.1861825 15.9628237,14.1659927 15.9580661,14.146331 C15.9300054,14.0302338 15.8884392,13.9194073 15.8348245,13.8150252 C15.8216137,13.789333 15.807683,13.7640717 15.7932551,13.7396006 C15.784775,13.7252092 15.7760616,13.7109717 15.7670127,13.6967244 C15.7542144,13.6765796 15.7409488,13.6567609 15.7272869,13.6373622 C15.7135687,13.617881 15.6993984,13.5987411 15.6848814,13.5800736 C15.6736743,13.5656595 15.66221,13.5514553 15.6503876,13.5373393 L15.6503876,13.5373393 L15.5921979,13.4718382 L15.5921979,13.4718382 L15.5293835,13.4089526 L15.5293835,13.4089526 L15.4973923,13.3796182 C15.4823935,13.3662564 15.4671246,13.3531912 15.4516229,13.3404549 C15.4309457,13.3234656 15.409806,13.3070185 15.3878029,13.2908245 C15.3712213,13.2786294 15.3543798,13.2667673 15.3376581,13.2554973 C15.3184897,13.2425699 15.2990065,13.2300737 15.2792601,13.2180455 C15.25795,13.2050641 15.2362909,13.1925991 15.2140989,13.1805587 C15.1945239,13.1699421 15.174686,13.1597483 15.15465,13.1500152 L15.15465,13.1500152 L15.1007888,13.125158 L15.1007888,13.125158 L15.005,13.087 L15.072,13.113 L15.093,13.122 L15.0787628,13.1157294 L15.0787628,13.1157294 L15.072,13.113 L15.0594901,13.1078199 L15.0594901,13.1078199 L15.0175757,13.0916893 L15.000703,13.0856015 L15.000703,5.91439849 C15.006471,5.91235654 15.0122228,5.91028031 15.0175757,5.90831067 C15.045719,5.89796433 15.0734664,5.88679845 15.1007587,5.87485514 L15.1007587,5.87485514 L15.1545977,5.85001024 C15.174686,5.84025167 15.1945239,5.83005793 15.2143,5.81933221 C15.2362909,5.80740095 15.25795,5.7949359 15.2792224,5.78197738 C15.2990065,5.76992628 15.3184897,5.75743009 15.3372881,5.74475217 C15.3543798,5.73323274 15.3712213,5.72137057 15.3882256,5.70886457 C15.409806,5.69298149 15.4309457,5.67653441 15.4515949,5.65956808 C15.4671246,5.6468088 15.4823935,5.63374364 15.4971833,5.62056793 C15.5189184,5.6012122 15.5400867,5.58123361 15.5607217,5.56059862 L15.5921134,5.5282514 L15.5921134,5.5282514 L15.6504953,5.46253211 L15.6504953,5.46253211 L15.6847913,5.42004224 C15.6993984,5.40125889 15.7135687,5.38211899 15.7272314,5.3627167 C15.7409488,5.34323915 15.7542144,5.32342038 15.76712,5.30310667 C15.7760616,5.28902832 15.784775,5.27479082 15.793059,5.26073203 C15.807683,5.23592832 15.8216137,5.21066704 15.8351238,5.18439231 C15.8884392,5.08059275 15.9300054,4.96976623 15.9579764,4.85404004 C15.9671325,4.81620042 15.9748538,4.77780058 15.9810795,4.73890135 L15.994,4.632 L15.995,4.62 L15.9982703,4.57267635 L15.9982703,4.57267635 L16,4.5 C16,3.67157288 15.3284271,3 14.5,3 C13.6715729,3 13,3.67157288 13,4.5 L13,4.5 L13.0068666,4.64446001 C13.0141921,4.71886621 13.0258949,4.78742361 13.0419339,4.85366905 C13.0583801,4.92171276 13.0794655,4.98794597 13.1048364,5.0520151 L13.1048364,5.0520151 L13.1112415,5.06792163 C13.1389479,5.13560242 13.171458,5.20080765 13.2085078,5.26338327 L13.2085078,5.26338327 L13.2344857,5.30562921 C13.2454412,5.32280281 13.2567367,5.33973847 13.2685365,5.35667602 C13.283799,5.37857467 13.2996306,5.40004707 13.3161436,5.42124315 C13.3294975,5.43837932 13.3432154,5.45521797 13.3571816,5.47162526 C13.3717785,5.48877734 13.3867548,5.50559667 13.4019951,5.52196043 C13.419056,5.54028278 13.4365701,5.55817758 13.4544139,5.57552428 C13.4699035,5.59058535 13.4857173,5.60531469 13.5021019,5.61993095 L13.5021019,5.61993095 L13.5503935,5.66119893 C13.5698036,5.67709093 13.5896193,5.69250586 13.6098797,5.70746775 C13.6291372,5.72168768 13.6487471,5.73545791 13.6683911,5.74856108 C13.6852861,5.75983647 13.7024228,5.77077806 13.7202623,5.78166334 C13.743153,5.79561942 13.7664469,5.8089795 13.7899751,5.82164269 C13.8066233,5.8306054 13.8234603,5.83926273 13.8402925,5.84751597 L13.8402925,5.84751597 L13.911,5.879 L13.984,5.908 L13.9191151,5.88338037 L13.9191151,5.88338037 L13.9455327,5.89419 L13.9455327,5.89419 L13.9863859,5.90976072 L13.992,5.911 L14.0002925,5.91475048 Z" id="path-1"></path>
    </defs>
    <g id="logo/v4/square/monochrome/negative" stroke="none" stroke-width="1" fill="none" fill-rule="evenodd">
        <mask id="mask-2" fill="white">
            <use xlink:href="#path-1"></use>
        </mask>
        <use id="Combined-Shape" fill="#100C53" xlink:href="#path-1"></use>
    </g>
</svg>