<svg width="16" height="16" xmlns="http://www.w3.org/2000/svg" xmlns:xlink="http://www.w3.org/1999/xlink"><defs><path d="m10.428.098.044.022a1.01 1.01 0 0 1 .277.215l4.458 4.46a1 1 0 0 1-1.32 1.497l-.094-.083L11 3.417v4.585a4 4 0 0 1-3.8 3.995l-.2.005H1a1 1 0 0 1-.117-1.993L1 10.002h6a2 2 0 0 0 1.995-1.85L9 8.001V3.416L6.207 6.209a1 1 0 0 1-1.32.083l-.094-.083a1 1 0 0 1-.083-1.32l.083-.094 4.5-4.5a.98.98 0 0 1 .88-.279l.01.003a.856.856 0 0 1 .183.052.69.69 0 0 1 .038.016l.024.011Z" id="a"/></defs><use fill="current-color" fill-rule="nonzero" xlink:href="#a" transform="translate(0 2)"/></svg>