<svg width="16" height="16" xmlns="http://www.w3.org/2000/svg"><path d="M14.088 1.691a1 1 0 0 1 .288 1.291l-.067.106-8 11-.009.012c-.01.014-.02.027-.032.04l.04-.052a1.009 1.009 0 0 1-.089.107l-.012.012-.03.029a.993.993 0 0 1-.054.047l.084-.076a1.007 1.007 0 0 1-.74.293 1.066 1.066 0 0 1-.303-.058.955.955 0 0 1-.252-.133L4.9 14.3a.999.999 0 0 1-.013-.01l-.037-.032-.035-.03a1 1 0 0 1-.01-.009l-.012-.012-3-3a1 1 0 0 1 1.32-1.497l.094.083 2.172 2.17 7.312-10.051a1 1 0 0 1 1.397-.22Z" fill="current-color" fill-rule="nonzero"/></svg>