<svg width="16" height="16" xmlns="http://www.w3.org/2000/svg"><path d="M8 0a7.964 7.964 0 0 0-2.522 15.53c.398.066.531-.2.531-.399v-1.327c-2.19.465-2.655-1.062-2.655-1.062-.398-.929-.929-1.194-.929-1.194-.663-.465.067-.465.067-.465.796 0 1.26.796 1.26.796.664 1.195 1.859.863 2.323.664 0-.53.266-.863.465-1.062-1.792-.199-3.65-.862-3.65-3.982 0-.796.332-1.526.863-2.057-.133-.265-.399-1.062 0-2.124 0 0 .663-.199 2.256.797a7.632 7.632 0 0 1 3.982 0c1.526-.996 2.19-.797 2.19-.797.398 1.062.133 1.859 0 2.124.597.531.863 1.261.863 2.124 0 3.053-1.858 3.716-3.65 3.915.332.266.597.664.597 1.46v2.19c0 .2.066.465.53.399A7.964 7.964 0 0 0 8 0" fill="currentColor" fill-rule="nonzero"/></svg>