<svg width="16" height="16" xmlns="http://www.w3.org/2000/svg"><path d="M4.571.826c.76-.023 1.472.462 1.747.885.103-.12.486-.64 1.298-.64.811 0 1.521.442 1.927 1.101a2.209 2.209 0 0 1 1.12-.315c.812 0 1.522.442 1.927 1.1a2.209 2.209 0 0 1 1.121-.314c1.208 0 2.2.971 2.28 2.196l.006.161.003 5.5c0 2.958-2.278 5.38-5.12 5.496l-.213.004H6.64a5.257 5.257 0 0 1-3.824-1.666l-.183-.204-1.807-2.12a3.532 3.532 0 0 1-.253-4.2l.12-.172 1.592-2.121v-2.09c0-.907.575-2.55 2.286-2.601Zm0 1.324a.77.77 0 0 0-.755.68l-.007.106v5.993H2.285v-.844L1.9 8.6a1.92 1.92 0 0 0-.03 2.245l.101.129 1.806 2.12a3.77 3.77 0 0 0 2.644 1.33l.219.006h4.027c2.034 0 3.702-1.654 3.804-3.727l.005-.202-.003-5.5a.775.775 0 0 0-.762-.786.77.77 0 0 0-.755.68L12.95 5v.786h-1.524V4.214a.774.774 0 0 0-.762-.785.77.77 0 0 0-.755.679l-.006.106v1.572H8.378V3.429a.774.774 0 0 0-.762-.786c-.382 0-.76.352-.76.775v2.368H5.334L5.327 2.92c-.008-.566-.41-.77-.756-.77Z" fill="current-color" fill-rule="nonzero"/></svg>