<svg width="16" height="16" xmlns="http://www.w3.org/2000/svg"><path d="M12.695.281c4.407 4.259 4.407 11.179 0 15.438a1 1 0 0 1-1.39-1.438c3.593-3.473 3.593-9.09 0-12.562a1 1 0 0 1 1.39-1.438ZM6.868 2.227A1 1 0 0 1 7 2.723v10.554a1 1 0 0 1-1.496.868l-5-2.857A1 1 0 0 1 0 10.42V5.58a1 1 0 0 1 .504-.868l5-2.857a1 1 0 0 1 1.364.372Zm3.47 1.054a6.524 6.524 0 0 1 0 9.438 1 1 0 0 1-1.39-1.438 4.524 4.524 0 0 0 0-6.562 1 1 0 1 1 1.39-1.438ZM5 4.446 2 6.16v3.679l3 1.714V4.446Z" fill="current-color" fill-rule="nonzero"/></svg>