<svg width="16" height="16" xmlns="http://www.w3.org/2000/svg"><path d="M8 0a8 8 0 0 1 7.784 9.856l-.08.305-.083.278-.14.402-.059.15-.075.18-.123.27-.114.23a8.005 8.005 0 0 1-.718 1.14l-.237.3-.198.229-.139.15-.14.146-.299.286-.238.208-.243.196-.148.112-.193.138-.112.076a8.008 8.008 0 0 1-.972.557l-.17.079-.356.152-.25.094-.336.112-.34.096-.337.08-.495.09-.205.028-.305.032-.166.012c-.17.01-.34.016-.513.016l-.258-.004-.32-.017-.2-.016-.206-.023-.264-.037-.276-.048-.355-.077-.276-.072-.42-.13-.304-.11-.253-.102a7.957 7.957 0 0 1-.982-.501l-.167-.103-.276-.184-.193-.138-.256-.198-.314-.265-.214-.198-.144-.141-.19-.197-.213-.24-.103-.123A8.012 8.012 0 0 1 .89 11.67l-.157-.321-.08-.178-.134-.33-.105-.294-.105-.336A8 8 0 0 1 8 0Zm0 2a6 6 0 0 0-5.658 8h11.316A6 6 0 0 0 8 2Zm2.643 1.755a1 1 0 0 1 .318 1.378l-2.12 3.392a1 1 0 0 1-1.695-1.06l2.12-3.392a1 1 0 0 1 1.377-.318ZM4 6a1 1 0 1 1 0 2 1 1 0 0 1 0-2Zm8 0a1 1 0 1 1 0 2 1 1 0 0 1 0-2ZM7 3a1 1 0 1 1 0 2 1 1 0 0 1 0-2Z" fill="currentColor" fill-rule="nonzero"/></svg>