<svg width="16" height="16" xmlns="http://www.w3.org/2000/svg"><path d="m8.69 9.964.019-1.048.012-.003a5.165 5.165 0 0 0 1.003-.287l.224-.098c.658-.312 1.159-.743 1.505-1.292.345-.55.518-1.187.518-1.913V5.12c0-.736-.17-1.388-.51-1.955a3.543 3.543 0 0 0-1.445-1.334c-.623-.323-1.365-.485-2.227-.485-.93 0-1.722.182-2.38.544-.657.363-1.153.847-1.487 1.454a4.136 4.136 0 0 0-.502 2.031h2.601c0-.317.068-.6.204-.85.136-.25.329-.45.578-.603.25-.153.556-.23.918-.23.34 0 .632.071.876.213.243.141.43.334.56.578.131.243.196.53.196.858 0 .465-.147.859-.442 1.182-.294.323-.742.484-1.343.484h-1.58v2.958H8.69Zm.187 4.165v-2.737H5.783v2.737h3.094Z" fill="current-color" fill-rule="nonzero"/></svg>