<svg width="16" height="16" xmlns="http://www.w3.org/2000/svg"><path d="M8 0a1 1 0 0 1 1 1v1.083A6.005 6.005 0 0 1 13.918 7H15a1 1 0 0 1 0 2h-1.083A6.005 6.005 0 0 1 9 13.918L9 15a1 1 0 0 1-2 0v-1.083a6.005 6.005 0 0 1-4.917-4.916L1 9a1 1 0 1 1 0-2h1.083A6.005 6.005 0 0 1 7 2.083V1a1 1 0 0 1 1-1Zm1 4.126V5a1 1 0 0 1-1.994.117L6.999 5v-.874A4.007 4.007 0 0 0 4.126 7H5a1 1 0 0 1 .993.883L6 8a1 1 0 0 1-1 1h-.873a4.007 4.007 0 0 0 2.873 2.875V11a1 1 0 0 1 .883-.993L8 10a1 1 0 0 1 1 1v.874A4.007 4.007 0 0 0 11.875 9h-.875a1 1 0 0 1 0-2h.875A4.007 4.007 0 0 0 9 4.125Z" fill="currentColor" fill-rule="evenodd"/></svg>