<svg width="16" height="16" xmlns="http://www.w3.org/2000/svg"><path d="M6 0a3 3 0 0 1 2.995 2.824L9 3l.001 5.124.128.117a4.48 4.48 0 0 1 1.344 2.761l.02.248.007.25c0 2.506-1.968 4.5-4.5 4.5-2.543 0-4.6-2.005-4.6-4.5 0-1.208.488-2.333 1.32-3.16l.17-.16.11-.094V3A3 3 0 0 1 5.65.02l.174-.015L6 0Zm0 2a1 1 0 0 0-.993.883L5 3v6.13l-.456.295A2.469 2.469 0 0 0 3.4 11.5C3.4 12.879 4.55 14 6 14c1.422 0 2.5-1.093 2.5-2.5 0-.786-.34-1.494-.916-1.957l-.148-.11L7 9.135 7 3a1 1 0 0 0-1-1Zm7 4a1 1 0 0 1 0 2h-2a1 1 0 1 1 0-2h2Zm0-4a1 1 0 0 1 0 2h-2a1 1 0 1 1 0-2h2Z" fill="current-color" fill-rule="nonzero"/></svg>