<?xml version="1.0" encoding="UTF-8"?>
<svg width="29px" height="29px" viewBox="0 0 29 29" version="1.1" xmlns="http://www.w3.org/2000/svg" xmlns:xlink="http://www.w3.org/1999/xlink">
    <title>logo/v3/square/monochrome/negative</title>
    <defs>
        <path d="M29,0 L29,29 L0,29 L0,0 L29,0 Z M24.5,23 C23.6715729,23 23,23.6715729 23,24.5 C23,25.3284271 23.6715729,26 24.5,26 C25.3284271,26 26,25.3284271 26,24.5 C26,23.6715729 25.3284271,23 24.5,23 Z M24.5,3 C23.6715729,3 23,3.67157288 23,4.5 C23,4.90406127 23.159764,5.27080765 23.4195681,5.54051519 L23.4195681,5.54051519 L21.006,10.365 L15.799083,5.25042113 C15.9268613,5.02969596 16,4.77338921 16,4.5 C16,3.67157288 15.3284271,3 14.5,3 C13.6715729,3 13,3.67157288 13,4.5 C13,4.77091136 13.0718189,5.02504851 13.1974561,5.24441079 L13.1974561,5.24441079 L5.09574895,13.1229636 C4.91313315,13.0438505 4.7116875,13 4.5,13 C3.67157288,13 3,13.6715729 3,14.5 C3,15.3284271 3.67157288,16 4.5,16 C5.32842712,16 6,15.3284271 6,14.5 C6,14.2493244 5.93850941,14.0130107 5.829789,13.8053197 L5.829789,13.8053197 L13.9597469,5.89976364 C14.1273705,5.96450292 14.3095399,6 14.5,6 C14.6882282,6 14.8683587,5.96533001 15.0343541,5.90202757 L15.0343541,5.90202757 L20.536,11.307 L14.6847615,23.0112661 C14.6242164,23.0038293 14.5625554,23 14.5,23 C13.8523612,23 13.3005859,23.4104405 13.0906008,23.985395 L13.0906008,23.985395 L5.88137135,23.9143594 C5.65323936,23.3769306 5.12063811,23 4.5,23 C3.67157288,23 3,23.6715729 3,24.5 C3,25.3284271 3.67157288,26 4.5,26 C5.18474232,26 5.76232234,25.5411837 5.94207793,24.9142132 L5.94207793,24.9142132 L13.0807356,24.9867379 C13.2828626,25.5762513 13.8419454,26 14.5,26 C15.3284271,26 16,25.3284271 16,24.5 C16,24.0959387 15.840236,23.7291923 15.5804319,23.4594848 L15.5804319,23.4594848 L21.287,12.045 L23.1400881,13.8661914 C23.0502028,14.058722 23,14.2734983 23,14.5 C23,15.3284271 23.6715729,16 24.5,16 C25.3284271,16 26,15.3284271 26,14.5 C26,13.6715729 25.3284271,13 24.5,13 C24.2641419,13 24.0409981,13.054436 23.8424468,13.1514295 L23.8424468,13.1514295 L21.757,11.103 L24.3152385,5.98873385 C24.3757836,5.99617075 24.4374446,6 24.5,6 C25.3284271,6 26,5.32842712 26,4.5 C26,3.67157288 25.3284271,3 24.5,3 Z M14.5,13 C13.6715729,13 13,13.6715729 13,14.5 C13,15.3284271 13.6715729,16 14.5,16 C15.3284271,16 16,15.3284271 16,14.5 C16,13.6715729 15.3284271,13 14.5,13 Z M4.5,3 C3.67157288,3 3,3.67157288 3,4.5 C3,5.32842712 3.67157288,6 4.5,6 C5.32842712,6 6,5.32842712 6,4.5 C6,3.67157288 5.32842712,3 4.5,3 Z" id="path-1"></path>
    </defs>
    <g id="logo/v3/square/monochrome/negative" stroke="none" stroke-width="1" fill="none" fill-rule="evenodd">
        <mask id="mask-2" fill="white">
            <use xlink:href="#path-1"></use>
        </mask>
        <use id="Combined-Shape" fill="#100C53" xlink:href="#path-1"></use>
    </g>
</svg>