<?xml version="1.0" encoding="UTF-8"?>
<svg width="29px" height="29px" viewBox="0 0 29 29" version="1.1" xmlns="http://www.w3.org/2000/svg" xmlns:xlink="http://www.w3.org/1999/xlink">
    <title>logo/v3/square/monochrome/positive</title>
    <defs>
        <rect id="path-1" x="0" y="0" width="29" height="29"></rect>
    </defs>
    <g id="logo/v3/square/monochrome/positive" stroke="none" stroke-width="1" fill="none" fill-rule="evenodd">
        <path d="M24.5,23 C25.3284271,23 26,23.6715729 26,24.5 C26,25.3284271 25.3284271,26 24.5,26 C23.6715729,26 23,25.3284271 23,24.5 C23,23.6715729 23.6715729,23 24.5,23 Z M24.5,3 C25.3284271,3 26,3.67157288 26,4.5 C26,5.32842712 25.3284271,6 24.5,6 C24.4374446,6 24.3757836,5.99617075 24.3152385,5.98873385 L21.757,11.103 L23.8424468,13.1514295 C24.0409981,13.054436 24.2641419,13 24.5,13 C25.3284271,13 26,13.6715729 26,14.5 C26,15.3284271 25.3284271,16 24.5,16 C23.6715729,16 23,15.3284271 23,14.5 C23,14.2734983 23.0502028,14.058722 23.1400881,13.8661914 L21.287,12.045 L15.5804319,23.4594848 C15.840236,23.7291923 16,24.0959387 16,24.5 C16,25.3284271 15.3284271,26 14.5,26 C13.8419454,26 13.2828626,25.5762513 13.0807356,24.9867379 L5.94207793,24.9142132 C5.76232234,25.5411837 5.18474232,26 4.5,26 C3.67157288,26 3,25.3284271 3,24.5 C3,23.6715729 3.67157288,23 4.5,23 C5.12063811,23 5.65323936,23.3769306 5.88137135,23.9143594 L13.0906008,23.985395 C13.3005859,23.4104405 13.8523612,23 14.5,23 C14.5625554,23 14.6242164,23.0038293 14.6847615,23.0112661 L20.536,11.307 L15.0343541,5.90202757 C14.8683587,5.96533001 14.6882282,6 14.5,6 C14.3095399,6 14.1273705,5.96450292 13.9597469,5.89976364 L5.829789,13.8053197 C5.93850941,14.0130107 6,14.2493244 6,14.5 C6,15.3284271 5.32842712,16 4.5,16 C3.67157288,16 3,15.3284271 3,14.5 C3,13.6715729 3.67157288,13 4.5,13 C4.7116875,13 4.91313315,13.0438505 5.09574895,13.1229636 L13.1974561,5.24441079 C13.0718189,5.02504851 13,4.77091136 13,4.5 C13,3.67157288 13.6715729,3 14.5,3 C15.3284271,3 16,3.67157288 16,4.5 C16,4.77338921 15.9268613,5.02969596 15.799083,5.25042113 L21.006,10.365 L23.4195681,5.54051519 C23.159764,5.27080765 23,4.90406127 23,4.5 C23,3.67157288 23.6715729,3 24.5,3 Z M14.5,13 C15.3284271,13 16,13.6715729 16,14.5 C16,15.3284271 15.3284271,16 14.5,16 C13.6715729,16 13,15.3284271 13,14.5 C13,13.6715729 13.6715729,13 14.5,13 Z M4.5,3 C5.32842712,3 6,3.67157288 6,4.5 C6,5.32842712 5.32842712,6 4.5,6 C3.67157288,6 3,5.32842712 3,4.5 C3,3.67157288 3.67157288,3 4.5,3 Z" id="Combined-Shape" fill="#100C53"></path>
        <mask id="mask-2" fill="white">
            <use xlink:href="#path-1"></use>
        </mask>
        <rect stroke="#100C53" x="0.5" y="0.5" width="28" height="28"></rect>
    </g>
</svg>