<?xml version="1.0" encoding="UTF-8"?>
<svg width="29px" height="29px" viewBox="0 0 29 29" version="1.1" xmlns="http://www.w3.org/2000/svg" xmlns:xlink="http://www.w3.org/1999/xlink">
    <title>logo/v1/square/coloured</title>
    <defs>
        <rect id="path-1" x="0" y="0" width="29" height="29"></rect>
        <filter color-interpolation-filters="auto" id="filter-3">
            <feColorMatrix in="SourceGraphic" type="matrix" values="0 0 0 0 0.000000 0 0 0 0 0.000000 0 0 0 0 0.761266 0 0 0 1.000000 0"></feColorMatrix>
        </filter>
    </defs>
    <g id="logo/v1/square/coloured" stroke="none" stroke-width="1" fill="none" fill-rule="evenodd">
        <mask id="mask-2" fill="white">
            <use xlink:href="#path-1"></use>
        </mask>
        <use id="Rectangle" fill="#8330FF" transform="translate(14.500000, 14.500000) scale(-1, 1) translate(-14.500000, -14.500000) " xlink:href="#path-1"></use>
        <g filter="url(#filter-3)" id="Group-9">
            <g mask="url(#mask-2)">
                <g transform="translate(3.000000, 3.000000)" id="Oval">
                    <circle fill="#D8D8D8" cx="1.5" cy="1.5" r="1.5"></circle>
                    <circle fill="#D8D8D8" cx="11.5" cy="11.5" r="1.5"></circle>
                    <circle fill="#D8D8D8" cx="21.5" cy="21.5" r="1.5"></circle>
                    <circle fill="#F9FCFD" cx="1.5" cy="11.5" r="1.5"></circle>
                    <circle fill="#F9FCFD" cx="11.5" cy="1.5" r="1.5"></circle>
                    <circle fill="#F9FCFD" cx="21.5" cy="11.5" r="1.5"></circle>
                    <circle fill="#0000C2" cx="1.5" cy="21.5" r="1.5"></circle>
                    <circle fill="#0000C2" cx="11.5" cy="21.5" r="1.5"></circle>
                    <circle fill="#0000C2" cx="21.5" cy="1.5" r="1.5"></circle>
                </g>
            </g>
        </g>
        <path d="M14.5,13 C15.3284271,13 16,13.6715729 16,14.5 C16,15.1528467 15.5829319,15.7082819 15.000703,15.9143985 L15.000703,23.0856015 C15.5829319,23.2917181 16,23.8471533 16,24.5 C16,25.3284271 15.3284271,26 14.5,26 C13.8102413,26 13.2292207,25.5344365 13.0540356,24.9004066 L5.94596444,24.9004066 C5.7707793,25.5344365 5.18975874,26 4.5,26 C3.67157288,26 3,25.3284271 3,24.5 C3,23.6715729 3.67157288,23 4.5,23 C5.11518024,23 5.64386519,23.3703303 5.8752823,23.9002184 L13.1242781,23.901226 C13.2896626,23.5217739 13.6074374,23.2240118 14.0002925,23.0852495 L14.0002925,15.9147505 C13.4175435,15.7089149 13,15.1532187 13,14.5 C13,13.6715729 13.6715729,13 14.5,13 Z" id="Combined-Shape" fill="#46ECA1" mask="url(#mask-2)"></path>
        <path d="M24.5,3 C25.3284271,3 26,3.67157288 26,4.5 C26,5.20373308 25.515381,5.79427732 24.8616658,5.95610985 L24.8616658,13.0438902 C25.515381,13.2057227 26,13.7962669 26,14.5 C26,15.2037331 25.515381,15.7942773 24.8616658,15.9561098 L24.8616658,23.0438902 C25.515381,23.2057227 26,23.7962669 26,24.5 C26,25.3284271 25.3284271,26 24.5,26 C23.6715729,26 23,25.3284271 23,24.5 C23,23.9000238 23.3522512,23.3823204 23.8612257,23.1424176 L23.8612257,15.8575824 C23.3522512,15.6176796 23,15.0999762 23,14.5 C23,13.899634 23.3527091,13.3816476 23.862218,13.1419503 L23.862218,5.85804974 C23.5133987,5.69394842 23.2380718,5.39941222 23.0991014,5.03730511 L15.9008986,5.03730511 C15.6848186,5.60033232 15.139083,6 14.5,6 C13.6715729,6 13,5.32842712 13,4.5 C13,3.67157288 13.6715729,3 14.5,3 C15.1669824,3 15.7322893,3.43532468 15.9272934,4.03734678 L23.0727066,4.03734678 C23.2677107,3.43532468 23.8330176,3 24.5,3 Z" id="Combined-Shape" fill="#F9FCFD" mask="url(#mask-2)"></path>
        <path d="M4.5,3 C5.32842712,3 6,3.67157288 6,4.5 C6,5.1528467 5.58293192,5.70828193 5.00070296,5.91439849 L5.00070296,13.0856015 C5.58293192,13.2917181 6,13.8471533 6,14.5 C6,15.3284271 5.32842712,16 4.5,16 C3.67157288,16 3,15.3284271 3,14.5 C3,13.8467813 3.41754351,13.2910851 4.00029246,13.0852495 L4.00029246,5.91475048 C3.41754351,5.70891488 3,5.15321869 3,4.5 C3,3.67157288 3.67157288,3 4.5,3 Z" id="Combined-Shape" fill="#0000C2" mask="url(#mask-2)"></path>
    </g>
</svg>