<?xml version="1.0" encoding="UTF-8"?>
<svg width="51px" height="51px" viewBox="0 0 51 51" version="1.1" xmlns="http://www.w3.org/2000/svg" xmlns:xlink="http://www.w3.org/1999/xlink">
    <title>api</title>
    <defs>
        <filter color-interpolation-filters="auto" id="filter-1">
            <feColorMatrix in="SourceGraphic" type="matrix" values="0 0 0 0 0.974977 0 0 0 0 0.989612 0 0 0 0 0.991508 0 0 0 1.000000 0"></feColorMatrix>
        </filter>
    </defs>
    <g id="Homepage" stroke="none" stroke-width="1" fill="none" fill-rule="evenodd">
        <g id="Homepage-V2" transform="translate(-1059.000000, -2445.000000)">
            <g id="api" transform="translate(1059.000000, 2445.000000)">
                <g filter="url(#filter-1)" id="Group-14">
                    <g>
                        <g id="Group-13" fill="#D8D8D8">
                            <circle id="Oval" cx="13.5" cy="1.5" r="1.5"></circle>
                            <circle id="Oval" cx="13.5" cy="7.5" r="1.5"></circle>
                            <circle id="Oval" cx="31.5" cy="1.5" r="1.5"></circle>
                            <circle id="Oval" cx="31.5" cy="7.5" r="1.5"></circle>
                            <circle id="Oval" cx="37.5" cy="1.5" r="1.5"></circle>
                            <circle id="Oval" cx="37.5" cy="7.5" r="1.5"></circle>
                            <circle id="Oval" cx="43.5" cy="1.5" r="1.5"></circle>
                            <circle id="Oval" cx="49.5" cy="1.5" r="1.5"></circle>
                            <circle id="Oval" cx="43.5" cy="7.5" r="1.5"></circle>
                            <circle id="Oval" cx="49.5" cy="7.5" r="1.5"></circle>
                            <circle id="Oval" cx="7.5" cy="1.5" r="1.5"></circle>
                            <circle id="Oval" cx="7.5" cy="7.5" r="1.5"></circle>
                            <circle id="Oval" cx="25.5" cy="1.5" r="1.5"></circle>
                            <circle id="Oval" cx="25.5" cy="7.5" r="1.5"></circle>
                            <circle id="Oval" cx="1.5" cy="1.5" r="1.5"></circle>
                            <circle id="Oval" cx="1.5" cy="7.5" r="1.5"></circle>
                            <circle id="Oval" cx="19.5" cy="1.5" r="1.5"></circle>
                            <circle id="Oval" cx="19.5" cy="7.5" r="1.5"></circle>
                        </g>
                        <g id="Group-13" transform="translate(0.000000, 24.000000)" fill="#D8D8D8">
                            <circle id="Oval" cx="13.5" cy="1.5" r="1.5"></circle>
                            <circle id="Oval" cx="13.5" cy="7.5" r="1.5"></circle>
                            <circle id="Oval" cx="31.5" cy="1.5" r="1.5"></circle>
                            <circle id="Oval" cx="31.5" cy="7.5" r="1.5"></circle>
                            <circle id="Oval" cx="37.5" cy="1.5" r="1.5"></circle>
                            <circle id="Oval" cx="37.5" cy="7.5" r="1.5"></circle>
                            <circle id="Oval" cx="43.5" cy="1.5" r="1.5"></circle>
                            <circle id="Oval" cx="49.5" cy="1.5" r="1.5"></circle>
                            <circle id="Oval" cx="43.5" cy="7.5" r="1.5"></circle>
                            <circle id="Oval" cx="49.5" cy="7.5" r="1.5"></circle>
                            <circle id="Oval" cx="7.5" cy="1.5" r="1.5"></circle>
                            <circle id="Oval" cx="7.5" cy="7.5" r="1.5"></circle>
                            <circle id="Oval" cx="25.5" cy="1.5" r="1.5"></circle>
                            <circle id="Oval" cx="25.5" cy="7.5" r="1.5"></circle>
                            <circle id="Oval" cx="1.5" cy="1.5" r="1.5"></circle>
                            <circle id="Oval" cx="1.5" cy="7.5" r="1.5"></circle>
                            <circle id="Oval" cx="19.5" cy="1.5" r="1.5"></circle>
                            <circle id="Oval" cx="19.5" cy="7.5" r="1.5"></circle>
                        </g>
                        <g id="Group-13" transform="translate(0.000000, 12.000000)" fill="#D8D8D8">
                            <circle id="Oval" cx="13.5" cy="1.5" r="1.5"></circle>
                            <circle id="Oval" cx="13.5" cy="7.5" r="1.5"></circle>
                            <circle id="Oval" cx="31.5" cy="1.5" r="1.5"></circle>
                            <circle id="Oval" cx="31.5" cy="7.5" r="1.5"></circle>
                            <circle id="Oval" cx="37.5" cy="1.5" r="1.5"></circle>
                            <circle id="Oval" cx="37.5" cy="7.5" r="1.5"></circle>
                            <circle id="Oval" cx="43.5" cy="1.5" r="1.5"></circle>
                            <circle id="Oval" cx="49.5" cy="1.5" r="1.5"></circle>
                            <circle id="Oval" cx="43.5" cy="7.5" r="1.5"></circle>
                            <circle id="Oval" cx="49.5" cy="7.5" r="1.5"></circle>
                            <circle id="Oval" cx="7.5" cy="1.5" r="1.5"></circle>
                            <circle id="Oval" cx="7.5" cy="7.5" r="1.5"></circle>
                            <circle id="Oval" cx="25.5" cy="1.5" r="1.5"></circle>
                            <circle id="Oval" cx="25.5" cy="7.5" r="1.5"></circle>
                            <circle id="Oval" cx="1.5" cy="1.5" r="1.5"></circle>
                            <circle id="Oval" cx="1.5" cy="7.5" r="1.5"></circle>
                            <circle id="Oval" cx="19.5" cy="1.5" r="1.5"></circle>
                            <circle id="Oval" cx="19.5" cy="7.5" r="1.5"></circle>
                        </g>
                        <g id="Group-13" transform="translate(0.000000, 36.000000)" fill="#D8D8D8">
                            <circle id="Oval" cx="13.5" cy="1.5" r="1.5"></circle>
                            <circle id="Oval" cx="13.5" cy="7.5" r="1.5"></circle>
                            <circle id="Oval" cx="13.5" cy="13.5" r="1.5"></circle>
                            <circle id="Oval" cx="31.5" cy="1.5" r="1.5"></circle>
                            <circle id="Oval" cx="31.5" cy="7.5" r="1.5"></circle>
                            <circle id="Oval" cx="31.5" cy="13.5" r="1.5"></circle>
                            <circle id="Oval" cx="37.5" cy="1.5" r="1.5"></circle>
                            <circle id="Oval" cx="37.5" cy="7.5" r="1.5"></circle>
                            <circle id="Oval" cx="37.5" cy="13.5" r="1.5"></circle>
                            <circle id="Oval" cx="43.5" cy="1.5" r="1.5"></circle>
                            <circle id="Oval" cx="49.5" cy="1.5" r="1.5"></circle>
                            <circle id="Oval" cx="43.5" cy="7.5" r="1.5"></circle>
                            <circle id="Oval" cx="49.5" cy="7.5" r="1.5"></circle>
                            <circle id="Oval" cx="43.5" cy="13.5" r="1.5"></circle>
                            <circle id="Oval" cx="49.5" cy="13.5" r="1.5"></circle>
                            <circle id="Oval" cx="7.5" cy="1.5" r="1.5"></circle>
                            <circle id="Oval" cx="7.5" cy="7.5" r="1.5"></circle>
                            <circle id="Oval" cx="7.5" cy="13.5" r="1.5"></circle>
                            <circle id="Oval" cx="25.5" cy="1.5" r="1.5"></circle>
                            <circle id="Oval" cx="25.5" cy="7.5" r="1.5"></circle>
                            <circle id="Oval" cx="25.5" cy="13.5" r="1.5"></circle>
                            <circle id="Oval" cx="1.5" cy="1.5" r="1.5"></circle>
                            <circle id="Oval" cx="1.5" cy="7.5" r="1.5"></circle>
                            <circle id="Oval" cx="1.5" cy="13.5" r="1.5"></circle>
                            <circle id="Oval" cx="19.5" cy="1.5" r="1.5"></circle>
                            <circle id="Oval" cx="19.5" cy="7.5" r="1.5"></circle>
                            <circle id="Oval" cx="19.5" cy="13.5" r="1.5"></circle>
                        </g>
                    </g>
                </g>
                <g id="Group-18" transform="translate(7.000000, 13.500000)" stroke="#8330FF" stroke-linecap="round" stroke-linejoin="round" stroke-width="3">
                    <line x1="6.5" y1="24" x2="0.5" y2="12" id="Path-4"></line>
                    <line x1="36.5" y1="24" x2="30.5" y2="12" id="Path-4" transform="translate(33.500000, 18.000000) scale(-1, 1) translate(-33.500000, -18.000000) "></line>
                    <line x1="12.5" y1="24" x2="24.5" y2="5.82867088e-16" id="Path-4"></line>
                    <line x1="6.5" y1="1.13825616e-13" x2="0.5" y2="12" id="Path-4"></line>
                    <line x1="36.5" y1="1.13825616e-13" x2="30.5" y2="12" id="Path-4" transform="translate(33.500000, 6.000000) scale(-1, 1) translate(-33.500000, -6.000000) "></line>
                </g>
            </g>
        </g>
    </g>
</svg>