<svg width="36" height="18" xmlns="http://www.w3.org/2000/svg"><defs><linearGradient x1="44.115%" y1="35.445%" x2="53.9%" y2="59.644%" id="b"><stop stop-color="#00B3BA" offset="0%"/><stop stop-color="#00979C" offset="99.8%"/></linearGradient><filter color-interpolation-filters="auto" id="a"><feColorMatrix in="SourceGraphic" values="0 0 0 0 0.974977 0 0 0 0 0.989612 0 0 0 0 0.991508 0 0 0 1.000000 0"/></filter></defs><g transform="translate(-142 -2317)" filter="url(#a)" fill="none" fill-rule="evenodd"><path d="M27 18c-3.764 0-7.069-2.894-9-5.786C16.069 15.106 12.764 18 9 18c-4.963 0-9-4.037-9-9s4.037-9 9-9c4.451 0 7.413 3.336 9 5.816C19.587 3.336 22.549 0 27 0c4.963 0 9 4.037 9 9s-4.037 9-9 9Zm-7-8.972C21.202 11.71 24.245 15 27.164 15 30.382 15 33 12.308 33 9s-2.618-6-5.836-6C23.212 3 20.743 7.465 20 9.028ZM8.835 3C5.618 3 3 5.692 3 9s2.618 6 5.835 6c2.93 0 5.986-3.316 7.165-5.972C15.28 7.513 12.807 3 8.835 3ZM12 9.5v-1c0-.276-.168-.5-.375-.5h-5.25C6.168 8 6 8.224 6 8.5v1c0 .276.168.5.375.5h5.25c.207 0 .375-.224.375-.5Zm17.625-1.25H27.75V6.375A.375.375 0 0 0 27.375 6h-.75a.375.375 0 0 0-.375.375V8.25h-1.875a.375.375 0 0 0-.375.375v.75c0 .207.168.375.375.375h1.875v1.875c0 .207.168.375.375.375h.75a.375.375 0 0 0 .375-.375V9.75h1.875A.375.375 0 0 0 30 9.375v-.75a.375.375 0 0 0-.375-.375Z" fill="url(#b)" fill-rule="nonzero" transform="translate(142 2317)"/></g></svg>