<svg xmlns="http://www.w3.org/2000/svg" width="56" height="56" viewBox="0 0 56 56"><path fill="#F9FCFD" d="M37,37 C33.2365,37 29.93125,34.10575 28,31.2145 C26.06875,34.10575 22.7635,37 19,37 C14.03725,37 10,32.96275 10,28 C10,23.03725 14.03725,19 19,19 C23.45125,19 26.413,22.336 28,24.81625 C29.587,22.336 32.54875,19 37,19 C41.96275,19 46,23.03725 46,28 C46,32.96275 41.96275,37 37,37 Z M30,28.02775 C31.2015826,30.7105 34.2453,34 37.1635333,34 C40.3816151,34 43,31.30825 43,28 C43,24.69175 40.3816151,22 37.1635333,22 C33.2122454,22 30.7426904,26.4655 30,28.02775 Z M18.8351568,22 C15.6177972,22 13,24.69175 13,28 C13,31.30825 15.6177972,34 18.8351568,34 C21.7651349,34 24.8205689,30.6835 26,28.02775 C25.2808169,26.5135 22.8067104,22 18.8351568,22 Z M22,28.5 L22,27.5 C22,27.224 21.832,27 21.625,27 L16.375,27 C16.168,27 16,27.224 16,27.5 L16,28.5 C16,28.776 16.168,29 16.375,29 L21.625,29 C21.832,29 22,28.776 22,28.5 Z M39.625,27.25 L37.75,27.25 L37.75,25.375 C37.75,25.168 37.582,25 37.375,25 L36.625,25 C36.418,25 36.25,25.168 36.25,25.375 L36.25,27.25 L34.375,27.25 C34.168,27.25 34,27.418 34,27.625 L34,28.375 C34,28.582 34.168,28.75 34.375,28.75 L36.25,28.75 L36.25,30.625 C36.25,30.832 36.418,31 36.625,31 L37.375,31 C37.582,31 37.75,30.832 37.75,30.625 L37.75,28.75 L39.625,28.75 C39.832,28.75 40,28.582 40,28.375 L40,27.625 C40,27.418 39.832,27.25 39.625,27.25 Z"/></svg>