<svg width="30" height="26" xmlns="http://www.w3.org/2000/svg" xmlns:xlink="http://www.w3.org/1999/xlink"><defs><filter color-interpolation-filters="auto" id="a"><feColorMatrix in="SourceGraphic" values="0 0 0 0 0.974977 0 0 0 0 0.989612 0 0 0 0 0.991508 0 0 0 1.000000 0"/></filter><path d="M27.357 13.655A6.918 6.918 0 0 1 30 19.118c0 3.8-3.022 6.882-6.75 6.882H6.75C3.022 26 0 22.919 0 19.118a6.908 6.908 0 0 1 3.227-5.872A7.02 7.02 0 0 1 3 11.471C3 7.67 6.022 4.588 9.75 4.588c.63 0 1.238.088 1.816.252C13.084 1.96 16.068 0 19.5 0c4.97 0 9 4.108 9 9.176a9.275 9.275 0 0 1-1.143 4.48Z" id="b"/></defs><g transform="translate(-445 -2385)" filter="url(#a)" fill="none" fill-rule="evenodd"><g transform="translate(445 2385)"><mask id="c" fill="#fff"><use xlink:href="#b"/></mask><path d="m27.357 13.655-1.309-.747-.634 1.154 1.03.806.913-1.213Zm-24.13-.409.784 1.304.953-.596-.288-1.101-1.45.393Zm8.34-8.406-.403 1.474 1.156.328.568-1.078-1.322-.724ZM31.5 19.118a8.46 8.46 0 0 0-3.23-6.676l-1.826 2.426a5.378 5.378 0 0 1 2.056 4.25h3Zm-8.25 8.411c4.556 0 8.25-3.766 8.25-8.411h-3c0 2.956-2.35 5.353-5.25 5.353v3.058Zm-16.5 0h16.5v-3.058H6.75v3.058Zm-8.25-8.411c0 4.645 3.694 8.411 8.25 8.411v-3.058c-2.9 0-5.25-2.397-5.25-5.353h-3Zm3.943-7.176A8.444 8.444 0 0 0-1.5 19.118h3a5.371 5.371 0 0 1 2.51-4.568l-1.567-2.608Zm-.943-.471c0 .748.096 1.475.277 2.169l2.9-.787A5.462 5.462 0 0 1 4.5 11.47h-3Zm8.25-8.412c-4.556 0-8.25 3.766-8.25 8.412h3c0-2.957 2.35-5.353 5.25-5.353v-3.06Zm2.219.308a8.107 8.107 0 0 0-2.219-.308v3.059c.492 0 .965.068 1.414.196l.805-2.947Zm.919 2.197c1.267-2.405 3.754-4.035 6.612-4.035v-3.058c-4.006 0-7.486 2.288-9.255 5.645l2.643 1.448ZM19.5 1.529c4.142 0 7.5 3.424 7.5 7.647h3c0-5.912-4.701-10.705-10.5-10.705v3.058ZM27 9.176c0 1.358-.346 2.63-.952 3.732l2.618 1.495A10.828 10.828 0 0 0 30 9.176h-3Z" fill="#1E3791" fill-rule="nonzero" mask="url(#c)"/></g><path d="M453.684 2406.412c1.143 0 1.925-.61 2.31-1.55l-.677-.496c-.326.75-.875 1.143-1.633 1.143-1.109 0-1.68-.826-1.68-1.97v-1.118c0-1.144.571-1.97 1.68-1.97.735 0 1.248.394 1.47 1.068l.782-.433c-.35-.902-1.062-1.538-2.252-1.538-1.692 0-2.684 1.335-2.684 3.432s.992 3.432 2.684 3.432Zm5.285 0c1.61 0 2.719-1.347 2.719-3.432 0-2.084-1.109-3.432-2.72-3.432-1.61 0-2.718 1.348-2.718 3.432 0 2.085 1.108 3.432 2.719 3.432Zm0-.903c-1.004 0-1.716-.673-1.716-2.059v-.94c0-1.386.712-2.06 1.716-2.06 1.003 0 1.715.674 1.715 2.06v.94c0 1.386-.712 2.06-1.715 2.06Zm8.531-.19h-4.282l2.193-2.148c1.039-1.017 1.786-1.983 1.786-3.356 0-1.512-.91-2.58-2.497-2.58-1.576 0-2.3 1.042-2.614 2.085l.875.368c.222-.839.688-1.5 1.692-1.5 1.003 0 1.505.674 1.505 1.653v.152c0 .852-.583 1.742-1.342 2.504l-2.66 2.67v1.092h5.344v-.94Z" fill="#1E3791" fill-rule="nonzero"/></g></svg>