<svg xmlns="http://www.w3.org/2000/svg" width="56" height="56" viewBox="0 0 56 56"><path fill="#F9FCFD" d="M32.5,14.25 C37.8880633,14.25 42.25,18.6974598 42.25,24.1764706 C42.25,25.5145845 41.9892399,26.815295 41.4926406,28.0186002 L41.3366106,28.3766096 L41.292,28.468 L41.4471856,28.6145026 C42.761912,29.8996145 43.5819798,31.6340157 43.7268912,33.5156978 L43.7447608,33.8306234 L43.75,34.1176471 C43.75,38.247094 40.5257192,41.6155655 36.4929189,41.7460748 L36.25,41.75 L19.75,41.75 C15.6045619,41.75 12.25,38.3296729 12.25,34.1176471 C12.25,31.7220601 13.3440859,29.5163036 15.1492675,28.089208 L15.385,27.91 L15.3409359,27.6619526 C15.3141126,27.4879465 15.2931697,27.3126606 15.2781784,27.1363244 L15.2601644,26.871061 L15.25,26.4705882 C15.25,22.2585829 18.6045717,18.8382353 22.75,18.8382353 C23.0950023,18.8382353 23.4370859,18.8619939 23.77453,18.9089438 L24.110364,18.963603 L24.19,18.98 L24.3757737,18.6858334 C26.0453842,16.1268922 28.8017463,14.4707091 31.8708523,14.2704766 L32.1894299,14.2549792 L32.5,14.25 Z M32.5,15.75 C29.5270891,15.75 26.8328842,17.3700742 25.3676857,19.9383384 L25.2297608,20.1898175 L24.9462641,20.7279276 L24.3612065,20.5616736 C23.8413251,20.4139405 23.3009629,20.3382353 22.75,20.3382353 C19.4395883,20.3382353 16.75,23.0805606 16.75,26.4705882 C16.75,26.9038893 16.7938637,27.3308171 16.8799571,27.74675 L16.9524198,28.0565661 L17.0916836,28.5898555 L16.6243196,28.8820249 C14.8534523,29.9890704 13.75,31.9548428 13.75,34.1176471 C13.75,37.4306477 16.3187131,40.1250152 19.5252757,40.2457751 L19.75,40.25 L36.25,40.25 C39.5604417,40.25 42.25,37.5077053 42.25,34.1176471 C42.25,32.2748355 41.4503911,30.5697811 40.1011703,29.4150082 L39.8946964,29.2459709 L39.3926593,28.852973 L39.6996998,28.2942113 C40.3849446,27.0471816 40.75,25.6398196 40.75,24.1764706 C40.75,19.5194378 37.0530471,15.75 32.5,15.75 Z M21.68371,29.5484835 C22.8038606,29.5484835 23.5002559,30.1114053 23.8701394,30.9299544 L23.93569,31.0863529 L23.15392,31.5185647 C22.93222,30.8448588 22.418815,30.4508824 21.68371,30.4508824 C20.6306493,30.4508824 20.0619873,31.1965172 20.0077538,32.2517866 L20.00347,32.4209176 L20.00347,33.5393765 C20.00347,34.6832235 20.575225,35.5094118 21.68371,35.5094118 C22.3879804,35.5094118 22.9111405,35.1697076 23.2438707,34.52079 L23.31727,34.3655647 L23.99404,34.8610941 C23.608975,35.8016824 22.827205,36.4117647 21.68371,36.4117647 C19.9918,36.4117647 19,35.0772 19,32.9800706 C19,30.8829412 19.9918,29.5484835 21.68371,29.5484835 Z M26.96872,29.5484835 C28.579,29.5484835 29.6875,30.8957882 29.6875,32.9800706 C29.6875,35.0645059 28.579,36.4117647 26.96872,36.4117647 C25.358485,36.4117647 24.25,35.0645059 24.25,32.9800706 C24.25,30.8957882 25.358485,29.5484835 26.96872,29.5484835 Z M32.69965,27.2352941 C34.2865,27.2352941 35.19655,28.3029153 35.19655,29.8153812 C35.19655,31.1073131 34.5351133,32.0389837 33.5915347,32.9917952 L33.4114,33.1707882 L31.2178,35.3186941 L35.5,35.3186941 L35.5,36.2592824 L30.15595,36.2592824 L30.15595,35.1662118 L32.81635,32.4970824 C33.5205786,31.7889866 34.0738712,30.9713045 34.14932,30.1763102 L34.1581,29.9933129 L34.1581,29.8408 C34.1581,28.8621447 33.65635,28.1885306 32.653,28.1885306 C31.7085294,28.1885306 31.2394747,28.7739687 31.0027272,29.5421999 L30.961,29.6882871 L30.0859,29.3196988 C30.4009,28.2774965 31.12435,27.2352941 32.69965,27.2352941 Z M26.96872,30.4508824 C26.01302,30.4508824 25.3219186,31.0618147 25.2582666,32.3168407 L25.25347,32.5099294 L25.25347,33.4503647 C25.25347,34.8357059 25.965235,35.5094118 26.96872,35.5094118 C27.9244057,35.5094118 28.6155472,34.8983407 28.6792031,33.6434336 L28.684,33.4503647 L28.684,32.5099294 C28.684,31.1244353 27.97219,30.4508824 26.96872,30.4508824 Z"/></svg>