<?xml version="1.0" encoding="UTF-8"?>
<svg width="34px" height="33px" viewBox="0 0 34 33" version="1.1" xmlns="http://www.w3.org/2000/svg" xmlns:xlink="http://www.w3.org/1999/xlink">
    <title>crowd</title>
    <defs>
        <filter color-interpolation-filters="auto" id="filter-1">
            <feColorMatrix in="SourceGraphic" type="matrix" values="0 0 0 0 0.974977 0 0 0 0 0.989612 0 0 0 0 0.991508 0 0 0 1.000000 0"></feColorMatrix>
        </filter>
    </defs>
    <g id="Homepage" stroke="none" stroke-width="1" fill="none" fill-rule="evenodd">
        <g id="crowd" transform="translate(-443.000000, -2742.000000)" filter="url(#filter-1)">
            <g transform="translate(443.000000, 2742.000000)">
                <path d="M25.8362374,1.33186774e-15 C24.446394,0.0257132449 23.3298118,0.435382069 22.5695515,1.17887421 C21.8092905,1.92236644 21.4547624,2.95463843 21.4286664,4.03739096 C21.4286659,4.03787911 21.4286659,4.03836727 21.4286664,4.03885542 C21.4118523,4.74437919 21.5560533,5.38097286 21.721831,6.08169897 C21.5309947,6.37359833 21.3966722,6.72780173 21.4517729,7.19611037 C21.4517725,7.19659848 21.4517725,7.19708658 21.4517729,7.19757468 C21.5156357,7.73554116 21.6621511,8.14971231 21.9052384,8.46428411 C22.0165934,8.6083856 22.1797499,8.61912162 22.3226008,8.70591106 C22.4734986,9.21147302 22.6790491,9.69130271 22.9666947,10.075129 C23.1506353,10.3205738 23.3390722,10.5397997 23.5111422,10.7180024 C23.5524161,10.7607471 23.6026027,10.7863069 23.6382282,10.8234395 C23.6412597,11.2042674 23.6425907,11.5616611 23.6151216,11.9568885 C23.525889,12.1543252 23.252111,12.3920286 22.6648658,12.6378363 C22.3328778,12.7767988 21.9349649,12.9153932 21.5138722,13.0654419 C21.5361432,12.8618083 21.5528664,12.6468493 21.5557523,12.4064602 C21.5557528,12.4059721 21.5557528,12.405484 21.5557523,12.4049959 C21.563854,11.6972384 21.4502527,10.9456259 21.0589619,10.2830745 C20.6962316,9.66888219 20.0322224,9.20280712 19.2032192,9.02954465 C18.6766898,8.49617654 17.9363832,8.24755268 17.1034131,8.24755268 C17.0990808,8.24751408 17.0947482,8.24751408 17.0904158,8.24755268 C15.7005724,8.27323997 14.5839902,8.68290572 13.8237299,9.42639824 C13.0634689,10.16989 12.7103849,11.2021621 12.6842889,12.284915 C12.6842884,12.2854031 12.6842884,12.2858912 12.6842889,12.2863793 C12.6779647,12.5517329 12.7003888,12.8066466 12.731946,13.0595846 C12.2291701,12.8859998 11.739864,12.7293291 11.335445,12.5748664 C10.728337,12.3429896 10.4421547,12.1023216 10.3707478,11.9568885 C10.3436706,11.563876 10.344484,11.2077547 10.3476412,10.8278325 C10.3834139,10.7907261 10.4332663,10.7651513 10.4747272,10.7223954 C10.6473459,10.5443756 10.8357865,10.3263815 11.0206187,10.0809862 C11.3094763,9.69748235 11.5158024,9.21626558 11.6676016,8.71030475 C11.8115216,8.6233541 11.9760527,8.61345557 12.0878521,8.46867779 C12.3308093,8.15405276 12.4759538,7.73923455 12.5398735,7.20196836 L12.5398735,7.20050405 C12.5954755,6.73031947 12.4603582,6.37310423 12.2669273,6.08023466 C12.4060131,5.5520205 12.5445524,4.97637379 12.5543149,4.16332975 C12.5624166,3.45553731 12.4488152,2.70249521 12.0575245,2.03994381 C11.694783,1.4257331 11.0308219,0.959662232 10.201781,0.786413924 C9.67542756,0.253207166 8.93623377,0.00442218737 8.10341971,0.00442218737 C8.09860603,0.00437452282 8.093792,0.00437452282 8.08897832,0.00442218737 C6.69916749,0.0305202016 5.58382978,0.439705721 4.82373645,1.18326745 C4.06364312,1.92682917 3.70937062,2.95921025 3.6828515,4.04178419 C3.68285103,4.04227232 3.68285103,4.04276045 3.6828515,4.04324858 C3.66603534,4.74877475 3.81023843,5.38536654 3.97601562,6.08609265 C3.78517941,6.37799126 3.6508569,6.73219466 3.70595803,7.20050405 C3.70595756,7.20099216 3.70595756,7.20148026 3.70595803,7.20196836 C3.76984222,7.74014028 3.91585449,8.1555628 4.15942372,8.4701421 C4.27130095,8.61463572 4.43608201,8.62355204 4.57967375,8.71030475 C4.730735,9.2150592 4.9335755,9.6961515 5.22087988,10.0795219 C5.40482035,10.3249667 5.5932571,10.5427283 5.76532755,10.7209311 C5.80660209,10.7636757 5.85678733,10.7892356 5.89241346,10.8263682 C5.89544504,11.209135 5.8971235,11.5665497 5.86930693,11.96421 C5.7948639,12.1284265 5.61702718,12.3148198 5.18910844,12.520684 C4.73601268,12.73866 4.09867121,12.9411847 3.42579139,13.1899165 C2.75291149,13.4386483 2.03697685,13.7349301 1.40541416,14.2179284 C0.773851474,14.7009258 0.233030238,15.405514 0.0262431356,16.3354561 C-0.0456011865,16.6016821 0.0325972107,16.8864069 0.229809113,17.0766514 C0.427021015,17.266896 0.711358455,17.3318988 0.969996008,17.2458667 C1.22863356,17.1598346 1.4197511,16.9366784 1.46751298,16.6649469 C1.5930902,16.1001782 1.86848403,15.7420078 2.29501556,15.4158107 C2.7215471,15.0896136 3.30642919,14.830172 3.93269091,14.598673 C4.55895255,14.3671741 5.2192392,14.1650662 5.82164966,13.8752572 C6.42406004,13.585449 7.03152516,13.1760644 7.29613523,12.4547855 C7.31907417,12.3921121 7.33364495,12.3266095 7.33946016,12.2600195 C7.40134351,11.5625466 7.37845215,11.0723963 7.37845215,10.4968773 C7.37826345,10.2184003 7.22589804,9.96296524 6.98275301,9.83350201 C7.10327815,9.89756278 6.94626318,9.80063938 6.82245137,9.67241813 C6.69864251,9.54419687 6.54450162,9.36532758 6.39931276,9.17159175 C6.10893503,8.78412008 5.8815931,8.28545755 5.86930693,8.16847468 C5.83653609,7.85667157 5.61589403,7.59847061 5.31619435,7.52120826 C5.29168295,7.48642621 5.21462544,7.35992794 5.17466682,7.02331126 C5.16518811,6.94275094 5.1775273,6.90275045 5.18910844,6.87979909 C5.42922068,6.69760114 5.53703701,6.3863929 5.4620543,6.09194989 C5.24743945,5.25442885 5.14614027,4.72992076 5.16166941,4.07839428 C5.18126575,3.29032659 5.4108645,2.69263897 5.85053289,2.26253323 C6.28846057,1.83413038 6.9868937,1.52765562 8.10341971,1.50397196 L8.10486378,1.50397196 C8.85049856,1.50452626 9.23210013,1.74742926 9.28040867,1.83346285 C9.39409898,2.03606686 9.5942451,2.17353298 9.82196806,2.20542145 C10.3613728,2.28135078 10.5974506,2.48494337 10.7895534,2.81022039 C10.9816563,3.1354974 11.081444,3.62616785 11.0754969,4.1457569 C11.0653005,4.99509282 10.9313011,5.63731489 10.7982186,6.04216034 C10.6970175,6.34943529 10.8018617,6.68786835 11.0581667,6.8812634 C11.0696401,6.90441495 11.0819549,6.94331327 11.0726088,7.0218462 C11.0325846,7.35932137 10.9554199,7.48654617 10.9310815,7.52120826 C10.6313818,7.59847059 10.4107397,7.85667155 10.3779688,8.16847468 C10.3658943,8.2834609 10.1384403,8.78255455 9.84651866,9.17012744 C9.70055785,9.3639135 9.54499951,9.54254962 9.42049192,9.67095382 C9.29598358,9.79935651 9.13780404,9.89701769 9.25730214,9.83350201 C9.01415682,9.96296503 8.8617911,10.2184002 8.86160226,10.4968773 C8.86160226,11.070992 8.83863992,11.5625339 8.90059499,12.2600195 C8.90641021,12.3266095 8.92098098,12.3921121 8.94391992,12.4547855 C9.26504302,13.3278489 10.066407,13.6936573 10.814104,13.97923 C11.4907934,14.2376834 12.2016086,14.4402441 12.8012656,14.6806797 C12.7181634,14.8991063 12.672451,15.1466333 12.7073954,15.4436341 C12.707395,15.4441222 12.707395,15.4446103 12.7073954,15.4450984 C12.7712582,15.9830649 12.9163295,16.397236 13.1594168,16.7118078 C13.2713848,16.8567018 13.4359284,16.8679635 13.5796673,16.9548991 C13.7307419,17.4595868 13.935042,17.9393205 14.2223172,18.3226527 C14.4062578,18.5680975 14.5932506,18.7873234 14.7653207,18.9655262 C14.8065945,19.0082708 14.8567811,19.0338307 14.8924066,19.0709633 C14.8954382,19.4512993 14.8966212,19.8084171 14.8693,20.2029471 C14.7768739,20.4079281 14.4800301,20.6558382 13.8569457,20.9102548 C13.4266939,21.0859338 12.8981526,21.256839 12.3478002,21.4637993 C12.4530839,21.0240024 12.5465999,20.5467257 12.5543149,19.9042091 C12.5624188,19.1964163 12.4488152,18.4433747 12.0575245,17.7808234 C11.694332,17.165879 11.0294392,16.6984783 10.1988929,16.5258292 C9.67265329,15.9943587 8.93448063,15.7453015 8.10341971,15.7453015 C8.09908735,15.7452629 8.09475474,15.7452629 8.09042238,15.7453015 C6.70057902,15.7709888 5.58399719,16.1806546 4.82373645,16.9241471 C4.06347572,17.6676389 3.70894716,18.6999109 3.6828515,19.7826638 C3.68285103,19.7831519 3.68285103,19.78364 3.6828515,19.7841281 C3.66603512,20.4896521 3.81023843,21.1262454 3.97601562,21.8269715 C3.78517941,22.1188709 3.6508569,22.4730743 3.70595803,22.9413829 C3.70595756,22.941871 3.70595756,22.9423592 3.70595803,22.9428473 C3.76981782,23.4808137 3.91633607,23.8949849 4.15942372,24.2095567 C4.27077834,24.3536574 4.4339355,24.3643942 4.57678539,24.4511836 C4.72768412,24.9567456 4.93323412,25.4365753 5.22087988,25.8204015 C5.40482035,26.0658463 5.5932571,26.2850723 5.76532755,26.463275 C5.80660209,26.5060197 5.85678733,26.5315795 5.89241346,26.5687121 C5.89543764,26.9505237 5.8969904,27.308467 5.86930693,27.7050897 C5.79500262,27.8691824 5.61555819,28.0556979 5.1876643,28.2615628 C4.73462688,28.4795254 4.09871107,28.6835316 3.42579139,28.9322605 C2.75287171,29.1809885 2.03559082,29.4772823 1.40397002,29.9602716 C0.772349216,30.4432615 0.231592605,31.1463637 0.0247989959,32.0763357 C-0.065184343,32.4802549 0.184710265,32.8816848 0.583017024,32.9730554 C0.981323783,33.064426 1.37728156,32.8111531 1.46751298,32.4072909 C1.5930837,31.8425162 1.86842665,31.4828949 2.29501556,31.1566903 C2.72160447,30.8304843 3.30493241,30.572519 3.9312467,30.341017 C4.55756098,30.109515 5.21925015,29.9074237 5.82164966,29.6176012 C6.42404895,29.3277787 7.03032658,28.9170895 7.29469116,28.1956651 C7.31762985,28.1329917 7.33220038,28.0674892 7.33801535,28.0008991 C7.39989723,27.3034255 7.37845215,26.8132759 7.37845215,26.237757 C7.37798189,25.9589618 7.22501342,25.7034482 6.98130894,25.5743817 C7.10183408,25.6384424 6.94481172,25.5429811 6.8210073,25.4147613 C6.69719918,25.2865408 6.54305756,25.1076715 6.39786869,24.9139357 C6.10749096,24.526464 5.88014896,24.0263364 5.86786272,23.9093543 C5.83493137,23.5989233 5.61575081,23.3416695 5.31763849,23.2635522 C5.2933461,23.2292313 5.21478863,23.1021827 5.17466682,22.7641901 C5.16518819,22.6836306 5.1775273,22.6436293 5.18910844,22.6206787 C5.42922068,22.4384808 5.53703701,22.1272725 5.4620543,21.8328295 C5.24743945,20.9953085 5.14614027,20.4707997 5.16166941,19.8192738 C5.1806774,19.0305879 5.40910382,18.4336929 5.84908868,18.0034128 C6.28770119,17.5744741 6.9882727,17.2688358 8.10775191,17.2463156 C8.84995509,17.2481151 9.23167275,17.4884172 9.27896387,17.5728778 C9.39265413,17.7754819 9.59280025,17.9129481 9.82052326,17.9448366 C10.3599287,18.0207656 10.5960065,18.225823 10.7881094,18.5511001 C10.9802123,18.8763757 11.081444,19.3670471 11.0754969,19.8866366 C11.0653005,20.7359719 10.9313011,21.3781945 10.7982186,21.7830392 C10.6974042,22.0895662 10.8015729,22.4271076 11.0567226,22.6206787 C11.0681406,22.6432754 11.0807194,22.6824602 11.0711647,22.7627258 C11.031,23.1013782 10.9522182,23.2295492 10.9281926,23.2635522 C10.6300805,23.3416696 10.4109001,23.5989234 10.3779688,23.9093543 C10.3658943,24.0243405 10.1369962,24.5234342 9.84507459,24.9110063 C9.69911304,25.1047931 9.54499951,25.2834293 9.42049192,25.4118327 C9.29598358,25.5402362 9.13780404,25.636433 9.25730214,25.5729173 C9.01369736,25.7026248 8.86125423,25.9587538 8.86160226,26.237757 C8.86160226,26.8118709 8.83719585,27.3034135 8.89915093,28.0008991 C8.9186569,28.2180578 9.03041963,28.4158501 9.20531208,28.5427284 C9.5153226,29.0273522 9.95462764,29.3839901 10.4371792,29.6161369 C11.0395898,29.9059459 11.7013201,30.1080537 12.3275818,30.3395527 C12.9538434,30.5710517 13.5372814,30.8304925 13.9638132,31.1566903 C14.3903449,31.4828867 14.6657385,31.8410931 14.7913161,32.4058265 C14.8466232,32.6700474 15.0377957,32.8836878 15.2917789,32.9651071 C15.545762,33.0465264 15.823302,32.9831411 16.0183396,32.7991732 C16.2133773,32.6152053 16.2957689,32.3390876 16.2340294,32.0763357 C16.0272426,31.1463929 15.4849771,30.4418055 14.8534146,29.9588073 C14.2218521,29.4758098 13.5059172,29.1795272 12.8330373,28.9307962 C12.1601574,28.6820643 11.5242605,28.4795396 11.0711647,28.2615628 C10.6306419,28.049636 10.4379549,27.8564377 10.3693037,27.6889815 C10.3429142,27.300095 10.3430621,26.9456877 10.3461972,26.5687121 C10.3821399,26.5314408 10.4330511,26.5062559 10.4747272,26.463275 C10.6473459,26.2852552 10.8357865,26.0672604 11.0206187,25.8218658 C11.3094763,25.438362 11.5158024,24.9571452 11.6676016,24.4511836 C11.8113279,24.3642652 11.9761858,24.354162 12.0878521,24.2095567 C12.3193736,23.909742 12.4600875,23.5156438 12.5283202,23.014603 C13.1304741,22.7710078 13.7835431,22.556666 14.4086135,22.3014388 C15.1719253,21.9897657 15.9721048,21.5811653 16.2961286,20.6979163 C16.3190676,20.6352429 16.3336384,20.5697403 16.3394536,20.5031503 C16.4013347,19.8056767 16.3784456,19.3155271 16.3784456,18.7400081 C16.3782569,18.4615311 16.2258915,18.206096 15.9827464,18.0766328 C16.1032716,18.1406936 15.9462566,18.0452322 15.8224448,17.9170125 C15.6986359,17.788792 15.544495,17.6099227 15.3993062,17.4161869 C15.1089284,17.0287152 14.8815868,16.5285876 14.8693,16.4116055 C14.8365292,16.0998023 14.6158871,15.8416014 14.3161874,15.7643391 C14.2915873,15.7293621 14.2146421,15.6032552 14.1746601,15.2664413 C14.1649531,15.1839421 14.1785013,15.1437609 14.1905463,15.1214656 C14.430086,14.9395023 14.5378352,14.6290654 14.4634917,14.3350807 C14.2488768,13.4975596 14.1475778,12.9730509 14.1631068,12.321525 C14.182117,11.532839 14.4105412,10.935944 14.8505265,10.5056639 C15.2891387,10.0767252 15.9897102,9.771087 17.1091894,9.74856676 C17.8497348,9.75089107 18.2342341,9.99047038 18.2818462,10.075129 C18.395237,10.2773593 18.5947695,10.4147707 18.8219607,10.4470878 C19.361367,10.5230167 19.597444,10.7280742 19.7895469,11.0533513 C19.9816497,11.3786268 20.0828815,11.867834 20.0769344,12.3874227 C20.066738,13.2367587 19.9327386,13.8804457 19.7996561,14.2852904 C19.6995369,14.5913837 19.8036353,14.9281068 20.0581608,15.1214656 C20.0696453,15.1438456 20.0822338,15.1826007 20.0726022,15.2635127 C20.0726018,15.2640008 20.0726018,15.2644889 20.0726022,15.264977 C20.0324375,15.6035911 19.9536661,15.7303143 19.9296301,15.7643391 C19.631518,15.8424565 19.4123376,16.0997102 19.3794063,16.4101412 C19.3673318,16.5251274 19.1384337,17.0256853 18.8465121,17.4132575 C18.7005513,17.6070443 18.546437,17.7856804 18.4219294,17.9140839 C18.2974211,18.0424873 18.1392415,18.1386842 18.2587396,18.0751685 C18.0155946,18.2046317 17.8632292,18.4600668 17.8630405,18.7385438 C17.8630405,19.3126577 17.8386333,19.8042004 17.9005884,20.501686 C17.9068684,20.5683437 17.9219253,20.6338481 17.9453574,20.696452 C18.2679608,21.5745951 19.0747876,21.9391176 19.8270955,22.2252894 C20.3748157,22.4336384 20.9313274,22.609744 21.4488848,22.7949429 C21.4505241,22.8440224 21.445678,22.8895817 21.4517729,22.9413829 C21.4517725,22.941871 21.4517725,22.9423592 21.4517729,22.9428473 C21.5156357,23.4808137 21.6621511,23.8949849 21.9052384,24.2095567 C22.0165934,24.3536574 22.1797499,24.3643942 22.3226008,24.4511836 C22.4734986,24.9567456 22.6790491,25.4365753 22.9666947,25.8204015 C23.1506353,26.0658463 23.3390722,26.2850723 23.5111422,26.463275 C23.5524161,26.5060197 23.6026027,26.5315795 23.6382282,26.5687121 C23.6412597,26.9505237 23.6428125,27.308467 23.6151216,27.7050897 C23.5408177,27.8691824 23.3613735,28.0556979 22.933479,28.2615628 C22.4804416,28.4795254 21.8445263,28.6835316 21.1716065,28.9322605 C20.4986866,29.1809885 19.781406,29.4772823 19.1497851,29.9602716 C18.5181642,30.4432615 17.9774078,31.1463637 17.7706144,32.0763357 C17.6804871,32.4803152 17.930387,32.8818921 18.3287812,32.9732828 C18.7271755,33.0646735 19.1232005,32.8112703 19.2133277,32.4072909 C19.3388985,31.8425867 19.6142419,31.4828942 20.0408306,31.1566903 C20.4674192,30.8304843 21.0507471,30.572519 21.677062,30.341017 C22.3033761,30.109515 22.9650651,29.9074237 23.5674645,29.6176012 C24.1698639,29.3277787 24.7761416,28.9170895 25.0405062,28.1956651 C25.0634448,28.1329917 25.0780154,28.0674892 25.0838303,28.0008991 C25.1457115,27.3034255 25.1242671,26.8132759 25.1242671,26.237757 C25.1237969,25.9589618 24.9708284,25.7034482 24.7271239,25.5743817 C24.8476491,25.6384424 24.6906341,25.5429811 24.5668223,25.4147613 C24.4430134,25.2865408 24.2888726,25.1076715 24.1436837,24.9139357 C23.853306,24.526464 23.6259636,24.0263364 23.6136776,23.9093543 C23.5807463,23.5989234 23.3615659,23.3416696 23.0634538,23.2635522 C23.0391642,23.229235 22.9606035,23.1021827 22.9204817,22.7641901 C22.920095,22.7609046 22.9207952,22.7600446 22.9204817,22.7568678 C22.9678778,22.6896351 23.0039871,22.6149197 23.0273492,22.5357435 C23.2028884,22.3485996 23.2710929,22.083023 23.2078692,21.8328295 C22.9932543,20.9953085 22.8919553,20.4707997 22.9074843,19.8192738 C22.9264945,19.0305879 23.1549187,18.4336929 23.594904,18.0034128 C24.0335162,17.5744741 24.7340877,17.2688358 25.8535669,17.2463156 C26.5957701,17.2481151 26.9774877,17.4884172 27.0247789,17.5728778 C27.1384691,17.7754819 27.3386152,17.9129481 27.5663383,17.9448366 C28.1057437,18.0207656 28.3418215,18.225823 28.5339244,18.5511001 C28.7260273,18.8763757 28.827259,19.3670471 28.8213119,19.8866366 C28.8111155,20.7359719 28.6771161,21.3781945 28.5440336,21.7830392 C28.4432192,22.0895662 28.5473879,22.4271076 28.8025376,22.6206787 C28.8140228,22.6430588 28.8266113,22.6818139 28.8169797,22.7627258 C28.776815,23.1013782 28.6980332,23.2295492 28.6740076,23.2635522 C28.3758955,23.3416696 28.1567151,23.5989234 28.1237838,23.9093543 C28.1117093,24.0243405 27.8828105,24.5234342 27.5908896,24.9110063 C27.4449273,25.1047931 27.2908145,25.2834293 27.1663069,25.4118327 C27.0417986,25.5402362 26.883619,25.636433 27.0031171,25.5729173 C26.7595124,25.7026248 26.6070692,25.9587538 26.6074173,26.237757 C26.6074173,26.8118709 26.5830108,27.3034135 26.6449659,28.0008991 C26.6644719,28.2180578 26.7762346,28.4158501 26.9511271,28.5427284 C27.2611376,29.0273522 27.7004426,29.3839901 28.1829942,29.6161369 C28.7854048,29.9059459 29.4471351,30.1080537 30.0733967,30.3395527 C30.6996584,30.5710517 31.2830964,30.8304933 31.7096282,31.1566903 C32.1361599,31.4828867 32.4115535,31.8410931 32.5371311,32.4058265 C32.5924382,32.6700474 32.7836107,32.8836878 33.0375939,32.9651071 C33.291577,33.0465264 33.569117,32.9831411 33.7641546,32.7991732 C33.9591923,32.6152053 34.0415839,32.3390876 33.9798444,32.0763357 C33.7730576,31.1463929 33.230792,30.4418055 32.5992296,29.9588073 C31.9676671,29.4758098 31.2517322,29.1795265 30.5788523,28.9307962 C29.9059724,28.6820643 29.2700755,28.4795396 28.8169797,28.2615628 C28.3764569,28.049636 28.1837699,27.856437 28.1151187,27.6889815 C28.0887292,27.300095 28.0888771,26.9456877 28.0920122,26.5687121 C28.1279548,26.5314408 28.1788661,26.5062559 28.2205422,26.463275 C28.3931609,26.2852552 28.5816015,26.0672604 28.7664337,25.8218658 C29.0552912,25.438362 29.2616174,24.9571452 29.4134166,24.4511836 C29.5571429,24.3642652 29.7220008,24.354162 29.8336671,24.2095567 C30.0766243,23.8949324 30.2217688,23.4801142 30.2856885,22.9428473 L30.2856885,22.9413829 C30.3412772,22.4712823 30.2060807,22.1139614 30.0127423,21.8211143 C30.1518089,21.2929219 30.2903682,20.717178 30.3001299,19.9042091 C30.3082338,19.1964163 30.1946302,18.4433747 29.8033395,17.7808234 C29.4401499,17.1658085 28.7752542,16.6984783 27.9447079,16.5258292 C27.4184683,15.9943587 26.6802956,15.7453015 25.8492347,15.7453015 C25.8449023,15.7452629 25.8405697,15.7452629 25.8362374,15.7453015 C24.446394,15.7709888 23.3298118,16.1806546 22.5695515,16.9241471 C21.8092905,17.6676389 21.4547624,18.6999109 21.4286664,19.7826638 C21.4286659,19.7831519 21.4286659,19.78364 21.4286664,19.7841281 C21.4166362,20.2889193 21.4973265,20.7641132 21.5990773,21.2470679 C21.1475513,21.094368 20.7123056,20.960438 20.3455476,20.8209259 C19.731501,20.5873477 19.4415943,20.344159 19.3707412,20.1985542 C19.3437971,19.8065599 19.3444774,19.449943 19.3476347,19.0709633 C19.3835773,19.033692 19.4344893,19.008507 19.4761646,18.9655262 C19.6487834,18.7875064 19.8372239,18.5680473 20.0220562,18.3226527 C20.310859,17.9392216 20.517214,17.4592667 20.6690391,16.9534348 C20.8127654,16.8665164 20.9776233,16.8564132 21.0892895,16.7118078 C21.3324952,16.3968619 21.4774926,15.9817018 21.5413109,15.4436341 C21.5760084,15.1520939 21.5323057,14.9082124 21.4517729,14.6923949 C22.029536,14.4697665 22.6433822,14.2679069 23.2280876,14.0231623 C23.9627821,13.7156362 24.7271032,13.3049252 25.0405062,12.4503926 C25.0634448,12.3877191 25.0780154,12.3222166 25.0838303,12.2556265 C25.1457115,11.5581529 25.1242671,11.0680034 25.1242671,10.4924844 C25.1237969,10.2136892 24.9708284,9.9581756 24.7271239,9.82910908 C24.8476491,9.89316985 24.6906341,9.79770851 24.5668223,9.66948876 C24.4430134,9.54126825 24.2888726,9.36239896 24.1436837,9.16866313 C23.853306,8.78119146 23.6259636,8.28106387 23.6136776,8.16408175 C23.5807463,7.85365083 23.3615659,7.59639707 23.0634538,7.51827964 C23.0391642,7.48396245 22.9606035,7.35691009 22.9204817,7.01891757 C22.9110032,6.93835801 22.9233424,6.89835677 22.9349231,6.87540616 C23.1750354,6.69320829 23.2828519,6.38200003 23.2078692,6.08755696 C22.9932543,5.25003592 22.8919553,4.72552753 22.9074843,4.07400112 C22.9264945,3.28531554 23.1549187,2.68842043 23.594904,2.25814007 C24.0335162,1.82920151 24.7340877,1.52356305 25.8535669,1.50104311 C26.5957701,1.50285007 26.977487,1.7431443 27.0247789,1.82760524 C27.1384692,2.03020927 27.3386153,2.16767543 27.5663383,2.19956391 C28.1057437,2.27549309 28.3418215,2.48055014 28.5339244,2.80582716 C28.7260273,3.13110417 28.827259,3.62177462 28.8213119,4.14136367 C28.8111155,4.99069959 28.6771161,5.63292196 28.5440336,6.03776666 C28.4432192,6.34429363 28.5473879,6.68183505 28.8025376,6.87540616 C28.8140228,6.89778619 28.8266113,6.93654131 28.8169797,7.01745326 C28.776815,7.35610559 28.6980332,7.4842766 28.6740076,7.51827964 C28.3758955,7.59639707 28.1567151,7.85365083 28.1237838,8.16408175 C28.1117093,8.27906797 27.8828112,8.77816162 27.5908896,9.16573376 C27.4449273,9.35952057 27.2908145,9.53815669 27.1663069,9.66656014 C27.0417986,9.79496358 26.883619,9.89116045 27.0031171,9.82764477 C26.7595124,9.95735223 26.6070692,10.2134813 26.6074173,10.4924844 C26.6074173,11.0665983 26.5830108,11.5581409 26.6449659,12.2556265 C26.6644719,12.4727852 26.7762346,12.6705775 26.9511271,12.7974559 C27.2611376,13.2820796 27.7004426,13.6387175 28.1829942,13.8708643 C28.7854048,14.1606733 29.4471351,14.3627811 30.0733967,14.5942801 C30.6996584,14.8257791 31.2830964,15.0852207 31.7096282,15.4114178 C32.1361599,15.7376133 32.4115535,16.0958205 32.5371311,16.660554 C32.5924382,16.9247749 32.7836107,17.1384152 33.0375939,17.2198346 C33.291577,17.3012539 33.569117,17.2378685 33.7641546,17.0539006 C33.9591923,16.8699327 34.0415839,16.593815 33.9798444,16.3310632 C33.7730576,15.4011204 33.230792,14.6965329 32.5992296,14.2135347 C31.9676671,13.7305372 31.2517322,13.4342547 30.5788523,13.1855236 C29.9059724,12.9367918 29.2700755,12.7342671 28.8169797,12.5162903 C28.3764569,12.3043634 28.1837699,12.1111644 28.1151187,11.9437089 C28.0887292,11.5548224 28.0888771,11.2004151 28.0920122,10.8234395 C28.1279548,10.7861682 28.1788661,10.7609833 28.2205422,10.7180024 C28.3931609,10.5399826 28.5816015,10.3219878 28.7664337,10.0765933 C29.0552912,9.69308942 29.2616174,9.21187265 29.4134166,8.70591106 C29.5571429,8.61899266 29.7220008,8.60889019 29.8336671,8.46428411 C30.0766243,8.14966058 30.2217688,7.73484162 30.2856885,7.19757468 L30.2856885,7.19611037 C30.3412772,6.72600977 30.2060807,6.3686888 30.0127423,6.07584173 C30.1518089,5.54764931 30.2903682,4.97190528 30.3001299,4.15893652 C30.3082382,3.45114648 30.1946302,2.6981019 29.8033395,2.03555065 C29.4401433,1.42057082 28.7752542,0.95320577 27.9447079,0.780556308 C27.4184683,0.249086028 26.6802956,1.33186774e-15 25.8492347,1.33186774e-15 C25.8449023,1.33186774e-15 25.8405697,1.33186774e-15 25.8362374,1.33186774e-15 Z" id="Path" fill="#000000" fill-rule="nonzero"></path>
            </g>
        </g>
    </g>
</svg>