<svg width="34" height="33" xmlns="http://www.w3.org/2000/svg"><defs><filter color-interpolation-filters="auto" id="a"><feColorMatrix in="SourceGraphic" values="0 0 0 0 0.974977 0 0 0 0 0.989612 0 0 0 0 0.991508 0 0 0 1.000000 0"/></filter></defs><g transform="translate(-443 -2742)" filter="url(#a)" fill="none" fill-rule="evenodd"><path d="M468.836 2742c-1.39.026-2.506.435-3.266 1.179-.76.743-1.115 1.776-1.141 2.858v.002c-.017.705.127 1.342.293 2.043a1.607 1.607 0 0 0-.27 1.116c.064.538.21.952.453 1.266.112.144.275.155.418.242.15.505.356.985.644 1.37.184.245.372.464.544.642.041.043.092.068.127.105.003.381.005.739-.023 1.134-.09.197-.363.435-.95.68-.332.14-.73.278-1.151.428a6.698 6.698 0 0 0 .042-.66c.008-.708-.106-1.46-.497-2.122-.363-.614-1.027-1.08-1.856-1.253-.526-.534-1.267-.782-2.1-.782a.73.73 0 0 0-.013 0c-1.39.025-2.506.435-3.266 1.178-.76.744-1.114 1.776-1.14 2.859v.001c-.006.266.016.52.048.774-.503-.174-.992-.33-1.397-.485-.607-.232-.893-.473-.964-.618-.027-.393-.027-.75-.023-1.13.035-.036.085-.062.127-.105.172-.178.36-.396.546-.641.288-.384.495-.865.647-1.37.144-.088.308-.098.42-.242.243-.315.388-.73.452-1.267v-.001a1.61 1.61 0 0 0-.273-1.12c.139-.529.278-1.105.287-1.918.008-.707-.105-1.46-.496-2.123-.363-.614-1.027-1.08-1.856-1.254-.527-.533-1.266-.782-2.099-.782a.73.73 0 0 0-.014 0c-1.39.027-2.505.436-3.265 1.18-.76.743-1.115 1.775-1.141 2.858v.001c-.017.706.127 1.342.293 2.043a1.607 1.607 0 0 0-.27 1.116c.064.538.21.954.453 1.268.112.145.277.154.42.24.152.505.355.986.642 1.37.184.245.372.463.544.64.042.044.092.07.127.106.003.383.005.74-.023 1.138-.074.164-.252.35-.68.557-.453.218-1.09.42-1.763.669-.673.249-1.389.545-2.02 1.028-.632.483-1.173 1.188-1.38 2.117a.757.757 0 0 0 .204.742c.197.19.481.255.74.169a.747.747 0 0 0 .498-.581c.125-.565.4-.923.827-1.25.427-.325 1.011-.585 1.638-.816.626-.232 1.286-.434 1.889-.724.602-.29 1.21-.699 1.474-1.42a.759.759 0 0 0 .043-.195c.062-.697.04-1.188.04-1.763a.751.751 0 0 0-.396-.663c.12.064-.037-.033-.16-.162a5.497 5.497 0 0 1-.424-.5c-.29-.388-.517-.887-.53-1.004a.747.747 0 0 0-.553-.647c-.024-.035-.101-.161-.141-.498-.01-.08.003-.12.014-.143a.756.756 0 0 0 .273-.788c-.215-.838-.316-1.362-.3-2.014.02-.788.249-1.385.689-1.815.437-.429 1.136-.735 2.252-.759h.002c.745 0 1.127.243 1.175.33a.74.74 0 0 0 .542.371c.54.076.775.28.968.605.192.325.291.816.285 1.336-.01.85-.144 1.491-.277 1.896a.756.756 0 0 0 .26.84c.012.022.024.061.015.14-.04.337-.118.465-.142.5a.747.747 0 0 0-.553.646c-.012.115-.24.615-.531 1.002a5.514 5.514 0 0 1-.427.501c-.124.128-.282.226-.163.163a.751.751 0 0 0-.395.663c0 .574-.023 1.066.039 1.763.005.067.02.132.043.195.321.873 1.122 1.239 1.87 1.524.677.259 1.388.461 1.987.702a1.572 1.572 0 0 0-.094.764c.064.538.21.952.452 1.267.112.145.277.156.42.243.152.505.356.984.643 1.368.184.245.371.464.543.643.042.042.092.068.127.105.003.38.005.737-.023 1.132-.092.205-.389.453-1.012.707-.43.176-.959.347-1.51.554.106-.44.2-.917.207-1.56.008-.708-.105-1.46-.496-2.123-.364-.615-1.029-1.083-1.86-1.255-.525-.532-1.264-.78-2.095-.78a.73.73 0 0 0-.013 0c-1.39.025-2.506.435-3.266 1.178-.76.744-1.115 1.776-1.141 2.859v.001c-.017.706.127 1.342.293 2.043a1.607 1.607 0 0 0-.27 1.116c.064.538.21.952.453 1.267.112.144.275.154.418.241.15.506.356.986.644 1.37.184.245.372.464.544.642.042.043.092.069.127.106.003.382.005.74-.023 1.136-.074.164-.253.35-.681.557-.453.218-1.09.422-1.762.67-.673.249-1.39.545-2.022 1.028-.632.483-1.172 1.186-1.38 2.116a.75.75 0 0 0 .559.897.74.74 0 0 0 .885-.566c.125-.564.4-.924.827-1.25.427-.327 1.01-.584 1.636-.816.627-.231 1.288-.434 1.89-.723.603-.29 1.21-.7 1.474-1.422a.759.759 0 0 0 .043-.195c.062-.698.04-1.188.04-1.763a.751.751 0 0 0-.397-.664c.12.064-.036-.031-.16-.16a5.497 5.497 0 0 1-.423-.5c-.29-.388-.518-.888-.53-1.005a.747.747 0 0 0-.55-.645c-.025-.035-.103-.162-.143-.5-.01-.08.003-.12.014-.143a.756.756 0 0 0 .273-.788c-.215-.838-.316-1.362-.3-2.014.019-.788.247-1.385.687-1.816.439-.429 1.14-.734 2.259-.757.742.002 1.124.242 1.171.327a.74.74 0 0 0 .542.372c.539.076.775.28.967.606.192.325.293.816.287 1.336-.01.849-.144 1.491-.277 1.896-.1.307.004.644.259.838.011.022.024.061.014.142-.04.338-.119.467-.143.5a.747.747 0 0 0-.55.646c-.012.115-.241.614-.533 1.002a5.52 5.52 0 0 1-.425.5c-.124.13-.282.225-.163.162a.751.751 0 0 0-.395.665c0 .574-.025 1.065.037 1.763.02.217.131.415.306.542.31.484.75.841 1.232 1.073.603.29 1.264.492 1.89.724.627.231 1.21.49 1.637.817.426.326.702.684.827 1.249a.746.746 0 0 0 .5.56.732.732 0 0 0 .727-.167.757.757 0 0 0 .216-.723c-.207-.93-.749-1.634-1.38-2.117-.632-.483-1.348-.78-2.021-1.028-.673-.249-1.309-.451-1.762-.67-.44-.211-.633-.405-.702-.572a14.302 14.302 0 0 1-.023-1.12c.036-.038.087-.063.129-.106.172-.178.36-.396.546-.641.288-.384.495-.865.647-1.37.143-.088.308-.098.42-.242.231-.3.372-.694.44-1.195.602-.244 1.256-.458 1.88-.714.764-.311 1.564-.72 1.888-1.603a.759.759 0 0 0 .043-.195c.062-.697.04-1.187.04-1.763a.751.751 0 0 0-.396-.663c.12.064-.037-.032-.16-.16a5.497 5.497 0 0 1-.424-.5c-.29-.388-.517-.888-.53-1.005a.747.747 0 0 0-.553-.648c-.024-.035-.101-.16-.141-.498-.01-.082.004-.122.016-.145a.756.756 0 0 0 .272-.786c-.214-.837-.315-1.362-.3-2.013.02-.79.248-1.386.688-1.816.438-.43 1.139-.735 2.258-.757.74.002 1.125.241 1.173.326a.74.74 0 0 0 .54.372c.54.076.775.281.968.606.192.326.293.815.287 1.334-.01.85-.144 1.493-.277 1.898-.1.306.004.643.258.836.012.023.024.062.015.143v.001c-.04.339-.12.465-.143.5a.747.747 0 0 0-.55.645c-.013.115-.242.616-.533 1.003a5.52 5.52 0 0 1-.425.501c-.125.128-.283.225-.163.161a.751.751 0 0 0-.396.664c0 .574-.024 1.065.038 1.763a.759.759 0 0 0 .044.194c.323.879 1.13 1.243 1.882 1.53.548.208 1.104.384 1.622.569.002.049-.003.095.003.146v.002c.064.538.21.952.453 1.267.112.144.275.154.418.241.15.506.356.986.644 1.37.184.245.372.464.544.642.041.043.092.069.127.106.003.382.005.74-.023 1.136-.074.164-.254.35-.682.557-.453.218-1.088.422-1.761.67-.673.249-1.39.545-2.022 1.028-.632.483-1.173 1.186-1.38 2.116a.75.75 0 0 0 .559.897.74.74 0 0 0 .884-.566c.126-.564.401-.924.828-1.25.426-.327 1.01-.584 1.636-.816.626-.231 1.288-.434 1.89-.723.603-.29 1.21-.7 1.474-1.422a.759.759 0 0 0 .043-.195c.062-.698.04-1.188.04-1.763a.751.751 0 0 0-.397-.664c.12.064-.036-.031-.16-.16a5.497 5.497 0 0 1-.423-.5c-.29-.388-.518-.888-.53-1.005a.747.747 0 0 0-.55-.645c-.025-.035-.103-.162-.144-.5v-.007a.754.754 0 0 0 .107-.221.757.757 0 0 0 .18-.703c-.214-.838-.315-1.362-.3-2.014.02-.788.248-1.385.688-1.816.439-.429 1.14-.734 2.259-.757.742.002 1.123.242 1.17.327a.74.74 0 0 0 .542.372c.54.076.776.28.968.606.192.325.293.816.287 1.336-.01.849-.144 1.491-.277 1.896-.1.307.003.644.259.838.011.022.024.06.014.142-.04.338-.119.467-.143.5a.747.747 0 0 0-.55.646c-.012.115-.241.614-.533 1.002a5.52 5.52 0 0 1-.425.5c-.124.13-.282.225-.163.162a.751.751 0 0 0-.396.665c0 .574-.024 1.065.038 1.763.02.217.131.415.306.542.31.484.75.841 1.232 1.073.602.29 1.264.492 1.89.724.627.231 1.21.49 1.637.817.426.326.702.684.827 1.249a.746.746 0 0 0 .5.56.732.732 0 0 0 .727-.167.757.757 0 0 0 .216-.723c-.207-.93-.75-1.634-1.38-2.117-.632-.483-1.348-.78-2.021-1.028-.673-.249-1.309-.451-1.762-.67-.44-.211-.633-.405-.702-.572a14.302 14.302 0 0 1-.023-1.12c.036-.038.087-.063.129-.106.172-.178.36-.396.545-.641.29-.384.496-.865.647-1.37.144-.088.309-.098.42-.242.244-.315.389-.73.453-1.267v-.002c.055-.47-.08-.827-.273-1.12.139-.528.277-1.104.287-1.917.008-.708-.105-1.46-.497-2.123-.363-.615-1.028-1.083-1.858-1.255-.527-.532-1.265-.78-2.096-.78a.73.73 0 0 0-.013 0c-1.39.025-2.506.435-3.266 1.178-.76.744-1.115 1.776-1.141 2.859v.001c-.012.505.068.98.17 1.463-.451-.153-.887-.287-1.253-.426-.614-.234-.904-.477-.975-.622a14.219 14.219 0 0 1-.023-1.128c.036-.037.086-.062.128-.105a6.9 6.9 0 0 0 .546-.643c.289-.384.495-.864.647-1.37.144-.086.309-.097.42-.241.243-.315.388-.73.452-1.268a1.564 1.564 0 0 0-.09-.752c.579-.222 1.192-.424 1.777-.669.735-.307 1.5-.718 1.813-1.573a.759.759 0 0 0 .043-.194c.062-.698.04-1.188.04-1.764a.751.751 0 0 0-.397-.663c.12.064-.036-.031-.16-.16a5.497 5.497 0 0 1-.423-.5c-.29-.388-.518-.888-.53-1.005a.747.747 0 0 0-.55-.646c-.025-.034-.103-.161-.144-.5-.009-.08.003-.12.015-.143a.756.756 0 0 0 .273-.787c-.215-.838-.316-1.362-.3-2.014.018-.789.247-1.386.687-1.816.439-.429 1.14-.734 2.259-.757.742.002 1.123.242 1.17.327a.74.74 0 0 0 .542.372c.54.075.776.28.968.606.192.325.293.816.287 1.335-.01.85-.144 1.492-.277 1.897-.1.306.003.644.259.837.011.023.024.062.014.142-.04.34-.119.467-.143.501a.747.747 0 0 0-.55.646c-.012.115-.241.614-.533 1.002a5.52 5.52 0 0 1-.425.5c-.124.129-.282.225-.163.162a.751.751 0 0 0-.396.664c0 .575-.024 1.066.038 1.764a.75.75 0 0 0 .306.541c.31.485.75.842 1.232 1.074.602.29 1.264.492 1.89.723.627.232 1.21.491 1.637.817.426.327.702.685.827 1.25a.746.746 0 0 0 .5.559.732.732 0 0 0 .727-.166.757.757 0 0 0 .216-.723c-.207-.93-.75-1.634-1.38-2.117-.632-.483-1.348-.78-2.021-1.028-.673-.25-1.309-.452-1.762-.67-.44-.212-.633-.405-.702-.572a14.302 14.302 0 0 1-.023-1.12c.036-.038.087-.063.129-.106.172-.178.36-.396.545-.641.29-.384.496-.865.647-1.371.144-.087.309-.097.42-.242.244-.314.389-.73.453-1.266v-.002c.055-.47-.08-.827-.273-1.12.139-.528.277-1.104.287-1.917.008-.708-.105-1.46-.497-2.123-.363-.615-1.028-1.083-1.858-1.255-.527-.532-1.265-.781-2.096-.781h-.013Z" fill="#000" fill-rule="nonzero"/></g></svg>