<?xml version="1.0" encoding="UTF-8"?>
<svg width="27px" height="33px" viewBox="0 0 27 33" version="1.1" xmlns="http://www.w3.org/2000/svg" xmlns:xlink="http://www.w3.org/1999/xlink">
    <title>decibels</title>
    <defs>
        <filter color-interpolation-filters="auto" id="filter-1">
            <feColorMatrix in="SourceGraphic" type="matrix" values="0 0 0 0 0.974977 0 0 0 0 0.989612 0 0 0 0 0.991508 0 0 0 1.000000 0"></feColorMatrix>
        </filter>
    </defs>
    <g id="Homepage" stroke="none" stroke-width="1" fill="none" fill-rule="evenodd">
        <g id="decibels" transform="translate(-447.000000, -2669.000000)" filter="url(#filter-1)">
            <g transform="translate(447.000000, 2669.000000)">
                <path d="M18.1248916,0 C17.8965745,0 17.6711837,0.0469001129 17.4457936,0.117250282 C16.9920857,0.26088169 16.558868,0.53055734 16.1812663,0.914552202 L7.37640937,9.73177343 L2.27146574,9.73177343 C1.02157397,9.73177343 0,10.754782 0,12.0064289 L0,21.0112506 C0,22.2628975 1.02157397,23.2859061 2.27146574,23.2859061 L7.37640937,23.2859061 L16.1578491,32.0327771 C16.9950134,32.8740481 18.0692756,33.2433861 18.9444926,32.830079 C19.8255636,32.4138409 20.2558543,31.4113506 20.2558543,30.2505728 L20.2558543,2.48570598 C20.2558543,1.36010327 19.6821336,0.425032086 18.8039896,0.117250282 C18.5844534,0.041037974 18.3532094,0 18.1248916,0 Z M18.1483088,1.50080361 C18.2244149,1.50080361 18.2829579,1.5066665 18.3356461,1.52425367 C18.5493277,1.59753491 18.7571552,1.78806718 18.7571552,2.48570598 L18.7571552,30.2505728 C18.7571552,31.0508058 18.4937124,31.4084195 18.312229,31.4934258 C18.1307463,31.5784321 17.7648524,31.587226 17.1882047,31.0009746 L7.75108413,21.5506019 C7.73644858,21.5418079 7.71888533,21.5330147 7.70424978,21.5271518 C7.75986576,21.576983 7.5169124,21.1021197 7.5169124,20.8236501 L7.5169124,12.1940294 C7.5169124,11.9155597 7.76864738,11.4348336 7.70424978,11.4905277 C7.72181304,11.4758716 7.73644858,11.4612155 7.75108413,11.4436275 L17.235039,1.96980474 C17.5862966,1.61512283 17.917064,1.50373468 18.1483088,1.50080361 Z M2.27146574,11.2794772 L6.15871639,11.2794772 C6.06212074,11.5667407 6.01821336,11.8803847 6.01821336,12.1940294 L6.01821336,20.8236501 C6.01821336,21.1372948 6.0650477,21.4480077 6.15871639,21.7382023 L2.27146574,21.7382023 C1.86751989,21.7382023 1.54553339,21.4157644 1.54553339,21.0112506 L1.54553339,12.0064289 C1.54553339,11.6019158 1.86751989,11.2794772 2.27146574,11.2794772 Z M22.9019948,11.5608778 C22.5390286,11.6048469 22.2638772,11.9038347 22.246314,12.2702424 C22.2287515,12.6337183 22.4746318,12.9590873 22.8317433,13.0382314 C24.3655681,13.4398134 25.501301,14.8409547 25.501301,16.5088397 C25.501301,18.1767248 24.3655681,19.5778661 22.8317433,19.9794481 C22.4307244,20.0820423 22.190698,20.4924183 22.2931483,20.8940003 C22.3955986,21.2955823 22.8053991,21.5359458 23.206418,21.4333516 C25.3871421,20.8617563 27,18.8626393 27,16.5088397 C27,14.1550401 25.3871421,12.1559232 23.206418,11.5843279 C23.1068954,11.5550157 23.0044451,11.5491528 22.9019948,11.5608778 Z" id="Shape" fill="#000000" fill-rule="nonzero"></path>
            </g>
        </g>
    </g>
</svg>