<svg xmlns="http://www.w3.org/2000/svg" width="56" height="56" viewBox="0 0 56 56"><path fill="#F9FCFD" d="M33.1248916,12 C32.8965745,12 32.6711837,12.0469001 32.4457936,12.1172503 C31.9920857,12.2608817 31.558868,12.5305573 31.1812663,12.9145522 L22.3764094,21.7317734 L17.2714657,21.7317734 C16.021574,21.7317734 15,22.754782 15,24.0064289 L15,33.0112506 C15,34.2628975 16.021574,35.2859061 17.2714657,35.2859061 L22.3764094,35.2859061 L31.1578491,44.0327771 C31.9950134,44.8740481 33.0692756,45.2433861 33.9444926,44.830079 C34.8255636,44.4138409 35.2558543,43.4113506 35.2558543,42.2505728 L35.2558543,14.485706 C35.2558543,13.3601033 34.6821336,12.4250321 33.8039896,12.1172503 C33.5844534,12.041038 33.3532094,12 33.1248916,12 Z M33.1483088,13.5008036 C33.2244149,13.5008036 33.2829579,13.5066665 33.3356461,13.5242537 C33.5493277,13.5975349 33.7571552,13.7880672 33.7571552,14.485706 L33.7571552,42.2505728 C33.7571552,43.0508058 33.4937124,43.4084195 33.312229,43.4934258 C33.1307463,43.5784321 32.7648524,43.587226 32.1882047,43.0009746 L22.7510841,33.5506019 C22.7364486,33.5418079 22.7188853,33.5330147 22.7042498,33.5271518 C22.7598658,33.576983 22.5169124,33.1021197 22.5169124,32.8236501 L22.5169124,24.1940294 C22.5169124,23.9155597 22.7686474,23.4348336 22.7042498,23.4905277 C22.721813,23.4758716 22.7364486,23.4612155 22.7510841,23.4436275 L32.235039,13.9698047 C32.5862966,13.6151228 32.917064,13.5037347 33.1483088,13.5008036 Z M17.2714657,23.2794772 L21.1587164,23.2794772 C21.0621207,23.5667407 21.0182134,23.8803847 21.0182134,24.1940294 L21.0182134,32.8236501 C21.0182134,33.1372948 21.0650477,33.4480077 21.1587164,33.7382023 L17.2714657,33.7382023 C16.8675199,33.7382023 16.5455334,33.4157644 16.5455334,33.0112506 L16.5455334,24.0064289 C16.5455334,23.6019158 16.8675199,23.2794772 17.2714657,23.2794772 Z M37.9019948,23.5608778 C37.5390286,23.6048469 37.2638772,23.9038347 37.246314,24.2702424 C37.2287515,24.6337183 37.4746318,24.9590873 37.8317433,25.0382314 C39.3655681,25.4398134 40.501301,26.8409547 40.501301,28.5088397 C40.501301,30.1767248 39.3655681,31.5778661 37.8317433,31.9794481 C37.4307244,32.0820423 37.190698,32.4924183 37.2931483,32.8940003 C37.3955986,33.2955823 37.8053991,33.5359458 38.206418,33.4333516 C40.3871421,32.8617563 42,30.8626393 42,28.5088397 C42,26.1550401 40.3871421,24.1559232 38.206418,23.5843279 C38.1068954,23.5550157 38.0044451,23.5491528 37.9019948,23.5608778 Z"/></svg>