<svg width="27" height="33" xmlns="http://www.w3.org/2000/svg"><defs><filter color-interpolation-filters="auto" id="a"><feColorMatrix in="SourceGraphic" values="0 0 0 0 0.974977 0 0 0 0 0.989612 0 0 0 0 0.991508 0 0 0 1.000000 0"/></filter></defs><g transform="translate(-447 -2669)" filter="url(#a)" fill="none" fill-rule="evenodd"><path d="M465.125 2669a2.28 2.28 0 0 0-.68.117 3.097 3.097 0 0 0-1.264.798l-8.805 8.817h-5.105a2.279 2.279 0 0 0-2.271 2.274v9.005a2.279 2.279 0 0 0 2.271 2.275h5.105l8.782 8.747c.837.841 1.911 1.21 2.786.797.882-.416 1.312-1.419 1.312-2.58v-27.764c0-1.126-.574-2.061-1.452-2.369a2.081 2.081 0 0 0-.68-.117Zm.023 1.5c.076 0 .135.007.188.024.213.074.421.264.421.962v27.765c0 .8-.263 1.157-.445 1.242-.181.085-.547.094-1.124-.492l-9.437-9.45a.35.35 0 0 0-.047-.024c.056.05-.187-.425-.187-.703v-8.63c0-.278.252-.76.187-.703a.354.354 0 0 0 .047-.047l9.484-9.474c.351-.355.682-.466.913-.47Zm-15.877 9.78h3.888c-.097.287-.14.6-.14.914v8.63c0 .313.046.624.14.914h-3.888a.723.723 0 0 1-.725-.727v-9.005c0-.404.322-.727.725-.727Zm20.631.28a.747.747 0 0 0-.656.71.75.75 0 0 0 .586.768 3.587 3.587 0 0 1 2.67 3.47 3.587 3.587 0 0 1-2.67 3.471.751.751 0 0 0 .374 1.454 5.103 5.103 0 0 0 3.794-4.924 5.103 5.103 0 0 0-3.794-4.925.763.763 0 0 0-.304-.023Z" fill="#000" fill-rule="nonzero"/></g></svg>