<?xml version="1.0" encoding="UTF-8"?>
<svg width="51px" height="51px" viewBox="0 0 51 51" version="1.1" xmlns="http://www.w3.org/2000/svg" xmlns:xlink="http://www.w3.org/1999/xlink">
    <title>downloads</title>
    <defs>
        <filter color-interpolation-filters="auto" id="filter-1">
            <feColorMatrix in="SourceGraphic" type="matrix" values="0 0 0 0 0.974977 0 0 0 0 0.989612 0 0 0 0 0.991508 0 0 0 1.000000 0"></feColorMatrix>
        </filter>
    </defs>
    <g id="Homepage" stroke="none" stroke-width="1" fill="none" fill-rule="evenodd">
        <g id="Homepage-V2" transform="translate(-1059.000000, -2517.000000)">
            <g id="downloads" transform="translate(1059.000000, 2517.000000)">
                <g filter="url(#filter-1)" id="Group-14">
                    <g>
                        <g id="Group-13" fill="#D8D8D8">
                            <circle id="Oval" cx="13.5" cy="1.5" r="1.5"></circle>
                            <circle id="Oval" cx="13.5" cy="7.5" r="1.5"></circle>
                            <circle id="Oval" cx="31.5" cy="1.5" r="1.5"></circle>
                            <circle id="Oval" cx="31.5" cy="7.5" r="1.5"></circle>
                            <circle id="Oval" cx="37.5" cy="1.5" r="1.5"></circle>
                            <circle id="Oval" cx="37.5" cy="7.5" r="1.5"></circle>
                            <circle id="Oval" cx="43.5" cy="1.5" r="1.5"></circle>
                            <circle id="Oval" cx="49.5" cy="1.5" r="1.5"></circle>
                            <circle id="Oval" cx="43.5" cy="7.5" r="1.5"></circle>
                            <circle id="Oval" cx="49.5" cy="7.5" r="1.5"></circle>
                            <circle id="Oval" cx="7.5" cy="1.5" r="1.5"></circle>
                            <circle id="Oval" cx="7.5" cy="7.5" r="1.5"></circle>
                            <circle id="Oval" cx="25.5" cy="1.5" r="1.5"></circle>
                            <circle id="Oval" cx="25.5" cy="7.5" r="1.5"></circle>
                            <circle id="Oval" cx="1.5" cy="1.5" r="1.5"></circle>
                            <circle id="Oval" cx="1.5" cy="7.5" r="1.5"></circle>
                            <circle id="Oval" cx="19.5" cy="1.5" r="1.5"></circle>
                            <circle id="Oval" cx="19.5" cy="7.5" r="1.5"></circle>
                        </g>
                        <g id="Group-13" transform="translate(0.000000, 24.000000)" fill="#D8D8D8">
                            <circle id="Oval" cx="13.5" cy="1.5" r="1.5"></circle>
                            <circle id="Oval" cx="13.5" cy="7.5" r="1.5"></circle>
                            <circle id="Oval" cx="31.5" cy="1.5" r="1.5"></circle>
                            <circle id="Oval" cx="31.5" cy="7.5" r="1.5"></circle>
                            <circle id="Oval" cx="37.5" cy="1.5" r="1.5"></circle>
                            <circle id="Oval" cx="37.5" cy="7.5" r="1.5"></circle>
                            <circle id="Oval" cx="43.5" cy="1.5" r="1.5"></circle>
                            <circle id="Oval" cx="49.5" cy="1.5" r="1.5"></circle>
                            <circle id="Oval" cx="43.5" cy="7.5" r="1.5"></circle>
                            <circle id="Oval" cx="49.5" cy="7.5" r="1.5"></circle>
                            <circle id="Oval" cx="7.5" cy="1.5" r="1.5"></circle>
                            <circle id="Oval" cx="7.5" cy="7.5" r="1.5"></circle>
                            <circle id="Oval" cx="25.5" cy="1.5" r="1.5"></circle>
                            <circle id="Oval" cx="25.5" cy="7.5" r="1.5"></circle>
                            <circle id="Oval" cx="1.5" cy="1.5" r="1.5"></circle>
                            <circle id="Oval" cx="1.5" cy="7.5" r="1.5"></circle>
                            <circle id="Oval" cx="19.5" cy="1.5" r="1.5"></circle>
                            <circle id="Oval" cx="19.5" cy="7.5" r="1.5"></circle>
                        </g>
                        <g id="Group-13" transform="translate(0.000000, 12.000000)" fill="#D8D8D8">
                            <circle id="Oval" cx="13.5" cy="1.5" r="1.5"></circle>
                            <circle id="Oval" cx="13.5" cy="7.5" r="1.5"></circle>
                            <circle id="Oval" cx="31.5" cy="1.5" r="1.5"></circle>
                            <circle id="Oval" cx="31.5" cy="7.5" r="1.5"></circle>
                            <circle id="Oval" cx="37.5" cy="1.5" r="1.5"></circle>
                            <circle id="Oval" cx="37.5" cy="7.5" r="1.5"></circle>
                            <circle id="Oval" cx="43.5" cy="1.5" r="1.5"></circle>
                            <circle id="Oval" cx="49.5" cy="1.5" r="1.5"></circle>
                            <circle id="Oval" cx="43.5" cy="7.5" r="1.5"></circle>
                            <circle id="Oval" cx="49.5" cy="7.5" r="1.5"></circle>
                            <circle id="Oval" cx="7.5" cy="1.5" r="1.5"></circle>
                            <circle id="Oval" cx="7.5" cy="7.5" r="1.5"></circle>
                            <circle id="Oval" cx="25.5" cy="1.5" r="1.5"></circle>
                            <circle id="Oval" cx="25.5" cy="7.5" r="1.5"></circle>
                            <circle id="Oval" cx="1.5" cy="1.5" r="1.5"></circle>
                            <circle id="Oval" cx="1.5" cy="7.5" r="1.5"></circle>
                            <circle id="Oval" cx="19.5" cy="1.5" r="1.5"></circle>
                            <circle id="Oval" cx="19.5" cy="7.5" r="1.5"></circle>
                        </g>
                        <g id="Group-13" transform="translate(0.000000, 36.000000)" fill="#D8D8D8">
                            <circle id="Oval" cx="13.5" cy="1.5" r="1.5"></circle>
                            <circle id="Oval" cx="13.5" cy="7.5" r="1.5"></circle>
                            <circle id="Oval" cx="13.5" cy="13.5" r="1.5"></circle>
                            <circle id="Oval" cx="31.5" cy="1.5" r="1.5"></circle>
                            <circle id="Oval" cx="31.5" cy="7.5" r="1.5"></circle>
                            <circle id="Oval" cx="31.5" cy="13.5" r="1.5"></circle>
                            <circle id="Oval" cx="37.5" cy="1.5" r="1.5"></circle>
                            <circle id="Oval" cx="37.5" cy="7.5" r="1.5"></circle>
                            <circle id="Oval" cx="37.5" cy="13.5" r="1.5"></circle>
                            <circle id="Oval" cx="43.5" cy="1.5" r="1.5"></circle>
                            <circle id="Oval" cx="49.5" cy="1.5" r="1.5"></circle>
                            <circle id="Oval" cx="43.5" cy="7.5" r="1.5"></circle>
                            <circle id="Oval" cx="49.5" cy="7.5" r="1.5"></circle>
                            <circle id="Oval" cx="43.5" cy="13.5" r="1.5"></circle>
                            <circle id="Oval" cx="49.5" cy="13.5" r="1.5"></circle>
                            <circle id="Oval" cx="7.5" cy="1.5" r="1.5"></circle>
                            <circle id="Oval" cx="7.5" cy="7.5" r="1.5"></circle>
                            <circle id="Oval" cx="7.5" cy="13.5" r="1.5"></circle>
                            <circle id="Oval" cx="25.5" cy="1.5" r="1.5"></circle>
                            <circle id="Oval" cx="25.5" cy="7.5" r="1.5"></circle>
                            <circle id="Oval" cx="25.5" cy="13.5" r="1.5"></circle>
                            <circle id="Oval" cx="1.5" cy="1.5" r="1.5"></circle>
                            <circle id="Oval" cx="1.5" cy="7.5" r="1.5"></circle>
                            <circle id="Oval" cx="1.5" cy="13.5" r="1.5"></circle>
                            <circle id="Oval" cx="19.5" cy="1.5" r="1.5"></circle>
                            <circle id="Oval" cx="19.5" cy="7.5" r="1.5"></circle>
                            <circle id="Oval" cx="19.5" cy="13.5" r="1.5"></circle>
                        </g>
                    </g>
                </g>
                <g id="Group-20" transform="translate(7.500000, 4.500000)" stroke="#8330FF" stroke-linecap="round" stroke-linejoin="round" stroke-width="3">
                    <line x1="18" y1="21" x2="18" y2="39" id="Path-4"></line>
                    <path d="M12,21 L6,21 C2.6862915,21 4.05812251e-16,18.3137085 0,15 C-4.05812251e-16,11.6862915 2.6862915,9 6,9 L6,9 L6,9 C6,4.02943725 10.0294373,9.13077564e-16 15,0 C19.9705627,-9.13077564e-16 24,4.02943725 24,9 L24,9 L24,9 L30,9 C33.3137085,9 36,11.6862915 36,15 C36,18.3137085 33.3137085,21 30,21 L24,21 L24,21" id="Path-4"></path>
                    <line x1="12" y1="33" x2="18" y2="39" id="Path-4"></line>
                    <line x1="24" y1="33" x2="18" y2="39" id="Path-4"></line>
                </g>
            </g>
        </g>
    </g>
</svg>