<svg width="51" height="51" xmlns="http://www.w3.org/2000/svg"><defs><filter color-interpolation-filters="auto" id="a"><feColorMatrix in="SourceGraphic" values="0 0 0 0 0.974977 0 0 0 0 0.989612 0 0 0 0 0.991508 0 0 0 1.000000 0"/></filter></defs><g fill="none" fill-rule="evenodd"><g filter="url(#a)"><g fill="#D8D8D8"><circle cx="13.5" cy="1.5" r="1.5"/><circle cx="13.5" cy="7.5" r="1.5"/><circle cx="31.5" cy="1.5" r="1.5"/><circle cx="31.5" cy="7.5" r="1.5"/><circle cx="37.5" cy="1.5" r="1.5"/><circle cx="37.5" cy="7.5" r="1.5"/><circle cx="43.5" cy="1.5" r="1.5"/><circle cx="49.5" cy="1.5" r="1.5"/><circle cx="43.5" cy="7.5" r="1.5"/><circle cx="49.5" cy="7.5" r="1.5"/><circle cx="7.5" cy="1.5" r="1.5"/><circle cx="7.5" cy="7.5" r="1.5"/><circle cx="25.5" cy="1.5" r="1.5"/><circle cx="25.5" cy="7.5" r="1.5"/><circle cx="1.5" cy="1.5" r="1.5"/><circle cx="1.5" cy="7.5" r="1.5"/><circle cx="19.5" cy="1.5" r="1.5"/><circle cx="19.5" cy="7.5" r="1.5"/><g transform="translate(0 24)"><circle cx="13.5" cy="1.5" r="1.5"/><circle cx="13.5" cy="7.5" r="1.5"/><circle cx="31.5" cy="1.5" r="1.5"/><circle cx="31.5" cy="7.5" r="1.5"/><circle cx="37.5" cy="1.5" r="1.5"/><circle cx="37.5" cy="7.5" r="1.5"/><circle cx="43.5" cy="1.5" r="1.5"/><circle cx="49.5" cy="1.5" r="1.5"/><circle cx="43.5" cy="7.5" r="1.5"/><circle cx="49.5" cy="7.5" r="1.5"/><circle cx="7.5" cy="1.5" r="1.5"/><circle cx="7.5" cy="7.5" r="1.5"/><circle cx="25.5" cy="1.5" r="1.5"/><circle cx="25.5" cy="7.5" r="1.5"/><circle cx="1.5" cy="1.5" r="1.5"/><circle cx="1.5" cy="7.5" r="1.5"/><circle cx="19.5" cy="1.5" r="1.5"/><circle cx="19.5" cy="7.5" r="1.5"/></g><g transform="translate(0 12)"><circle cx="13.5" cy="1.5" r="1.5"/><circle cx="13.5" cy="7.5" r="1.5"/><circle cx="31.5" cy="1.5" r="1.5"/><circle cx="31.5" cy="7.5" r="1.5"/><circle cx="37.5" cy="1.5" r="1.5"/><circle cx="37.5" cy="7.5" r="1.5"/><circle cx="43.5" cy="1.5" r="1.5"/><circle cx="49.5" cy="1.5" r="1.5"/><circle cx="43.5" cy="7.5" r="1.5"/><circle cx="49.5" cy="7.5" r="1.5"/><circle cx="7.5" cy="1.5" r="1.5"/><circle cx="7.5" cy="7.5" r="1.5"/><circle cx="25.5" cy="1.5" r="1.5"/><circle cx="25.5" cy="7.5" r="1.5"/><circle cx="1.5" cy="1.5" r="1.5"/><circle cx="1.5" cy="7.5" r="1.5"/><circle cx="19.5" cy="1.5" r="1.5"/><circle cx="19.5" cy="7.5" r="1.5"/></g><g transform="translate(0 36)"><circle cx="13.5" cy="1.5" r="1.5"/><circle cx="13.5" cy="7.5" r="1.5"/><circle cx="13.5" cy="13.5" r="1.5"/><circle cx="31.5" cy="1.5" r="1.5"/><circle cx="31.5" cy="7.5" r="1.5"/><circle cx="31.5" cy="13.5" r="1.5"/><circle cx="37.5" cy="1.5" r="1.5"/><circle cx="37.5" cy="7.5" r="1.5"/><circle cx="37.5" cy="13.5" r="1.5"/><circle cx="43.5" cy="1.5" r="1.5"/><circle cx="49.5" cy="1.5" r="1.5"/><circle cx="43.5" cy="7.5" r="1.5"/><circle cx="49.5" cy="7.5" r="1.5"/><circle cx="43.5" cy="13.5" r="1.5"/><circle cx="49.5" cy="13.5" r="1.5"/><circle cx="7.5" cy="1.5" r="1.5"/><circle cx="7.5" cy="7.5" r="1.5"/><circle cx="7.5" cy="13.5" r="1.5"/><circle cx="25.5" cy="1.5" r="1.5"/><circle cx="25.5" cy="7.5" r="1.5"/><circle cx="25.5" cy="13.5" r="1.5"/><circle cx="1.5" cy="1.5" r="1.5"/><circle cx="1.5" cy="7.5" r="1.5"/><circle cx="1.5" cy="13.5" r="1.5"/><circle cx="19.5" cy="1.5" r="1.5"/><circle cx="19.5" cy="7.5" r="1.5"/><circle cx="19.5" cy="13.5" r="1.5"/></g></g></g><path d="M25.5 25.5v18m-6-18h-6a6 6 0 1 1 0-12h0a9 9 0 0 1 18 0h6a6 6 0 1 1 0 12h-6 0m-12 12 6 6m6-6-6 6" stroke="#8330FF" stroke-linecap="round" stroke-linejoin="round" stroke-width="3"/></g></svg>