<svg xmlns="http://www.w3.org/2000/svg" width="56" height="56" viewBox="0 0 56 56"><path fill="#F9FCFD" d="M28.5,14.9250964 L27.9627345,15.4766973 L27.5316971,15.9270951 C27.3830732,16.0850297 27.2297068,16.2506639 27.0722054,16.4236902 C25.9858806,17.6171587 24.8995594,18.9425903 23.8856241,20.3644719 C20.9886387,24.4270327 19.25,28.4487688 19.25,32.1459367 C19.25,36.897593 23.3902736,40.75 28.5,40.75 C33.6097264,40.75 37.75,36.897593 37.75,32.1459367 C37.75,28.448745 36.0113478,24.426959 33.1143733,20.3644682 C32.1004406,18.9425903 31.0141194,17.6171587 29.9278082,16.4237052 C29.7703,16.2506714 29.6169302,16.0850335 29.4683046,15.927097 L29.0372655,15.4766973 L28.5,14.9250964 Z M28.1814755,17.4334029 L28.5,17.087 L28.8185381,17.433418 C29.8669751,18.5852618 30.9161718,19.8653972 31.8930877,21.2353652 C34.6254671,25.0670407 36.25,28.8248501 36.25,32.1459367 C36.25,36.044049 32.8044881,39.25 28.5,39.25 C24.1955119,39.25 20.75,36.044049 20.75,32.1459367 C20.75,28.8248743 22.3745219,25.0671077 25.1069125,21.2353649 C26.0838282,19.8653972 27.1330249,18.5852618 28.1814755,17.4334029 Z"/></svg>