<?xml version="1.0" encoding="UTF-8"?>
<svg width="56px" height="56px" viewBox="0 0 56 56" version="1.1" xmlns="http://www.w3.org/2000/svg" xmlns:xlink="http://www.w3.org/1999/xlink">
    <title>Homepage / Step by Step / Icons / laptop</title>
    <g id="Homepage-/-Step-by-Step-/-Icons-/-laptop" stroke="none" stroke-width="1" fill="none" fill-rule="evenodd">
        <g id="Group" transform="translate(5.000000, 11.000000)" stroke="#F9FCFD">
            <path d="M42,0.5 C42.6903559,0.5 43.3153559,0.779822031 43.767767,1.23223305 C44.220178,1.68464406 44.5,2.30964406 44.5,3 L44.5,3 L44.5,26.4424293 L2.5,26.4993222 L2.5,3 C2.5,2.30964406 2.77982203,1.68464406 3.23223305,1.23223305 C3.68464406,0.779822031 4.30964406,0.5 5,0.5 L5,0.5 Z" id="Rectangle"></path>
            <path d="M42,2.5 L42.5,26.446758 L4.5,26.4993081 L4.5,3 L42,2.5 Z" id="Rectangle-Copy-2"></path>
            <path d="M44,28.5446688 C44.6903559,28.5446688 45.3153559,28.8244908 45.767767,29.2769018 C46.220178,29.7293129 46.5,30.3543129 46.5,31.0446688 L46.5,31.0446688 L46.5,32.5340035 L30.2060033,32.5379583 L29.2601787,31.5477297 L19.8114375,31.5477297 L18.6759033,32.5401261 L0.5,32.5445472 L0.5,31.0446688 C0.5,30.3543129 0.779822031,29.7293129 1.23223305,29.2769018 C1.68464406,28.8244908 2.30964406,28.5446688 3,28.5446688 L3,28.5446688 Z" id="Rectangle-Copy" transform="translate(23.500000, 30.544669) scale(1, -1) translate(-23.500000, -30.544669) "></path>
        </g>
    </g>
</svg>