<svg xmlns="http://www.w3.org/2000/svg" width="56" height="56" viewBox="0 0 56 56"><path fill="#F9FCFD" d="M28.871443,36.7999409 L28.871443,43 L27.371443,43 L27.371443,36.7999409 L28.871443,36.7999409 Z M20.7754673,33.621077 L21.8191767,34.6984213 L17.2938634,39.0824535 L16.250154,38.0051092 L20.7754673,33.621077 Z M35.3961207,33.4536886 L39.9213578,37.8378684 L38.8776212,38.9151864 L34.3523841,34.5310065 L35.3961207,33.4536886 Z M28.0007619,20.6680373 C31.8769124,20.6680373 35.028618,23.7213974 35.028618,27.5 C35.028618,31.2786025 31.8769124,34.3319627 28.0007619,34.3319627 C24.1246113,34.3319627 20.9729058,31.2786025 20.9729058,27.5 C20.9729058,23.7213974 24.1246113,20.6680373 28.0007619,20.6680373 Z M28.0007619,22.1680373 C24.9425841,22.1680373 22.4729058,24.5606521 22.4729058,27.5 C22.4729058,30.4393479 24.9425841,32.8319627 28.0007619,32.8319627 C31.0589397,32.8319627 33.528618,30.4393479 33.528618,27.5 C33.528618,24.5606521 31.0589397,22.1680373 28.0007619,22.1680373 Z M18.3997562,26.6319036 L18.3997562,28.1319036 L12,28.1319036 L12,26.6319036 L18.3997562,26.6319036 Z M44,26.6319036 L44,28.1319036 L37.6002438,28.1319036 L37.6002438,26.6319036 L44,26.6319036 Z M38.8759497,16.0846173 L39.9196772,17.161944 L35.39444,21.5460501 L34.3507125,20.4687234 L38.8759497,16.0846173 Z M17.295544,15.9172851 L21.8208574,20.3013912 L20.7771389,21.3787267 L16.2518256,16.9946206 L17.295544,15.9172851 Z M28.871443,12 L28.871443,18.200059 L27.371443,18.200059 L27.371443,12 L28.871443,12 Z"/></svg>