<?xml version="1.0" encoding="UTF-8"?>
<svg width="38px" height="25px" viewBox="0 0 38 25" version="1.1" xmlns="http://www.w3.org/2000/svg" xmlns:xlink="http://www.w3.org/1999/xlink">
    <title>lorawan</title>
    <defs>
        <filter color-interpolation-filters="auto" id="filter-1">
            <feColorMatrix in="SourceGraphic" type="matrix" values="0 0 0 0 0.974977 0 0 0 0 0.989612 0 0 0 0 0.991508 0 0 0 1.000000 0"></feColorMatrix>
        </filter>
        <rect id="path-2" x="0" y="0" width="38" height="25"></rect>
    </defs>
    <g id="Homepage" stroke="none" stroke-width="1" fill="none" fill-rule="evenodd">
        <g id="lorawan" transform="translate(-742.000000, -2314.000000)" filter="url(#filter-1)">
            <g transform="translate(742.000000, 2314.000000)">
                <mask id="mask-3" fill="white">
                    <use xlink:href="#path-2"></use>
                </mask>
                <g id="Rectangle"></g>
                <g id="g10" mask="url(#mask-3)">
                    <g transform="translate(38.767840, 12.485642) scale(-1, 1) rotate(-180.000000) translate(-38.767840, -12.485642) translate(0.000000, -0.000000)" id="g12">
                        <g transform="translate(-0.000000, 0.000000)">
                            <polyline id="path14" fill="#100F0D" fill-rule="nonzero" points="-7.48364067e-15 8.21576285 -7.48364067e-15 19.676365 2.86775337 19.676365 2.86775337 10.629317 7.34938077 10.629317 7.34938077 8.21576285 -7.48364067e-15 8.21576285"></polyline>
                            <path d="M19.0649413,8.21576285 L19.0649413,19.676365 L24.8031422,19.676365 C27.5737242,19.676365 28.9602215,18.4204815 28.9602215,15.9098189 C28.9602215,15.1691964 28.7440839,14.5224695 28.31583,13.9701001 C27.887375,13.4176503 27.3115443,13.0331523 26.5907507,12.8189354 L29.2173749,8.21576285 L26.0113009,8.21576285 L23.755428,12.3357427 L21.9330365,12.3357427 L21.9330365,8.21576285 L19.0649413,8.21576285 M21.9330365,17.5514654 L21.9330365,14.4610438 L24.5596608,14.4610438 C25.5824438,14.4610438 26.0923274,14.9763852 26.0923274,16.0059032 C26.0923274,17.0364253 25.5824438,17.5514654 24.5596608,17.5514654 L21.9330365,17.5514654 L21.9330365,17.5514654" id="path16" fill="#100F0D" fill-rule="nonzero"></path>
                            <path d="M37.8488033,14.5253611 L37.8488033,10.001807 C37.8488033,9.19724877 37.9229938,8.60088332 38.0741895,8.21576285 L35.7529727,8.21576285 C35.6675229,8.48323272 35.6140414,8.77941745 35.5931314,9.10094355 L35.560761,9.10094355 C35.3570891,8.77941745 34.9861367,8.51130501 34.448306,8.2956022 C33.954105,8.09126486 33.4651314,7.9896986 32.9825918,7.9896986 C32.1343272,7.9896986 31.4503273,8.20955803 30.9354172,8.64959818 C30.3863273,9.11238933 30.1126871,9.73941743 30.1126871,10.5336142 C30.1126871,11.5102608 30.5041474,12.2504816 31.2900839,12.7542165 C31.9557876,13.1840559 33.0312479,13.5008029 34.5134489,13.7037145 L35.4312795,13.8329916 L35.4312795,14.5420679 C35.4312795,15.1536542 35.0347928,15.4587948 34.2394066,15.4587948 C33.8312584,15.4587948 33.5254489,15.3731321 33.3213748,15.201345 C33.1175018,15.0291763 32.9825918,14.7348791 32.9180521,14.3164053 L30.4997241,14.3164053 C30.5524014,16.1079514 31.7304013,17.0041964 34.0307081,17.0041964 C35.2875229,17.0041964 36.217015,16.8324092 36.8167716,16.4896381 C37.5059991,16.0921884 37.8488033,15.4372084 37.8488033,14.5253611 M35.4312795,11.7890358 L35.4312795,12.3839957 L33.7385706,11.9019877 C32.9339357,11.6763049 32.5304119,11.3062447 32.5304119,10.7909033 C32.5304119,10.1479315 32.9224754,9.82634514 33.7082108,9.82634514 C34.2227187,9.82634514 34.6407187,9.99514031 34.9555758,10.332811 C35.2734489,10.6701805 35.4312795,11.1556423 35.4312795,11.7890358" id="path18" fill="#100F0D" fill-rule="nonzero"></path>
                            <path d="M12.8145447,17.0046582 C14.1804134,17.0046582 15.2816896,16.6072887 16.118735,15.8141964 C16.9575297,15.0197587 17.3750472,13.9149595 17.3750472,12.4981121 C17.3750472,11.0815057 16.9575297,9.97670658 16.118735,9.18259013 C15.2816896,8.38831304 14.1804134,7.99126486 12.8145447,7.99126486 C11.4490177,7.99126486 10.3475807,8.38831304 9.51051511,9.18259013 C8.67174052,9.97670658 8.25414265,11.0815057 8.25414265,12.4981121 C8.25414265,13.9149595 8.67174052,15.0197587 9.51051511,15.8141964 C10.3475807,16.6072887 11.4490177,17.0046582 12.8145447,17.0046582 M12.8145447,15.0889554 C12.1259203,15.0889554 11.6067076,14.8406824 11.2517997,14.3441763 C10.9297849,13.8908029 10.7672897,13.2752808 10.7672897,12.4981121 C10.7672897,11.7204013 10.9297849,11.1050399 11.2517997,10.6517467 C11.6067076,10.1545981 12.1259203,9.9068873 12.8145447,9.9068873 C14.1804134,9.9068873 14.8617393,10.8026704 14.8617393,12.5949796 C14.8617393,13.3292567 14.6994652,13.9174695 14.3774705,14.3602607 C14.0133541,14.8461844 13.4916282,15.0889554 12.8145447,15.0889554" id="path20" fill="#100F0D" fill-rule="nonzero"></path>
                            <path d="M12.7337394,18.7197987 C13.986352,18.7197987 15.1542187,18.351365 16.1362472,17.718614 L16.6297043,18.4195377 C15.50788,19.1496381 14.1698176,19.5760437 12.7337394,19.5760437 C11.3586823,19.5760437 10.0742019,19.186124 8.98297861,18.5124895 L9.47376167,17.8101401 C10.4253299,18.3871481 11.5412029,18.7197987 12.7337394,18.7197987" id="path22" fill="#52AFE6" fill-rule="nonzero"></path>
                            <path d="M7.456585,20.6955818 L8.11096911,19.7594373 C9.44981564,20.606626 11.0346368,21.0999995 12.7338198,21.0999995 C14.4964568,21.0999995 16.1365689,20.5700798 17.5061974,19.6629513 L18.1643615,20.5971882 C16.6081107,21.63514 14.7406219,22.2415657 12.7338198,22.2415657 C10.7916378,22.2415657 8.98132993,21.6724894 7.456585,20.6955818" id="path24" fill="#52AFE6" fill-rule="nonzero"></path>
                            <path d="M12.7338198,23.5441761 C15.0204547,23.5441761 17.1474292,22.8526099 18.9183297,21.6686742 L19.7411604,22.8357424 C17.7371128,24.1837343 15.3259023,24.9712845 12.7338198,24.9712845 C10.2102982,24.9712845 7.85948552,24.2226902 5.88817022,22.9399593 L6.70591412,21.7694774 C8.44563048,22.8905617 10.5140167,23.5441761 12.7338198,23.5441761" id="path26" fill="#52AFE6" fill-rule="nonzero"></path>
                            <path d="M12.8960738,6.25046169 C11.6425965,6.25046169 10.4750516,6.61951791 9.49262093,7.25212833 L8.99946538,6.5513653 C10.1216315,5.82062234 11.4597743,5.39431713 12.8960738,5.39431713 C14.2703467,5.39431713 15.554988,5.78415648 16.6466737,6.457791 L16.1557298,7.16020062 C15.2041615,6.58313237 14.0879065,6.25046169 12.8960738,6.25046169" id="path28" fill="#52AFE6" fill-rule="nonzero"></path>
                            <path d="M18.1726048,4.27506013 L17.517899,5.21084324 C16.1796155,4.36363443 14.5947742,3.87110432 12.8957722,3.87110432 C11.1332759,3.87110432 9.49262093,4.40042158 8.12307281,5.30724886 L7.46515008,4.37351395 C9.02115956,3.33592361 10.8886283,2.729518 12.8957722,2.729518 C14.8377732,2.729518 16.6476991,3.2985943 18.1726048,4.27506013" id="path30" fill="#52AFE6" fill-rule="nonzero"></path>
                            <path d="M12.8957722,1.42672286 C10.6091976,1.42672286 8.48159979,2.11847384 6.71055856,3.30259028 L5.88817022,2.13455818 C7.89207705,0.78736745 10.303368,0 12.8957722,0 C15.4194345,0 17.7697043,0.748383515 19.7409392,2.03108429 L18.9233561,3.20100394 C17.1835594,2.08012043 15.1152536,1.42672286 12.8957722,1.42672286" id="path32" fill="#52AFE6" fill-rule="nonzero"></path>
                        </g>
                    </g>
                </g>
            </g>
        </g>
    </g>
</svg>