<svg xmlns="http://www.w3.org/2000/svg" width="56" height="56" viewBox="0 0 56 56"><path fill="#F9FCFD" d="M15.7105586,37.6686942 C17.4815998,38.8528107 19.6091976,39.5445617 21.8957722,39.5445617 C23.9846959,39.5445617 25.9397062,38.9657735 27.6129591,37.9631929 L27.9233561,37.7702806 L28.7409392,38.9402002 C26.7697043,40.222901 24.4194345,40.9712845 21.8957722,40.9712845 C19.4398103,40.9712845 17.1463988,40.2646168 15.207929,39.0447552 L14.8881702,38.8367263 L15.7105586,37.6686942 Z M17.1230728,35.6640357 C18.4926209,36.5708629 20.1332759,37.1001802 21.8957722,37.1001802 C23.4815074,37.1001802 24.9677959,36.6711317 26.2469941,35.9251131 L26.517899,35.7604413 L27.1726048,36.6962244 C25.6476991,37.6726902 23.8377732,38.2417665 21.8957722,38.2417665 C20.0140748,38.2417665 18.2551388,37.7087928 16.7605098,36.787223 L16.4651501,36.5977706 L17.1230728,35.6640357 Z M18.4926209,33.7191562 C19.4750516,34.3517666 20.6425965,34.7208228 21.8960738,34.7208228 C22.9885871,34.7208228 24.0175942,34.4412871 24.9144583,33.9502083 L25.1557298,33.8110839 L25.6466737,34.5134935 C24.554988,35.187128 23.2703467,35.5769674 21.8960738,35.5769674 C20.5702589,35.5769674 19.3280804,35.2137251 18.2622071,34.5830925 L17.9994654,34.4199192 L18.4926209,33.7191562 Z M43.0307081,23.9670882 C44.2875229,23.9670882 45.217015,24.1388753 45.8167716,24.4816464 C46.5059991,24.8790962 46.8488033,25.5340761 46.8488033,26.4459234 L46.8488033,30.9694775 C46.8488033,31.7740358 46.9229938,32.3704012 47.0741895,32.7555217 L44.7529727,32.7555217 C44.6675229,32.4880518 44.6140414,32.1918671 44.5931314,31.870341 L44.560761,31.870341 C44.3570891,32.1918671 43.9861367,32.4599795 43.448306,32.6756823 C42.954105,32.8800197 42.4651314,32.9815859 41.9825918,32.9815859 C41.1343272,32.9815859 40.4503273,32.7617265 39.9354172,32.3216863 C39.3863273,31.8588952 39.1126871,31.2318671 39.1126871,30.4376703 C39.1126871,29.4610238 39.5041474,28.7208029 40.2900839,28.217068 C40.9045796,27.8202932 41.868217,27.5198811 43.1786241,27.3164162 L44.4312795,27.1382929 L44.4312795,26.4292166 C44.4312795,25.8176303 44.0347928,25.5124897 43.2394066,25.5124897 C42.8312584,25.5124897 42.5254489,25.5981524 42.3213748,25.7699395 C42.1175018,25.9421082 41.9825918,26.2364054 41.9180521,26.6548793 L39.4997241,26.6548793 C39.5524014,24.8633331 40.7304013,23.9670882 43.0307081,23.9670882 Z M21.8145447,23.9666263 C23.1804134,23.9666263 24.2816896,24.3639958 25.118735,25.1570881 C25.9575297,25.9515259 26.3750472,27.056325 26.3750472,28.4731724 C26.3750472,29.8897788 25.9575297,30.9945779 25.118735,31.7886944 C24.2816896,32.5829715 23.1804134,32.9800197 21.8145447,32.9800197 C20.4490177,32.9800197 19.3475807,32.5829715 18.5105151,31.7886944 C17.6717405,30.9945779 17.2541427,29.8897788 17.2541427,28.4731724 C17.2541427,27.056325 17.6717405,25.9515259 18.5105151,25.1570881 C19.3475807,24.3639958 20.4490177,23.9666263 21.8145447,23.9666263 Z M11.8677534,21.2949195 L11.8677534,30.3419675 L16.3493808,30.3419675 L16.3493808,32.7555217 L9,32.7555217 L9,21.2949195 L11.8677534,21.2949195 Z M33.8031422,21.2949195 C36.5737242,21.2949195 37.9602215,22.550803 37.9602215,25.0614656 C37.9602215,25.8020881 37.7440839,26.448815 37.31583,27.0011845 C36.887375,27.5536342 36.3115443,27.9381322 35.5907507,28.1523491 L38.2173749,32.7555217 L35.0113009,32.7555217 L32.755428,28.6355419 L30.9330365,28.6355419 L30.9330365,32.7555217 L28.0649413,32.7555217 L28.0649413,21.2949195 L33.8031422,21.2949195 Z M44.4312795,28.5872888 L42.7385706,29.0692969 C41.9339357,29.2949796 41.5304119,29.6650398 41.5304119,30.1803812 C41.5304119,30.823353 41.9224754,31.1449394 42.7082108,31.1449394 C43.2227187,31.1449394 43.6407187,30.9761442 43.9555758,30.6384735 C44.2734489,30.3011041 44.4312795,29.8156422 44.4312795,29.1822487 L44.4312795,28.5872888 Z M21.8145447,25.8823291 C21.1259203,25.8823291 20.6067076,26.1306022 20.2517997,26.6271082 C19.9297849,27.0804817 19.7672897,27.6960037 19.7672897,28.4731724 C19.7672897,29.2508832 19.9297849,29.8662446 20.2517997,30.3195378 C20.6067076,30.8166864 21.1259203,31.0643972 21.8145447,31.0643972 C23.1804134,31.0643972 23.8617393,30.1686141 23.8617393,28.3763049 C23.8617393,27.6420278 23.6994652,27.053815 23.3774705,26.6110238 C23.0133541,26.1251001 22.4916282,25.8823291 21.8145447,25.8823291 Z M33.5596608,23.4198191 L30.9330365,23.4198191 L30.9330365,26.5102407 L33.5596608,26.5102407 C34.5824438,26.5102407 35.0923274,25.9948993 35.0923274,24.9653813 C35.0923274,23.9348592 34.5824438,23.4198191 33.5596608,23.4198191 Z M21.7337394,21.3952408 C23.0593501,21.3952408 24.3014443,21.7585687 25.3670371,22.388709 L25.6297043,22.5517468 L25.1362472,23.2526705 C24.1542187,22.6199195 22.986352,22.2514858 21.7337394,22.2514858 C20.6405809,22.2514858 19.6118411,22.5310047 18.715026,23.0220343 L18.4737617,23.1611444 L17.9829786,22.458795 C19.0742019,21.7851605 20.3586823,21.3952408 21.7337394,21.3952408 Z M21.7338198,18.7297188 C23.6151967,18.7297188 25.3741304,19.2627101 26.8689591,20.18458 L27.1643615,20.3740963 L26.5061974,21.3083332 C25.1365689,20.4012047 23.4964568,19.871285 21.7338198,19.871285 C20.1479156,19.871285 18.6616334,20.3010682 17.3819791,21.0471684 L17.1109691,21.2118473 L16.456585,20.2757027 C17.9813299,19.2987951 19.7916378,18.7297188 21.7338198,18.7297188 Z M21.7338198,16 C24.1894769,16 26.4828001,16.7068317 28.4213812,17.9273918 L28.7411604,18.1355421 L27.9183297,19.3026104 C26.1474292,18.1186746 24.0204547,17.4271084 21.7338198,17.4271084 C19.6445933,17.4271084 17.689494,18.0060887 16.0162986,19.0088593 L15.7059141,19.2018071 L14.8881702,18.0313253 C16.8594855,16.7485944 19.2102982,16 21.7338198,16 Z"/></svg>