<svg width="38" height="25" xmlns="http://www.w3.org/2000/svg" xmlns:xlink="http://www.w3.org/1999/xlink"><defs><filter color-interpolation-filters="auto" id="a"><feColorMatrix in="SourceGraphic" values="0 0 0 0 0.974977 0 0 0 0 0.989612 0 0 0 0 0.991508 0 0 0 1.000000 0"/></filter><path id="b" d="M0 0h38v25H0z"/></defs><g transform="translate(-742 -2314)" filter="url(#a)" fill="none" fill-rule="evenodd"><g transform="translate(742 2314)"><mask id="c" fill="#fff"><use xlink:href="#b"/></mask><g fill-rule="nonzero" mask="url(#c)"><path fill="#100F0D" d="M0 16.756V5.295h2.868v9.047h4.481v2.414H0m19.065 0V5.295h5.738c2.77 0 4.157 1.256 4.157 3.766 0 .741-.216 1.388-.644 1.94-.429.553-1.004.937-1.725 1.151l2.626 4.604h-3.206l-2.256-4.12h-1.822v4.12h-2.868m2.868-9.336v3.09h2.627c1.022 0 1.532-.515 1.532-1.545 0-1.03-.51-1.545-1.532-1.545h-2.627m15.916 3.026v4.523c0 .805.074 1.401.225 1.787h-2.321a3.698 3.698 0 0 1-.16-.886h-.032c-.204.322-.575.59-1.113.806a3.815 3.815 0 0 1-1.465.306c-.849 0-1.533-.22-2.048-.66-.549-.463-.822-1.09-.822-1.884 0-.977.391-1.717 1.177-2.22.666-.43 1.741-.748 3.223-.95l.918-.13v-.709c0-.611-.396-.917-1.192-.917-.408 0-.714.086-.918.258-.203.172-.338.466-.403.885H30.5c.052-1.792 1.23-2.688 3.53-2.688 1.258 0 2.187.172 2.787.515.689.397 1.032 1.052 1.032 1.964m-2.418 2.736v-.595l-1.692.482c-.805.226-1.209.596-1.209 1.111 0 .643.392.965 1.178.965.515 0 .933-.169 1.248-.507.317-.337.475-.822.475-1.456M12.815 7.967c1.365 0 2.467.397 3.304 1.19.839.795 1.256 1.9 1.256 3.316 0 1.417-.417 2.522-1.256 3.316-.837.794-1.939 1.191-3.304 1.191-1.366 0-2.467-.397-3.304-1.191-.84-.794-1.257-1.9-1.257-3.316 0-1.417.418-2.521 1.257-3.316.837-.793 1.938-1.19 3.304-1.19m0 1.915c-.69 0-1.208.249-1.563.745-.322.453-.485 1.069-.485 1.846 0 .778.163 1.393.485 1.847.355.497.874.744 1.563.744 1.365 0 2.047-.895 2.047-2.688 0-.734-.163-1.322-.485-1.765-.364-.486-.885-.729-1.562-.729"/><path d="M12.734 6.251a6.26 6.26 0 0 1 3.402 1.002l.494-.701a7.12 7.12 0 0 0-3.896-1.157c-1.375 0-2.66.39-3.751 1.064l.49.702a6.268 6.268 0 0 1 3.26-.91M7.457 4.276l.654.936a8.618 8.618 0 0 1 4.623-1.34c1.762 0 3.403.53 4.772 1.436l.658-.934a9.756 9.756 0 0 0-5.43-1.644 9.75 9.75 0 0 0-5.277 1.546" fill="#52AFE6"/><path d="M12.734 1.427c2.286 0 4.413.692 6.184 1.876l.823-1.167A12.515 12.515 0 0 0 12.734 0C10.21 0 7.859.749 5.888 2.031l.818 1.17a11.092 11.092 0 0 1 6.028-1.774m.162 17.293a6.266 6.266 0 0 1-3.403-1l-.494.7a7.118 7.118 0 0 0 3.897 1.157 7.12 7.12 0 0 0 3.75-1.064l-.49-.702a6.268 6.268 0 0 1-3.26.91m5.277 1.975-.655-.936a8.614 8.614 0 0 1-4.622 1.34 8.617 8.617 0 0 1-4.773-1.436l-.658.934a9.757 9.757 0 0 0 5.43 1.644 9.76 9.76 0 0 0 5.278-1.546" fill="#52AFE6"/><path d="M12.896 23.545c-2.287 0-4.414-.692-6.185-1.876l-.823 1.168a12.52 12.52 0 0 0 7.008 2.134 12.51 12.51 0 0 0 6.845-2.03l-.818-1.17a11.093 11.093 0 0 1-6.027 1.774" fill="#52AFE6"/></g></g></g></svg>