<svg width="33" height="33" xmlns="http://www.w3.org/2000/svg"><defs><filter color-interpolation-filters="auto" id="a"><feColorMatrix in="SourceGraphic" values="0 0 0 0 0.974977 0 0 0 0 0.989612 0 0 0 0 0.991508 0 0 0 1.000000 0"/></filter></defs><g transform="translate(-142 -2454)" filter="url(#a)" fill="none" fill-rule="evenodd"><g fill="#1E3791" fill-rule="nonzero"><path d="M165.636 2479.914a10.218 10.218 0 0 0-7.07-2.845 10.218 10.218 0 0 0-7.072 2.845l7.06 7.086 7.082-7.086Zm-7.751-15.6a1.175 1.175 0 0 1-.534 1.188 1.164 1.164 0 0 1-1.71-.584 1.176 1.176 0 0 1 .297-1.269 1.166 1.166 0 0 1 1.947.665Zm-.005 4.932a1.175 1.175 0 0 1-.54 1.185 1.165 1.165 0 0 1-1.706-.59 1.176 1.176 0 0 1 .3-1.267 1.166 1.166 0 0 1 1.946.672Zm3.798 4.174a1.176 1.176 0 0 1-.54 1.185 1.162 1.162 0 0 1-1.707-.59 1.176 1.176 0 0 1 .3-1.267 1.165 1.165 0 0 1 1.947.673Zm1.169-6.512a1.176 1.176 0 0 1-.54 1.185 1.164 1.164 0 0 1-1.707-.59 1.176 1.176 0 0 1 .3-1.267 1.166 1.166 0 0 1 1.947.672Zm-10.181-7.006 5.88-5.902 5.933 5.957a9.975 9.975 0 0 1-11.813-.049v-.006Zm16.491 16.503-2.134-2.142 2.207-2.216h-4.414l-1.526-1.532 1.484-1.495h4.499l-2.25-2.258 2.134-2.142 5.843 5.865z"/><path d="M165.636 2479.914a10.218 10.218 0 0 0-7.07-2.845 10.218 10.218 0 0 0-7.072 2.845l7.06 7.086 7.082-7.086Zm-7.751-15.6a1.175 1.175 0 0 1-.534 1.188 1.164 1.164 0 0 1-1.71-.584 1.176 1.176 0 0 1 .297-1.269 1.166 1.166 0 0 1 1.947.665Zm-.005 4.932a1.175 1.175 0 0 1-.54 1.185 1.165 1.165 0 0 1-1.706-.59 1.176 1.176 0 0 1 .3-1.267 1.166 1.166 0 0 1 1.946.672Zm3.798 4.174a1.176 1.176 0 0 1-.54 1.185 1.162 1.162 0 0 1-1.707-.59 1.176 1.176 0 0 1 .3-1.267 1.165 1.165 0 0 1 1.947.673Zm1.169-6.512a1.176 1.176 0 0 1-.54 1.185 1.164 1.164 0 0 1-1.707-.59 1.176 1.176 0 0 1 .3-1.267 1.166 1.166 0 0 1 1.947.672Zm-10.181-7.006 5.88-5.902 5.933 5.957a9.975 9.975 0 0 1-11.813-.049v-.006Zm16.491 16.503-2.134-2.142 2.207-2.216h-4.414l-1.526-1.532 1.484-1.495h4.499l-2.25-2.258 2.134-2.142 5.843 5.865zm-25.207-7.751a2.635 2.635 0 0 1 0 3.717l1.458 1.464a4.709 4.709 0 0 0 0-6.64l-1.459 1.459Z"/><path d="M146.552 2466.066a6.311 6.311 0 0 1 1.833 4.45 6.31 6.31 0 0 1-1.833 4.449l1.459 1.464a8.378 8.378 0 0 0 2.438-5.91 8.378 8.378 0 0 0-2.438-5.912l-1.46 1.459Z"/><path d="M149.11 2463.472a9.982 9.982 0 0 1 0 14.08l1.46 1.465a12.016 12.016 0 0 0 2.6-3.9 12.052 12.052 0 0 0-2.6-13.103l-1.46 1.458Zm-7.016 7.043.924.928a1.282 1.282 0 0 0 0-1.83l-.924.902Z"/></g></g></svg>