<?xml version="1.0" encoding="UTF-8"?>
<svg width="33px" height="33px" viewBox="0 0 33 33" version="1.1" xmlns="http://www.w3.org/2000/svg" xmlns:xlink="http://www.w3.org/1999/xlink">
    <title>open-sense-box</title>
    <defs>
        <filter color-interpolation-filters="auto" id="filter-1">
            <feColorMatrix in="SourceGraphic" type="matrix" values="0 0 0 0 0.974977 0 0 0 0 0.989612 0 0 0 0 0.991508 0 0 0 1.000000 0"></feColorMatrix>
        </filter>
    </defs>
    <g id="Homepage" stroke="none" stroke-width="1" fill="none" fill-rule="evenodd">
        <g id="open-sense-box" transform="translate(-142.000000, -2454.000000)" filter="url(#filter-1)">
            <g transform="translate(142.000000, 2454.000000)">
                <path d="M23.6362492,25.9140198 C21.7315521,24.0881743 19.1991352,23.0693282 16.5653138,23.0693282 C13.931657,23.0693282 11.3992251,24.0881743 9.49446824,25.9140198 L16.5531992,33 L23.6362492,25.9140198 Z" id="Path" fill="#1E3791" fill-rule="nonzero"></path>
                <path d="M15.8853961,10.3140834 C15.9233853,10.5429409 15.8928743,10.7779691 15.797602,10.9893804 C15.7023298,11.2007918 15.5467833,11.3790673 15.3505554,11.5016111 C15.1543274,11.6241699 14.9262125,11.6854869 14.6952109,11.6777997 C14.4642244,11.6700976 14.240701,11.5937517 14.0529683,11.458401 C13.8652506,11.3230653 13.721759,11.1348355 13.6407102,10.9175537 C13.5596615,10.700272 13.5446752,10.4637273 13.5976807,10.2379026 C13.6506712,10.0120629 13.7692605,9.80712258 13.9384173,9.64901075 C14.1075592,9.49089893 14.3196558,9.38674721 14.5478157,9.34975285 C14.6987706,9.32446937 14.8532103,9.32939395 15.0022658,9.36422629 C15.1513362,9.39905864 15.2920758,9.46313815 15.4163635,9.55274135 C15.5406511,9.64235957 15.6460937,9.75575988 15.7265591,9.88641121 C15.8070246,10.0170775 15.8610171,10.1624125 15.8853961,10.3140834 Z" id="Path" fill="#1E3791" fill-rule="nonzero"></path>
                <path d="M15.8804605,15.2464637 C15.9172532,15.4752762 15.8856952,15.7099441 15.7895256,15.9207398 C15.6933559,16.1315356 15.5372112,16.3090004 15.3406841,16.4306133 C15.1441571,16.5522262 14.9160122,16.6125823 14.6852649,16.6041745 C14.4545027,16.5956165 14.231443,16.518595 14.0442936,16.382869 C13.8571443,16.2469928 13.7143107,16.0585678 13.6338602,15.8413161 C13.5534247,15.6240643 13.5389768,15.3877449 13.5923562,15.1622355 C13.6457356,14.936651 13.7645343,14.732086 13.933736,14.5743495 C14.1029526,14.4166281 14.3149595,14.3128067 14.5429548,14.2760525 C14.6943435,14.2508291 14.849217,14.2559639 14.9986014,14.2911866 C15.1480457,14.3264093 15.288935,14.3909993 15.4133722,14.4812331 C15.5376599,14.5714819 15.6431025,14.6855728 15.7232687,14.8169148 C15.803435,14.9482567 15.8568294,15.0942223 15.8804605,15.2464637 Z" id="Path" fill="#1E3791" fill-rule="nonzero"></path>
                <path d="M19.678039,19.4206399 C19.7148317,19.6494524 19.6831241,19.8841203 19.5871041,20.0949161 C19.4909345,20.3055617 19.3347897,20.4830265 19.1381131,20.6046394 C18.941586,20.7264025 18.713501,20.7867585 18.4827238,20.7782006 C18.2519466,20.7696426 18.0289467,20.6927712 17.8418422,20.5568951 C17.6547377,20.421169 17.5119041,20.232744 17.4314387,20.0154923 C17.3509733,19.7980904 17.3364656,19.561771 17.3898599,19.3362615 C17.4432543,19.1107521 17.5620081,18.9062622 17.7313145,18.7484657 C17.9004713,18.5906692 18.1124034,18.4869228 18.3404885,18.4501387 C18.6460476,18.4008929 18.9584868,18.4755122 19.2093055,18.6574812 C19.4601243,18.8394502 19.6288324,19.1139051 19.678039,19.4206399 Z" id="Path" fill="#1E3791" fill-rule="nonzero"></path>
                <path d="M20.8465822,12.9084475 C20.8832254,13.13729 20.8516674,13.3719279 20.7554977,13.5826937 C20.6594777,13.7934744 20.5031833,13.9708941 20.3066563,14.0925371 C20.1101292,14.2141801 19.8820442,14.2745661 19.651267,14.2660683 C19.4204898,14.2575553 19.19749,14.1805488 19.0102359,14.0447778 C18.8231314,13.9089917 18.6802978,13.7205517 18.5998324,13.5032699 C18.519367,13.2860031 18.5050088,13.0496537 18.5584032,12.8241292 C18.6116479,12.5986048 18.7305513,12.3940549 18.8997081,12.2363184 C19.0690145,12.0785819 19.2809467,11.9747755 19.5088821,11.9380214 C19.8144413,11.8887456 20.12703,11.9632898 20.3778487,12.1452588 C20.6286675,12.3272428 20.7972261,12.6017427 20.8465822,12.9084475 Z" id="Path" fill="#1E3791" fill-rule="nonzero"></path>
                <path d="M10.6658532,5.90189109 L16.5451227,0 L22.4790728,5.95682711 C20.7599847,7.20891482 18.6885238,7.87910718 16.564566,7.87032402 C14.4406232,7.86154087 12.3746364,7.17424763 10.6658532,5.90798675 L10.6658532,5.90189109 Z" id="Path" fill="#1E3791" fill-rule="nonzero"></path>
                <polygon id="Path" fill="#1E3791" fill-rule="nonzero" points="27.1572839 22.4052615 25.0231558 20.2629221 27.2302711 18.0474647 22.81619 18.0474647 21.2901889 16.5154421 22.7737138 15.0202036 27.2727473 15.0202036 25.0231558 12.7619865 27.1572839 10.6197222 33 16.4849638"></polygon>
                <path d="M23.6362492,25.9140198 C21.7315521,24.0881743 19.1991352,23.0693282 16.5653138,23.0693282 C13.931657,23.0693282 11.3992251,24.0881743 9.49446824,25.9140198 L16.5531992,33 L23.6362492,25.9140198 Z" id="Path" fill="#1E3791" fill-rule="nonzero"></path>
                <path d="M15.8853961,10.3140834 C15.9233853,10.5429409 15.8928743,10.7779691 15.797602,10.9893804 C15.7023298,11.2007918 15.5467833,11.3790673 15.3505554,11.5016111 C15.1543274,11.6241699 14.9262125,11.6854869 14.6952109,11.6777997 C14.4642244,11.6700976 14.240701,11.5937517 14.0529683,11.458401 C13.8652506,11.3230653 13.721759,11.1348355 13.6407102,10.9175537 C13.5596615,10.700272 13.5446752,10.4637273 13.5976807,10.2379026 C13.6506712,10.0120629 13.7692605,9.80712258 13.9384173,9.64901075 C14.1075592,9.49089893 14.3196558,9.38674721 14.5478157,9.34975285 C14.6987706,9.32446937 14.8532103,9.32939395 15.0022658,9.36422629 C15.1513362,9.39905864 15.2920758,9.46313815 15.4163635,9.55274135 C15.5406511,9.64235957 15.6460937,9.75575988 15.7265591,9.88641121 C15.8070246,10.0170775 15.8610171,10.1624125 15.8853961,10.3140834 Z" id="Path" fill="#1E3791" fill-rule="nonzero"></path>
                <path d="M15.8804605,15.2464637 C15.9172532,15.4752762 15.8856952,15.7099441 15.7895256,15.9207398 C15.6933559,16.1315356 15.5372112,16.3090004 15.3406841,16.4306133 C15.1441571,16.5522262 14.9160122,16.6125823 14.6852649,16.6041745 C14.4545027,16.5956165 14.231443,16.518595 14.0442936,16.382869 C13.8571443,16.2469928 13.7143107,16.0585678 13.6338602,15.8413161 C13.5534247,15.6240643 13.5389768,15.3877449 13.5923562,15.1622355 C13.6457356,14.936651 13.7645343,14.732086 13.933736,14.5743495 C14.1029526,14.4166281 14.3149595,14.3128067 14.5429548,14.2760525 C14.6943435,14.2508291 14.849217,14.2559639 14.9986014,14.2911866 C15.1480457,14.3264093 15.288935,14.3909993 15.4133722,14.4812331 C15.5376599,14.5714819 15.6431025,14.6855728 15.7232687,14.8169148 C15.803435,14.9482567 15.8568294,15.0942223 15.8804605,15.2464637 Z" id="Path" fill="#1E3791" fill-rule="nonzero"></path>
                <path d="M19.678039,19.4206399 C19.7148317,19.6494524 19.6831241,19.8841203 19.5871041,20.0949161 C19.4909345,20.3055617 19.3347897,20.4830265 19.1381131,20.6046394 C18.941586,20.7264025 18.713501,20.7867585 18.4827238,20.7782006 C18.2519466,20.7696426 18.0289467,20.6927712 17.8418422,20.5568951 C17.6547377,20.421169 17.5119041,20.232744 17.4314387,20.0154923 C17.3509733,19.7980904 17.3364656,19.561771 17.3898599,19.3362615 C17.4432543,19.1107521 17.5620081,18.9062622 17.7313145,18.7484657 C17.9004713,18.5906692 18.1124034,18.4869228 18.3404885,18.4501387 C18.6460476,18.4008929 18.9584868,18.4755122 19.2093055,18.6574812 C19.4601243,18.8394502 19.6288324,19.1139051 19.678039,19.4206399 Z" id="Path" fill="#1E3791" fill-rule="nonzero"></path>
                <path d="M20.8465822,12.9084475 C20.8832254,13.13729 20.8516674,13.3719279 20.7554977,13.5826937 C20.6594777,13.7934744 20.5031833,13.9708941 20.3066563,14.0925371 C20.1101292,14.2141801 19.8820442,14.2745661 19.651267,14.2660683 C19.4204898,14.2575553 19.19749,14.1805488 19.0102359,14.0447778 C18.8231314,13.9089917 18.6802978,13.7205517 18.5998324,13.5032699 C18.519367,13.2860031 18.5050088,13.0496537 18.5584032,12.8241292 C18.6116479,12.5986048 18.7305513,12.3940549 18.8997081,12.2363184 C19.0690145,12.0785819 19.2809467,11.9747755 19.5088821,11.9380214 C19.8144413,11.8887456 20.12703,11.9632898 20.3778487,12.1452588 C20.6286675,12.3272428 20.7972261,12.6017427 20.8465822,12.9084475 Z" id="Path" fill="#1E3791" fill-rule="nonzero"></path>
                <path d="M10.6658532,5.90189109 L16.5451227,0 L22.4790728,5.95682711 C20.7599847,7.20891482 18.6885238,7.87910718 16.564566,7.87032402 C14.4406232,7.86154087 12.3746364,7.17424763 10.6658532,5.90798675 L10.6658532,5.90189109 Z" id="Path" fill="#1E3791" fill-rule="nonzero"></path>
                <polygon id="Path" fill="#1E3791" fill-rule="nonzero" points="27.1572839 22.4052615 25.0231558 20.2629221 27.2302711 18.0474647 22.81619 18.0474647 21.2901889 16.5154421 22.7737138 15.0202036 27.2727473 15.0202036 25.0231558 12.7619865 27.1572839 10.6197222 33 16.4849638"></polygon>
                <path d="M1.94907116,14.6538033 C2.4395213,15.1469212 2.7149882,15.8153419 2.7149882,16.5122891 C2.7149882,17.2090862 2.4395213,17.8775069 1.94907116,18.3707149 L3.40824707,19.8354751 C4.28445257,18.954457 4.77657782,17.760248 4.77657782,16.5152919 C4.77657782,15.2703358 4.28445257,14.076217 3.40824707,13.1951087 L1.94907116,14.6538033 Z" id="Path" fill="#1E3791" fill-rule="nonzero"></path>
                <path d="M4.55184302,12.0659552 C5.72580045,13.2468017 6.38512325,14.8469577 6.38512325,16.5152919 C6.38512325,18.1834911 5.72580045,19.783677 4.55184302,20.9645236 L6.01101892,22.4292838 C7.5722124,20.8613778 8.44922555,18.7352534 8.44922555,16.5182947 C8.44922555,14.3013961 7.5722124,12.1752417 6.01101892,10.6072606 L4.55184302,12.0659552 Z" id="Path" fill="#1E3791" fill-rule="nonzero"></path>
                <path d="M7.11079263,9.47223659 C8.03270488,10.3962396 8.7640876,11.4936387 9.26312271,12.7016605 C9.76214286,13.9096823 10.019004,15.2045748 10.019004,16.5124393 C10.019004,17.8201537 9.76214286,19.1151062 9.26312271,20.323128 C8.7640876,21.5311498 8.03270488,22.6285188 7.11079263,23.5524768 L8.56995358,25.0173872 C9.68362178,23.9017011 10.567141,22.5764204 11.1699735,21.1176658 C11.772806,19.658761 12.0831063,18.0949088 12.0831063,16.5154421 C12.0831063,14.9360504 11.772806,13.3721531 11.1699735,11.9132784 C10.567141,10.4544187 9.68362178,9.12921306 8.56995358,8.01354202 L7.11079263,9.47223659 Z" id="Path" fill="#1E3791" fill-rule="nonzero"></path>
                <path d="M0.0941340607,16.5154421 L1.01828229,17.4431536 C1.13961306,17.3237927 1.23599956,17.1813104 1.30180321,17.0241144 C1.36760687,16.8669185 1.40150554,16.6981617 1.40150554,16.5276034 C1.40150554,16.3571951 1.36760687,16.1882883 1.30180321,16.0310923 C1.23599956,15.8738963 1.13961306,15.7315641 1.01828229,15.6122033 L0.0941340607,16.5154421 Z" id="Path" fill="#1E3791" fill-rule="nonzero"></path>
            </g>
        </g>
    </g>
</svg>