<?xml version="1.0" encoding="UTF-8"?>
<svg width="56px" height="56px" viewBox="0 0 56 56" version="1.1" xmlns="http://www.w3.org/2000/svg" xmlns:xlink="http://www.w3.org/1999/xlink">
    <title>Homepage / Step by Step / Icons / other-hardware</title>
    <g id="Homepage-/-Step-by-Step-/-Icons-/-other-hardware" stroke="none" stroke-width="1" fill="none" fill-rule="evenodd">
        <g id="Group" transform="translate(12.000000, 12.000000)">
            <path d="M29,0.75 C29.6213203,0.75 30.1838203,1.00183983 30.5909903,1.40900974 C30.9981602,1.81617966 31.25,2.37867966 31.25,3 L31.25,3 L31.25,28.9374308 C31.25,29.5578036 30.9988991,30.1196331 30.5927055,30.526704 C30.1865118,30.9337749 29.6252253,31.1860872 29.004854,31.1874256 L29.004854,31.1874256 L3.00485395,31.2435158 C2.38353506,31.2448562 1.82049307,30.9942305 1.41244571,30.5879399 C1.00439835,30.1816493 0.751345618,29.6196939 0.750006981,28.9999928 L0.750006981,28.9999928 L0.75,3 C0.75,2.37867966 1.00183983,1.81617966 1.40900974,1.40900974 C1.81617966,1.00183983 2.37867966,0.75 3,0.75 L3,0.75 Z" id="Rectangle-Copy-2" stroke="#F9FCFD" stroke-width="1.5"></path>
            <path d="M15.952,19.672 L15.952,17.896 C15.952,17.416 16.176,17.176 16.624,17.176 L16.624,17.176 L16.96,17.176 C17.568,17.176 18.132,17.052 18.652,16.804 C19.172,16.556 19.624,16.224 20.008,15.808 C20.392,15.392 20.692,14.9 20.908,14.332 C21.124,13.764 21.232,13.168 21.232,12.544 L21.232,12.544 L21.232,12.112 C21.232,11.424 21.096,10.772 20.824,10.156 C20.552,9.54 20.176,8.996 19.696,8.524 C19.216,8.052 18.64,7.68 17.968,7.408 C17.296,7.136 16.56,7 15.76,7 C14.816,7 13.984,7.152 13.264,7.456 C12.544,7.76 11.944,8.168 11.464,8.68 C10.984,9.192 10.62,9.784 10.372,10.456 C10.124,11.128 10,11.832 10,12.568 L10,12.568 L10,13.72 L12.016,13.72 L12.016,12.712 C12.016,11.56 12.344,10.632 13,9.928 C13.656,9.224 14.56,8.872 15.712,8.872 C16.24,8.872 16.72,8.964 17.152,9.148 C17.584,9.332 17.952,9.58 18.256,9.892 C18.56,10.204 18.796,10.568 18.964,10.984 C19.132,11.4 19.216,11.848 19.216,12.328 L19.216,12.328 L19.216,12.472 C19.216,13.336 18.98,14.032 18.508,14.56 C18.036,15.088 17.44,15.352 16.72,15.352 L16.72,15.352 L16.096,15.352 C15.488,15.352 14.992,15.544 14.608,15.928 C14.224,16.312 14.032,16.808 14.032,17.416 L14.032,17.416 L14.032,19.672 L15.952,19.672 Z M15.016,24.472 C15.48,24.472 15.876,24.308 16.204,23.98 C16.532,23.652 16.696,23.256 16.696,22.792 C16.696,22.328 16.532,21.932 16.204,21.604 C15.876,21.276 15.48,21.112 15.016,21.112 C14.552,21.112 14.156,21.276 13.828,21.604 C13.5,21.932 13.336,22.328 13.336,22.792 C13.336,23.256 13.5,23.652 13.828,23.98 C14.156,24.308 14.552,24.472 15.016,24.472 Z" id="?" fill="#F9FCFD" fill-rule="nonzero"></path>
        </g>
    </g>
</svg>