<svg xmlns="http://www.w3.org/2000/svg" width="56" height="56" viewBox="0 0 56 56"><path fill="#F9FCFD" d="M28.5039,13 C33.57735,13 37.7046,16.898035 37.7046,21.68977 C37.7046,25.662178 34.8641295,29.011194 31.0032515,30.0431497 L30.73845,30.1099 L30.73845,32.21215 L32.26155,32.21215 C33.2872643,32.21215 34.1308017,32.9627622 34.2088127,33.9132903 L34.2147,34.0573 L34.2147,34.8994 L44.34,34.8994 C44.6713636,34.8994 44.9457025,35.1301025 44.9928437,35.4306885 L45,35.5228 L45,39.68605 C45,39.9990045 44.7557851,40.2581574 44.4375282,40.3026897 L44.34,40.30945 L34.2147,40.30945 L34.2147,41.15515 C34.2147,42.1240071 33.4200061,42.9207554 32.4139679,42.9944393 L32.26155,43 L24.74595,43 C23.7202071,43 22.8765867,42.2493878 22.7985679,41.2991189 L22.79268,41.15515 L22.79268,40.30945 L12.660006,40.30945 C12.3286546,40.30945 12.0543008,40.0787475 12.0071567,39.7781615 L12,39.68605 L12,35.5228 C12,35.2098455 12.244231,34.9506926 12.5624807,34.9061603 L12.660006,34.8994 L22.79268,34.8994 L22.79268,34.0573 C22.79268,33.0881571 23.5874555,32.2913952 24.5935274,32.2177108 L24.74595,32.21215 L26.268975,32.21215 L26.268975,30.1099 C22.27407,29.16295 19.30284,25.75237 19.30284,21.68977 C19.30284,16.898035 23.43042,13 28.5039,13 Z M32.26155,33.4588 L24.74595,33.4588 C24.4286591,33.4588 24.1649095,33.6807008 24.1195773,33.9689803 L24.112695,34.0573 L24.112695,41.15515 C24.112695,41.4548773 24.3476,41.704026 24.6525338,41.7468487 L24.74595,41.75335 L32.26155,41.75335 C32.5788682,41.75335 32.8425087,41.5314492 32.8878208,41.2433951 L32.8947,41.15515 L32.8947,34.0573 C32.8947,33.7573 32.6599066,33.5081264 32.3549705,33.4653015 L32.26155,33.4588 Z M43.68,36.1462 L34.2147,36.1462 L34.2147,39.06265 L43.68,39.06265 L43.68,36.1462 Z M22.79268,36.1462 L13.319961,36.1462 L13.319961,39.06265 L22.79268,39.06265 L22.79268,36.1462 Z M29.41845,30.3361 C29.11755,30.3643 28.8126,30.3799 28.5039,30.3799 C28.298,30.3799 28.0937667,30.3729667 27.8912889,30.3599889 L27.5889,30.3361 L27.5889,32.21215 L29.41845,32.21215 L29.41845,30.3361 Z M28.5039,14.246665 C24.158115,14.246665 20.622855,17.58562 20.622855,21.68977 C20.622855,25.79422 24.158115,29.1331 28.5039,29.1331 C32.84925,29.1331 36.3846,25.79422 36.3846,21.68977 C36.3846,17.58562 32.84925,14.246665 28.5039,14.246665 Z M31.76685,17.711665 C32.049,17.42944 32.5062,17.42944 32.78835,17.711665 C33.042285,17.9656 33.0676785,18.3613012 32.8645305,18.6435894 L32.78835,18.733135 L30.075,21.446575 C30.25245,21.78388 30.3624,22.161865 30.3624,22.56868 C30.3624,23.90935 29.27175,24.9999963 27.93135,24.9999963 C26.59059,24.9999963 25.5,23.90935 25.5,22.56868 C25.5,21.228325 26.59059,20.137675 27.93135,20.137675 C28.27035,20.137675 28.58935,20.2140813 28.8814056,20.3422063 L29.05335,20.42509 L31.76685,17.711665 Z M27.93135,21.58246 C27.38745,21.58246 26.944725,22.02475 26.944725,22.56868 C26.944725,23.11255 27.38745,23.55523 27.93135,23.55523 C28.47525,23.55523 28.9176,23.11255 28.9176,22.56868 C28.9176,22.02475 28.47525,21.58246 27.93135,21.58246 Z"/></svg>