<svg width="33" height="30" xmlns="http://www.w3.org/2000/svg"><defs><filter color-interpolation-filters="auto" id="a"><feColorMatrix in="SourceGraphic" values="0 0 0 0 0.974977 0 0 0 0 0.989612 0 0 0 0 0.991508 0 0 0 1.000000 0"/></filter></defs><g transform="translate(-444 -2527)" filter="url(#a)" fill="none" fill-rule="evenodd"><g fill="#1E3791" fill-rule="nonzero"><path d="M444.66 2554.31h10.133v.845c0 1.017.876 1.845 1.953 1.845h7.516c1.077 0 1.953-.828 1.953-1.845v-.846h10.125c.365 0 .66-.279.66-.623v-4.163c0-.344-.296-.624-.66-.624h-10.125v-.842c0-1.017-.876-1.845-1.953-1.845h-1.524v-2.102c3.996-.947 6.967-4.358 6.967-8.42 0-4.792-4.128-8.69-9.201-8.69-5.074 0-9.201 3.898-9.201 8.69 0 4.062 2.971 7.473 6.966 8.42v2.102h-1.523c-1.077 0-1.953.828-1.953 1.845v.842H444.66c-.364 0-.66.28-.66.624v4.163c0 .344.296.623.66.623Zm31.02-4.164v2.917h-9.465v-2.917h9.465Zm-23.057-14.456c0-4.104 3.535-7.443 7.88-7.443 4.346 0 7.882 3.339 7.882 7.443 0 4.104-3.536 7.443-7.881 7.443-4.346 0-7.881-3.339-7.881-7.443Zm6.966 8.646a9.806 9.806 0 0 0 1.83 0v1.876h-1.83v-1.876Zm-3.476 3.721c0-.33.284-.598.633-.598h7.516c.349 0 .633.268.633.598v7.098c0 .33-.284.598-.633.598h-7.516c-.35 0-.633-.268-.633-.598v-7.098Zm-10.793 2.09h9.473v2.916h-9.473v-2.917Z"/><path d="M462.362 2536.569a2.4 2.4 0 0 0-.287-1.122l2.713-2.714a.722.722 0 1 0-1.021-1.021l-2.714 2.713a2.4 2.4 0 0 0-1.122-.287 2.434 2.434 0 0 0-2.431 2.43 2.434 2.434 0 0 0 2.431 2.432c1.34 0 2.431-1.09 2.431-2.431Zm-3.417 0a.988.988 0 0 1 1.973 0 .988.988 0 0 1-1.973 0Z"/></g></g></svg>