<?xml version="1.0" encoding="UTF-8"?>
<svg width="33px" height="30px" viewBox="0 0 33 30" version="1.1" xmlns="http://www.w3.org/2000/svg" xmlns:xlink="http://www.w3.org/1999/xlink">
    <title>pressure</title>
    <defs>
        <filter color-interpolation-filters="auto" id="filter-1">
            <feColorMatrix in="SourceGraphic" type="matrix" values="0 0 0 0 0.974977 0 0 0 0 0.989612 0 0 0 0 0.991508 0 0 0 1.000000 0"></feColorMatrix>
        </filter>
    </defs>
    <g id="Homepage" stroke="none" stroke-width="1" fill="none" fill-rule="evenodd">
        <g id="pressure" transform="translate(-444.000000, -2527.000000)" filter="url(#filter-1)">
            <g transform="translate(444.000000, 2527.000000)" id="Group" fill="#1E3791" fill-rule="nonzero">
                <path d="M0.660006,27.30945 L10.79268,27.30945 L10.79268,28.15515 C10.79268,29.17245 11.66892,30 12.74595,30 L20.26155,30 C21.33855,30 22.2147,29.17245 22.2147,28.15515 L22.2147,27.30945 L32.34,27.30945 C32.7045,27.30945 33,27.0303 33,26.68605 L33,22.5228 C33,22.17855 32.7045,21.8994 32.34,21.8994 L22.2147,21.8994 L22.2147,21.0573 C22.2147,20.0397 21.33855,19.21215 20.26155,19.21215 L18.73845,19.21215 L18.73845,17.1099 C22.73355,16.1631 25.7046,12.75246 25.7046,8.68977 C25.7046,3.898035 21.57735,0 16.5039,0 C11.43042,0 7.30284,3.898035 7.30284,8.68977 C7.30284,12.75237 10.27407,16.16295 14.268975,17.1099 L14.268975,19.21215 L12.74595,19.21215 C11.66892,19.21215 10.79268,20.0397 10.79268,21.0573 L10.79268,21.8994 L0.660006,21.8994 C0.2955195,21.8994 0,22.17855 0,22.5228 L0,26.68605 C0,27.0303 0.2955195,27.30945 0.660006,27.30945 Z M31.68,23.1462 L31.68,26.06265 L22.2147,26.06265 L22.2147,23.1462 L31.68,23.1462 Z M8.622855,8.68977 C8.622855,4.58562 12.158115,1.246665 16.5039,1.246665 C20.84925,1.246665 24.3846,4.58562 24.3846,8.68977 C24.3846,12.79422 20.84925,16.1331 16.5039,16.1331 C12.158115,16.1331 8.622855,12.79422 8.622855,8.68977 Z M15.5889,17.3361 C15.88995,17.3643 16.19505,17.3799 16.5039,17.3799 C16.8126,17.3799 17.11755,17.3643 17.41845,17.3361 L17.41845,19.21215 L15.5889,19.21215 L15.5889,17.3361 Z M12.112695,21.0573 C12.112695,20.7273 12.39693,20.4588 12.74595,20.4588 L14.92893,20.4588 L18.07845,20.4588 L20.26155,20.4588 C20.6106,20.4588 20.8947,20.7273 20.8947,21.0573 L20.8947,28.15515 C20.8947,28.48485 20.6106,28.75335 20.26155,28.75335 L12.74595,28.75335 C12.39693,28.75335 12.112695,28.48485 12.112695,28.15515 L12.112695,21.0573 Z M1.319961,23.1462 L10.79268,23.1462 L10.79268,26.06265 L1.319961,26.06265 L1.319961,23.1462 Z" id="Shape"></path>
                <path d="M18.3624,9.56868 C18.3624,9.161865 18.25245,8.78388 18.075,8.446575 L20.78835,5.733135 C21.0705,5.450985 21.0705,4.993815 20.78835,4.711665 C20.5062,4.42944 20.049,4.42944 19.76685,4.711665 L17.05335,7.42509 C16.71615,7.2477 16.33815,7.137675 15.93135,7.137675 C14.59059,7.137675 13.5,8.228325 13.5,9.56868 C13.5,10.90935 14.59059,11.9999963 15.93135,11.9999963 C17.27175,11.9999963 18.3624,10.90935 18.3624,9.56868 Z M14.944725,9.56868 C14.944725,9.02475 15.38745,8.58246 15.93135,8.58246 C16.47525,8.58246 16.9176,9.02475 16.9176,9.56868 C16.9176,10.11255 16.47525,10.55523 15.93135,10.55523 C15.38745,10.55523 14.944725,10.11255 14.944725,9.56868 Z" id="Shape"></path>
            </g>
        </g>
    </g>
</svg>