<svg width="51" height="51" xmlns="http://www.w3.org/2000/svg"><defs><filter color-interpolation-filters="auto" id="a"><feColorMatrix in="SourceGraphic" values="0 0 0 0 0.974977 0 0 0 0 0.989612 0 0 0 0 0.991508 0 0 0 1.000000 0"/></filter><filter color-interpolation-filters="auto" id="b"><feColorMatrix in="SourceGraphic" values="0 0 0 0 0.511792 0 0 0 0 0.190149 0 0 0 0 1.000000 0 0 0 1.000000 0"/></filter></defs><g fill="none" fill-rule="evenodd"><g filter="url(#a)"><circle fill="#D8D8D8" cx="13.5" cy="1.5" r="1.5"/><circle fill="#D8D8D8" cx="31.5" cy="1.5" r="1.5"/><circle fill="#D8D8D8" cx="37.5" cy="7.5" r="1.5"/><circle fill="#D8D8D8" cx="43.5" cy="1.5" r="1.5"/><circle fill="#D8D8D8" cx="49.5" cy="1.5" r="1.5"/><circle fill="#D8D8D8" cx="43.5" cy="7.5" r="1.5"/><circle fill="#D8D8D8" cx="49.5" cy="7.5" r="1.5"/><circle fill="#D8D8D8" cx="7.5" cy="7.5" r="1.5"/><circle fill="#D8D8D8" cx="25.5" cy="1.5" r="1.5"/><circle fill="#D8D8D8" cx="25.5" cy="7.5" r="1.5"/><circle fill="#D8D8D8" cx="1.5" cy="1.5" r="1.5"/><circle fill="#D8D8D8" cx="1.5" cy="7.5" r="1.5"/><circle fill="#D8D8D8" cx="19.5" cy="1.5" r="1.5"/><circle fill="#D8D8D8" cx="19.5" cy="7.5" r="1.5"/><circle fill="#D8D8D8" cx="37.5" cy="31.5" r="1.5"/><circle fill="#D8D8D8" cx="43.5" cy="25.5" r="1.5"/><circle fill="#D8D8D8" cx="49.5" cy="25.5" r="1.5"/><circle fill="#D8D8D8" cx="49.5" cy="37.5" r="1.5"/><circle fill="#D8D8D8" cx="49.5" cy="49.5" r="1.5"/><circle fill="#D8D8D8" cx="7.5" cy="31.5" r="1.5"/><circle fill="#D8D8D8" cx="25.5" cy="25.5" r="1.5"/><circle fill="#D8D8D8" cx="25.5" cy="31.5" r="1.5"/><circle fill="#D8D8D8" cx="1.5" cy="25.5" r="1.5"/><circle fill="#D8D8D8" cx="19.5" cy="25.5" r="1.5"/><circle fill="#D8D8D8" cx="19.5" cy="31.5" r="1.5"/><circle fill="#D8D8D8" cx="37.5" cy="13.5" r="1.5"/><circle fill="#D8D8D8" cx="37.5" cy="19.5" r="1.5"/><circle fill="#D8D8D8" cx="43.5" cy="13.5" r="1.5"/><circle fill="#D8D8D8" cx="49.5" cy="13.5" r="1.5"/><circle fill="#D8D8D8" cx="43.5" cy="19.5" r="1.5"/><circle fill="#D8D8D8" cx="49.5" cy="19.5" r="1.5"/><circle fill="#D8D8D8" cx="49.5" cy="31.5" r="1.5"/><circle fill="#D8D8D8" cx="49.5" cy="43.5" r="1.5"/><circle fill="#D8D8D8" cx="7.5" cy="13.5" r="1.5"/><circle fill="#D8D8D8" cx="7.5" cy="19.5" r="1.5"/><circle fill="#D8D8D8" cx="25.5" cy="13.5" r="1.5"/><circle fill="#D8D8D8" cx="25.5" cy="19.5" r="1.5"/><circle fill="#D8D8D8" cx="1.5" cy="13.5" r="1.5"/><circle fill="#D8D8D8" cx="1.5" cy="19.5" r="1.5"/><circle fill="#D8D8D8" cx="19.5" cy="13.5" r="1.5"/><circle fill="#D8D8D8" cx="19.5" cy="19.5" r="1.5"/><circle fill="#D8D8D8" cx="13.5" cy="37.5" r="1.5"/><circle fill="#D8D8D8" cx="13.5" cy="43.5" r="1.5"/><circle fill="#D8D8D8" cx="13.5" cy="49.5" r="1.5"/><circle fill="#D8D8D8" cx="31.5" cy="37.5" r="1.5"/><circle fill="#D8D8D8" cx="31.5" cy="43.5" r="1.5"/><circle fill="#D8D8D8" cx="31.5" cy="49.5" r="1.5"/><circle fill="#D8D8D8" cx="37.5" cy="37.5" r="1.5"/><circle fill="#D8D8D8" cx="37.5" cy="43.5" r="1.5"/><circle fill="#D8D8D8" cx="37.5" cy="49.5" r="1.5"/><circle fill="#D8D8D8" cx="43.5" cy="37.5" r="1.5"/><circle fill="#D8D8D8" cx="43.5" cy="43.5" r="1.5"/><circle fill="#D8D8D8" cx="7.5" cy="37.5" r="1.5"/><circle fill="#D8D8D8" cx="7.5" cy="43.5" r="1.5"/><circle fill="#D8D8D8" cx="7.5" cy="49.5" r="1.5"/><circle fill="#D8D8D8" cx="25.5" cy="37.5" r="1.5"/><circle fill="#D8D8D8" cx="25.5" cy="43.5" r="1.5"/><circle fill="#D8D8D8" cx="25.5" cy="49.5" r="1.5"/><circle fill="#D8D8D8" cx="1.5" cy="37.5" r="1.5"/><circle fill="#D8D8D8" cx="1.5" cy="43.5" r="1.5"/><circle fill="#D8D8D8" cx="19.5" cy="37.5" r="1.5"/><circle fill="#D8D8D8" cx="19.5" cy="43.5" r="1.5"/><circle fill="#D8D8D8" cx="19.5" cy="49.5" r="1.5"/><circle fill="#8330FF" cx="37.5" cy="1.5" r="1.5"/><circle fill="#8330FF" cx="7.5" cy="1.5" r="1.5"/><circle fill="#8330FF" cx="13.5" cy="25.5" r="1.5"/><circle fill="#8330FF" cx="13.5" cy="31.5" r="1.5"/><circle fill="#8330FF" cx="31.5" cy="25.5" r="1.5"/><circle fill="#8330FF" cx="31.5" cy="31.5" r="1.5"/><circle fill="#8330FF" cx="37.5" cy="25.5" r="1.5"/><circle fill="#8330FF" cx="43.5" cy="31.5" r="1.5"/><circle fill="#8330FF" cx="7.5" cy="25.5" r="1.5"/><circle fill="#8330FF" cx="1.5" cy="31.5" r="1.5"/><circle fill="#8330FF" cx="13.5" cy="13.5" r="1.5"/><circle fill="#8330FF" cx="13.5" cy="19.5" r="1.5"/><circle fill="#8330FF" cx="31.5" cy="13.5" r="1.5"/><circle fill="#8330FF" cx="31.5" cy="19.5" r="1.5"/><circle fill="#8330FF" cx="43.5" cy="49.5" r="1.5"/><circle fill="#8330FF" cx="1.5" cy="49.5" r="1.5"/></g><g filter="url(#b)"><g transform="translate(1.5 1.5)"><path d="M0 48V38a8 8 0 0 1 8-8h10v-6h-2a4 4 0 0 1-4-4V4a4 4 0 0 1 4-4h16a4 4 0 0 1 4 4v16a4 4 0 0 1-4 4h-2 0v6h10a8 8 0 0 1 8 8v10h0" stroke="#8330FF" stroke-width="3" stroke-linecap="round" stroke-linejoin="round"/><path stroke="#8330FF" stroke-width="3" stroke-linecap="round" stroke-linejoin="round" d="M18 12v6h12v-6"/><circle fill="#8330FF" cx="18" cy="6" r="1.5"/><circle fill="#8330FF" cx="30" cy="6" r="1.5"/><path stroke="#979797" stroke-width="3" stroke-linecap="round" stroke-linejoin="round" d="M12 42v6m24-6v6"/></g></g></g></svg>