<?xml version="1.0" encoding="UTF-8"?>
<svg width="26px" height="34px" viewBox="0 0 26 34" version="1.1" xmlns="http://www.w3.org/2000/svg" xmlns:xlink="http://www.w3.org/1999/xlink">
    <title>raspberry-pi</title>
    <defs>
        <filter color-interpolation-filters="auto" id="filter-1">
            <feColorMatrix in="SourceGraphic" type="matrix" values="0 0 0 0 0.974977 0 0 0 0 0.989612 0 0 0 0 0.991508 0 0 0 1.000000 0"></feColorMatrix>
        </filter>
    </defs>
    <g id="Homepage" stroke="none" stroke-width="1" fill="none" fill-rule="evenodd">
        <g id="raspberry-pi" transform="translate(-146.000000, -2381.000000)" filter="url(#filter-1)">
            <g transform="translate(146.000000, 2381.000000)">
                <path d="M6.67388353,0 C6.81556916,0.207044471 7.10696122,0.406124856 6.82358928,0.679529455 C6.47071145,0.406124856 6.11248732,0.201735307 5.26237218,0.0637058864 C5.47623754,0.268095436 5.81574896,0.472485664 5.60455675,0.679529455 C5.17949918,0.544154277 4.69562899,0.408779778 4.12888579,0.339764728 C4.41225773,0.613169327 4.61810297,0.817558876 4.40691075,0.955588296 C3.98185319,0.751198747 3.28946461,0.607860163 2.65321483,0.743235342 L3.05955901,1.16794125 C3.12906559,1.2369563 2.07043208,1.23164714 1.4341823,1.23164714 C1.64537451,1.57406611 1.93409274,1.91648576 2.07577837,2.46329428 C2.00627247,2.53230933 1.65339463,2.46329428 1.37002269,2.46329428 C1.65339463,3.14813289 2.22013783,3.27554467 2.50350908,3.48258846 C2.28964372,3.61796364 2.01696574,3.55160351 1.7335938,3.48258846 C1.94478601,3.96038261 2.42598306,4.30811074 2.78153404,4.65052971 C2.70935432,4.71954476 2.56499554,4.80448594 2.13993797,4.73547089 C2.49281581,5.14690491 2.92856665,5.48136048 3.42313011,5.75476507 C3.28144449,5.89014025 3.00074638,5.88217685 2.71737444,5.88217685 C3.13975886,6.36262524 3.71184835,6.58559584 4.27859154,6.85900044 C3.99522029,7.06338999 3.76531468,6.98641221 3.55144933,6.98641221 C3.90700031,7.32883118 4.56196348,7.46155212 5.19821257,7.66594167 C5.05652695,7.87033122 4.96830766,7.87298614 4.68493572,7.94200051 C5.3211855,8.28441948 6.31031243,8.15700771 6.52417778,8.4304123 C6.52417778,8.63480185 6.32902582,8.76486855 6.11783361,8.83388292 C7.17914027,8.83388292 10.002163,8.77283127 10.566233,6.64664748 C9.50492636,5.4840154 7.51597855,4.10637543 4.1930454,2.46329428 C6.81022287,3.28616231 9.14135526,4.45675781 11.122283,6.03082392 C13.4560885,5.00356633 11.8253655,2.3279191 10.6945522,1.23164714 C10.6250463,1.50505174 10.5742531,1.65104456 10.5020734,1.72005893 C10.1491956,1.30862491 9.86315049,0.894536652 9.36858703,0.552117682 C9.36858703,0.759162153 9.50225322,0.963551702 9.21888128,1.16794125 C8.93551002,0.825522282 8.57461206,0.54946344 8.14955449,0.276058841 C8.36074671,0.618477811 8.22708052,0.753852989 8.08539489,0.89188241 C7.73251705,0.54946344 7.38231236,0.273404599 6.67388353,0 Z M19.22778,0 C18.5861839,0.207044471 18.2359792,0.552117682 17.8804282,0.828176524 C17.7387426,0.690147103 17.6024033,0.557426846 17.8162686,0.212352955 C17.3163582,0.488411796 17.0303138,0.759162153 16.7469418,1.10423536 C16.4635706,0.966205944 16.5972361,0.695456267 16.5972361,0.488411796 C16.0999995,0.902500058 15.8193007,1.24226479 15.4637497,1.65635305 C15.39157,1.65635305 15.3193909,1.44400009 15.2498843,1.16794125 C14.1110517,2.20316225 12.5551808,4.8867722 14.9718594,5.98835332 C16.9634803,4.40366957 19.310653,3.31536034 21.94387,2.42082368 C18.5995503,4.07452249 16.5972361,5.4548167 15.5279093,6.62541219 C16.0973256,8.76221363 18.9524281,8.88166267 20.0190818,8.81264762 C19.8052164,8.6746182 19.6635308,8.61622148 19.5913511,8.40917701 C19.8773962,8.27114759 20.7916702,8.41448617 21.4305931,8.06941228 C21.1472219,8.00039791 21.0803884,8.00039791 20.9387028,7.79335344 C21.5081192,7.58630965 22.2085285,7.43766258 22.5640795,7.09258869 C22.3528873,7.09258869 22.1416958,7.17222139 21.8583239,6.96517692 C22.3555611,6.69177232 22.9944834,6.40244159 23.419541,5.98835332 C23.1361697,5.91933895 22.785965,5.9299566 22.7137853,5.86094155 C23.2110226,5.51586834 23.6414264,5.16548596 23.9969774,4.82041207 C23.6414264,4.88942712 23.4275611,4.82572124 23.3553813,4.75670619 C23.7109323,4.34261792 24.2108428,4.07186825 24.4247081,3.58876494 C24.1413369,3.72679436 23.8472717,3.72679436 23.6334063,3.58876494 C23.7750919,3.31270609 24.3552022,3.17467667 24.6385735,2.48452957 C24.3552022,2.48452957 24.0049975,2.55354462 23.9328178,2.48452957 C24.0771773,1.93241189 24.3605485,1.57672103 24.5744139,1.23164714 C23.9328178,1.23164714 22.9356708,1.2369563 22.863491,1.16794125 L23.2912217,0.764470637 C22.6496257,0.626441217 22.0160497,0.817558876 21.5161393,0.955588296 C21.3022739,0.748544505 21.510793,0.546809198 21.7941642,0.339764728 C21.2274211,0.408779778 20.7221643,0.541500035 20.2971067,0.679529455 C20.0832414,0.472485664 20.4468125,0.270750357 20.6606779,0.0637058864 C19.8078896,0.270750357 19.4550117,0.472485664 19.0994608,0.679529455 C18.8160895,0.403470614 19.0834212,0.207044471 19.22778,0 Z M13.1967769,9.00376528 C11.2933752,9.00376528 9.38997356,10.4557288 9.38997356,11.2547066 C9.38997356,12.2713465 10.9298041,13.3782362 13.1967769,13.3782362 C15.5386026,13.3782362 17.0035803,12.5792583 17.0035803,11.4882949 C17.0035803,10.2539935 14.8782931,9.00376528 13.1967769,9.00376528 Z M7.42241228,9.76823592 C4.74909532,9.78681697 2.67460137,11.62367 2.80292058,14.6735892 C2.87510031,16.0538834 9.76958491,10.0920745 8.59867174,9.8744124 C8.19500071,9.8027431 7.80469678,9.76558168 7.42241228,9.76823592 Z M18.628957,9.8744124 C18.2493463,9.86379475 17.8563685,9.89564769 17.4526975,9.95935358 C16.281785,10.1053464 23.1548824,16.04592 23.2270621,14.7372951 C23.2912217,11.7510818 21.2889075,9.94342745 18.628957,9.8744124 Z M17.2816052,13.5905273 C16.6480293,13.5932433 16.0117795,13.7604715 15.4637497,14.1002362 C13.7795603,15.1911997 13.4854951,17.7155456 14.8007671,19.7488248 C16.1908919,21.7821047 18.6984636,22.52534 20.3826529,21.3627072 C22.0641691,20.2717438 22.3421941,17.7261632 21.024249,15.6928834 C20.1179943,14.3444421 18.6744032,13.5826257 17.2816052,13.5905273 Z M8.74837749,13.7604715 C7.47587862,13.8693022 6.19268648,14.6337728 5.36930486,15.9052363 C3.97918004,17.9385162 4.27591839,20.4840967 6.03228746,21.5750602 C7.71647749,22.6660237 10.2026619,21.9440236 11.5927867,19.982413 C12.9829116,17.9491338 12.6861732,15.4035526 10.9298041,14.3125892 C10.2721685,13.8772656 9.51294649,13.6967656 8.74837749,13.7604715 Z M23.6334063,15.9689422 C21.9786229,15.9822141 23.1923092,23.5871048 24.6813466,22.9553544 C26.2906837,21.6467295 26.8761396,17.8057953 23.8044986,15.9901775 C23.745686,15.9742514 23.6868727,15.9689422 23.6334063,15.9689422 Z M2.3965764,16.096354 C2.34311006,16.096354 2.28429743,16.1016631 2.22548412,16.1175893 C-0.848830042,17.8615377 -0.335553186,21.7953766 1.34863616,23.1040015 C2.83767353,23.7384061 4.05135977,16.1096259 2.3965764,16.096354 Z M13.2823231,21.2777661 C10.9404974,21.2777661 9.1119486,23.0349871 9.1119486,25.1425898 L9.1119486,25.2062957 C9.1119486,27.3138991 10.9404974,28.9861783 13.2823231,28.9861783 C15.6214756,28.9861783 17.4526975,27.2501933 17.4526975,25.1425898 C17.4526975,23.0376414 15.5492958,21.3520896 13.2823231,21.2777661 Z M22.542693,22.785472 C21.5589124,22.8013989 20.3692865,23.7410603 19.270553,24.9939428 C17.9526079,26.4459063 17.2281389,29.195877 18.1798397,30.0691784 C19.1315406,30.7221641 21.5375258,30.6478405 23.2912217,28.1792371 C24.534314,26.5069579 24.0985638,23.8313107 23.4409275,23.1040015 C23.1655757,22.88634 22.8715112,22.7801636 22.542693,22.785472 Z M3.53006279,23.358825 C3.27609751,23.3853695 3.02213291,23.4782734 2.80292058,23.6136486 C2.07043208,24.1976192 1.93943903,26.1539206 3.03817247,28.1155312 C4.64750962,30.4407961 6.89844216,30.6504948 7.850143,30.0691784 C8.87402356,29.3418699 8.29391395,26.7989429 7.12300078,25.4186487 C5.99218754,24.1206414 4.63146938,23.2499943 3.53006279,23.358825 Z M12.6193404,30.1541196 C11.0153503,30.2576418 9.1119486,30.9000092 9.1119486,31.6618256 C9.1119486,32.3148112 11.1490165,34.0693774 13.1967769,33.9977081 C15.1723583,34.0720316 17.2174456,32.3201197 17.2174456,31.4494726 C17.1452659,30.6478405 14.9638392,30.0824503 13.2823231,30.1541196 C13.0711308,30.1461562 12.849246,30.1381934 12.6193404,30.1541196 Z" id="Shape" fill="#000000" fill-rule="nonzero"></path>
            </g>
        </g>
    </g>
</svg>