<svg xmlns="http://www.w3.org/2000/svg" width="56" height="56" viewBox="0 0 56 56"><path fill="#F9FCFD" d="M21.6738835,11 C21.8155692,11.2070445 22.1069612,11.4061249 21.8235893,11.6795295 C21.4707114,11.4061249 21.1124873,11.2017353 20.2623722,11.0637059 C20.4762375,11.2680954 20.815749,11.4724857 20.6045568,11.6795295 C20.1794992,11.5441543 19.695629,11.4087798 19.1288858,11.3397647 C19.4122577,11.6131693 19.618103,11.8175589 19.4069108,11.9555883 C18.9818532,11.7511987 18.2894646,11.6078602 17.6532148,11.7432353 L18.059559,12.1679413 C18.1290656,12.2369563 17.0704321,12.2316471 16.4341823,12.2316471 C16.6453745,12.5740661 16.9340927,12.9164858 17.0757784,13.4632943 C17.0062725,13.5323093 16.6533946,13.4632943 16.3700227,13.4632943 C16.6533946,14.1481329 17.2201378,14.2755447 17.5035091,14.4825885 C17.2896437,14.6179636 17.0169657,14.5516035 16.7335938,14.4825885 C16.944786,14.9603826 17.4259831,15.3081107 17.781534,15.6505297 C17.7093543,15.7195448 17.5649955,15.8044859 17.139938,15.7354709 C17.4928158,16.1469049 17.9285666,16.4813605 18.4231301,16.7547651 C18.2814445,16.8901403 18.0007464,16.8821768 17.7173744,16.8821768 C18.1397589,17.3626252 18.7118483,17.5855958 19.2785915,17.8590004 C18.9952203,18.06339 18.7653147,17.9864122 18.5514493,17.9864122 C18.9070003,18.3288312 19.5619635,18.4615521 20.1982126,18.6659417 C20.0565269,18.8703312 19.9683077,18.8729861 19.6849357,18.9420005 C20.3211855,19.2844195 21.3103124,19.1570077 21.5241778,19.4304123 C21.5241778,19.6348019 21.3290258,19.7648685 21.1178336,19.8338829 C22.1791403,19.8338829 25.002163,19.7728313 25.566233,17.6466475 C24.5049264,16.4840154 22.5159785,15.1063754 19.1930454,13.4632943 C21.8102229,14.2861623 24.1413553,15.4567578 26.122283,17.0308239 C28.4560885,16.0035663 26.8253655,13.3279191 25.6945522,12.2316471 C25.6250463,12.5050517 25.5742531,12.6510446 25.5020734,12.7200589 C25.1491956,12.3086249 24.8631505,11.8945367 24.368587,11.5521177 C24.368587,11.7591622 24.5022532,11.9635517 24.2188813,12.1679413 C23.93551,11.8255223 23.5746121,11.5494634 23.1495545,11.2760588 C23.3607467,11.6184778 23.2270805,11.753853 23.0853949,11.8918824 C22.732517,11.5494634 22.3823124,11.2734046 21.6738835,11 Z M34.22778,11 C33.5861839,11.2070445 33.2359792,11.5521177 32.8804282,11.8281765 C32.7387426,11.6901471 32.6024033,11.5574268 32.8162686,11.212353 C32.3163582,11.4884118 32.0303138,11.7591622 31.7469418,12.1042354 C31.4635706,11.9662059 31.5972361,11.6954563 31.5972361,11.4884118 C31.0999995,11.9025001 30.8193007,12.2422648 30.4637497,12.656353 C30.39157,12.656353 30.3193909,12.4440001 30.2498843,12.1679413 C29.1110517,13.2031622 27.5551808,15.8867722 29.9718594,16.9883533 C31.9634803,15.4036696 34.310653,14.3153603 36.94387,13.4208237 C33.5995503,15.0745225 31.5972361,16.4548167 30.5279093,17.6254122 C31.0973256,19.7622136 33.9524281,19.8816627 35.0190818,19.8126476 C34.8052164,19.6746182 34.6635308,19.6162215 34.5913511,19.409177 C34.8773962,19.2711476 35.7916702,19.4144862 36.4305931,19.0694123 C36.1472219,19.0003979 36.0803884,19.0003979 35.9387028,18.7933534 C36.5081192,18.5863096 37.2085285,18.4376626 37.5640795,18.0925887 C37.3528873,18.0925887 37.1416958,18.1722214 36.8583239,17.9651769 C37.3555611,17.6917723 37.9944834,17.4024416 38.419541,16.9883533 C38.1361697,16.919339 37.785965,16.9299566 37.7137853,16.8609416 C38.2110226,16.5158683 38.6414264,16.165486 38.9969774,15.8204121 C38.6414264,15.8894271 38.4275611,15.8257212 38.3553813,15.7567062 C38.7109323,15.3426179 39.2108428,15.0718682 39.4247081,14.5887649 C39.1413369,14.7267944 38.8472717,14.7267944 38.6334063,14.5887649 C38.7750919,14.3127061 39.3552022,14.1746767 39.6385735,13.4845296 C39.3552022,13.4845296 39.0049975,13.5535446 38.9328178,13.4845296 C39.0771773,12.9324119 39.3605485,12.576721 39.5744139,12.2316471 C38.9328178,12.2316471 37.9356708,12.2369563 37.863491,12.1679413 L38.2912217,11.7644706 C37.6496257,11.6264412 37.0160497,11.8175589 36.5161393,11.9555883 C36.3022739,11.7485445 36.510793,11.5468092 36.7941642,11.3397647 C36.2274211,11.4087798 35.7221643,11.5415 35.2971067,11.6795295 C35.0832414,11.4724857 35.4468125,11.2707504 35.6606779,11.0637059 C34.8078896,11.2707504 34.4550117,11.4724857 34.0994608,11.6795295 C33.8160895,11.4034706 34.0834212,11.2070445 34.22778,11 Z M28.1967769,20.0037653 C26.2933752,20.0037653 24.3899736,21.4557288 24.3899736,22.2547066 C24.3899736,23.2713465 25.9298041,24.3782362 28.1967769,24.3782362 C30.5386026,24.3782362 32.0035803,23.5792583 32.0035803,22.4882949 C32.0035803,21.2539935 29.8782931,20.0037653 28.1967769,20.0037653 Z M22.4224123,20.7682359 C19.7490953,20.786817 17.6746014,22.62367 17.8029206,25.6735892 C17.8751003,27.0538834 24.7695849,21.0920745 23.5986717,20.8744124 C23.1950007,20.8027431 22.8046968,20.7655817 22.4224123,20.7682359 Z M33.628957,20.8744124 C33.2493463,20.8637947 32.8563685,20.8956477 32.4526975,20.9593536 C31.281785,21.1053464 38.1548824,27.04592 38.2270621,25.7372951 C38.2912217,22.7510818 36.2889075,20.9434274 33.628957,20.8744124 Z M32.2816052,24.5905273 C31.6480293,24.5932433 31.0117795,24.7604715 30.4637497,25.1002362 C28.7795603,26.1911997 28.4854951,28.7155456 29.8007671,30.7488248 C31.1908919,32.7821047 33.6984636,33.52534 35.3826529,32.3627072 C37.0641691,31.2717438 37.3421941,28.7261632 36.024249,26.6928834 C35.1179943,25.3444421 33.6744032,24.5826257 32.2816052,24.5905273 Z M23.7483775,24.7604715 C22.4758786,24.8693022 21.1926865,25.6337728 20.3693049,26.9052363 C18.97918,28.9385162 19.2759184,31.4840967 21.0322875,32.5750602 C22.7164775,33.6660237 25.2026619,32.9440236 26.5927867,30.982413 C27.9829116,28.9491338 27.6861732,26.4035526 25.9298041,25.3125892 C25.2721685,24.8772656 24.5129465,24.6967656 23.7483775,24.7604715 Z M38.6334063,26.9689422 C36.9786229,26.9822141 38.1923092,34.5871048 39.6813466,33.9553544 C41.2906837,32.6467295 41.8761396,28.8057953 38.8044986,26.9901775 C38.745686,26.9742514 38.6868727,26.9689422 38.6334063,26.9689422 Z M17.3965764,27.096354 C17.3431101,27.096354 17.2842974,27.1016631 17.2254841,27.1175893 C14.15117,28.8615377 14.6644468,32.7953766 16.3486362,34.1040015 C17.8376735,34.7384061 19.0513598,27.1096259 17.3965764,27.096354 Z M28.2823231,32.2777661 C25.9404974,32.2777661 24.1119486,34.0349871 24.1119486,36.1425898 L24.1119486,36.2062957 C24.1119486,38.3138991 25.9404974,39.9861783 28.2823231,39.9861783 C30.6214756,39.9861783 32.4526975,38.2501933 32.4526975,36.1425898 C32.4526975,34.0376414 30.5492958,32.3520896 28.2823231,32.2777661 Z M37.542693,33.785472 C36.5589124,33.8013989 35.3692865,34.7410603 34.270553,35.9939428 C32.9526079,37.4459063 32.2281389,40.195877 33.1798397,41.0691784 C34.1315406,41.7221641 36.5375258,41.6478405 38.2912217,39.1792371 C39.534314,37.5069579 39.0985638,34.8313107 38.4409275,34.1040015 C38.1655757,33.88634 37.8715112,33.7801636 37.542693,33.785472 Z M18.5300628,34.358825 C18.2760975,34.3853695 18.0221329,34.4782734 17.8029206,34.6136486 C17.0704321,35.1976192 16.939439,37.1539206 18.0381725,39.1155312 C19.6475096,41.4407961 21.8984422,41.6504948 22.850143,41.0691784 C23.8740236,40.3418699 23.293914,37.7989429 22.1230008,36.4186487 C20.9921875,35.1206414 19.6314694,34.2499943 18.5300628,34.358825 Z M27.6193404,41.1541196 C26.0153503,41.2576418 24.1119486,41.9000092 24.1119486,42.6618256 C24.1119486,43.3148112 26.1490165,45.0693774 28.1967769,44.9977081 C30.1723583,45.0720316 32.2174456,43.3201197 32.2174456,42.4494726 C32.1452659,41.6478405 29.9638392,41.0824503 28.2823231,41.1541196 C28.0711308,41.1461562 27.849246,41.1381934 27.6193404,41.1541196 Z"/></svg>