<svg width="26" height="34" xmlns="http://www.w3.org/2000/svg"><defs><filter color-interpolation-filters="auto" id="a"><feColorMatrix in="SourceGraphic" values="0 0 0 0 0.974977 0 0 0 0 0.989612 0 0 0 0 0.991508 0 0 0 1.000000 0"/></filter></defs><g transform="translate(-146 -2381)" filter="url(#a)" fill="none" fill-rule="evenodd"><path d="M152.674 2381c.142.207.433.406.15.68-.353-.274-.712-.478-1.562-.616.214.204.554.408.343.616a7.913 7.913 0 0 0-1.476-.34c.283.273.49.478.278.616a2.921 2.921 0 0 0-1.754-.213l.407.425c.07.069-.99.064-1.626.064.211.342.5.684.642 1.231-.07.07-.423 0-.706 0 .283.685.85.813 1.134 1.02-.214.135-.487.069-.77 0 .21.477.692.825 1.048 1.168-.073.069-.217.153-.642.084a4.61 4.61 0 0 0 1.283 1.02c-.142.135-.422.127-.706.127.423.48.995.704 1.562.977-.284.204-.514.127-.728.127.356.343 1.011.476 1.647.68-.141.204-.23.207-.513.276.636.342 1.625.215 1.84.488 0 .205-.196.335-.407.404 1.061 0 3.884-.061 4.448-2.187-1.061-1.163-3.05-2.54-6.373-4.184 2.617.823 4.948 1.994 6.93 3.568 2.333-1.027.702-3.703-.428-4.8-.07.274-.12.42-.193.49-.353-.412-.639-.826-1.133-1.169 0 .207.133.412-.15.616-.283-.342-.644-.619-1.07-.892.212.342.078.478-.064.616-.352-.343-.703-.619-1.411-.892Zm12.554 0c-.642.207-.992.552-1.348.828-.141-.138-.278-.27-.064-.616-.5.276-.786.547-1.07.892-.282-.138-.149-.409-.149-.616-.497.415-.778.754-1.133 1.168-.072 0-.145-.212-.214-.488-1.139 1.035-2.695 3.719-.278 4.82 1.991-1.584 4.339-2.673 6.972-3.567-3.344 1.654-5.347 3.034-6.416 4.204.57 2.137 3.424 2.257 4.491 2.188-.214-.138-.355-.197-.428-.404.286-.138 1.2.005 1.84-.34-.284-.069-.35-.069-.492-.276.57-.207 1.27-.355 1.625-.7-.211 0-.422.08-.706-.128.498-.273 1.136-.563 1.562-.977-.284-.069-.634-.058-.706-.127.497-.345.927-.696 1.283-1.04-.356.068-.57.005-.642-.064.356-.414.856-.685 1.07-1.168-.284.138-.578.138-.792 0 .142-.276.722-.414 1.006-1.104-.284 0-.634.069-.706 0 .144-.553.428-.908.641-1.253-.641 0-1.638.005-1.71-.064l.427-.404c-.641-.138-1.275.054-1.775.192-.214-.207-.005-.41.278-.616a7.952 7.952 0 0 0-1.497.34c-.214-.208.15-.41.364-.616-.853.207-1.206.408-1.562.616-.283-.277-.016-.473.129-.68Zm-6.031 9.004c-1.904 0-3.807 1.452-3.807 2.25 0 1.017 1.54 2.124 3.807 2.124 2.342 0 3.807-.799 3.807-1.89 0-1.234-2.126-2.484-3.807-2.484Zm-5.775.764c-2.673.019-4.747 1.856-4.62 4.906.073 1.38 6.968-4.582 5.797-4.8a6.46 6.46 0 0 0-1.177-.106Zm11.207.106c-.38-.01-.773.022-1.176.085-1.171.146 5.702 6.087 5.774 4.778.064-2.986-1.938-4.794-4.598-4.863Zm-1.347 3.717c-.634.002-1.27.17-1.818.51-1.684 1.09-1.979 3.615-.663 5.648 1.39 2.033 3.897 2.776 5.582 1.614 1.681-1.091 1.96-3.637.641-5.67-.906-1.349-2.35-2.11-3.742-2.102Zm-8.534.17c-1.272.108-2.555.873-3.379 2.144-1.39 2.034-1.093 4.58.663 5.67 1.684 1.091 4.17.369 5.56-1.593 1.39-2.033 1.094-4.578-.662-5.67a3.405 3.405 0 0 0-2.182-.552Zm14.885 2.208c-1.654.013-.44 7.618 1.048 6.986 1.61-1.308 2.195-5.15-.877-6.965a.656.656 0 0 0-.17-.021Zm-21.236.127a.656.656 0 0 0-.172.022c-3.074 1.744-2.56 5.677-.876 6.986 1.489.634 2.702-6.994 1.048-7.008Zm10.885 5.182c-2.342 0-4.17 1.757-4.17 3.865v.063c0 2.108 1.828 3.78 4.17 3.78 2.34 0 4.17-1.736 4.17-3.843 0-2.105-1.903-3.79-4.17-3.865Zm9.26 1.507c-.983.016-2.173.956-3.271 2.209-1.318 1.452-2.043 4.202-1.091 5.075.952.653 3.358.579 5.111-1.89 1.243-1.672.808-4.348.15-5.075a1.37 1.37 0 0 0-.898-.319Zm-19.012.574a1.75 1.75 0 0 0-.727.255c-.733.584-.864 2.54.235 4.502 1.61 2.325 3.86 2.534 4.812 1.953 1.024-.727.444-3.27-.727-4.65-1.13-1.298-2.492-2.169-3.593-2.06Zm9.09 6.795c-1.605.104-3.508.746-3.508 1.508 0 .653 2.037 2.407 4.085 2.336 1.975.074 4.02-1.678 4.02-2.549-.072-.801-2.253-1.367-3.935-1.295a6.135 6.135 0 0 0-.663 0Z" fill="#000" fill-rule="nonzero"/></g></svg>