<svg width="59" height="67" xmlns="http://www.w3.org/2000/svg"><defs><filter color-interpolation-filters="auto" id="a"><feColorMatrix in="SourceGraphic" values="0 0 0 0 0.511792 0 0 0 0 0.190149 0 0 0 0 1.000000 0 0 0 1.000000 0"/></filter></defs><g fill="none" fill-rule="evenodd"><path d="M51.729 37c-1.024 0-1.911.198-2.729.399 1.434.599 2.32 1.333 2.798 1.666 1.092.933 1.705 1.868 2.798 3.402.202.333.543.8.748 1.531.206.667.206 1.201.206 1.735 0 .735-.07 1.334-.139 1.933-.067.468-.067.669-.133.802 0 .068 0 .133-.07.265 0 .334 0 .47.07.735 0 .266.066.534.066 1 .07.867.07 1.466-.066 2.198v.269c-.139.599-.275 1.2-.616 1.732.07.135.136.2.206.333.34-.466.612-.932.884-1.464.82-1.469 1.298-2.734 1.639-3.667.613-1.735.954-3.003 1.159-3.935.477-2 .546-2.933.341-4.001 0-.333-.136-.935-.477-1.534-.751-1.334-1.91-1.933-2.728-2.334-.547-.265-1.98-1-3.957-1.065Zm-14.682 1.002c-.751-.016-1.668.07-2.697.566a5.098 5.098 0 0 0-2.086 1.653c-.522.662-.912 1.654-1.108 2.778-.196.992-.262 2.186.13 4.434.26 1.586.522 2.645 1.044 4.826.067.266.456 1.457 1.304 4.103l.064.132c.133.462.522 1.455 1.37 2.447.586.661 1.108 1.059 1.567 1.059h.127c.848 0 1.436-.661 1.956-1.191 0-.067 1.24-1.587 1.696-2.116-.066-.067-.193-.067-.26-.135-.781-.462-1.37-1.188-1.826-1.984a5.751 5.751 0 0 1-.588-3.638l.066-1.121c-.26-1.788-.193-3.506.133-5.227.26-1.455.585-2.91 1.757-4.431A6.21 6.21 0 0 1 41 38.834a9.389 9.389 0 0 0-3.26-.794 10.66 10.66 0 0 0-.693-.038Zm8.4-.002c-.339 0-.678 0-1.018.068-1.357.267-2.645 1.005-3.663 2.276-1.018 1.274-1.289 2.478-1.56 3.885-.137.536-.137 1.005-.206 1.541.408-.335.952-.738 1.766-.94.474-.133 1.696-.533 2.714.069.34.201.814.604 1.289 1.742 1.018 2.813.002 5.693-.133 5.96-.069.267-.204.468-.273.601-.135.335-.27.605-.405 1.141-.07.468-.138.871-.138 1.34a1.1 1.1 0 0 1 .61.198c.339.335.408.806.477 1.005.135 1.073.135 2.412.135 3.752 0 1.072 0 2.077.066 2.747.138 1.54.613 2.61 1.291 3.147.475.403 1.085.4 1.424.468h.138c1.018 0 2.646-.67 3.255-1.606.34-.537.478-1.005.613-1.675.069-.403.066-.601.135-1.004 0-.202.069-.537.069-.937 0-.335.066-.738.135-1.208.069-1.138.27-2.475.34-3.213.068-.871.474-1.609.813-2.077-.474-.068-.949-.469-1.22-1.138-.407-.738-.476-.94-.545-1.274-.067-.267-.202-.602-.679-1.607-1.018-2.276-1.15-2.946-1.15-3.482-.07-.738-.138-1.74.678-2.41 1.22-1.072 2.781-1.004 3.595-.737v-.136a3.323 3.323 0 0 0-.61-1.204c-1.018-1.54-1.561-2.344-2.513-3.147a9.746 9.746 0 0 0-2.916-1.674c-.679-.202-1.495-.471-2.513-.471Zm7.4 8.007c-.477-.034-1.087.049-1.614.514-.263.264-.263.794-.196 1.257 0 .331.065.794 1.052 3.046.46 1.058.592 1.39.659 1.655.066.264.13.396.527 1.123.067.134.13.266.262.398.131-.2.198-.53.262-1.06l.067-.197c.131-.595.067-1.06.067-1.854 0-.398-.067-.662-.067-.861-.067-.331-.067-.595-.067-.993-.13-.2-.13-.264-.064-.398 0-.132.064-.329.131-.727.067-.53.134-.993.134-1.523-.134-.067-.198-.132-.33-.197 0 0-.346-.15-.822-.183Zm-10.312.004c-.437-.052-.94.092-1.248.195-.757.21-1.234.695-1.578.971-.206.21-.413.418-.62.695 0 .486.068.974.137 1.46v.07l-.136 1.39a4.225 4.225 0 0 0 .48 2.983c.343.695.826 1.251 1.443 1.598.414.277.961.486 1.578.627 0-.488.07-1.044.14-1.53.137-.695.273-1.042.48-1.46.07-.206.137-.344.276-.553.068-.209 1.028-2.849.135-5.28-.204-.556-.41-.903-.687-1.041a1.002 1.002 0 0 0-.4-.125Zm10.109.992c.129-.011.252.006.302.082.148.15-.05.523-.1.6-.048.075-.146.224-.295.3-.196.074-.344-.152-.394-.152-.05-.076-.197-.298-.147-.523.048-.149.098-.149.295-.225a.973.973 0 0 1 .339-.082Zm-10.939-.001c.298-.016.547.07.747.12.267.069.53.137.53.271.09.203-.173.336-.263.402-.267.202-.71.205-.71.205-.442 0-.708-.202-.885-.404-.09-.069-.176-.203-.086-.337a.484.484 0 0 1 .353-.202c.11-.034.214-.05.314-.055ZM54.86 56c-.306.403-.735.924-.797 1.616 0 .115 0 .174-.062.289.49.115.921.115 1.35.058.98-.117 1.653-.58 1.775-.694.429-.289.982-.866.857-1.095-.06-.115-.244-.059-1.225 0-.244 0-.979.173-1.47.058h-.122c-.122-.058-.244-.117-.306-.232Zm-11.748 1c-.127.231-.315.384-.441.537a4.967 4.967 0 0 1-1.779.847c-.57.23-.886.23-.886.462-.065.306.57.69.886.843 1.08.538 2.158.232 2.349.153.126-.078.443-.23.76-.462 0-.843-.062-1.612-.126-2.227v-.078h-.065c-.19 0-.443.003-.698-.075Z" fill="#8330FF" fill-rule="nonzero"/><path d="M38.6 14.73c.815-.232 1.61-.31 2.231-.688.425-.258.451-1.002.666-1.524.004-.011.01-.022.014-.035.02-.082.098-.167.033-.247-.066-.081-.16-.029-.242-.007-.559.151-1.118.303-1.678.453-.16.043-.292.109-.358.289-.203.555-.417 1.105-.666 1.76Zm3.867-5.292c-.8.224-1.508.42-2.213.621-.089.026-.129.115-.16.198l-.569 1.523c-.07.188.003.228.174.18.606-.169 1.212-.335 1.82-.5.113-.03.208-.078.253-.196l.695-1.826Zm-.744 4.594c.786-.216 1.496-.41 2.206-.607.106-.03.143-.135.179-.229.178-.472.351-.946.532-1.417.086-.226.042-.314-.204-.245-.583.161-1.167.32-1.751.476-.126.033-.228.084-.279.219-.216.575-.434 1.148-.683 1.803ZM59 .505c-.337.887-.683 1.77-1.005 2.663-.101.28-.253.423-.538.5C54 4.593 50.55 5.54 47.092 6.46c-.392.104-.517.275-.5.676.03.66.006 1.32.01 1.981.001.444.025.464.446.35 2.964-.8 5.928-1.604 8.892-2.406.12-.033.238-.067.359-.096.192-.047.259.026.187.218-.379 1.007-.76 2.012-1.134 3.021-.082.221-.27.244-.444.291-1.805.49-3.61.976-5.415 1.462-.86.232-1.72.47-2.583.692-.254.065-.368.176-.36.467a35.4 35.4 0 0 1 0 2.21c-.012.367.124.386.413.307 2.113-.58 4.229-1.153 6.345-1.722.197-.053.454-.227.588-.075.137.154-.068.395-.138.59-.298.82-.616 1.633-.913 2.454-.091.254-.242.377-.496.445-2.966.796-5.928 1.605-8.892 2.405-1.118.301-2.082.93-3.067 1.509-1.59.933-3.127 1.959-4.634 3.023-1.357.96-2.688.92-4.096.245-.123-.06-.24-.136-.368-.179-1.062-.354-1.375-1.258-1.576-2.246-.02-.097-.066-.214.037-.278.1-.063.186.033.269.08.443.257.898.488 1.398.6.527.119.689-.002.692-.545.001-.305.097-.456.409-.422.098.01.199-.009.296.003.322.04.456-.095.43-.43-.023-.29.019-.501.41-.5 1.176.003 2.003-.99 1.862-2.19-.18-1.536-1.461-2.997-2.93-3.339a2.697 2.697 0 0 0-1.14 0c-.148.029-.327.068-.305-.183.104-1.2.146-2.42.977-3.404.142-.169.294-.302.504-.367 2.353-.726 3.589-2.522 4.34-4.782.006-.02-.004-.046-.01-.112-.363.25-.71.485-1.053.725-1.41.988-2.816 1.98-4.231 2.96a.955.955 0 0 0-.408.598c-.393 1.56-.799 3.118-1.2 4.676-.054.211-.103.425-.34.506-.242.083-.256.268-.223.49.129.874.126.875-.664.589l-.035-.013c-.535-.194-.535-.194-.454.388.104.749.101.752-.595.494l-.592-.221c-.148-.055-.274-.005-.365.111-.091.118.008.217.07.306.304.442.613.881.943 1.353-.297.076-.54-.033-.784-.083a3.448 3.448 0 0 1-.637-.203c-.583-.244-1.101-.49-1.816-.264-.861.273-1.545-.368-2.155-.938-1.079-1.006-1.07-1.012-.204-2.178.673-.907 1.39-1.777 2.086-2.702-.65.21-1.298.427-1.95.629-.449.139-.878.346-1.348.407v-.153c.124-.081.254-.156.372-.246.961-.737 1.89-1.523 2.886-2.206 1.579-1.082 2.876-2.395 3.842-4.095.746-1.313 1.755-2.45 3.048-3.226 2.557-1.536 5.33-2.095 8.273-1.72 1.511.192 3.002.195 4.47-.316A20.552 20.552 0 0 0 47.628.124c.342-.203.387-.176.415.225.062.889-.153 1.71-.563 2.487-.057.107-.16.198-.132.35.166.06.314-.032.462-.072 2.63-.708 5.257-1.429 7.888-2.13 1.1-.293 2.185-.64 3.303-.86v.381Z" fill="#8330FF"/><g filter="url(#a)"><path d="M12.143 26a1.066 1.066 0 0 1 1.067 1.16l-.037.2-1.978 10.058h8.094c.895 0 1.63.683 1.705 1.552l.006.147c0 .34-.1.656-.273.92l-.104.15-2.604 3.496h.01L9.89 54.601l-.042.047a1.065 1.065 0 0 1-.793.352 1.06 1.06 0 0 1-1.031-1.32l.005-.027 1.952-9.97H1.712c-.945 0-1.712-.76-1.712-1.699 0-.376.123-.724.332-1.006l.16-.232 2.482-3.328h.072l8.193-10.947.149-.164c.193-.19.46-.307.755-.307Z" fill="#3ECF8E" fill-rule="nonzero"/></g></g></svg>