<?xml version="1.0" encoding="UTF-8"?>
<svg width="59px" height="67px" viewBox="0 0 59 67" version="1.1" xmlns="http://www.w3.org/2000/svg" xmlns:xlink="http://www.w3.org/1999/xlink">
    <title>Group 23</title>
    <defs>
        <filter color-interpolation-filters="auto" id="filter-1">
            <feColorMatrix in="SourceGraphic" type="matrix" values="0 0 0 0 0.511792 0 0 0 0 0.190149 0 0 0 0 1.000000 0 0 0 1.000000 0"></feColorMatrix>
        </filter>
    </defs>
    <g id="Homepage" stroke="none" stroke-width="1" fill="none" fill-rule="evenodd">
        <g id="Homepage-V2" transform="translate(-499.000000, -3342.000000)">
            <g id="About-the-project" transform="translate(0.000000, 2900.000000)">
                <g id="Backend" transform="translate(132.000000, 425.000000)">
                    <g id="Group-23" transform="translate(367.000000, 17.000000)">
                        <path d="M51.7285834,37.0000259 C50.7053646,37.0000259 49.8180423,37.1979712 49,37.3985209 C50.4335718,37.9975656 51.3208949,38.7320472 51.7978635,39.0654287 C52.8903631,39.997855 53.5032282,40.9328863 54.5957277,42.4669623 C54.7982398,42.8003439 55.1393127,43.2665573 55.3444892,43.9984339 C55.5496657,44.665197 55.5496657,45.199129 55.5496657,45.7330602 C55.5496657,46.4675412 55.4803856,47.0665865 55.4111049,47.6656312 C55.3444892,48.1344491 55.3444892,48.3349994 55.2778736,48.4678306 C55.2778736,48.5355491 55.2778736,48.6006625 55.2085928,48.7334944 C55.2085928,49.066876 55.2085928,49.2023123 55.2778736,49.4679754 C55.2778736,49.7336391 55.3444892,50.0019073 55.3444892,50.4681201 C55.41377,51.3354336 55.41377,51.9344783 55.2778736,52.6663548 L55.2778736,52.934623 C55.1393127,53.5336684 55.0034163,54.1353174 54.6623434,54.6666443 C54.7316241,54.8020806 54.7982398,54.8671946 54.8675199,55.0000259 C55.2085928,54.5338131 55.4803856,54.0675996 55.7521778,53.5362727 C56.5728845,52.0673102 57.0498539,50.8015017 57.3909268,49.8690754 C58.0037925,48.1344491 58.3448655,46.8660369 58.550042,45.9336099 C59.0270113,43.9333205 59.0962914,43.0008942 58.8911149,41.933031 C58.8911149,41.5996495 58.7552185,40.9979997 58.4141456,40.398955 C57.6627196,39.0654287 56.5036044,38.4663834 55.6855621,38.065284 C55.1393127,37.7996202 53.7057402,37.0651393 51.7285834,37.0000259 Z M37.0472508,38.001694 C36.2959234,37.9861909 35.3790485,38.0714563 34.3501113,38.5675427 C34.0241113,38.7018994 33.0461115,39.1643962 32.2642209,40.2211641 C31.7421118,40.8826127 31.3524395,41.8747855 31.1563304,42.9987308 C30.9602212,43.9909037 30.8940021,45.1846119 31.2862211,47.4325032 C31.546002,49.0189466 31.8083302,50.0782974 32.3304393,52.2590107 C32.3966584,52.5251405 32.78633,53.7162645 33.634439,56.3620588 L33.6981114,56.4938319 C33.8305489,56.9563293 34.2202205,57.9485021 35.0683295,58.940675 C35.654111,59.6021236 36.1762201,60.0000259 36.6346575,60.0000259 L36.7620009,60.0000259 C37.6101106,60.0000259 38.1984381,59.3385773 38.7180005,58.8089019 C38.7180005,58.7417238 39.9583285,57.2224592 40.4142192,56.6927831 C40.3480001,56.625605 40.2206567,56.625605 40.1544377,56.5584263 C39.3725477,56.0959296 38.7842195,55.3698859 38.3283288,54.5740806 C37.5464382,53.1194111 37.6101106,51.6647408 37.7400007,50.9361135 L37.8062197,49.8147519 C37.5464382,48.0267737 37.6126573,46.3085579 37.9386572,44.5877578 C38.1984381,43.1330875 38.524438,41.678418 39.6960003,40.156569 C40.0882193,39.6268936 40.54411,39.1643962 41,38.8336719 C39.9583285,38.3711752 38.850438,38.1050453 37.7400007,38.0404509 C37.5286106,38.0223642 37.2968449,38.0068612 37.0472508,38.001694 Z M45.4475078,38.0000259 C45.1081653,38.0000259 44.7688228,38.0000259 44.4294803,38.0680454 C43.0721102,38.3348928 41.7836694,39.0726462 40.7656419,40.3440944 C39.7476143,41.618158 39.4772004,42.8215861 39.2067872,44.229074 C39.0689293,44.7653842 39.0689293,45.2336748 39,45.769985 C39.4082718,45.435118 39.9517499,45.0322316 40.7656419,44.8307877 C41.2401913,44.6973647 42.4623544,44.2970935 43.480382,44.8988079 C43.8197245,45.1002511 44.294274,45.5031382 44.7688228,46.6411621 C45.7868503,49.4535213 44.7714744,52.3339001 44.6362674,52.6007475 C44.5673382,52.8675942 44.4321319,53.0690381 44.3632026,53.2024612 C44.2279956,53.5373281 44.0927894,53.8067915 43.9575824,54.3431017 C43.8886531,54.8113923 43.8197245,55.2142795 43.8197245,55.6825694 C44.0238601,55.6825694 44.2279956,55.7479737 44.4294803,55.8813967 C44.7688228,56.2162636 44.8377521,56.6871703 44.9066807,56.8859975 C45.0418876,57.9586185 45.0418876,59.2980863 45.0418876,60.637554 C45.0418876,61.7101744 45.0418876,62.7147752 45.1081653,63.3845091 C45.2460232,64.9254207 45.7205727,65.9954251 46.3992577,66.5317352 C46.8738072,66.9346223 47.4835629,66.9320057 47.8229054,67.0000259 L47.9607633,67.0000259 C48.9787909,67.0000259 50.6065748,66.330292 51.2163306,65.3937107 C51.5556731,64.8574005 51.693531,64.3891099 51.8287379,63.719376 C51.8976672,63.3164895 51.8950156,63.1176623 51.9639449,62.7147752 C51.9639449,62.5133319 52.0328735,62.178465 52.0328735,61.7781945 C52.0328735,61.4433276 52.0991519,61.0404405 52.1680805,60.5695338 C52.2370098,59.43151 52.4384944,58.0946582 52.507423,57.3569041 C52.5763523,56.485727 52.9819725,55.7479737 53.321315,55.279683 C52.8467655,55.2116628 52.372216,54.8113923 52.1018028,54.1416585 C51.693531,53.4039051 51.6246024,53.2024612 51.5556731,52.8675942 C51.4893954,52.6007475 51.3541885,52.2658805 50.8769881,51.2612797 C49.8589605,48.9852307 49.7264052,48.3154968 49.7264052,47.7791866 C49.6574759,47.0414332 49.5885473,46.0394484 50.4050902,45.3697145 C51.6246024,44.2970935 53.186108,44.3651137 54,44.6319605 L54,44.4959208 C53.864793,43.9622266 53.5943798,43.5593401 53.3902436,43.2924927 C52.372216,41.7515817 51.8287379,40.9484241 50.8769881,40.1452672 C50.4713679,39.8104003 49.4533403,39.0046267 47.9607633,38.4709325 C47.2820783,38.2694886 46.4655354,38.0000259 45.4475078,38.0000259 Z M52.8478545,46.0066582 C52.369508,45.9730402 51.7600027,46.0557926 51.2327934,46.521275 C50.9704742,46.7850481 50.9704742,47.3151813 51.0373401,47.7780772 C51.0373401,48.1090869 51.1016338,48.5719835 52.0891871,50.8244014 C52.5495311,51.8820807 52.6806907,52.2130904 52.7475559,52.47945 C52.8144219,52.743223 52.8787155,52.8751099 53.2747652,53.6017795 C53.3416311,53.7362522 53.4059248,53.868139 53.5370844,54.0000259 C53.668244,53.800903 53.7351092,53.4698933 53.7994029,52.93976 L53.8662688,52.743223 C53.9974284,52.1484403 53.9331341,51.6829578 53.9331341,50.8890515 C53.9331341,50.4908058 53.8662688,50.2270321 53.8662688,50.0279092 C53.7994029,49.6968995 53.7994029,49.4331258 53.7994029,49.0348801 C53.668244,48.8357572 53.668244,48.7711064 53.7351092,48.6366337 C53.7351092,48.5047475 53.7994029,48.3082105 53.8662688,47.9099641 C53.9331341,47.3798315 54,46.9169349 54,46.3868023 C53.8662688,46.3195656 53.8019752,46.2549155 53.6708156,46.1902653 C53.6708156,46.1902653 53.3236287,46.0402762 52.8478545,46.0066582 Z M42.534915,46.0108474 C42.097535,45.9593014 41.5957561,46.1030889 41.287175,46.2061817 C40.5304807,46.4150813 40.0528514,46.9007036 39.7093875,47.1774275 C39.5027726,47.3863265 39.2961571,47.5952254 39.0895422,47.8719494 C39.0895422,48.3575723 39.1566248,48.845908 39.2263913,49.3315302 L39.2263913,49.4020679 L39.0895422,50.7911117 C38.9526931,51.4150958 38.8829273,52.5952406 39.5698552,53.7753854 C39.9133192,54.4699073 40.3963154,55.0260673 41.0134769,55.3733282 C41.4267073,55.6500521 41.974103,55.8589511 42.5912644,56.0000259 C42.5912644,55.5116902 42.6610309,54.9555302 42.7307967,54.4699073 C42.8676458,53.7753854 43.0044949,53.4281245 43.2111097,53.0103258 C43.2808762,52.8041396 43.3479588,52.6657784 43.487491,52.4568787 C43.5545737,52.2479797 44.5151998,49.6082541 43.6216563,47.1774275 C43.4177246,46.6212675 43.2111097,46.2740066 42.9347284,46.1356446 C42.8166627,46.0651069 42.6771304,46.0271256 42.534915,46.0108474 Z M52.6436839,47.0033289 C52.7726745,46.9916373 52.8958893,47.0091744 52.9459451,47.0851707 C53.0941882,47.2342398 52.8958893,47.6083735 52.8458331,47.6843691 C52.7977024,47.7603654 52.6995155,47.9094337 52.5512728,47.98543 C52.3548995,48.0585028 52.2066563,47.8334382 52.1566006,47.8334382 C52.1065443,47.7574419 51.9602267,47.5353 52.010283,47.3102353 C52.0584136,47.1611662 52.1084699,47.1611662 52.3048432,47.0851707 C52.3780023,47.0471729 52.5146933,47.0120979 52.6436839,47.0033289 Z M41.7054217,47.0019133 C42.0028347,46.9861533 42.2518312,47.072832 42.4524113,47.1227371 C42.718699,47.1910294 42.9815287,47.2593209 42.9815287,47.3932783 C43.0714446,47.5955273 42.8086149,47.7294847 42.718699,47.7951498 C42.4524113,47.9973994 42.0097508,48.0000259 42.0097508,48.0000259 C41.5670903,48.0000259 41.3008025,47.7977769 41.1244298,47.5955273 C41.0345148,47.5272357 40.948057,47.3932783 41.0379729,47.2593209 C41.1244298,47.1253642 41.3008025,47.057072 41.3907175,47.057072 C41.5013826,47.0229262 41.6051316,47.0071662 41.7054217,47.0019133 Z M54.8591346,56.0000259 C54.5528137,56.4034741 54.1244429,56.9241251 54.0622217,57.6160718 C54.0622217,57.7310209 54.0622217,57.7896226 54,57.904571 C54.4905925,58.01952 54.9213563,58.01952 55.3497265,57.9631727 C56.330911,57.8459699 57.003381,57.3839206 57.1254309,57.2689716 C57.5538017,56.9804724 58.1066148,56.4034741 57.9821719,56.173576 C57.9223437,56.0586276 57.7380727,56.1149749 56.7568882,56.173576 C56.5127891,56.173576 55.7780973,56.3471267 55.2875054,56.2321777 L55.1654555,56.2321777 C55.0434056,56.173576 54.9213563,56.1149749 54.8591346,56.0000259 Z M43.1107477,57.0000259 C42.9844199,57.2311435 42.796166,57.3842218 42.6698375,57.5373 C42.1620475,57.9214959 41.5254515,58.2306537 40.891333,58.3837312 C40.3216175,58.6148496 40.0045583,58.6148496 40.0045583,58.8459672 C39.9401553,59.152123 40.5742738,59.5363188 40.891333,59.6893971 C41.9713161,60.2266712 43.0488223,59.9205147 43.2395531,59.8424753 C43.3658815,59.7644352 43.6829408,59.6113577 44,59.3802393 C44,58.5368094 43.9380745,57.7684176 43.8736715,57.1531041 L43.8736715,57.0750639 L43.8092692,57.0750639 C43.6185384,57.0750639 43.3658815,57.078066 43.1107477,57.0000259 Z" id="Shape" fill="#8330FF" fill-rule="nonzero"></path>
                        <path d="M38.5996406,14.7308409 C39.4154531,14.4978285 40.2095938,14.4195819 40.83125,14.0417624 C41.2555833,13.7839549 41.2820052,13.0404085 41.4966458,12.5183916 C41.5014948,12.5068071 41.5079271,12.4955274 41.5107969,12.4834347 C41.5303906,12.4011233 41.6087656,12.3159665 41.543849,12.2358908 C41.4781406,12.155002 41.3843281,12.207031 41.3024896,12.2291839 C40.7429792,12.3800881 40.1836667,12.5315005 39.6240573,12.6816934 C39.463349,12.7248815 39.3318333,12.7910355 39.266125,12.9706979 C39.0631615,13.525741 38.8486198,14.0763128 38.5996406,14.7308409 L38.5996406,14.7308409 Z M42.4666354,9.4381159 C41.6661615,9.66208422 40.9595,9.85810731 40.254224,10.0594146 C40.1654583,10.0847177 40.1254792,10.173736 40.0941094,10.2574701 C39.9035156,10.7647522 39.7137135,11.2723392 39.525,11.7803327 C39.4552344,11.9681246 39.5281667,12.0079593 39.6988698,11.9603 C40.3046927,11.7912059 40.9112083,11.6248556 41.5183177,11.4605376 C41.631625,11.4298487 41.7271198,11.3821894 41.7720469,11.2643113 C41.9906458,10.6912817 42.2081562,10.1178455 42.4666354,9.4381159 L42.4666354,9.4381159 Z M41.7233594,14.0322102 C42.5089896,13.8162698 43.2193125,13.6225839 43.9285469,13.4245284 C44.0346302,13.3948557 44.0721354,13.2901881 44.1077604,13.1959873 C44.2861823,12.7240685 44.4589635,12.2498126 44.6397604,11.7788084 C44.726349,11.5532142 44.6818177,11.4653137 44.4357083,11.5336017 C43.8529427,11.6952776 43.2691875,11.8533968 42.6849375,12.0096868 C42.5593594,12.0432211 42.4566406,12.0942338 42.4060729,12.228879 C42.1903437,12.8036362 41.9716458,13.3772756 41.7233594,14.0322102 L41.7233594,14.0322102 Z M59,0.505397581 C58.6630469,1.39232839 58.3166927,2.27580414 57.9946823,3.16842562 C57.8938438,3.44797954 57.7418438,3.59075426 57.4569427,3.66717177 C54.0010208,4.59393723 50.5502448,5.54082325 47.0923437,6.45956081 C46.7002708,6.56372031 46.5746927,6.73525321 46.5925052,7.13593701 C46.6217969,7.79513959 46.5983437,8.45667941 46.6013125,9.11710142 C46.6033906,9.5609733 46.6274375,9.58139872 47.0482083,9.46758542 C50.0124062,8.66652269 52.9759115,7.86312271 55.9397135,7.0605357 C56.0592552,7.02811923 56.1782031,6.99367038 56.2985365,6.96460734 C56.4907135,6.91816745 56.5576094,6.99123152 56.4855677,7.18318985 C56.1074479,8.1900311 55.7254687,9.19544968 55.352099,10.2042217 C55.2703594,10.4251414 55.0818438,10.448209 54.9076771,10.4954618 C53.1033698,10.9851639 51.297974,11.4708012 49.492875,11.9574546 C48.6322344,12.1894509 47.7730781,12.4277475 46.9097656,12.6490737 C46.6555417,12.7143131 46.5422344,12.8245697 46.5505469,13.115505 C46.5714271,13.8515316 46.5746927,14.5892856 46.550151,15.3252106 C46.5378802,15.6934779 46.673651,15.7120742 46.9631042,15.6326081 C49.0763594,15.0521603 51.1918906,14.4803501 53.3079167,13.9109787 C53.5045469,13.8580352 53.7615417,13.6839618 53.8956302,13.8355774 C54.0325885,13.9904448 53.8283385,14.2307737 53.7577812,14.4251709 C53.4598177,15.2460494 53.1417656,16.0591031 52.8451875,16.8803881 C52.753849,17.133521 52.6034323,17.2568865 52.3487135,17.3252761 C49.3831302,18.1208514 46.4212083,18.9304502 43.4566146,19.7300902 C42.3389792,20.0314922 41.3746302,20.6607172 40.3898958,21.2390311 C38.8003281,22.1724018 37.2625156,23.1980425 35.7564687,24.2622985 C34.3991562,25.2213788 33.0681667,25.1824587 31.6603854,24.5068955 C31.5371823,24.4477532 31.4199167,24.3708276 31.2916667,24.3281476 C30.2298437,23.9744118 29.9170365,23.0699009 29.7157552,22.0820625 C29.6960625,21.9853211 29.6499479,21.868256 29.7532604,21.8036263 C29.8530104,21.7412323 29.9386094,21.8366525 30.0215365,21.8846167 C30.4649687,22.1407982 30.9196823,22.371575 31.4199167,22.4840673 C31.9473646,22.6027583 32.1085677,22.4821365 32.1116354,21.9388813 C32.1133177,21.633821 32.2089115,21.4825102 32.5208281,21.5171623 C32.618599,21.5279339 32.7198333,21.5081182 32.8173073,21.5202109 C33.1393177,21.5603504 33.2733073,21.4252987 33.2468854,21.0895495 C33.224026,20.7992239 33.2655885,20.588771 33.6566719,20.5897871 C34.8331875,20.593039 35.6604792,19.5995098 35.5192656,18.4004054 C35.3382708,16.8640274 34.057849,15.4027459 32.5888125,15.0614076 C32.209901,14.9734055 31.8291094,14.9864128 31.4483177,15.0610011 C31.3013646,15.0897593 31.12225,15.1288826 31.1439219,14.8778837 C31.2477292,13.6771533 31.2899844,12.4578267 32.1205417,11.4739513 C32.2629427,11.3052638 32.4146458,11.1719396 32.6246354,11.1072083 C34.9775677,10.3809372 36.2135573,8.58451614 36.9645521,6.32501723 C36.9711823,6.30489666 36.9608906,6.27898381 36.9541615,6.21333793 C36.5923698,6.46250776 36.2455208,6.69775579 35.9022344,6.9381864 C34.4921771,7.92572003 33.0859792,8.91894433 31.670974,9.89885654 C31.450099,10.0517932 31.3286771,10.2332847 31.2626719,10.4960715 C30.870401,12.0567364 30.4641771,13.613743 30.0631979,15.1720707 C30.0088698,15.3830318 29.9596875,15.5967366 29.723276,15.677727 C29.4806302,15.7609529 29.466875,15.9457979 29.4997292,16.1680387 C29.6285729,17.0420639 29.6258021,17.042572 28.8359167,16.7565145 C28.8242396,16.7522465 28.8123646,16.7485882 28.8007865,16.7443202 C28.2659167,16.5501262 28.2659167,16.5501262 28.3468646,17.1317935 C28.4510677,17.8810306 28.448,17.8836726 27.7524219,17.6257636 C27.5548021,17.5523946 27.3574792,17.4781111 27.1598594,17.4046406 C27.0117188,17.3495631 26.8860417,17.3997629 26.7953958,17.5163199 C26.7037604,17.6342996 26.8030156,17.7327684 26.8642708,17.8217867 C27.1687656,18.2641343 27.4781094,18.7030268 27.8082344,19.1754536 C27.5107656,19.2514647 27.2671302,19.1415129 27.0235937,19.092126 C26.8066771,19.048125 26.5924323,18.9745528 26.3869948,18.8887864 C25.8038333,18.6453072 25.2859844,18.3993892 24.5712083,18.6254915 C23.709776,18.8979321 23.0263698,18.2570209 22.415599,17.6874463 C21.3370521,16.681418 21.346651,16.6748128 22.2117448,15.509141 C22.8850573,14.6017848 23.602901,13.7318244 24.2984792,12.8066848 C23.648224,13.0171378 22.999849,13.2336879 22.3472187,13.4358081 C21.8991354,13.5746197 21.4704479,13.7822274 21,13.8428939 C21,13.7920844 21,13.7412749 21,13.6904654 C21.1242917,13.6086621 21.2539271,13.534277 21.3718854,13.443836 C22.3329687,12.7066917 23.2621875,11.9206686 24.2583021,11.2376871 C25.8365885,10.1556478 27.1343281,8.84313654 28.1004583,7.14264386 C28.8462083,5.82992937 29.8553854,4.6937271 31.1479792,3.91735779 C33.7052604,2.38118307 36.4772812,1.82187198 39.4212917,2.19664293 C40.9320885,2.38900773 42.4232917,2.39215792 43.8916354,1.88142073 C45.1980833,1.42698047 46.4359531,0.830781682 47.6273125,0.124224637 C47.9693125,-0.0787085456 48.0140417,-0.0524908385 48.0421458,0.348802671 C48.1043906,1.23766424 47.8886615,2.05925401 47.478776,2.83572494 C47.4223698,2.94252653 47.3191562,3.03378041 47.3469635,3.18529437 C47.5134115,3.24565607 47.6610573,3.15409733 47.809099,3.11426268 C50.4389167,2.40618135 53.0655677,1.68539764 55.6970677,0.984124783 C56.7963958,0.691157149 57.8824635,0.343518482 59,0.124326256 L59,0.505397581 Z" id="Fill-1" fill="#8330FF"></path>
                        <g filter="url(#filter-1)" id="supabase-supabasepostgres-18-04">
                            <g transform="translate(0.000000, 26.000026)">
                                <path d="M12.1425958,0 C12.7346311,0 13.2146341,0.474571749 13.2146341,1.05998078 C13.2146341,1.09392062 13.2130018,1.12748683 13.2098229,1.16061149 L13.2098229,1.16061149 L13.1733953,1.35907927 L11.195,11.418 L19.2894674,11.4181185 C20.1844177,11.4181185 20.9188876,12.1007833 20.9937211,12.9704659 L21,13.1170596 C21,13.4563715 20.8998441,13.7725466 20.7272915,14.0377696 L20.7272915,14.0377696 L20.6233658,14.1866279 L18.0186269,17.6829268 L18.0292683,17.6829268 L9.89022668,28.6008736 L9.84825131,28.6477699 C9.65339003,28.8639669 9.37005627,29 9.0548144,29 C8.46681794,29 7.9902439,28.5268893 7.9902439,27.9433098 C7.9902439,27.8523953 8.00176153,27.764105 8.02360238,27.679878 L8.02360238,27.679878 L8.02880664,27.6531285 L9.98125863,17.6829268 L1.71242064,17.6829268 C0.766676778,17.6829268 0,16.9223034 0,15.9840707 C0,15.6076718 0.123357895,15.2598538 0.332153697,14.9782989 L0.332153697,14.9782989 L0.491990602,14.746165 L2.97415867,11.4181185 L3.046,11.418 L11.2388636,0.471098797 L11.387753,0.30731809 C11.5814897,0.117350133 11.8481676,0 12.1425958,0 Z" id="Combined-Shape" fill="#3ECF8E" fill-rule="nonzero"></path>
                            </g>
                        </g>
                    </g>
                </g>
            </g>
        </g>
    </g>
</svg>