<?xml version="1.0" encoding="UTF-8"?>
<svg width="61px" height="69px" viewBox="0 0 61 69" version="1.1" xmlns="http://www.w3.org/2000/svg" xmlns:xlink="http://www.w3.org/1999/xlink">
    <title>Group 22</title>
    <defs>
        <filter color-interpolation-filters="auto" id="filter-1">
            <feColorMatrix in="SourceGraphic" type="matrix" values="0 0 0 0 0.511792 0 0 0 0 0.190149 0 0 0 0 1.000000 0 0 0 1.000000 0"></feColorMatrix>
        </filter>
        <filter color-interpolation-filters="auto" id="filter-2">
            <feColorMatrix in="SourceGraphic" type="matrix" values="0 0 0 0 0.000000 0 0 0 0 0.000000 0 0 0 0 0.761266 0 0 0 1.000000 0"></feColorMatrix>
        </filter>
    </defs>
    <g id="Homepage" stroke="none" stroke-width="1" fill="none" fill-rule="evenodd">
        <g id="Homepage-V2" transform="translate(-503.000000, -3476.000000)">
            <g id="About-the-project" transform="translate(0.000000, 2900.000000)">
                <g id="Group-22" transform="translate(132.000000, 560.000000)" filter="url(#filter-1)">
                    <g transform="translate(371.000000, 16.000000)">
                        <g filter="url(#filter-2)" id="x-light">
                            <g transform="translate(34.932413, 38.941945)">
                                <g id="Group" transform="translate(20.067587, 13.058055) rotate(-90.000000) translate(-20.067587, -13.058055) translate(7.067587, 7.058055)" fill="#EBEBEB">
                                    <polygon id="Path" points="6.36079503 12 0 12 13 -3.48591986e-14 26 12 19.6392857 12 13 5.65648411"></polygon>
                                </g>
                                <g id="Group" transform="translate(13.067587, 20.058055) scale(-1, 1) translate(-13.067587, -20.058055) translate(0.067587, 14.058055)" fill="#EBEBEB">
                                    <polygon id="Path" points="6.36079503 12 0 12 13 0 26 12 19.6392857 12 13 5.66156869"></polygon>
                                </g>
                                <g id="Group" transform="translate(6.231166, 12.997995) rotate(90.000000) translate(-6.231166, -12.997995) translate(-6.766829, 6.766829)" fill="#EBEBEB">
                                    <polygon id="Path" points="6.35981402 12.4623323 4.448146e-16 12.4623323 12.997995 -1.49588113e-18 25.9959901 12.4623323 19.6362568 12.4623323 12.997995 5.86532508"></polygon>
                                </g>
                                <g id="Group" transform="translate(13.067587, 6.058055) scale(-1, 1) rotate(-180.000000) translate(-13.067587, -6.058055) translate(0.067587, 0.058055)" fill="#EBEBEB">
                                    <polygon id="Path" points="6.36079503 12 6.94734679e-14 12 13 0 26 12 19.6392857 12 13 5.65677136"></polygon>
                                </g>
                            </g>
                        </g>
                        <text id="SWR" transform="translate(19.000000, 53.500000) rotate(-90.000000) translate(-19.000000, -53.500000) " font-family="Sora-Regular, Sora" font-size="12" font-weight="normal" fill="#0000C2">
                            <tspan x="4" y="58">SWR</tspan>
                        </text>
                        <g id="nextjs-logo" fill="#0000C2" fill-rule="nonzero">
                            <path d="M14.3932491,9.64997592 L25.8985137,9.64997592 L25.8985137,10.5694751 L15.4481565,10.5694751 L15.4481565,17.489131 L25.2752345,17.489131 L25.2752345,18.4086302 L15.4481565,18.4086302 L15.4481565,26.0057901 L26.0182957,26.0057901 L26.0182957,26.9252892 L14.3932491,26.9252892 L14.3932491,9.64997592 Z M26.9290517,9.64997592 L28.1516539,9.64997592 L33.5686901,17.2471358 L39.1055083,9.64997592 L46.6364898,0 L34.2638386,18.0456373 L40.6395436,26.9252892 L39.3690287,26.9252892 L33.5686901,18.8441388 L27.7443952,26.9252892 L26.4978366,26.9252892 L32.9214544,18.0456373 L26.9294647,9.64997592 L26.9290517,9.64997592 Z M41.0951281,10.5694751 L41.0951281,9.64997592 L54.2058841,9.64997592 L54.2058841,10.5694751 L48.1659817,10.5694751 L48.1659817,26.9248748 L47.1110742,26.9248748 L47.1110742,10.5694751 L41.0955412,10.5694751 L41.0951281,10.5694751 Z M0,9.64997592 L1.31842773,9.64997592 L19.4967871,37 L11.9843925,26.9252892 L1.10240715,10.9565018 L1.05449436,26.9252892 L0,26.9252892 L0,9.64997592 Z M54.1001456,25.7281585 C53.884125,25.7281585 53.7226259,25.5603364 53.7226259,25.3436181 C53.7226259,25.1264853 53.884125,24.9586632 54.0997325,24.9586632 C54.3178183,24.9586632 54.4768392,25.1264853 54.4768392,25.3436181 C54.4768392,25.5603364 54.3178183,25.7281585 54.0997325,25.7281585 L54.1001456,25.7281585 Z M55.1360531,24.7158392 L55.7006805,24.7158392 C55.7085283,25.0233058 55.9319836,25.2296648 56.2599384,25.2296648 C56.626719,25.2296648 56.8344788,25.0079739 56.8344788,24.591941 L56.8344788,21.9581705 L57.4090192,21.9581705 L57.4090192,24.5944272 C57.4090192,25.3436181 56.9782172,25.7749829 56.2648949,25.7749829 C55.595768,25.7749829 55.1364661,25.3564637 55.1364661,24.7158392 L55.1360531,24.7158392 Z M58.1603413,24.6826892 L58.7299252,24.6826892 C58.778664,25.0361515 59.1223144,25.260743 59.6175509,25.260743 C60.078918,25.260743 60.4176118,25.0204052 60.4176118,24.6901479 C60.4176118,24.4063007 60.2024173,24.2355781 59.7121373,24.1195529 L59.2350747,24.0035278 C58.5659478,23.8460651 58.2602973,23.520366 58.2602973,22.972976 C58.2602973,22.3091465 58.7989031,21.8674222 59.6068118,21.8674222 C60.3585469,21.8674222 60.9078918,22.3091465 60.9409351,22.936511 L60.3816772,22.936511 C60.3279819,22.5934081 60.0305921,22.3787616 59.5993771,22.3787616 C59.1450317,22.3787616 58.8426854,22.5983806 58.8426854,22.9340247 C58.8426854,23.2000538 59.0376409,23.3525439 59.5200731,23.4660828 L59.9277449,23.566776 C60.6869147,23.7449575 61,24.0549103 61,24.615146 C61,25.3278718 60.4506551,25.7749829 59.5737685,25.7749829 C58.7530555,25.7749829 58.2012324,25.3485906 58.1603413,24.6822748 L58.1603413,24.6826892 Z" id="Shape"></path>
                        </g>
                    </g>
                </g>
            </g>
        </g>
    </g>
</svg>