<svg width="61" height="69" xmlns="http://www.w3.org/2000/svg"><defs><filter color-interpolation-filters="auto" id="a"><feColorMatrix in="SourceGraphic" values="0 0 0 0 0.511792 0 0 0 0 0.190149 0 0 0 0 1.000000 0 0 0 1.000000 0"/></filter><filter color-interpolation-filters="auto" id="b"><feColorMatrix in="SourceGraphic" values="0 0 0 0 0.000000 0 0 0 0 0.000000 0 0 0 0 0.761266 0 0 0 1.000000 0"/></filter></defs><g transform="translate(-371 -16)" filter="url(#a)" fill="none" fill-rule="evenodd"><g filter="url(#b)" transform="translate(371 16)"><path d="M61 58.64V65L49 52l12-13v6.36L54.656 52zM54.64 65H61L48 53 35 65h6.36L48 58.662zM34.932 45.302v-6.36L47.395 51.94 34.932 64.938v-6.36l6.597-6.638zM41.36 39H35l13 12 13-12h-6.36L48 45.343z" fill="#EBEBEB"/></g><text transform="rotate(-90 212.5 -124)" font-family="Sora-Regular, Sora" font-size="12" fill="#0000C2">
                            <tspan x="4" y="58">SWR</tspan>
                        </text><path d="M385.393 25.65H396.9v.92h-10.45v6.92h9.826v.919h-9.827v7.597h10.57v.92h-11.625V25.65Zm12.536 0h1.223l5.417 7.597 5.537-7.597 7.53-9.65-12.372 18.046 6.376 8.88h-1.271l-5.8-8.082-5.825 8.081h-1.246l6.423-8.88-5.992-8.395Zm14.166.92v-.92h13.11v.92h-6.039v16.355h-1.055V26.569h-6.015ZM371 25.65h1.318L390.497 53l-7.513-10.075-10.882-15.968-.048 15.968H371V25.65Zm54.1 16.078a.374.374 0 0 1-.377-.384c0-.218.161-.385.377-.385.218 0 .377.167.377.385a.372.372 0 0 1-.377.384Zm1.036-1.012h.565c.008.307.231.514.559.514.367 0 .574-.222.574-.638v-2.634h.575v2.636c0 .75-.43 1.181-1.144 1.181-.67 0-1.129-.419-1.129-1.06Zm3.024-.033h.57c.049.353.392.578.888.578.46 0 .8-.24.8-.57 0-.285-.216-.455-.706-.571l-.477-.116c-.67-.158-.975-.484-.975-1.031 0-.664.539-1.106 1.347-1.106.752 0 1.3.442 1.334 1.07h-.56c-.053-.344-.35-.558-.782-.558-.454 0-.756.22-.756.555 0 .266.195.419.677.532l.408.1c.759.179 1.072.489 1.072 1.05 0 .712-.55 1.159-1.426 1.159-.82 0-1.373-.426-1.414-1.093Z" fill="#0000C2" fill-rule="nonzero"/></g></svg>