<svg xmlns="http://www.w3.org/2000/svg" width="16" height="16" viewBox="0 0 16 16"><path fill="currentColor" fill-rule="evenodd" d="M8,0 C8.55228475,0 9,0.44771525 9,1 L9.00080686,2.08309386 C11.5129932,2.50491217 13.495669,4.48786487 13.9170737,7.00019152 L15,7 C15.5522847,7 16,7.44771525 16,8 C16,8.55228475 15.5522847,9 15,9 L13.9169061,9.00080686 C13.4951437,11.5126605 11.5126605,13.4951437 9.00080686,13.9169061 L9,15 C9,15.5522847 8.55228475,16 8,16 C7.44771525,16 7,15.5522847 7,15 L7.00019152,13.9170737 C4.48786487,13.495669 2.50491217,11.5129932 2.08309386,9.00080686 L1,9 C0.44771525,9 0,8.55228475 0,8 C0,7.44771525 0.44771525,7 1,7 L2.08292631,7.00019152 C2.50438683,4.48753206 4.48753206,2.50438683 7.00019152,2.08292631 L7,1 C7,0.44771525 7.44771525,0 8,0 Z M8.99975653,4.12595483 L8.9992,5.00000002 C8.99908954,5.55231711 8.5513171,6 7.999,6 C7.48626672,6 7.06367992,5.61403701 7.00592637,5.11679778 L6.9992,5.00000002 L6.99923866,4.12621352 C5.5942469,4.48813004 4.48813004,5.5942469 4.12621352,6.99923866 L4.99900002,6.99920004 C5.51173327,6.99909747 5.93439725,7.38497591 5.99225027,7.88220355 L5.999,7.999 C5.999,8.55131711 5.55131711,8.99908955 4.99900002,8.99920004 L4.12595483,8.99975653 C4.48760271,10.4052257 5.59391198,11.5117837 6.99923866,11.8737865 L6.9992,11 C6.99909745,10.4872667 7.38497592,10.0646027 7.88220358,10.0067497 L7.999,10 C8.5513171,10 8.99908954,10.4476829 8.9992,11 L8.99975653,11.8740452 C10.4055607,11.5123111 11.5123111,10.4055607 11.8740452,8.99975653 L10.999,8.99919996 C10.4466829,8.99908952 9.999,8.55131709 9.999,7.999 C9.999,7.44682567 10.4466257,6.99919994 10.9988001,6.99919994 L11.8737865,6.99923866 C11.5117837,5.59391198 10.4052257,4.48760271 8.99975653,4.12595483 Z"/></svg>