<svg xmlns="http://www.w3.org/2000/svg" width="56" height="56" viewBox="0 0 56 56"><path fill="#F9FCFD" d="M27.1135442,12 C29.1973807,12 30.9007869,13.6096835 31.0111668,15.624593 L31.016835,15.8208089 L31.016835,31.2256532 C33.0044347,32.5057075 34.2270763,34.7008474 34.2270763,37.0368836 C34.2270763,40.8768984 31.036445,44 27.1135442,44 C23.1906282,44 20,40.8768984 20,37.0368836 C20,34.7906949 21.1303981,32.6747728 22.9843341,31.3773687 L23.2102534,31.2256532 L23.2102534,15.8208089 C23.2102534,13.7152091 24.9624721,12 27.1135442,12 Z M27.1135442,13.2800025 C25.7367501,13.2800025 24.6078013,14.3332564 24.5229958,15.6602994 L24.517882,15.8208089 L24.517882,31.5839618 C24.517882,31.8080342 24.3936598,32.0192306 24.1909673,32.1343748 C22.4125918,33.1520246 21.3076407,35.0337 21.3076407,37.0368836 C21.3076407,40.1728612 23.9098345,42.7200937 27.1135442,42.7200937 C30.3172539,42.7200937 32.9194477,40.1664972 32.9194477,37.0368836 C32.9194477,35.027188 31.8144966,33.1520246 30.036106,32.1343748 C29.8623825,32.0356798 29.7462885,31.8710914 29.7166641,31.6809659 L29.7091913,31.5839618 L29.7091913,15.8208089 C29.7091913,14.419202 28.5453949,13.2800025 27.1135442,13.2800025 Z M27.1151922,18.361559 C27.4421042,18.361559 27.7149856,18.5995703 27.7618987,18.9073108 L27.7690216,19.0015565 L27.7690216,33.6191135 C29.4166433,33.919998 30.6719734,35.3408005 30.6719734,37.0432476 C30.6719734,38.963255 29.0766502,40.5248058 27.1151922,40.5248058 C25.1537494,40.5248058 23.5518945,38.963255 23.5583865,37.0432476 C23.5583865,35.4038541 24.7224894,34.025629 26.279967,33.6571112 L26.4613779,33.6191135 L26.4613779,19.0015565 C26.4613779,18.6495527 26.7556042,18.361559 27.1151922,18.361559 Z M27.1151922,34.8352316 C25.8729405,34.8352316 24.8660699,35.8207654 24.8660699,37.0367356 C24.8660699,38.2528537 25.8729405,39.2383875 27.1151922,39.2383875 C28.3574439,39.2383875 29.3643297,38.2528537 29.3643297,37.0367356 C29.3643297,35.8207654 28.3574439,34.8352316 27.1151922,34.8352316 Z M36.3462311,27.5204666 C36.7057737,27.5204666 37,27.8084751 37,28.1605677 C37,28.4805174 36.7568378,28.7476273 36.4424968,28.7935485 L36.3462311,28.8005208 L33.567441,28.8005208 C33.2078378,28.8005208 32.9136267,28.5125123 32.9136267,28.1605677 C32.9136267,27.8404835 33.1567764,27.5733614 33.4711606,27.527439 L33.567441,27.5204666 L36.3462311,27.5204666 Z M35.3915833,24.4665699 C35.751126,24.4665699 36.0453522,24.7545636 36.0453522,25.1065675 C36.0453522,25.4265709 35.80219,25.6936735 35.487849,25.7395929 L35.3915833,25.746565 L33.567441,25.746565 C33.2078378,25.746565 32.9136267,25.4585713 32.9136267,25.1065675 C32.9136267,24.786564 33.1567764,24.5194614 33.4711606,24.473542 L33.567441,24.4665699 L35.3915833,24.4665699 Z M36.3462311,21.4140645 C36.7057737,21.4140645 37,21.7020582 37,22.054062 C37,22.3740655 36.7568378,22.641168 36.4424968,22.6870875 L36.3462311,22.6940595 L33.567441,22.6940595 C33.2078378,22.6940595 32.9136267,22.4060658 32.9136267,22.054062 C32.9136267,21.7340585 33.1567764,21.466956 33.4711606,21.4210365 L33.567441,21.4140645 L36.3462311,21.4140645 Z M35.3915833,18.361559 C35.751126,18.361559 36.0453522,18.6495527 36.0453522,19.0015565 C36.0453522,19.32156 35.80219,19.5886626 35.487849,19.634582 L35.3915833,19.6415541 L33.567441,19.6415541 C33.2078378,19.6415541 32.9136267,19.3535604 32.9136267,19.0015565 C32.9136267,18.6815531 33.1567764,18.4144505 33.4711606,18.3685311 L33.567441,18.361559 L35.3915833,18.361559 Z M36.3462311,15.3018163 C36.7057737,15.3018163 37,15.5898249 37,15.9418287 C37,16.2618187 36.7568378,16.5289323 36.4424968,16.5748538 L36.3462311,16.5818262 L33.567441,16.5818262 C33.2078378,16.5818262 32.9136267,16.2938177 32.9136267,15.9418287 C32.9136267,15.6218252 33.1567764,15.3547104 33.4711606,15.3087887 L33.567441,15.3018163 L36.3462311,15.3018163 Z"/></svg>