<?xml version="1.0" encoding="UTF-8"?>
<svg width="17px" height="32px" viewBox="0 0 17 32" version="1.1" xmlns="http://www.w3.org/2000/svg" xmlns:xlink="http://www.w3.org/1999/xlink">
    <title>temperature</title>
    <defs>
        <filter color-interpolation-filters="auto" id="filter-1">
            <feColorMatrix in="SourceGraphic" type="matrix" values="0 0 0 0 0.974977 0 0 0 0 0.989612 0 0 0 0 0.991508 0 0 0 1.000000 0"></feColorMatrix>
        </filter>
    </defs>
    <g id="Homepage" stroke="none" stroke-width="1" fill="none" fill-rule="evenodd">
        <g id="temperature" transform="translate(-452.000000, -2310.000000)" filter="url(#filter-1)">
            <g transform="translate(452.000000, 2310.000000)">
                <path d="M7.11519222,28.5248058 C9.0766502,28.5248058 10.6719734,26.963255 10.6719734,25.0432476 C10.6719734,23.3408005 9.41664331,21.919998 7.76902163,21.6191135 L7.76902163,7.00155655 C7.76902163,6.64955272 7.47479537,6.361559 7.11519222,6.361559 C6.75560419,6.361559 6.46137793,6.64955272 6.46137793,7.00155655 L6.46137793,21.6191135 C4.81375626,21.919998 3.55840627,23.3408005 3.55840627,25.0432476 C3.55189453,26.963255 5.15374936,28.5248058 7.11519222,28.5248058 Z M7.11519222,22.8352316 C8.3574439,22.8352316 9.3643297,23.8207654 9.3643297,25.0367356 C9.3643297,26.2528537 8.3574439,27.2383875 7.11519222,27.2383875 C5.87294054,27.2383875 4.86606987,26.2528537 4.86606987,25.0367356 C4.86606987,23.8207654 5.87294054,22.8352316 7.11519222,22.8352316 Z" id="Shape" fill="#1E3791" fill-rule="nonzero"></path>
                <path d="M7.11354419,32 C11.036445,32 14.2270763,28.8768984 14.2270763,25.0368836 C14.2270763,22.7008474 13.0044347,20.5057075 11.016835,19.2256532 L11.016835,3.82080886 C11.0102882,1.7152091 9.26460121,0 7.11354419,0 C4.96247206,0 3.2102534,1.7152091 3.2102534,3.82080886 L3.2102534,19.2256532 C1.22263861,20.5057075 0,22.7008474 0,25.0368836 C0,28.8768984 3.19062823,32 7.11354419,32 Z M4.19096727,20.1343748 C4.39365983,20.0192306 4.51788197,19.8080342 4.51788197,19.5839618 L4.51788197,3.82080886 C4.51788197,2.41920196 5.68167835,1.28000249 7.11354419,1.28000249 C8.54539491,1.28000249 9.70919129,2.41920196 9.70919129,3.82080886 L9.70919129,19.5839618 C9.70919129,19.8143982 9.83342856,20.0192306 10.036106,20.1343748 C11.8144966,21.1520246 12.9194477,23.027188 12.9194477,25.0368836 C12.9194477,28.1664972 10.3172539,30.7200937 7.11354419,30.7200937 C3.90983453,30.7200937 1.30764067,28.1728612 1.30764067,25.0368836 C1.30764067,23.0337 2.4125918,21.1520246 4.19096727,20.1343748 Z" id="Shape" fill="#1E3791" fill-rule="nonzero"></path>
                <path d="M13.567441,4.58182622 L16.3462311,4.58182622 C16.7057737,4.58182622 17,4.29381771 17,3.94182868 C17,3.58982485 16.7057737,3.30181634 16.3462311,3.30181634 L13.567441,3.30181634 C13.2078378,3.30181634 12.9136267,3.58982485 12.9136267,3.94182868 C12.9136267,4.29381771 13.2078378,4.58182622 13.567441,4.58182622 Z" id="Path" fill="#1E3791" fill-rule="nonzero"></path>
                <path d="M13.567441,7.64155409 L15.3915833,7.64155409 C15.751126,7.64155409 16.0453522,7.35356038 16.0453522,7.00155655 C16.0453522,6.64955272 15.751126,6.361559 15.3915833,6.361559 L13.567441,6.361559 C13.2078378,6.361559 12.9136267,6.64955272 12.9136267,7.00155655 C12.9136267,7.35356038 13.2078378,7.64155409 13.567441,7.64155409 Z" id="Path" fill="#1E3791" fill-rule="nonzero"></path>
                <path d="M13.567441,10.6940595 L16.3462311,10.6940595 C16.7057737,10.6940595 17,10.4060658 17,10.054062 C17,9.70205817 16.7057737,9.41406446 16.3462311,9.41406446 L13.567441,9.41406446 C13.2078378,9.41406446 12.9136267,9.70205817 12.9136267,10.054062 C12.9136267,10.4060658 13.2078378,10.6940595 13.567441,10.6940595 Z" id="Path" fill="#1E3791" fill-rule="nonzero"></path>
                <path d="M13.567441,13.746565 L15.3915833,13.746565 C15.751126,13.746565 16.0453522,13.4585713 16.0453522,13.1065675 C16.0453522,12.7545636 15.751126,12.4665699 15.3915833,12.4665699 L13.567441,12.4665699 C13.2078378,12.4665699 12.9136267,12.7545636 12.9136267,13.1065675 C12.9136267,13.4585713 13.2078378,13.746565 13.567441,13.746565 Z" id="Path" fill="#1E3791" fill-rule="nonzero"></path>
                <path d="M13.567441,16.8005208 L16.3462311,16.8005208 C16.7057737,16.8005208 17,16.5125123 17,16.1605677 C17,15.8084751 16.7057737,15.5204666 16.3462311,15.5204666 L13.567441,15.5204666 C13.2078378,15.5204666 12.9136267,15.8084751 12.9136267,16.1605677 C12.9136267,16.5125123 13.2078378,16.8005208 13.567441,16.8005208 Z" id="Path" fill="#1E3791" fill-rule="nonzero"></path>
            </g>
        </g>
    </g>
</svg>