<svg width="17" height="32" xmlns="http://www.w3.org/2000/svg"><defs><filter color-interpolation-filters="auto" id="a"><feColorMatrix in="SourceGraphic" values="0 0 0 0 0.974977 0 0 0 0 0.989612 0 0 0 0 0.991508 0 0 0 1.000000 0"/></filter></defs><g transform="translate(-452 -2310)" filter="url(#a)" fill="none" fill-rule="evenodd"><g fill="#1E3791" fill-rule="nonzero"><path d="M459.115 2338.525c1.962 0 3.557-1.562 3.557-3.482 0-1.702-1.255-3.123-2.903-3.424v-14.617a.649.649 0 0 0-.654-.64.649.649 0 0 0-.654.64v14.617c-1.647.301-2.903 1.722-2.903 3.424-.006 1.92 1.596 3.482 3.557 3.482Zm0-5.69c1.242 0 2.25.986 2.25 2.202s-1.008 2.201-2.25 2.201-2.249-.985-2.249-2.201c0-1.216 1.007-2.202 2.25-2.202Z"/><path d="M459.114 2342c3.922 0 7.113-3.123 7.113-6.963 0-2.336-1.223-4.531-3.21-5.811v-15.405c-.007-2.106-1.752-3.821-3.903-3.821-2.152 0-3.904 1.715-3.904 3.82v15.406c-1.987 1.28-3.21 3.475-3.21 5.81 0 3.84 3.19 6.964 7.114 6.964Zm-2.923-11.866a.637.637 0 0 0 .327-.55v-15.763c0-1.402 1.164-2.541 2.596-2.541 1.431 0 2.595 1.14 2.595 2.54v15.764c0 .23.124.435.327.55 1.778 1.018 2.883 2.893 2.883 4.903 0 3.13-2.602 5.683-5.805 5.683-3.204 0-5.806-2.547-5.806-5.683 0-2.003 1.105-3.885 2.883-4.903Zm9.376-15.552h2.78a.649.649 0 0 0 .653-.64.649.649 0 0 0-.654-.64h-2.779a.649.649 0 0 0-.653.64c0 .352.294.64.653.64Zm0 3.06h1.825c.36 0 .653-.288.653-.64a.649.649 0 0 0-.653-.64h-1.825a.649.649 0 0 0-.653.64c0 .352.294.64.653.64Zm0 3.052h2.78a.649.649 0 0 0 .653-.64.649.649 0 0 0-.654-.64h-2.779a.649.649 0 0 0-.653.64c0 .352.294.64.653.64Zm0 3.053h1.825c.36 0 .653-.288.653-.64a.649.649 0 0 0-.653-.64h-1.825a.649.649 0 0 0-.653.64c0 .352.294.64.653.64Z"/><path d="M465.567 2326.8h2.78a.648.648 0 0 0 .653-.64.649.649 0 0 0-.654-.64h-2.779a.649.649 0 0 0-.653.64c0 .353.294.64.653.64Z"/></g></g></svg>