<svg width="56" height="56" viewBox="0 0 56 56" xmlns="http://www.w3.org/2000/svg"><path d="M23.84,25.28 L23.84,23.72 L19.88,23.72 L19.88,11.28 L16.62,11.28 L14,17.16 L14,17.28 L15.66,17.28 L17.96,12.02 L18.2,12.02 L18.2,23.72 L14.24,23.72 L14.24,25.28 L23.84,25.28 Z M40.94,25.28 L40.94,23.72 L33.14,23.72 L33.14,23.12 C33.14,22.24 33.44,21.57 34.04,21.11 C34.64,20.65 35.58,20.28 36.86,20 C38.3266667,19.68 39.3933333,19.1433333 40.06,18.39 C40.7266667,17.6366667 41.06,16.7266667 41.06,15.66 L41.06,15.66 L41.06,15.3 C41.06,14.7666667 40.9633333,14.2433333 40.77,13.73 C40.5766667,13.2166667 40.28,12.7566667 39.88,12.35 C39.48,11.9433333 38.98,11.6166667 38.38,11.37 C37.78,11.1233333 37.0733333,11 36.26,11 C35.46,11 34.7533333,11.1333333 34.14,11.4 C33.5266667,11.6666667 33.0133333,12.0266667 32.6,12.48 C32.1866667,12.9333333 31.8733333,13.4533333 31.66,14.04 C31.4466667,14.6266667 31.34,15.24 31.34,15.88 L31.34,15.88 L31.34,16.88 L33.02,16.88 L33.02,16 C33.02,14.96 33.3033333,14.1266667 33.87,13.5 C34.4366667,12.8733333 35.2333333,12.56 36.26,12.56 C36.8066667,12.56 37.2766667,12.6433333 37.67,12.81 C38.0633333,12.9766667 38.3866667,13.2 38.64,13.48 C38.8933333,13.76 39.08,14.0733333 39.2,14.42 C39.32,14.7666667 39.38,15.12 39.38,15.48 L39.38,15.48 L39.38,15.6 C39.38,16.32 39.1166667,16.9266667 38.59,17.42 C38.0633333,17.9133333 37.2066667,18.2933333 36.02,18.56 C35.3133333,18.72 34.68,18.9133333 34.12,19.14 C33.56,19.3666667 33.0833333,19.65 32.69,19.99 C32.2966667,20.33 31.9933333,20.7366667 31.78,21.21 C31.5666667,21.6833333 31.46,22.24 31.46,22.88 L31.46,22.88 L31.46,25.28 L40.94,25.28 Z M19.16,45.56 C19.84,45.56 20.47,45.45 21.05,45.23 C21.63,45.01 22.1333333,44.71 22.56,44.33 C22.9866667,43.95 23.32,43.5 23.56,42.98 C23.8,42.46 23.92,41.9 23.92,41.3 L23.92,41.3 L23.92,40.94 C23.92,40.3 23.8033333,39.7366667 23.57,39.25 C23.3366667,38.7633333 23.03,38.3533333 22.65,38.02 C22.27,37.6866667 21.8333333,37.4333333 21.34,37.26 C20.8466667,37.0866667 20.3333333,37 19.8,37 L19.8,37 L19,37 L19,36.76 L23.56,33.84 L23.56,31.28 L14.2,31.28 L14.2,32.84 L22.12,32.84 L22.12,33.08 L17.56,36 L17.56,38.32 L19.44,38.32 C20.24,38.32 20.9066667,38.5566667 21.44,39.03 C21.9733333,39.5033333 22.24,40.16 22.24,41 L22.24,41 L22.24,41.12 C22.24,41.52 22.16,41.8966667 22,42.25 C21.84,42.6033333 21.62,42.91 21.34,43.17 C21.06,43.43 20.73,43.6333333 20.35,43.78 C19.97,43.9266667 19.56,44 19.12,44 C18.64,44 18.1933333,43.9266667 17.78,43.78 C17.3666667,43.6333333 17.01,43.4233333 16.71,43.15 C16.41,42.8766667 16.1766667,42.5433333 16.01,42.15 C15.8433333,41.7566667 15.76,41.3066667 15.76,40.8 L15.76,40.8 L15.76,39.84 L14.08,39.84 L14.08,40.92 C14.08,41.56 14.1966667,42.1633333 14.43,42.73 C14.6633333,43.2966667 15,43.79 15.44,44.21 C15.88,44.63 16.4133333,44.96 17.04,45.2 C17.6666667,45.44 18.3733333,45.56 19.16,45.56 Z M39.2,45.28 L39.2,42.64 L41.36,42.64 L41.36,41.08 L39.2,41.08 L39.2,31.28 L35.94,31.28 L31.04,40.32 L31.04,42.64 L37.52,42.64 L37.52,45.28 L39.2,45.28 Z M37.52,41.08 L32.48,41.08 L32.48,40.84 L37.28,32 L37.52,32 L37.52,41.08 Z" fill="#F9FCFD"/></svg>