<?xml version="1.0" encoding="UTF-8"?>
<svg width="51px" height="51px" viewBox="0 0 51 51" version="1.1" xmlns="http://www.w3.org/2000/svg" xmlns:xlink="http://www.w3.org/1999/xlink">
    <title>visualisations</title>
    <defs>
        <filter color-interpolation-filters="auto" id="filter-1">
            <feColorMatrix in="SourceGraphic" type="matrix" values="0 0 0 0 0.974977 0 0 0 0 0.989612 0 0 0 0 0.991508 0 0 0 1.000000 0"></feColorMatrix>
        </filter>
    </defs>
    <g id="Homepage" stroke="none" stroke-width="1" fill="none" fill-rule="evenodd">
        <g id="Homepage-V2" transform="translate(-1059.000000, -2373.000000)">
            <g id="visualisations" transform="translate(1059.000000, 2373.000000)">
                <g id="Group-11">
                    <g filter="url(#filter-1)" id="Group-14">
                        <g>
                            <g id="Group-13" fill="#D8D8D8">
                                <circle id="Oval" cx="13.5" cy="1.5" r="1.5"></circle>
                                <circle id="Oval" cx="13.5" cy="7.5" r="1.5"></circle>
                                <circle id="Oval" cx="31.5" cy="1.5" r="1.5"></circle>
                                <circle id="Oval" cx="31.5" cy="7.5" r="1.5"></circle>
                                <circle id="Oval" cx="37.5" cy="1.5" r="1.5"></circle>
                                <circle id="Oval" cx="49.5" cy="1.5" r="1.5"></circle>
                                <circle id="Oval" cx="37.5" cy="7.5" r="1.5"></circle>
                                <circle id="Oval" cx="49.5" cy="7.5" r="1.5"></circle>
                                <circle id="Oval" cx="43.5" cy="1.5" r="1.5"></circle>
                                <circle id="Oval" cx="43.5" cy="7.5" r="1.5"></circle>
                                <circle id="Oval" cx="7.5" cy="1.5" r="1.5"></circle>
                                <circle id="Oval" cx="7.5" cy="7.5" r="1.5"></circle>
                                <circle id="Oval" cx="25.5" cy="1.5" r="1.5"></circle>
                                <circle id="Oval" cx="25.5" cy="7.5" r="1.5"></circle>
                                <circle id="Oval" cx="1.5" cy="1.5" r="1.5"></circle>
                                <circle id="Oval" cx="1.5" cy="7.5" r="1.5"></circle>
                                <circle id="Oval" cx="19.5" cy="1.5" r="1.5"></circle>
                                <circle id="Oval" cx="19.5" cy="7.5" r="1.5"></circle>
                            </g>
                            <g id="Group-13" transform="translate(0.000000, 24.000000)" fill="#D8D8D8">
                                <circle id="Oval" cx="13.5" cy="1.5" r="1.5"></circle>
                                <circle id="Oval" cx="13.5" cy="7.5" r="1.5"></circle>
                                <circle id="Oval" cx="31.5" cy="1.5" r="1.5"></circle>
                                <circle id="Oval" cx="31.5" cy="7.5" r="1.5"></circle>
                                <circle id="Oval" cx="37.5" cy="1.5" r="1.5"></circle>
                                <circle id="Oval" cx="49.5" cy="1.5" r="1.5"></circle>
                                <circle id="Oval" cx="37.5" cy="7.5" r="1.5"></circle>
                                <circle id="Oval" cx="49.5" cy="7.5" r="1.5"></circle>
                                <circle id="Oval" cx="43.5" cy="1.5" r="1.5"></circle>
                                <circle id="Oval" cx="43.5" cy="7.5" r="1.5"></circle>
                                <circle id="Oval" cx="7.5" cy="1.5" r="1.5"></circle>
                                <circle id="Oval" cx="7.5" cy="7.5" r="1.5"></circle>
                                <circle id="Oval" cx="25.5" cy="1.5" r="1.5"></circle>
                                <circle id="Oval" cx="25.5" cy="7.5" r="1.5"></circle>
                                <circle id="Oval" cx="1.5" cy="1.5" r="1.5"></circle>
                                <circle id="Oval" cx="1.5" cy="7.5" r="1.5"></circle>
                                <circle id="Oval" cx="19.5" cy="1.5" r="1.5"></circle>
                                <circle id="Oval" cx="19.5" cy="7.5" r="1.5"></circle>
                            </g>
                            <g id="Group-13" transform="translate(0.000000, 12.000000)" fill="#D8D8D8">
                                <circle id="Oval" cx="13.5" cy="1.5" r="1.5"></circle>
                                <circle id="Oval" cx="13.5" cy="7.5" r="1.5"></circle>
                                <circle id="Oval" cx="31.5" cy="1.5" r="1.5"></circle>
                                <circle id="Oval" cx="31.5" cy="7.5" r="1.5"></circle>
                                <circle id="Oval" cx="37.5" cy="1.5" r="1.5"></circle>
                                <circle id="Oval" cx="49.5" cy="1.5" r="1.5"></circle>
                                <circle id="Oval" cx="37.5" cy="7.5" r="1.5"></circle>
                                <circle id="Oval" cx="49.5" cy="7.5" r="1.5"></circle>
                                <circle id="Oval" cx="43.5" cy="1.5" r="1.5"></circle>
                                <circle id="Oval" cx="43.5" cy="7.5" r="1.5"></circle>
                                <circle id="Oval" cx="7.5" cy="1.5" r="1.5"></circle>
                                <circle id="Oval" cx="7.5" cy="7.5" r="1.5"></circle>
                                <circle id="Oval" cx="25.5" cy="1.5" r="1.5"></circle>
                                <circle id="Oval" cx="25.5" cy="7.5" r="1.5"></circle>
                                <circle id="Oval" cx="1.5" cy="1.5" r="1.5"></circle>
                                <circle id="Oval" cx="1.5" cy="7.5" r="1.5"></circle>
                                <circle id="Oval" cx="19.5" cy="1.5" r="1.5"></circle>
                                <circle id="Oval" cx="19.5" cy="7.5" r="1.5"></circle>
                            </g>
                            <g id="Group-13" transform="translate(0.000000, 36.000000)" fill="#D8D8D8">
                                <circle id="Oval" cx="13.5" cy="1.5" r="1.5"></circle>
                                <circle id="Oval" cx="13.5" cy="7.5" r="1.5"></circle>
                                <circle id="Oval" cx="13.5" cy="13.5" r="1.5"></circle>
                                <circle id="Oval" cx="31.5" cy="1.5" r="1.5"></circle>
                                <circle id="Oval" cx="31.5" cy="7.5" r="1.5"></circle>
                                <circle id="Oval" cx="31.5" cy="13.5" r="1.5"></circle>
                                <circle id="Oval" cx="37.5" cy="1.5" r="1.5"></circle>
                                <circle id="Oval" cx="37.5" cy="7.5" r="1.5"></circle>
                                <circle id="Oval" cx="37.5" cy="13.5" r="1.5"></circle>
                                <circle id="Oval" cx="43.5" cy="1.5" r="1.5"></circle>
                                <circle id="Oval" cx="43.5" cy="7.5" r="1.5"></circle>
                                <circle id="Oval" cx="43.5" cy="13.5" r="1.5"></circle>
                                <circle id="Oval" cx="7.5" cy="1.5" r="1.5"></circle>
                                <circle id="Oval" cx="7.5" cy="7.5" r="1.5"></circle>
                                <circle id="Oval" cx="7.5" cy="13.5" r="1.5"></circle>
                                <circle id="Oval" cx="25.5" cy="1.5" r="1.5"></circle>
                                <circle id="Oval" cx="25.5" cy="7.5" r="1.5"></circle>
                                <circle id="Oval" cx="25.5" cy="13.5" r="1.5"></circle>
                                <circle id="Oval" cx="1.5" cy="1.5" r="1.5"></circle>
                                <circle id="Oval" cx="1.5" cy="7.5" r="1.5"></circle>
                                <circle id="Oval" cx="1.5" cy="13.5" r="1.5"></circle>
                                <circle id="Oval" cx="19.5" cy="1.5" r="1.5"></circle>
                                <circle id="Oval" cx="19.5" cy="7.5" r="1.5"></circle>
                                <circle id="Oval" cx="19.5" cy="13.5" r="1.5"></circle>
                            </g>
                        </g>
                    </g>
                    <line x1="1.5" y1="49.5" x2="1.5" y2="31.5" id="Path-4" stroke="#8330FF" stroke-width="3" stroke-linecap="round" stroke-linejoin="round"></line>
                </g>
                <g id="Group-16" transform="translate(7.000000, 7.500000)" stroke="#8330FF" stroke-linecap="round" stroke-linejoin="round" stroke-width="3">
                    <line x1="36.5" y1="42" x2="36.5" y2="24" id="Path-4"></line>
                    <line x1="0.5" y1="42" x2="0.5" y2="12" id="Path-4"></line>
                    <line x1="6.5" y1="42" x2="6.5" y2="30" id="Path-4"></line>
                    <line x1="30.5" y1="42" x2="30.5" y2="30" id="Path-4"></line>
                    <line x1="42.5" y1="42" x2="42.5" y2="30" id="Path-4"></line>
                    <line x1="12.5" y1="42" x2="12.5" y2="18" id="Path-4"></line>
                    <line x1="24.5" y1="42" x2="24.5" y2="18" id="Path-4"></line>
                    <line x1="18.5" y1="42" x2="18.5" y2="-9.50073353e-14" id="Path-4"></line>
                </g>
            </g>
        </g>
    </g>
</svg>