<svg width="51" height="51" xmlns="http://www.w3.org/2000/svg"><defs><filter color-interpolation-filters="auto" id="a"><feColorMatrix in="SourceGraphic" values="0 0 0 0 0.974977 0 0 0 0 0.989612 0 0 0 0 0.991508 0 0 0 1.000000 0"/></filter></defs><g fill="none" fill-rule="evenodd"><g filter="url(#a)"><g fill="#D8D8D8"><circle cx="13.5" cy="1.5" r="1.5"/><circle cx="13.5" cy="7.5" r="1.5"/><circle cx="31.5" cy="1.5" r="1.5"/><circle cx="31.5" cy="7.5" r="1.5"/><circle cx="37.5" cy="1.5" r="1.5"/><circle cx="49.5" cy="1.5" r="1.5"/><circle cx="37.5" cy="7.5" r="1.5"/><circle cx="49.5" cy="7.5" r="1.5"/><circle cx="43.5" cy="1.5" r="1.5"/><circle cx="43.5" cy="7.5" r="1.5"/><circle cx="7.5" cy="1.5" r="1.5"/><circle cx="7.5" cy="7.5" r="1.5"/><circle cx="25.5" cy="1.5" r="1.5"/><circle cx="25.5" cy="7.5" r="1.5"/><circle cx="1.5" cy="1.5" r="1.5"/><circle cx="1.5" cy="7.5" r="1.5"/><circle cx="19.5" cy="1.5" r="1.5"/><circle cx="19.5" cy="7.5" r="1.5"/><g transform="translate(0 24)"><circle cx="13.5" cy="1.5" r="1.5"/><circle cx="13.5" cy="7.5" r="1.5"/><circle cx="31.5" cy="1.5" r="1.5"/><circle cx="31.5" cy="7.5" r="1.5"/><circle cx="37.5" cy="1.5" r="1.5"/><circle cx="49.5" cy="1.5" r="1.5"/><circle cx="37.5" cy="7.5" r="1.5"/><circle cx="49.5" cy="7.5" r="1.5"/><circle cx="43.5" cy="1.5" r="1.5"/><circle cx="43.5" cy="7.5" r="1.5"/><circle cx="7.5" cy="1.5" r="1.5"/><circle cx="7.5" cy="7.5" r="1.5"/><circle cx="25.5" cy="1.5" r="1.5"/><circle cx="25.5" cy="7.5" r="1.5"/><circle cx="1.5" cy="1.5" r="1.5"/><circle cx="1.5" cy="7.5" r="1.5"/><circle cx="19.5" cy="1.5" r="1.5"/><circle cx="19.5" cy="7.5" r="1.5"/></g><g transform="translate(0 12)"><circle cx="13.5" cy="1.5" r="1.5"/><circle cx="13.5" cy="7.5" r="1.5"/><circle cx="31.5" cy="1.5" r="1.5"/><circle cx="31.5" cy="7.5" r="1.5"/><circle cx="37.5" cy="1.5" r="1.5"/><circle cx="49.5" cy="1.5" r="1.5"/><circle cx="37.5" cy="7.5" r="1.5"/><circle cx="49.5" cy="7.5" r="1.5"/><circle cx="43.5" cy="1.5" r="1.5"/><circle cx="43.5" cy="7.5" r="1.5"/><circle cx="7.5" cy="1.5" r="1.5"/><circle cx="7.5" cy="7.5" r="1.5"/><circle cx="25.5" cy="1.5" r="1.5"/><circle cx="25.5" cy="7.5" r="1.5"/><circle cx="1.5" cy="1.5" r="1.5"/><circle cx="1.5" cy="7.5" r="1.5"/><circle cx="19.5" cy="1.5" r="1.5"/><circle cx="19.5" cy="7.5" r="1.5"/></g><g transform="translate(0 36)"><circle cx="13.5" cy="1.5" r="1.5"/><circle cx="13.5" cy="7.5" r="1.5"/><circle cx="13.5" cy="13.5" r="1.5"/><circle cx="31.5" cy="1.5" r="1.5"/><circle cx="31.5" cy="7.5" r="1.5"/><circle cx="31.5" cy="13.5" r="1.5"/><circle cx="37.5" cy="1.5" r="1.5"/><circle cx="37.5" cy="7.5" r="1.5"/><circle cx="37.5" cy="13.5" r="1.5"/><circle cx="43.5" cy="1.5" r="1.5"/><circle cx="43.5" cy="7.5" r="1.5"/><circle cx="43.5" cy="13.5" r="1.5"/><circle cx="7.5" cy="1.5" r="1.5"/><circle cx="7.5" cy="7.5" r="1.5"/><circle cx="7.5" cy="13.5" r="1.5"/><circle cx="25.5" cy="1.5" r="1.5"/><circle cx="25.5" cy="7.5" r="1.5"/><circle cx="25.5" cy="13.5" r="1.5"/><circle cx="1.5" cy="1.5" r="1.5"/><circle cx="1.5" cy="7.5" r="1.5"/><circle cx="1.5" cy="13.5" r="1.5"/><circle cx="19.5" cy="1.5" r="1.5"/><circle cx="19.5" cy="7.5" r="1.5"/><circle cx="19.5" cy="13.5" r="1.5"/></g></g></g><path stroke="#8330FF" stroke-width="3" stroke-linecap="round" stroke-linejoin="round" d="M1.5 49.5v-18M43.5 49.5v-18m-36 18v-30m6 30v-12m24 12v-12m12 12v-12m-30 12v-24m12 24v-24m-6 24v-42"/></g></svg>