<svg width="53" height="53" viewBox="0 0 53 53" fill="none" xmlns="http://www.w3.org/2000/svg">
<path d="M26.2661 52.5511C40.7725 52.5511 52.5322 40.7871 52.5322 26.2755C52.5322 11.764 40.7725 0 26.2661 0C11.7597 0 0 11.764 0 26.2755C0 40.7871 11.7597 52.5511 26.2661 52.5511Z" fill="#24397D"/>
<path d="M16.5433 36.2368C15.9484 36.2423 15.3755 36.0112 14.9508 35.5944L7.2436 27.8689C6.36672 26.9892 6.36672 25.5655 7.2436 24.6858L14.9508 16.9758C15.5171 16.3967 16.3507 16.1667 17.1337 16.3735C17.9167 16.5802 18.5282 17.192 18.7349 17.9752C18.9416 18.7585 18.7117 19.5925 18.1328 20.1589L12.015 26.2789L18.1328 32.3957C18.7749 33.0394 18.9668 34.0064 18.6191 34.8467C18.2714 35.6869 17.4524 36.2353 16.5433 36.2368ZM35.7661 36.2367C34.853 36.2316 34.0335 35.6751 33.6918 34.8281C33.3501 33.9811 33.554 33.0115 34.2078 32.3739L40.4752 26.2789L34.2016 20.1808C33.3551 19.3068 33.3562 17.9182 34.2041 17.0456C35.0519 16.173 36.4395 16.1324 37.3368 16.954L45.2715 24.6639C45.7078 25.0873 45.9539 25.6693 45.9539 26.2773C45.9539 26.8853 45.7078 27.4674 45.2715 27.8907L37.3337 35.5944C36.9153 36.0054 36.3525 36.236 35.7661 36.2367Z" fill="#C7CDE2"/>
<path d="M22.6857 40.2145C22.4751 40.2145 22.2654 40.1864 22.0624 40.1303C20.8659 39.7929 20.1686 38.5499 20.5041 37.3525L27.0987 13.9701C27.318 13.1949 27.9341 12.5956 28.7149 12.398C29.4957 12.2004 30.3226 12.4346 30.884 13.0122C31.4455 13.5898 31.6562 14.4232 31.4369 15.1985L24.8423 38.5808C24.5674 39.5451 23.6881 40.2112 22.6857 40.2145Z" fill="white"/>
</svg>
