<?xml version="1.0" encoding="UTF-8"?>
<svg width="45px" height="51px" viewBox="0 0 45 51" version="1.1" xmlns="http://www.w3.org/2000/svg" xmlns:xlink="http://www.w3.org/1999/xlink">
    <title>giessdenkiez-logo</title>
    <g id="Page-1" stroke="none" stroke-width="1" fill="none" fill-rule="evenodd">
        <g id="giessdenkiez-logo" transform="translate(1.000000, 1.000000)">
            <path d="M9,42 C13.9706,42 18,37.9706 18,33 C18,28.0294 13.9706,24 9,24 C4.0294,24 0,28.0294 0,33 C0,37.9706 4.0294,42 9,42 Z" id="Path" fill="#E3FFEF" fill-rule="nonzero"></path>
            <path d="M13.3645,41 C15.2679,40.29 16.8844,39.0248 18,37.4107" id="Shape" stroke="#6FE5A4" stroke-width="2" stroke-linecap="round"></path>
            <path d="M4.8652,24 C1.95472,25.6423 0,28.6871 0,32.1719 C0,35.9973 2.3556,39.2926 5.7453,40.7843" id="Path" stroke="#6FE5A4" stroke-width="2" stroke-linecap="round"></path>
            <path d="M8.5,48.5 L8.5,31.5 C8.5,30.9477 8.9477,30.5 9.5,30.5 C10.0523,30.5 10.5,30.9477 10.5,31.5 L10.5,48.5 C10.5,49.0523 10.0523,49.5 9.5,49.5 C8.9477,49.5 8.5,49.0523 8.5,48.5 Z" id="Path" fill="#000000"></path>
            <path d="M8.5728,37.2339 L3.9533,32.6438 C3.5983,32.291 3.5965,31.7172 3.9493,31.3622 C3.9506,31.3608 3.952,31.3595 3.9533,31.3581 C4.3113,31.0024 4.8892,31.0024 5.2472,31.3581 L9.8667,35.9483 C10.2217,36.301 10.2235,36.8748 9.8707,37.2298 C9.8694,37.2312 9.868,37.2326 9.8667,37.2339 C9.5087,37.5896 8.9308,37.5896 8.5728,37.2339 Z" id="Path" fill="#000000"></path>
            <path d="M29.2246,34 C37.1003,32.3226 43,25.4359 43,17.1951 C43,7.6985 35.165,0 25.5,0 C15.835,0 8,7.6985 8,17.1951 C8,25.372 13.8086,32.2158 21.5926,33.9601" id="Path" fill="#E3FFEF"></path>
            <path d="M29.2246,34 C37.1003,32.3226 43,25.4359 43,17.1951 C43,7.6985 35.165,0 25.5,0 C15.835,0 8,7.6985 8,17.1951 C8,25.372 13.8086,32.2158 21.5926,33.9601" id="Path" stroke="#6FE5A4" stroke-width="2" stroke-linecap="round"></path>
            <path d="M24,12 L24,48 C24,48.5523 24.4477,49 25,49 C25.5523,49 26,48.5523 26,48 L26,12 C26,11.4477 25.5523,11 25,11 C24.4477,11 24,11.4477 24,12 Z" id="Path" fill="#000000" fill-rule="nonzero"></path>
            <path d="M24.0117,27.0138 L17.1178,20.1637 C16.7628,19.811 16.761,19.2372 17.1138,18.8822 C17.1151,18.8808 17.1165,18.8794 17.1178,18.8781 C17.4758,18.5224 18.0537,18.5224 18.4117,18.8781 L25.3055,25.7282 C25.6605,26.0809 25.6624,26.6547 25.3096,27.0097 C25.3082,27.0111 25.3069,27.0125 25.3055,27.0138 C24.9476,27.3695 24.3696,27.3695 24.0117,27.0138 Z" id="Path" fill="#000000"></path>
            <path d="M24.8694,19.9753 L31.3083,13.5772 C31.6663,13.2215 32.2442,13.2215 32.6022,13.5772 C32.9572,13.93 32.959,14.5038 32.6063,14.8588 C32.6049,14.8602 32.6036,14.8615 32.6022,14.8629 L26.1632,21.261 C25.8053,21.6167 25.2273,21.6167 24.8694,21.261 C24.5144,20.9082 24.5125,20.3344 24.8653,19.9794 C24.8667,19.9781 24.868,19.9767 24.8694,19.9753 Z" id="Path" fill="#000000"></path>
        </g>
    </g>
</svg>