<?xml version="1.0" encoding="UTF-8"?>
<svg width="50px" height="50px" viewBox="0 0 50 50" version="1.1" xmlns="http://www.w3.org/2000/svg" xmlns:xlink="http://www.w3.org/1999/xlink">
    <title>stadtpuls logo</title>
    <defs>
        <rect id="path-1" x="0" y="0" width="50" height="50"></rect>
    </defs>
    <g id="Favicons/android-chrome-512x512" stroke="none" stroke-width="1" fill="none" fill-rule="evenodd">
        <g id="Logo/Square/V1">
            <mask id="mask-2" fill="white">
                <use xlink:href="#path-1"></use>
            </mask>
            <use id="Rectangle" fill="#8330FF" transform="translate(25.000000, 25.000000) scale(-1, 1) translate(-25.000000, -25.000000) " xlink:href="#path-1"></use>
            <g id="Group-9" mask="url(#mask-2)" fill="#0000C2">
                <g transform="translate(5.172414, 5.172414)" id="Oval">
                    <circle cx="2.5862069" cy="2.5862069" r="2.5862069"></circle>
                    <circle cx="19.8275862" cy="19.8275862" r="2.5862069"></circle>
                    <circle cx="37.0689655" cy="37.0689655" r="2.5862069"></circle>
                    <circle cx="2.5862069" cy="19.8275862" r="2.5862069"></circle>
                    <circle cx="19.8275862" cy="2.5862069" r="2.5862069"></circle>
                    <circle cx="37.0689655" cy="19.8275862" r="2.5862069"></circle>
                    <circle cx="2.5862069" cy="37.0689655" r="2.5862069"></circle>
                    <circle cx="19.8275862" cy="37.0689655" r="2.5862069"></circle>
                    <circle cx="37.0689655" cy="2.5862069" r="2.5862069"></circle>
                </g>
            </g>
            <path d="M25,22.4137931 C26.4283226,22.4137931 27.5862069,23.5716774 27.5862069,25 C27.5862069,26.1259906 26.866622,27.0839131 25.8622298,27.4389899 L25.8622298,39.8023894 C26.866622,40.1574662 27.5862069,41.1153887 27.5862069,42.2413793 C27.5862069,43.6697019 26.4283226,44.8275862 25,44.8275862 C23.8107013,44.8275862 22.808901,44.0248102 22.5069126,42.9315715 L10.2517081,42.9315715 C9.94971969,44.0248102 8.94791938,44.8275862 7.75862069,44.8275862 C6.33029806,44.8275862 5.17241379,43.6697019 5.17241379,42.2413793 C5.17241379,40.8130567 6.33029806,39.6551724 7.75862069,39.6551724 C8.81903031,39.6551724 9.73037929,40.2933769 10.1295194,41.2066376 L22.6286646,41.2076373 C22.9138847,40.5542784 23.4612141,40.0415682 24.1377702,39.8023894 L24.1377702,27.4389899 C23.133378,27.0839131 22.4137931,26.1259906 22.4137931,25 C22.4137931,23.5716774 23.5716774,22.4137931 25,22.4137931 Z" id="Combined-Shape" fill="#46ECA1" mask="url(#mask-2)"></path>
            <path d="M42.2413793,5.17241379 C43.6697019,5.17241379 44.8275862,6.33029806 44.8275862,7.75862069 C44.8275862,8.97180887 43.9922355,9.98989043 42.8653443,10.269055 L42.8653443,22.4895656 C43.9922355,22.7687303 44.8275862,23.7868118 44.8275862,25 C44.8275862,26.2131882 43.9922355,27.2312697 42.8653443,27.5104344 L42.8653443,39.730945 C43.9922355,40.0101096 44.8275862,41.0281911 44.8275862,42.2413793 C44.8275862,43.6697019 43.6697019,44.8275862 42.2413793,44.8275862 C40.8130567,44.8275862 39.6551724,43.6697019 39.6551724,42.2413793 C39.6551724,41.2066951 40.2627869,40.3139269 41.1406616,39.9004291 L41.1416677,27.3414239 C40.2632512,26.9281344 39.6551724,26.0350794 39.6551724,25 C39.6551724,23.9649206 40.2632512,23.0718656 41.1416677,22.6585761 L41.142674,10.1005178 C40.5409684,9.81773648 40.0659879,9.30988976 39.8262071,8.68545231 L27.4147928,8.68643983 C27.0418658,9.65642252 26.1013257,10.3448276 25,10.3448276 C23.5716774,10.3448276 22.4137931,9.18694332 22.4137931,7.75862069 C22.4137931,6.33029806 23.5716774,5.17241379 25,5.17241379 C26.1502818,5.17241379 27.1251658,5.92338108 27.4611243,6.96178796 L39.780255,6.96178796 C40.1162135,5.92338108 41.0910975,5.17241379 42.2413793,5.17241379 Z" id="Combined-Shape" fill="#F9FCFD" mask="url(#mask-2)"></path>
            <path d="M7.75862069,5.17241379 C9.18694332,5.17241379 10.3448276,6.33029806 10.3448276,7.75862069 C10.3448276,8.88423758 9.62572024,9.84189795 8.62185048,10.1972569 L8.62185048,22.5613638 C9.62572024,22.9167227 10.3448276,23.8743831 10.3448276,25 C10.3448276,26.4283226 9.18694332,27.5862069 7.75862069,27.5862069 C6.33029806,27.5862069 5.17241379,26.4283226 5.17241379,25 C5.17241379,23.8740094 5.89199871,22.9160869 6.89639086,22.5610101 L6.89639086,10.1976106 C5.89199871,9.84253383 5.17241379,8.88461129 5.17241379,7.75862069 C5.17241379,6.33029806 6.33029806,5.17241379 7.75862069,5.17241379 Z" id="Combined-Shape" fill="#0000C2" mask="url(#mask-2)"></path>
        </g>
    </g>
</svg>