<?xml version="1.0" encoding="UTF-8"?>
<svg width="31px" height="33px" viewBox="0 0 31 33" version="1.1" xmlns="http://www.w3.org/2000/svg" xmlns:xlink="http://www.w3.org/1999/xlink">
    <title>Illustrations/Microcontroller/V3</title>
    <defs>
        <filter color-interpolation-filters="auto" id="filter-1">
            <feColorMatrix in="SourceGraphic" type="matrix" values="0 0 0 0 0.274510 0 0 0 0 0.925490 0 0 0 0 0.631373 0 0 0 1.000000 0"></feColorMatrix>
        </filter>
    </defs>
    <g id="Illustrations/Microcontroller/V3" stroke="none" stroke-width="1" fill="none" fill-rule="evenodd">
        <polygon id="Rectangle" fill="#8330FF" transform="translate(15.500000, 16.500000) rotate(-180.000000) translate(-15.500000, -16.500000) " points="2.96323558 2.7000624e-13 27.9691574 2.7000624e-13 31 3.25577311 31 30.0605844 28.0832671 33 3.05943442 33 -1.77635684e-15 30.0204294 -1.77635684e-15 3.24739543"></polygon>
        <g filter="url(#filter-1)" id="Group">
            <g transform="translate(15.500000, 16.500000) rotate(-180.000000) translate(-15.500000, -16.500000) translate(3.000000, 3.000000)">
                <circle id="Oval" fill="#D8D8D8" cx="1.5" cy="1.5" r="1.5"></circle>
                <circle id="Oval" fill="#D8D8D8" cx="1.5" cy="19.5" r="1.5"></circle>
                <circle id="Oval" fill="#D8D8D8" cx="1.5" cy="13.5" r="1.5"></circle>
                <circle id="Oval" fill="#D8D8D8" cx="1.5" cy="7.5" r="1.5"></circle>
                <circle id="Oval" fill="#D8D8D8" cx="1.5" cy="25.5" r="1.5"></circle>
                <circle id="Oval" fill="#D8D8D8" cx="23.5" cy="1.5" r="1.5"></circle>
                <circle id="Oval" fill="#D8D8D8" cx="23.5" cy="7.5" r="1.5"></circle>
                <circle id="Oval" fill="#D8D8D8" cx="23.5" cy="13.5" r="1.5"></circle>
                <circle id="Oval" fill="#D8D8D8" cx="23.5" cy="19.5" r="1.5"></circle>
                <circle id="Oval" fill="#D8D8D8" cx="23.5" cy="25.5" r="1.5"></circle>
            </g>
        </g>
        <rect id="Rectangle" fill="#46ECA1" transform="translate(15.500000, 23.500000) rotate(-180.000000) translate(-15.500000, -23.500000) " x="9" y="17" width="13" height="13"></rect>
        <rect id="Rectangle" fill="#46ECA1" transform="translate(13.500000, 7.500000) rotate(-180.000000) translate(-13.500000, -7.500000) " x="9" y="3" width="9" height="9"></rect>
        <rect id="Rectangle" fill="#0000C2" transform="translate(20.500000, 7.500000) rotate(-180.000000) translate(-20.500000, -7.500000) " x="18" y="5" width="5" height="5"></rect>
        <rect id="Rectangle" fill="#0000C2" transform="translate(17.500000, 25.500000) rotate(-180.000000) translate(-17.500000, -25.500000) " x="15" y="23" width="5" height="5"></rect>
        <rect id="Rectangle" fill="#0000C2" transform="translate(21.000000, 31.500000) rotate(-180.000000) translate(-21.000000, -31.500000) " x="20" y="30" width="2" height="3"></rect>
    </g>
</svg>