<svg xmlns="http://www.w3.org/2000/svg" xmlns:xlink="http://www.w3.org/1999/xlink" width="257" height="710" viewBox="0 0 257 710"><defs><polygon id="a" points="12.338 5.126 70.014 5.139 77.006 12.64 77.021 74.374 70.295 81.142 12.578 81.129 5.52 74.265 5.506 12.603"/></defs><g fill="none" fill-rule="evenodd"><g transform="translate(0 588.896)"><path stroke="#0000C2" stroke-linecap="round" stroke-width="4" d="M36.0969179,79.6469537 C36.0969179,90.7766911 31.4449091,101.994937 26.7929003,119.104296 C30.6477051,119.104296 33.6477051,119.104296 35.7929003,119.104296"/><path stroke="#0000C2" stroke-linecap="round" stroke-linejoin="round" stroke-width="4" d="M59.9265552,78.3456436 C62.2076677,87.6096008 68.4882782,104.82098 73.4691041,117.104296 C76.9820952,116.364005 79.4808875,115.555854 80.9654808,114.679843"/><mask id="b" fill="#fff"><use xlink:href="#a" transform="rotate(171 41.263 43.134)"/></mask><use xlink:href="#a" fill="#8330FF" transform="rotate(171 41.263 43.134)"/><path stroke="#F9FCFD" stroke-linecap="round" stroke-width="3" d="M35.7776847,32.693471 C37.0845443,32.1402135 38.9179562,31.8952629 41.2779204,31.9586191 C43.6378846,32.0219753 45.1426384,32.3514936 45.7921818,32.947174" mask="url(#b)" transform="scale(1 -1) rotate(13 325.577 0)"/><path stroke="#46ECA1" stroke-linecap="round" stroke-width="3" d="M45.1569233,18.0205291 C46.7426314,12.9648382 49.3654984,10.7970931 53.0255244,11.5172937 C56.6855504,12.2374944 58.4296361,14.9962581 58.2577815,19.7935849" mask="url(#b)" transform="scale(1 -1) rotate(12 200.024 0)"/><path stroke="#46ECA1" stroke-linecap="round" stroke-width="3" d="M15.087733,24.6815443 C16.6733637,19.8737202 19.2961976,17.812224 22.9562346,18.4970557 C26.6162717,19.1818875 28.3603997,21.8053566 28.1886185,26.3674631" mask="url(#b)" transform="scale(1 -1) rotate(12 234.463 0)"/><ellipse cx="70.653" cy="66.467" fill="#D8D8D8" mask="url(#b)" rx="3.46" ry="3.455" transform="rotate(171 70.653 66.467)"/><ellipse cx="68.488" cy="52.819" fill="#D8D8D8" mask="url(#b)" rx="3.46" ry="3.455" transform="rotate(171 68.488 52.82)"/><ellipse cx="20.533" cy="74.393" fill="#46ECA1" mask="url(#b)" rx="3.46" ry="3.455" transform="rotate(171 20.533 74.393)"/><ellipse cx="18.369" cy="60.745" fill="#46ECA1" mask="url(#b)" rx="3.46" ry="3.455" transform="rotate(171 18.369 60.745)"/><ellipse cx="16.204" cy="47.097" fill="#46ECA1" mask="url(#b)" rx="3.46" ry="3.455" transform="rotate(171 16.204 47.097)"/><polygon fill="#0000C2" points="24.27 42.126 35.803 42.129 35.806 53.645 24.273 53.642" mask="url(#b)" transform="rotate(171 30.038 47.886)"/><polygon fill="#46ECA1" points="28.794 44.083 58.778 44.09 58.785 74.031 28.801 74.024" mask="url(#b)" transform="rotate(171 43.79 59.057)"/><polygon fill="#0000C2" points="56.898 71.818 61.511 71.819 61.513 78.728 56.9 78.727" mask="url(#b)" transform="rotate(171 59.206 75.273)"/><polygon fill="#787696" points="53.604 42.708 85.124 47.516 79.921 69.874 52.434 68.007" mask="url(#b)" transform="rotate(-9 68.78 56.29)"/><path fill="#FFB756" d="M71.3450795,39.4749505 C71.0409639,41.7898045 72.5430013,47.2090321 71.3322485,46.4586984 C67.6577159,44.1814989 66.0967646,44.1599324 63.4769429,44.118062 C61.969545,44.0939705 60.1277703,45.7608676 60.3216092,47.9588165 C60.5154482,50.1567653 57.7148823,52.3708439 54.9709433,51.1578591 C52.2270044,49.9448743 53.4220571,47.0870041 55.308536,46.1104563 C57.1950149,45.1339085 53.988406,44.0291053 53.9834518,41.7825299 C53.9784977,39.5359545 57.6624534,32.3638897 62.991822,34.1502328 C68.3211905,35.9365759 72.2274079,32.758881 71.3450795,39.4749505 Z" mask="url(#b)" transform="rotate(171 62.585 42.685)"/><path fill="#B4B4C7" d="M73.9472478,43.4625775 L69.9181404,72.2441073 L52.4485857,69.0154531 L53.7824445,43.6028292 L73.9472478,43.4625775 Z M66.2297167,45.6281476 L60.0400153,45.7021945 C59.2103751,45.7121194 58.545877,46.3916898 58.5558172,47.2200575 C58.5657573,48.0484251 59.2463716,48.7119041 60.0760117,48.7019792 L66.2657132,48.6279323 C67.0953533,48.6180074 67.7598514,47.938437 67.7499112,47.1100693 C67.7399711,46.2817017 67.0593568,45.6182227 66.2297167,45.6281476 Z" mask="url(#b)" transform="rotate(-9 63.198 57.853)"/><path stroke="#0000C2" stroke-linecap="round" stroke-width="3" d="M7.00430389,55.5067959 C20.6327445,63.5176287 28.5325567,70.2768204 56.8555415,62.9010712 L64.9987952,63.5281428" mask="url(#b)" transform="rotate(-9 36.002 60.789)"/><path stroke="#0000C2" stroke-linecap="round" stroke-width="3" d="M56.7537769,59.0007981 L64.7052264,57.3835585" transform="rotate(-9 60.73 58.192)"/><path stroke="#0000C2" stroke-linecap="round" stroke-width="3" d="M56.5456531,59.3467002 L60.3101229,54.7390942" transform="rotate(-9 58.428 57.043)"/><path fill="#46ECA1" d="M77.0600963,41.3530158 C69.4820842,21.5762111 65.3654603,7.71733096 69.773901,13.7178702 C74.1823417,19.7184094 78.0212908,38.0947013 78.0210306,39.723782 C78.0207705,41.3528626 84.6381083,61.1298205 77.0600963,41.3530158 Z" transform="rotate(6 74.33 31.195)"/><path fill="#46ECA1" d="M80.0609001,49.3537117 C72.4907271,29.5762134 68.3794023,15.7164492 72.7851213,21.7164955 C77.1908403,27.7165418 81.0230266,46.0945461 81.0222224,47.7238922 C81.0214181,49.3532382 87.6310731,69.1312101 80.0609001,49.3537117 Z" transform="rotate(14 77.335 39.195)"/><path fill="#46ECA1" d="M84.0658454,36.3543916 C76.4982613,16.5757375 72.3886378,2.71505063 76.793372,8.71524824 C81.1981061,14.7154458 85.0281895,33.0948267 85.0272311,34.724327 C85.0262726,36.3538272 91.6334295,56.1330456 84.0658454,36.3543916 Z" transform="rotate(25 81.341 26.194)"/><path fill="#46ECA1" d="M81.0612371,42.3543916 C73.493653,22.5757375 69.3840295,8.71505063 73.7887637,14.7152482 C78.1934978,20.7154458 82.0235813,39.0948267 82.0226228,40.724327 C82.0216643,42.3538272 88.6288212,62.1330456 81.0612371,42.3543916 Z" transform="rotate(25 78.337 32.194)"/><path fill="#46ECA1" d="M87.0680876,46.3570344 C79.5059367,26.5734786 75.3997536,12.7091698 79.8021908,18.7105244 C84.204628,24.711879 88.0306475,43.0963159 88.0294335,44.7263177 C88.0282195,46.3563195 94.6302385,66.1405901 87.0680876,46.3570344 Z" transform="rotate(38 84.346 36.194)"/><path fill="#46ECA1" d="M88.0696237,50.3570344 C80.5074728,30.5734786 76.4012897,16.7091698 80.8037269,22.7105244 C85.2061641,28.711879 89.0321836,47.0963159 89.0309696,48.7263177 C89.0297556,50.3563195 95.6317746,70.1405901 88.0696237,50.3570344 Z" transform="rotate(38 85.347 40.194)"/><path fill="#46ECA1" d="M92.0862671,44.3538864 C84.5019387,24.5746641 80.3808885,10.7144706 84.7912457,16.7164159 C89.201603,22.7183612 93.0464211,41.0958783 93.0466812,42.724959 C93.0469414,44.3540396 99.6705956,64.1331087 92.0862671,44.3538864 Z" transform="scale(-1 1) rotate(-6 0 1739.164)"/><path fill="#46ECA1" d="M86.0753311,43.3532179 C78.4945675,23.5757299 74.3760349,9.71652949 78.7853448,15.7175558 C83.1946548,21.7185821 87.0361083,40.095084 87.0360647,41.7241381 C87.036021,43.3531921 93.6560947,63.1307058 86.0753311,43.3532179 Z" transform="scale(-1 1) rotate(1 0 -9517.14)"/><path fill="#9695AE" d="M73.7822643,45.4486332 L74.9340709,38.1776735 C79.5867392,37.9248688 84.7090427,38.7360215 90.3009815,40.6111315 L88.6298051,47.7998453 L73.7822643,45.4486332 Z" transform="rotate(-8 82.042 42.966)"/><polygon fill="#CFD0DC" points="70.172 43.426 73.736 72.268 99.522 67.625 97.595 39.603" transform="rotate(6 84.847 55.936)"/><line x1="97.968" x2="99.666" y1="53.523" y2="53.686" stroke="#0000C2" stroke-linecap="round" stroke-width="3"/><line x1="97.968" x2="99.666" y1="55.523" y2="55.686" stroke="#0000C2" stroke-linecap="round" stroke-width="3"/><line x1="97.968" x2="99.666" y1="57.523" y2="57.686" stroke="#0000C2" stroke-linecap="round" stroke-width="3"/><path fill="#FF568D" d="M69.4919907,35.0625458 C68.8058552,35.8006506 69.4919907,37.0490463 70.1781262,37.0490463 C70.6355498,37.0490463 71.749529,36.6168737 73.5200636,35.7525287 C73.6209413,35.3451436 73.5516351,35.1728619 73.3121451,35.2356837 C71.3418222,35.7525287 69.8657881,34.6604361 69.4919907,35.0625458 Z"/></g><g transform="translate(102.343 -1)"><line x1="27.157" x2="26.841" y1=".5" y2="497.5" stroke="#787696" stroke-linecap="square" stroke-width="3"/><line x1="32.851" x2="33.125" y1="512.5" y2="608.5" stroke="#CFD0DC" stroke-linecap="square" stroke-width="3"/><ellipse cx="27.342" cy="513" fill="#FFB756" rx="7.011" ry="7"/><path fill="#8330FF" d="M21.3330374,497 C21.3330374,495.895431 22.2284679,495 23.3330374,495 L31.3514706,495 C32.4560401,495 33.3514706,495.895431 33.3514706,497 L33.3514706,501 L54.1878021,513.135885 C54.6650398,513.413846 54.8265849,514.026056 54.5486232,514.503294 C54.3694981,514.810837 54.0404136,515 53.6845081,515 L1,515 C0.44771525,515 -6.36823927e-13,514.552285 -6.36823927e-13,514 C-6.36823927e-13,513.644094 0.189162554,513.31501 0.496705914,513.135885 L21.3330374,501 L21.3330374,497 Z"/><path stroke="#0000C2" stroke-width="3" d="M130.748055,636.357111 C143.730488,645.470306 152.250609,643.606907 145.444588,669.542657 C141.940789,674.423804 139.326323,674.916658 137.601191,671.021218"/><polygon fill="#8330FF" points="131.691 640.454 154.3 649.567 147.443 679.791 127.484 670.108"/><path stroke="#0000C2" stroke-linecap="round" stroke-width="4" d="M72.3925562,669.542657 C66.3132709,683.895044 63.2313647,696.844452 63.2313647,709 C61.4079189,709 58.718243,709 55.1623369,709"/><path stroke="#0000C2" stroke-linecap="round" stroke-width="4" d="M116.512574,673.807987 C116.512574,689.271329 116.460144,696.844452 116.460144,709 C113.702279,709 110.926937,709 108.134119,709" transform="matrix(-1 0 0 1 224.647 0)"/><path stroke="#0000C2" stroke-linecap="round" stroke-width="3" d="M60.496196,631.162363 C42.9794793,633.952675 33.8522387,628.5 33.8522387,613.5 C37.7579672,612.964623 38.15017,611.943258 35.0288469,610.435907"/><polygon fill="#46ECA1" points="63.753 592.504 125.984 592.494 133.525 600.583 133.514 667.19 126.254 674.496 63.98 674.506 56.367 667.103 56.378 600.575" transform="rotate(6 94.946 633.5)"/><ellipse cx="66.16" cy="645.47" fill="#8330FF" rx="3.733" ry="3.727" transform="rotate(6 66.16 645.47)"/><ellipse cx="67.721" cy="630.643" fill="#8330FF" rx="3.733" ry="3.727" transform="rotate(6 67.72 630.643)"/><ellipse cx="64.599" cy="660.298" fill="#8330FF" rx="3.733" ry="3.727" transform="rotate(6 64.599 660.298)"/><ellipse cx="122.171" cy="636.357" fill="#8330FF" rx="3.733" ry="3.727" transform="rotate(6 122.171 636.357)"/><ellipse cx="120.61" cy="651.185" fill="#8330FF" rx="3.733" ry="3.727" transform="rotate(6 120.61 651.185)"/><ellipse cx="119.05" cy="666.012" fill="#8330FF" rx="3.733" ry="3.727" transform="rotate(6 119.05 666.012)"/><polygon fill="#0000C2" points="77.212 627.208 109.565 627.203 109.558 669.446 77.206 669.452" transform="rotate(6 93.385 648.327)"/><path fill="#0000C2" d="M64.5700977,659.575547 L75.7707714,659.573761 L75.7707714,659.573761 L75.7703746,662.058651 L64.5697009,662.060437 C63.8837364,662.060547 63.3275636,661.504551 63.3274542,660.818587 C63.3274542,660.818454 63.3274542,660.818322 63.3274542,660.81819 C63.3275638,660.131943 63.8838501,659.575656 64.5700977,659.575547 Z" transform="rotate(6 69.549 660.817)"/><path fill="#0000C2" d="M109.120282,664.249232 L120.320956,664.251018 L120.320956,664.251018 L120.321353,666.735908 L109.120679,666.734122 C108.434431,666.734013 107.878145,666.177727 107.878035,665.491479 C107.877926,664.805515 108.433921,664.249342 109.119886,664.249232 C109.120018,664.249232 109.12015,664.249232 109.120282,664.249232 Z" transform="scale(-1 1) rotate(-6 0 2842.642)"/><path fill="#0000C2" d="M66.1309159,644.74813 L77.3315896,644.746344 L77.3315896,644.746344 L77.3311928,647.231234 L66.1305191,647.23302 C65.4445546,647.233129 64.8883818,646.677134 64.8882725,645.991169 C64.8882724,645.991037 64.8882724,645.990905 64.8882725,645.990773 C64.888382,645.304525 65.4446683,644.748239 66.1309159,644.74813 Z" transform="rotate(6 71.11 645.99)"/><path fill="#0000C2" d="M110.6811,649.421815 L121.881774,649.423601 L121.881774,649.423601 L121.882171,651.908491 L110.681497,651.906705 C109.995249,651.906596 109.438963,651.35031 109.438854,650.664062 C109.438744,649.978097 109.994739,649.421924 110.680704,649.421815 C110.680836,649.421815 110.680968,649.421815 110.6811,649.421815 Z" transform="scale(-1 1) rotate(-6 0 2857.597)"/><path fill="#0000C2" d="M67.6917342,629.920712 L78.8924079,629.918926 L78.8924079,629.918926 L78.8920111,632.403817 L67.6913374,632.405602 C67.0053729,632.405712 66.4492001,631.849716 66.4490907,631.163752 C66.4490907,631.16362 66.4490907,631.163488 66.4490907,631.163355 C66.4492003,630.477108 67.0054866,629.920822 67.6917342,629.920712 Z" transform="rotate(6 72.67 631.162)"/><path fill="#0000C2" d="M112.241919,634.594398 L123.442592,634.596183 L123.442592,634.596183 L123.442989,637.081074 L112.242315,637.079288 C111.556068,637.079178 110.999781,636.522892 110.999672,635.836645 C110.999562,635.15068 111.555558,634.594507 112.241522,634.594398 C112.241654,634.594398 112.241786,634.594398 112.241919,634.594398 Z" transform="scale(-1 1) rotate(-6 0 2872.552)"/><path stroke="#0000C2" stroke-linecap="round" stroke-width="3" d="M33.8522387,613.5 C28.4444888,611.255457 29.1740011,609.732498 36.0407754,608.931122"/><path stroke="#0000C2" stroke-linecap="round" stroke-width="3" d="M33.8522387,610.5 C28.4444888,608.255457 29.1740011,606.732498 36.0407754,605.931122"/><path stroke="#8330FF" stroke-linecap="round" stroke-width="3" d="M95.6987011,619.300958 C97.0054262,618.748285 98.8388708,618.504116 101.199035,618.56845 C103.559199,618.632784 105.064201,618.962904 105.714041,619.558812" transform="rotate(177 100.706 619.059)"/><path stroke="#0000C2" stroke-linecap="round" stroke-width="3" d="M110.101636,608.658882 C111.68587,603.604021 114.308234,601.437238 117.968728,602.158533 C121.629222,602.879827 123.374286,605.638952 123.203918,610.435907" transform="rotate(-180 116.658 606.23)"/><path stroke="#0000C2" stroke-linecap="round" stroke-width="3" d="M73.0448007,604.539773 C74.6290347,599.732762 77.2513988,597.672221 80.9118928,598.358149 C84.5723868,599.044077 86.3174501,601.667916 86.1470828,606.229666" transform="rotate(-180 79.602 602.23)"/><path stroke="#0000C2" stroke-linecap="round" stroke-width="3" d="M137.519773,676.403432 C136.218,676.403432 134.827843,674.772406 135.522921,672.339765"/><path stroke="#0000C2" stroke-linecap="round" stroke-width="3" d="M142.047463,676.921576 C141.232233,677.242813 140.390694,677.403432 139.522845,677.403432 C138.221072,677.403432 136.830915,675.772406 137.525994,673.339765"/><polygon fill="#8330FF" points="148.636 674.534 147.443 679.791 139.457 675.917 140.367 670.108"/></g></g></svg>