<svg xmlns="http://www.w3.org/2000/svg" xmlns:xlink="http://www.w3.org/1999/xlink" width="427" height="228" viewBox="0 0 427 228"><defs><polygon id="c" points="12.338 5.126 70.014 5.139 77.006 12.64 77.021 74.374 70.295 81.142 12.578 81.129 5.52 74.265 5.506 12.603"/><filter id="b" width="100.2%" height="100.4%" x="-.1%" y="-.2%" filterUnits="objectBoundingBox"><feOffset dy="1" in="SourceAlpha" result="shadowOffsetInner1"/><feComposite in="shadowOffsetInner1" in2="SourceAlpha" k2="-1" k3="1" operator="arithmetic" result="shadowInnerInner1"/><feColorMatrix in="shadowInnerInner1" values="0 0 0 0 0 0 0 0 0 0 0 0 0 0 0.761265851 0 0 0 1 0"/></filter><rect id="a" width="426" height="228" x="1" y="0"/></defs><g fill="none" fill-rule="evenodd"><use xlink:href="#a" fill="#000" filter="url(#b)"/><rect width="1" height="228" fill="#0000C2" transform="matrix(-1 0 0 1 1 0)"/><rect width="1" height="228" x="426" fill="#0000C2" transform="matrix(-1 0 0 1 853 0)"/><g transform="translate(23 65)"><path fill="#100C53" stroke="#0000C2" d="M91.5,-0.5 L91.5,162.5 L-0.5,162.5 L-0.5,-0.5 L91.5,-0.5 Z"/><rect width="34" height="70" x="8" y="85" fill="#0000C2"/><rect width="34" height="69" x="8" y="8" fill="#0000C2"/><rect width="33" height="70" x="50" y="85" fill="#0000C2"/><rect width="33" height="69" x="50" y="8" fill="#0000C2"/><line x1="87" x2="74.75" y1="81" y2="81" stroke="#0000C2" stroke-linecap="round" stroke-width="4"/></g><g transform="rotate(-8 747.1 -171.749)"><path stroke="#979797" d="M5.74982012,36.846693 L36.9610466,0.978164411 C37.3235843,0.561529254 37.9552287,0.517674609 38.3718638,0.880212319 C38.4365538,0.936502672 38.4937347,1.00088003 38.541999,1.0717598 L62.515997,36.2793367 L62.515997,36.2793367"/><rect width="68" height="31" y="35.928" fill="#F2F3F8" rx="1.994"/><g fill="#100C53" fill-rule="nonzero" transform="translate(3.836 41.293)"><path d="M29.9278174 7.15384615 28.1724206-8.67667247e-14 29.8252768-8.67667247e-14 31.2022501 6.07831928 30.8604482 5.85047418 31.7442502 5.85047418 31.3609438 6.07831928 32.4254125.26459431 33.7559983.26459431 32.3643764 7.15384615 29.9278174 7.15384615ZM34.0740413 7.15384615 32.5595174.26459431 33.965861.26459431 35.2074756 6.07831928 34.826386 5.85047418 35.6819937 5.85047418 35.3648288 6.07831928 36.574481-8.67667247e-14 38.1430951-8.67667247e-14 36.574481 7.15384615 34.0740413 7.15384615ZM39.1401625 7.15384615 39.1401625-1.84018283e-14 40.7354705-1.84018283e-14 40.7354705 7.15384615 39.1401625 7.15384615ZM40.536057 7.15384615 40.536057 5.76282051 43.7266728 5.76282051 43.7266728 7.15384615 40.536057 7.15384615ZM40.536057 4.17307692 40.536057 2.78205128 43.3278458 2.78205128 43.3278458 4.17307692 40.536057 4.17307692ZM40.536057 1.39102564 40.536057-1.84018283e-14 43.5272593-1.84018283e-14 43.5272593 1.39102564 40.536057 1.39102564Z"/><polygon points="44.801 3.059 44.801 .053 46.217 .053 46.217 3.059"/><path d="M47.7149426 7.15384615 47.7149426-1.50583592e-13 49.3102505-1.50583592e-13 49.3102505 7.15384615 47.7149426 7.15384615ZM52.0209429 7.15384615 49.908491 4.17307692 51.6857113 4.17307692 53.8967608 7.15384615 52.0209429 7.15384615ZM48.7120101 4.96794872 48.7120101 3.69005164 50.4927714 3.69005164C50.7315236 3.69005164 50.9373443 3.64217178 51.1102338 3.54641205 51.2831232 3.45065232 51.41773 3.31568063 51.5140542 3.14149698 51.6103783 2.96731334 51.6585403 2.76547494 51.6585403 2.5359818 51.6585403 2.30153556 51.6103783 2.09722062 51.5140542 1.92303698 51.41773 1.74885333 51.2831232 1.61346889 51.1102338 1.51688364 50.9373443 1.4202984 50.7315236 1.37200578 50.4927714 1.37200578L48.7120101 1.37200578 48.7120101-1.50583592e-13 50.3668091-1.50583592e-13C50.9678058-1.50583592e-13 51.4881207.0903938825 51.9277539.271181647 52.3673871.451969412 52.7057565.721087272 52.942862 1.07853523 53.1799676 1.43598318 53.2985203 1.88299951 53.2985203 2.4195842L53.2985203 2.57808306C53.2985203 3.11466775 53.178321 3.55920753 52.9379223 3.91170239 52.6975236 4.26419726 52.3591543 4.52836203 51.9228142 4.7041967 51.4864742 4.88003138 50.9678058 4.96794872 50.3668091 4.96794872L48.7120101 4.96794872ZM54.6944147 7.15384615 54.6944147 3.68090318e-14 56.2897227 3.68090318e-14 56.2897227 7.15384615 54.6944147 7.15384615ZM56.0903092 7.15384615 56.0903092 5.76282051 59.280925 5.76282051 59.280925 7.15384615 56.0903092 7.15384615ZM56.0903092 4.17307692 56.0903092 2.78205128 58.882098 2.78205128 58.882098 4.17307692 56.0903092 4.17307692ZM56.0903092 1.39102564 56.0903092 3.68090318e-14 59.0815115 3.68090318e-14 59.0815115 1.39102564 56.0903092 1.39102564ZM5.42425383 20.3441474C4.46589657 20.3441474 3.6445337 20.1775611 2.96016523 19.8443885 2.27579675 19.511216 1.71514568 19.0734007 1.27821202 18.5309428.841278354 17.9884849.519009601 17.400321.311405761 16.7664511.10380192 16.1325813 1.16015339e-14 15.5185574 1.16015339e-14 14.9243796L1.16015339e-14 14.6068432C1.16015339e-14 13.9501204.106215918 13.3024184.318647755 12.6637374.531079592 12.0250563.857572842 11.4459134 1.2981275 10.9263085 1.73868216 10.4067036 2.29571224 9.9917413 2.96921772 9.68142171 3.6427232 9.37110211 4.43572159 9.21594231 5.34821289 9.21594231 6.30898416 9.21594231 7.15448701 9.39215092 7.88472145 9.74456813 8.61495588 10.0969854 9.19974694 10.5901289 9.6390946 11.2239988 10.0784423 11.8578687 10.3379471 12.5957798 10.417609 13.4377322L8.03499283 13.4377322C7.96498688 13.0143504 7.808077 12.6529123 7.56426319 12.3534178 7.32044938 12.0539233 7.00964712 11.8241906 6.63185641 11.6642196 6.2540657 11.5042486 5.82618453 11.4242632 5.34821289 11.4242632 4.87989725 11.4242632 4.46167207 11.5054514 4.09353736 11.667828 3.72540264 11.8302045 3.41701438 12.0593358 3.16837257 12.355222 2.91973076 12.6511081 2.7302319 13.0035253 2.599876 13.4124736 2.4695201 13.8214219 2.40434215 14.277279 2.40434215 14.7800449 2.40434215 15.275594 2.4695201 15.7278427 2.599876 16.136791 2.7302319 16.5457393 2.92455875 16.9005621 3.18285656 17.2012594 3.44115436 17.5019567 3.75738811 17.7328922 4.13155783 17.894066 4.50572754 18.0552397 4.93662621 18.1358266 5.42425383 18.1358266 6.15810927 18.1358266 6.7779033 17.956611 7.28363591 17.5981798 7.78936852 17.2397487 8.09534278 16.7478079 8.2015587 16.1223576L10.5841749 16.1223576C10.4948569 16.8945482 10.2347486 17.6005854 9.80384997 18.2404692 9.3729513 18.8803531 8.78876375 19.390937 8.05128732 19.7722212 7.31381088 20.1535054 6.43813306 20.3441474 5.42425383 20.3441474ZM12.1166435 20.0705128 12.1166435 9.53846154 14.5096054 9.53846154 14.5096054 20.0705128 12.1166435 20.0705128ZM14.3101919 20.0705128 14.3101919 18.0833333 18.6972886 18.0833333 18.6972886 20.0705128 14.3101919 20.0705128ZM25.3776406 20.2692308C24.4103764 20.2692308 23.5707036 20.1026445 22.8586222 19.7694719 22.1465408 19.4362993 21.555975 18.9972813 21.0869248 18.4524178 20.6178746 17.9075543 20.2685173 17.318789 20.0388528 16.6861219 19.8091883 16.0534548 19.6943561 15.4412352 19.6943561 14.8494629L19.6943561 14.5319266C19.6943561 13.8776093 19.8134414 13.2311101 20.051612 12.5924291 20.2897825 11.953748 20.6482535 11.3740037 21.127025 10.853196 21.6057964 10.3323883 22.1987925 9.91682464 22.9060133 9.60650504 23.6132341 9.29618544 24.4371098 9.14102564 25.3776406 9.14102564 26.3108803 9.14102564 27.1311106 9.29618544 27.8383314 9.60650504 28.5455522 9.91682464 29.1385483 10.3323883 29.6173197 10.853196 30.0960912 11.3740037 30.4563849 11.953748 30.698201 12.5924291 30.940017 13.2311101 31.060925 13.8776093 31.060925 14.5319266L31.060925 14.8494629C31.060925 15.4412352 30.94427 16.0534548 30.7109601 16.6861219 30.4776501 17.318789 30.1264701 17.9075543 29.6574199 18.4524178 29.1883697 18.9972813 28.5978039 19.4362993 27.8857225 19.7694719 27.1736411 20.1026445 26.3376138 20.2692308 25.3776406 20.2692308ZM25.3776406 18.0833333C25.8874261 18.0833333 26.3451302 17.9961538 26.7507528 17.8217949 27.1563755 17.6474359 27.502564 17.4046652 27.7893183 17.0934829 28.0760727 16.7823006 28.2942021 16.4232906 28.4437065 16.016453 28.5932109 15.6096154 28.6679631 15.1725071 28.6679631 14.7051282 28.6679631 14.2086895 28.5913728 13.7546296 28.438192 13.3429487 28.2850113 12.9312678 28.0650437 12.5746795 27.7782893 12.2731838 27.491535 11.971688 27.1453464 11.738604 26.7397238 11.5739316 26.3341012 11.4092593 25.8800734 11.3269231 25.3776406 11.3269231 24.867855 11.3269231 24.4101509 11.4092593 24.0045283 11.5739316 23.5989056 11.738604 23.2527171 11.971688 22.9659628 12.2731838 22.6792084 12.5746795 22.461079 12.9312678 22.3115746 13.3429487 22.1620702 13.7546296 22.087318 14.2086895 22.087318 14.7051282 22.087318 15.1725071 22.1620702 15.6096154 22.3115746 16.016453 22.461079 16.4232906 22.6792084 16.7823006 22.9659628 17.0934829 23.2527171 17.4046652 23.5989056 17.6474359 24.0045283 17.8217949 24.4101509 17.9961538 24.867855 18.0833333 25.3776406 18.0833333ZM36.438095 20.3441474C35.4797378 20.3441474 34.6716519 20.192596 34.0138374 19.8894931 33.3560229 19.5863903 32.8575323 19.1708266 32.5183655 18.6428022 32.1791988 18.1147778 32.0096154 17.5103762 32.0096154 16.8295976L34.3198116 16.8295976C34.3198116 17.0966168 34.3934386 17.3473983 34.5406925 17.5819422 34.6879464 17.8164861 34.9166727 18.0035198 35.2268715 18.1430433 35.5370702 18.2825668 35.9408114 18.3523286 36.438095 18.3523286 36.8798567 18.3523286 37.2510089 18.2927906 37.5515517 18.1737144 37.8520944 18.0546383 38.0790103 17.8922618 38.2322991 17.6865848 38.385588 17.4809079 38.4622325 17.243357 38.4622325 16.9739323 38.4622325 16.6347457 38.3173926 16.3665237 38.0277128 16.1692663 37.738033 15.9720089 37.2709244 15.8469188 36.6263869 15.7939961L35.8225255 15.7254371C34.7700223 15.6340252 33.9311579 15.3056637 33.3059324 14.7403528 32.6807069 14.1750419 32.3680941 13.4257043 32.3680941 12.4923399 32.3680941 11.8115613 32.528625 11.2270058 32.8496868 10.7386734 33.1707485 10.250341 33.6221662 9.87446936 34.2039397 9.61105854 34.7857133 9.34764772 35.4700818 9.21594231 36.2570452 9.21594231 37.0922885 9.21594231 37.8062285 9.35787143 38.398865 9.64172966 38.9915016 9.9255879 39.4465402 10.3249139 39.763981 10.8397076 40.0814217 11.3545014 40.2401421 11.955896 40.2401421 12.6438914L37.9299459 12.6438914C37.9299459 12.3864945 37.8665784 12.1483422 37.7398435 11.9294346 37.6131086 11.710527 37.4260238 11.5355212 37.178589 11.4044171 36.9311541 11.2733131 36.6239729 11.2077611 36.2570452 11.2077611 35.9094294 11.2077611 35.6185427 11.2648936 35.3843848 11.3791586 35.150227 11.4934235 34.9740051 11.6485833 34.8557192 11.844638 34.7374333 12.0406926 34.6782904 12.2565933 34.6782904 12.4923399 34.6782904 12.7906316 34.7845063 13.0492313 34.9969381 13.2681389 35.20937 13.4870465 35.5593997 13.6169478 36.0470273 13.6578426L36.8508887 13.7264016C37.6257821 13.7913522 38.3071331 13.9573371 38.8949416 14.2243563 39.4827502 14.4913755 39.9426168 14.8528136 40.2745416 15.3086707 40.6064663 15.7645278 40.7724287 16.319615 40.7724287 16.9739323 40.7724287 17.6474942 40.5968103 18.2380637 40.2455736 18.7456407 39.8943369 19.2532177 39.3958462 19.6465297 38.7501017 19.9255768 38.1043572 20.2046239 37.3336883 20.3441474 36.438095 20.3441474ZM42.4274939 20.0705128 42.4274939 9.53846154 44.8204558 9.53846154 44.8204558 20.0705128 42.4274939 20.0705128ZM44.4216288 20.0705128 44.4216288 18.0833333 49.0081391 18.0833333 49.0081391 20.0705128 44.4216288 20.0705128ZM44.4216288 15.6987179 44.4216288 13.7115385 48.6093121 13.7115385 48.6093121 15.6987179 44.4216288 15.6987179ZM44.4216288 11.525641 44.4216288 9.53846154 49.0081391 9.53846154 49.0081391 11.525641 44.4216288 11.525641ZM53.1958224 20.0705128 53.1958224 17.8503537 55.159073 17.8503537C55.6589412 17.8503537 56.1068907 17.775381 56.5029216 17.6254356 56.8989525 17.4754902 57.2352165 17.2620599 57.5117137 16.9851446 57.7882108 16.7082293 58.0001115 16.3756891 58.1474157 15.9875241 58.2947198 15.599359 58.3683719 15.1670567 58.3683719 14.6906174 58.3683719 14.1924117 58.2947198 13.749831 58.1474157 13.3628751 58.0001115 12.9759193 57.7882108 12.6482161 57.5117137 12.3797654 57.2352165 12.1113148 56.8989525 11.9075584 56.5029216 11.7684961 56.1068907 11.6294339 55.6589412 11.5599027 55.159073 11.5599027L53.1958224 11.5599027 53.1958224 9.33974359 55.035917 9.33974359C55.9921867 9.33974359 56.8283189 9.47820123 57.5443138 9.7551165 58.2603086 10.0320318 58.8579771 10.4123368 59.3373194 10.8960316 59.8166616 11.3797264 60.1758664 11.9341616 60.4149339 12.5593371 60.6540013 13.1845127 60.773535 13.841733 60.773535 14.5309981L60.773535 14.8502366C60.773535 15.4911323 60.6540013 16.1229586 60.4149339 16.7457157 60.1758664 17.3684727 59.8166616 17.9295587 59.3373194 18.4289736 58.8579771 18.9283885 58.2603086 19.3268321 57.5443138 19.6243044 56.8283189 19.9217767 55.9921867 20.0705128 55.035917 20.0705128L53.1958224 20.0705128ZM51.002274 20.0705128 51.002274 9.33974359 53.3952359 9.33974359 53.3952359 20.0705128 51.002274 20.0705128Z"/></g><g fill="#FF568D" style="mix-blend-mode:multiply" transform="rotate(-6 388.076 -1.215)"><path fill-rule="nonzero" d="M8.23184338 7.26426658C8.09877123 7.02026785 7.899163 6.80013856 7.6330187 6.60387871 7.36687439 6.40761886 7.06746204 6.24981533 6.73478166 6.13046812 6.40210128 6.01112092 6.05478296 5.92227355 5.6928267 5.86392603 4.61760371 5.70479642 3.61423967 5.35736345 2.6827346 4.8216271 2.60289131 4.77919254 2.51772513 4.6890191 2.42723607 4.55110677 2.33674701 4.41319444 2.29150247 4.28058644 2.29150247 4.15328275 2.29150247 3.68650257 2.37001504 3.21839631 2.52704019 2.74896397 2.68406533 2.27953163 2.88500428 1.91220745 3.12985704 1.64699144 3.52375061 1.20673286 4.23302519.822169638 5.25768076.493301783 6.28233634.164433928 7.43607191 2.68771273e-14 8.71888746 2.68771273e-14 9.48538306 2.68771273e-14 10.0775541.0583475227 10.4954007.175042568 10.9132473.291737614 11.1221705.472084502 11.1221705.716083233 11.1221705 1.11390725 11.067611 1.42155783 10.9584918 1.63903496 10.8493726 1.85651209 10.7322691 2.00105481 10.6071813 2.07266314 10.4820935 2.14427146 10.2625244 2.2410753 9.94847416 2.36307467 9.61313233 2.47976971 9.32170432 2.60176908 9.07419011 2.72907277 8.82667591 2.85637645 8.61509118 2.97837582 8.43943594 3.09507086 8.2637807 3.21176591 8.15466153 3.27011343 8.11207845 3.27011343 8.05884958 3.27011343 8.03223515 3.24889615 8.03223515 3.20646159 8.03223515 3.11628814 8.12671638 2.9797019 8.31567884 2.79670285 8.5046413 2.6137038 8.73751756 2.45324811 9.01430764 2.31533579 9.30706638 2.1615105 9.45344575 2.06338058 9.45344575 2.02094601 9.45344575 1.95198985 9.29109772 1.91751177 8.96640167 1.91751177 7.98166774 1.91751177 7.07145421 2.00503305 6.23576109 2.18007562 5.40006797 2.35511819 4.74136081 2.58585612 4.25963962 2.87228941 3.77791842 3.15872271 3.53705783 3.45046032 3.53705783 3.74750225 3.53705783 3.93315346 3.63686194 4.06443539 3.83647017 4.14134803 4.0360784 4.21826068 4.47654723 4.34689044 5.15787665 4.52723733 5.83920607 4.70758422 6.44867653 4.91445271 6.98628803 5.1478428 7.75810652 5.47671065 8.33031678 5.81883931 8.7029188 6.17422877 9.07552083 6.52961822 9.26182185 6.92744224 9.26182185 7.36770082 9.26182185 7.67004708 9.18863216 7.97371941 9.0422528 8.27871782 8.89587343 8.58371624 8.68162726 8.86351913 8.3995143 9.1181265 8.11740133 9.37273387 7.79270528 9.58225452 7.42542614 9.74668845 7.11137586 9.87929646 6.71615156 10.003948 6.23975325 10.120643 5.76335495 10.2373381 5.24703499 10.3288376 4.69079339 10.3951416 4.13455179 10.4614456 3.6035939 10.4945976 3.09791972 10.4945976 2.16641465 10.4945976 1.41721843 10.4070763.850331058 10.2320338.283443686 10.0569912 4.2934585e-14 9.79177517 4.2934585e-14 9.43638572 4.2934585e-14 9.27725611.0958119501 9.02927914.28743585 8.6924548.479059751 8.35563047.705282411 8.12887078.966103831 8.01217573 1.19498793 7.92200229 1.41588771 7.87028516 1.62880315 7.85702436 1.8417186 7.84376356 1.94817632 7.86895908 1.94817632 7.93261093 1.94817632 7.94852389 1.94019199 7.96443685 1.92422333 7.98034981 1.90825467 7.99626277 1.88962457 8.00952357 1.86833303 8.02013221 1.84704148 8.03074085 1.82574994 8.04134949 1.80445839 8.05195813 1.69800067 8.09439269 1.61150377 8.1275447 1.5449677 8.15141414 1.47843162 8.17528358 1.42520276 8.19915302 1.38528111 8.22302246 1.34535947 8.2468919 1.32539864 8.2800439 1.32539864 8.32247847 1.32539864 8.43386919 1.87631736 8.48956455 2.97815478 8.48956455 3.93627429 8.48956455 4.72139999 8.45508647 5.33353189 8.38613031 5.9456638 8.31717415 6.48593674 8.19252262 6.95435071 8.01217573 7.42276469 7.83182884 7.84859558 7.58252579 8.23184338 7.26426658ZM15.6652538 7.04148513 15.6652538 7.57456931C15.3139434 7.89282853 15.0318304 8.10500134 14.818915 8.21108774 14.6059995 8.31717415 14.2999336 8.35960871 13.9007171 8.33839143 13.2087419 9.15525674 12.5992714 9.5636894 12.0723057 9.5636894 11.7742241 9.5636894 11.5027569 9.46555948 11.2579041 9.26929963 11.0130514 9.07303978 10.8174353 8.80517161 10.6710559 8.46569511 10.5246766 8.12621862 10.4514869 7.74695972 10.4514869 7.32791842 10.4514869 6.98844192 10.5645982 6.61183519 10.7908209 6.19809821 11.0170435 5.78436123 11.3098023 5.39847193 11.6690971 5.04043031 12.0283919 4.6823887 12.4129704 4.39330324 12.8228327 4.17317395 13.2326949 3.95304466 13.6132813 3.84298002 13.9645917 3.84298002 14.2147674 3.84298002 14.4117142 3.88143634 14.5554321 3.95834898 14.69915 4.03526163 14.771009 4.14267411 14.771009 4.28058644 14.771009 4.38667284 14.7097958 4.50867221 14.5873694 4.64658454 14.7896391 4.6890191 14.9280341 4.75930134 15.0025545 4.85743127 15.0770749 4.95556119 15.1143351 5.134582 15.1143351 5.39449369 15.1143351 5.64910106 15.0544527 5.97001244 14.9346877 6.35722781 14.8149228 6.74444319 14.651244 7.10778913 14.4436515 7.44726563L14.5873694 7.59048227 14.7071343 7.59048227C14.7976234 7.59048227 14.8867818 7.56793891 14.9746094 7.52285219 15.062437 7.47776547 15.1409496 7.43002658 15.2101471 7.37963554 15.2793446 7.3292445 15.4310469 7.21652769 15.6652538 7.04148513ZM14.020482 4.94893079C13.5786825 5.2141468 13.2007576 5.45416729 12.8867073 5.66899226 12.572657 5.88381723 12.3065127 6.10129436 12.0882744 6.32142365 11.870036 6.54155294 11.7236567 6.76300831 11.6491363 6.98578976 11.5160641 7.57987363 11.449528 7.90078501 11.449528 7.94852389 11.449528 8.29860902 11.6943808 8.47365159 12.1840863 8.47365159 12.4129704 8.47365159 12.7962182 8.27739174 13.3338297 7.88487205 13.2433407 7.63556899 13.1980961 7.39687458 13.1980961 7.16878881 13.1980961 6.83461664 13.2672937 6.49381406 13.4056887 6.14638108 13.5440837 5.79894811 13.7490148 5.39979801 14.020482 4.94893079Z"/><path fill-rule="nonzero" d="M15.5694419,7.67004708 L15.5694419,7.15287585 C15.8568777,6.81339936 16.0751161,6.5243139 16.2241569,6.28561949 C16.0538245,6.22727197 15.9300674,6.15566365 15.8528856,6.07079452 C15.7757037,5.9859254 15.7371128,5.85862171 15.7371128,5.68888346 C15.7371128,5.49792793 15.8169561,5.25658136 15.9766427,4.96484375 C16.1363293,4.67310614 16.3332761,4.39993364 16.567483,4.14532627 C16.80169,3.8907189 17.0146055,3.72628497 17.2062294,3.65202449 C17.2807498,3.61489425 17.3526087,3.59632913 17.4218063,3.59632913 C17.528264,3.59632913 17.5814929,3.64672017 17.5814929,3.74750225 C17.5814929,3.8376757 17.4989881,4.02067475 17.3339786,4.2964994 C18.4304932,4.12676115 19.1224684,4.04189203 19.4099042,4.04189203 C19.5216848,4.04189203 19.5988667,4.05250067 19.6414498,4.07371795 C19.7319388,4.12145683 19.8064592,4.23284756 19.865011,4.40789012 C19.9235627,4.58293269 19.9528386,4.75797526 19.9528386,4.93301783 C19.9528386,5.04440855 19.9036019,5.16508184 19.8051285,5.29503769 C19.7066551,5.42499353 19.5376535,5.61462298 19.2981236,5.86392603 C19.0160107,6.16627229 18.7791422,6.49514014 18.5875183,6.8505296 C18.3958944,7.20591905 18.3000825,7.47378723 18.3000825,7.65413411 C18.3000825,7.90343717 18.4544462,8.02808869 18.7631736,8.02808869 C19.0878696,8.02808869 19.6520956,7.69922084 20.4558514,7.04148513 L20.4558514,7.57456931 C20.0140518,8.03604517 19.6494341,8.39939111 19.3619983,8.66460712 C19.0745624,8.92982313 18.8084181,9.14066986 18.5635653,9.29714731 C18.3187126,9.45362476 18.1004742,9.53186348 17.9088503,9.53186348 C17.6852891,9.53186348 17.4989881,9.42975532 17.3499473,9.22553899 C17.2009065,9.02132266 17.1263861,8.7256068 17.1263861,8.33839143 C17.1263861,8.11030566 17.1849378,7.85039396 17.3020413,7.55865635 C17.4191448,7.26691874 17.5908079,6.9499856 17.8170306,6.60785695 C18.0432532,6.26572829 18.297421,5.92492571 18.579534,5.58544922 C18.4304932,5.61727514 18.2628223,5.65042714 18.0765213,5.68490522 C17.8902202,5.7193833 17.6932735,5.75518747 17.4856809,5.79231771 C17.2780883,5.82944795 17.1184018,5.85862171 17.0066212,5.87983899 C16.6766022,6.5375747 16.1975425,7.13431073 15.5694419,7.67004708 Z"/><path fill-rule="nonzero" d="M20.3440707,7.67004708 L20.3440707,7.15287585 C20.6315066,6.81339936 20.8497449,6.5243139 20.9987857,6.28561949 C20.8284534,6.22727197 20.7046963,6.15566365 20.6275144,6.07079452 C20.5503326,5.9859254 20.5117417,5.85862171 20.5117417,5.68888346 C20.5117417,5.49792793 20.591585,5.25658136 20.7512715,4.96484375 C20.9109581,4.67310614 21.1079049,4.39993364 21.3421119,4.14532627 C21.5763189,3.8907189 21.7892343,3.72628497 21.9808582,3.65202449 C22.0553786,3.61489425 22.1272376,3.59632913 22.1964351,3.59632913 C22.3028928,3.59632913 22.3561217,3.64672017 22.3561217,3.74750225 C22.3561217,3.8376757 22.273617,4.02067475 22.1086075,4.2964994 C23.205122,4.12676115 23.8970972,4.04189203 24.1845331,4.04189203 C24.2963137,4.04189203 24.3734955,4.05250067 24.4160786,4.07371795 C24.5065677,4.12145683 24.5810881,4.23284756 24.6396398,4.40789012 C24.6981916,4.58293269 24.7274675,4.75797526 24.7274675,4.93301783 C24.7274675,5.04440855 24.6782308,5.16508184 24.5797574,5.29503769 C24.481284,5.42499353 24.3122823,5.61462298 24.0727525,5.86392603 C23.7906395,6.16627229 23.5537711,6.49514014 23.3621472,6.8505296 C23.1705233,7.20591905 23.0747113,7.47378723 23.0747113,7.65413411 C23.0747113,7.90343717 23.229075,8.02808869 23.5378024,8.02808869 C23.8624985,8.02808869 24.4267244,7.69922084 25.2304802,7.04148513 L25.2304802,7.57456931 C24.7886807,8.03604517 24.424063,8.39939111 24.1366271,8.66460712 C23.8491913,8.92982313 23.583047,9.14066986 23.3381942,9.29714731 C23.0933414,9.45362476 22.8751031,9.53186348 22.6834792,9.53186348 C22.459918,9.53186348 22.273617,9.42975532 22.1245762,9.22553899 C21.9755353,9.02132266 21.9010149,8.7256068 21.9010149,8.33839143 C21.9010149,8.11030566 21.9595667,7.85039396 22.0766702,7.55865635 C22.1937737,7.26691874 22.3654368,6.9499856 22.5916594,6.60785695 C22.8178821,6.26572829 23.0720499,5.92492571 23.3541628,5.58544922 C23.205122,5.61727514 23.0374511,5.65042714 22.8511501,5.68490522 C22.6648491,5.7193833 22.4679023,5.75518747 22.2603098,5.79231771 C22.0527172,5.82944795 21.8930306,5.85862171 21.78125,5.87983899 C21.4512311,6.5375747 20.9721713,7.13431073 20.3440707,7.67004708 Z"/><path fill-rule="nonzero" d="M28.8793186,7.36770082 L27.458108,8.56912936 C26.7821015,9.1579089 26.3296562,9.45229868 26.1007721,9.45229868 C25.8931795,9.45229868 25.6749412,9.21493035 25.4460571,8.74019368 C25.217173,8.26545702 25.1027309,7.85039396 25.1027309,7.49500451 C25.1027309,7.19265825 25.1493062,6.9367248 25.2424567,6.72720415 C25.3356072,6.5176835 25.4966245,6.24583709 25.7255086,5.91166491 C26.0502047,5.46079769 26.3615935,5.07888664 26.6596751,4.76593174 C26.9577568,4.45297685 27.2212396,4.2103042 27.4501237,4.03791379 C27.6790078,3.86552338 27.8386944,3.77932818 27.9291835,3.77932818 C28.0729014,3.77932818 28.2126272,3.85358866 28.3483607,4.00210963 C28.4840943,4.15063059 28.5519611,4.30445588 28.5519611,4.46358549 C28.5519611,4.56436757 28.4787715,4.72614934 28.3323921,4.94893079 C28.1860127,5.17171224 27.9544672,5.45416729 27.6377555,5.79629595 C27.3210437,6.1384246 26.8805749,6.54818334 26.316349,7.02557217 L26.1646467,7.46317859 C26.1220636,7.54804771 26.1007721,7.62230819 26.1007721,7.68596004 C26.1007721,7.82917668 26.172631,7.90078501 26.316349,7.90078501 C26.4653898,7.90078501 26.8153695,7.71248164 27.3662883,7.3358749 C27.917207,6.95926816 28.5147009,6.45270558 29.1587702,5.81618715 C29.4089458,5.5668841 29.6165384,5.34675481 29.7815478,5.15579928 C29.9465573,4.96484375 30.0955981,4.78582294 30.2286703,4.61873685 C30.3617424,4.45165077 30.4721923,4.32567316 30.5600199,4.24080404 C30.6478476,4.15593491 30.7263601,4.11084819 30.7955576,4.10554387 C30.9286298,4.08963091 31.0324261,4.14532627 31.1069465,4.27262996 C31.1814669,4.39993364 31.2187271,4.58823701 31.2187271,4.83754006 C31.2187271,4.98075671 31.1548525,5.15977752 31.0271032,5.37460249 C30.8993539,5.58942746 30.659824,5.95542556 30.3085136,6.47259678 C29.9572031,6.989768 29.6072233,7.52550435 29.2585743,8.07980581 C28.9099252,8.63410728 28.5546226,9.25869099 28.1926663,9.95355694 C28.208635,9.93764398 28.3723137,9.77851437 28.6837026,9.47616812 C28.9950914,9.17382186 29.3237796,8.85821481 29.6697672,8.52934696 C30.0157548,8.2004791 30.3005292,7.93658917 30.5240905,7.73767716 C30.7476517,7.53876515 31.0271032,7.30670114 31.362445,7.04148513 L31.362445,7.57456931 C30.6438554,8.34369575 29.9931326,9.07303978 29.4102765,9.76260141 C28.8274205,10.452163 28.3776366,11.0038123 28.0609249,11.4175493 C27.7442132,11.8312863 27.5592429,12.0726329 27.506014,12.141589 C27.3622961,12.3272403 27.2332161,12.5009567 27.1187741,12.6627385 C27.004332,12.8245203 26.9085201,12.9491718 26.8313382,13.0366931 C26.7541564,13.1242144 26.6916124,13.167975 26.6437065,13.167975 C26.5319259,13.167975 26.4321217,13.0579104 26.3442941,12.8377811 C26.2564665,12.6176518 26.2125527,12.422718 26.2125527,12.2529798 C26.2125527,12.0991545 26.2418286,11.9638943 26.3003803,11.8471993 C26.6836281,10.9878994 27.5432742,9.49473324 28.8793186,7.36770082 Z"/><path d="M24.853535,10.2115881 C21.4609329,10.2128182 10.8557849,10.9387544 1.89949009,13.915737 C1.39206937,14.1705475 1.39198039,14.4150945 1.89922316,14.6493781 C2.66008732,15.0008034 1.88439531,14.6176262 2.47638384,14.2664697 C3.06837236,13.9153131 14.8515701,11.2234543 24.853535,10.2115881 Z" transform="rotate(6 13.186 12.5)"/></g></g><g transform="translate(137 65)"><rect width="241" height="86" x="-.5" y="-.5" fill="#100C53" stroke="#0000C2"/><rect width="108" height="69" x="8" y="8" fill="#0000C2"/><rect width="108" height="69" x="124" y="8" fill="#0000C2"/></g><g transform="translate(107.993 106)"><path stroke="#F9FCFD" stroke-linecap="round" stroke-width="4" d="M52.1034308,79.6469537 C52.1034308,90.7766911 47.451422,103.140364 42.7994132,120.249723 C46.654218,120.249723 49.654218,120.249723 51.7994132,120.249723"/><path stroke="#F9FCFD" stroke-linecap="round" stroke-linejoin="round" stroke-width="4" d="M82.9330682,78.3456436 C89.7021939,84.303434 103.659142,92.6698099 87.4947911,111.879235 C88.8281244,112.271294 90.8139769,113.10126 93.4523487,114.369133"/><g transform="translate(0 44.655)"><path stroke="#F9FCFD" stroke-linecap="round" stroke-linejoin="round" stroke-width="3" d="M17.6396625,32.5219039 C16.0642139,30.7392575 15.2764896,29.8479342 15.2764896,29.8479342 C15.2764896,29.8479342 15.8601033,29.0446589 17.0273306,27.4381083" transform="rotate(144 16.458 29.98)"/><circle cx="15" cy="36" r="5" stroke="#CFD0DC" stroke-width="3"/><g stroke="#FFB756" stroke-width="2" transform="translate(11 39)"><circle cx="4.017" cy="3.534" r="4"/><polyline points="4.007 7.525 4.007 18.345 .007 18.345"/><polyline points="4.007 7.525 4.007 14.345 1.007 14.345"/></g><path stroke="#CFD0DC" stroke-width="3" d="M20,36 C20,33.2385763 17.7614237,31 15,31 C12.2385763,31 10,33.2385763 10,36 C10,38.7614237 12.2385763,41 15,41"/><path stroke="#F9FCFD" stroke-linecap="round" stroke-width="3" d="M2.73302016,22.0496688 C16.3614608,30.4111263 21.1434894,29.0827696 28.8946195,10.638292 L34.3186616,7.41476512" transform="rotate(144 18.526 17.196)"/><path stroke="#F9FCFD" stroke-linecap="round" stroke-width="3" d="M11.6810717,34.236217 C14.4493597,30.9948535 15.8335037,29.3741718 15.8335037,29.3741718" transform="rotate(144 13.757 31.805)"/><path stroke="#F9FCFD" stroke-linecap="round" stroke-width="3" d="M14.2434658,34.4681977 C15.3537411,30.5171322 15.9088788,28.5415995 15.9088788,28.5415995" transform="rotate(144 15.076 31.505)"/></g><g stroke="#F9FCFD" stroke-linecap="round" stroke-width="3" transform="rotate(-120 68.786 -1.027)"><path d="M8.84427818,39.499554 C14.4171659,27.6372437 16.436584,21.723777 24.1877142,3.27929943 L29.7356915,2.61795281" transform="rotate(144 19.29 21.059)"/><path d="M22.1721126,43.1584207 C25.6298898,40.7333726 27.3587784,39.5208486 27.3587784,39.5208486" transform="rotate(144 24.765 41.34)"/><path d="M24.0335816,43.7632486 C26.3813932,40.5317633 27.5552989,38.9160207 27.5552989,38.9160207" transform="rotate(144 25.794 41.34)"/><path d="M29.3886943,40.4311224 C27.4446484,38.2610668 26.4726254,37.1760391 26.4726254,37.1760391" transform="rotate(144 27.93 38.804)"/></g><g transform="translate(23.007)"><mask id="d" fill="#fff"><use xlink:href="#c" transform="rotate(171 41.263 43.134)"/></mask><use xlink:href="#c" fill="#8330FF" transform="rotate(171 41.263 43.134)"/><path stroke="#F9FCFD" stroke-linecap="round" stroke-width="3" d="M35.7776847,32.693471 C37.0845443,32.1402135 38.9179562,31.8952629 41.2779204,31.9586191 C43.6378846,32.0219753 45.1426384,32.3514936 45.7921818,32.947174" mask="url(#d)" transform="scale(1 -1) rotate(13 325.577 0)"/><path stroke="#46ECA1" stroke-linecap="round" stroke-width="3" d="M45.1569233,18.0205291 C46.7426314,12.9648382 49.3654984,10.7970931 53.0255244,11.5172937 C56.6855504,12.2374944 58.4296361,14.9962581 58.2577815,19.7935849" mask="url(#d)" transform="scale(1 -1) rotate(12 200.024 0)"/><path stroke="#46ECA1" stroke-linecap="round" stroke-width="3" d="M15.087733,24.6815443 C16.6733637,19.8737202 19.2961976,17.812224 22.9562346,18.4970557 C26.6162717,19.1818875 28.3603997,21.8053566 28.1886185,26.3674631" mask="url(#d)" transform="scale(1 -1) rotate(12 234.463 0)"/><ellipse cx="70.653" cy="66.467" fill="#46ECA1" mask="url(#d)" rx="3.46" ry="3.455" transform="rotate(171 70.653 66.467)"/><ellipse cx="68.653" cy="52.467" fill="#46ECA1" mask="url(#d)" rx="3.46" ry="3.455" transform="rotate(171 68.653 52.467)"/><ellipse cx="66.488" cy="38.819" fill="#46ECA1" mask="url(#d)" rx="3.46" ry="3.455" transform="rotate(171 66.488 38.82)"/><ellipse cx="20.533" cy="74.393" fill="#46ECA1" mask="url(#d)" rx="3.46" ry="3.455" transform="rotate(171 20.533 74.393)"/><ellipse cx="18.369" cy="60.745" fill="#46ECA1" mask="url(#d)" rx="3.46" ry="3.455" transform="rotate(171 18.369 60.745)"/><ellipse cx="16.204" cy="47.097" fill="#46ECA1" mask="url(#d)" rx="3.46" ry="3.455" transform="rotate(171 16.204 47.097)"/><polygon fill="#0000C2" points="24.27 42.126 35.803 42.129 35.806 53.645 24.273 53.642" mask="url(#d)" transform="rotate(171 30.038 47.886)"/><polygon fill="#46ECA1" points="28.794 44.083 58.778 44.09 58.785 74.031 28.801 74.024" mask="url(#d)" transform="rotate(171 43.79 59.057)"/><polygon fill="#0000C2" points="56.898 71.818 61.511 71.819 61.513 78.728 56.9 78.727" mask="url(#d)" transform="rotate(171 59.206 75.273)"/></g></g></g></svg>